<svg width="56" height="91" viewBox="0 0 56 91" fill="none" xmlns="http://www.w3.org/2000/svg">
<path d="M34.2963 39.8101V41.2269C34.2963 41.2269 45.0139 47.6575 45.0139 62.6621C45.0139 71.2362 37.7045 77.6668 30.0093 77.6668C17.1482 77.6668 17.1482 64.8056 17.1482 64.8056V58.3751L2.14352 60.5186C2.14352 60.5186 -0.00214192 61.8583 1.60497e-06 64.3877C0.0128627 78.7385 12.8611 90.5 27.8658 90.5C44.746 90.5 55.7122 79.2744 55.7122 65.2258C55.7122 52.4804 46.7245 42.5581 34.2963 39.8101Z" fill="#00ACC1"/>
<path d="M17.1468 58.375V64.8056C17.1468 64.8056 19.2903 73.3796 27.8644 73.3796C42.869 73.3796 40.882 59.1274 40.7255 58.375H38.507C38.2197 61.2773 35.4353 66.9491 27.8644 66.9491C19.8262 66.9491 17.1468 58.375 17.1468 58.375Z" fill="#26C6DA"/>
<path d="M34.2957 41.2269V50.6584C36.7093 52.4525 38.5827 55.3034 38.5827 59.8991C38.5827 64.5377 35.6354 71.2362 27.8651 71.2362C19.291 71.2362 17.1475 64.8057 17.1475 64.8057C17.1475 64.8057 15.004 65.543 15.004 69.8301C15.004 76.7965 20.3628 81.9645 29.4727 81.9645C38.5248 81.9645 49.3003 74.7194 49.3003 62.6621C49.3003 47.6575 34.2957 41.2269 34.2957 41.2269Z" fill="#00838F"/>
<path d="M27.8664 0.5C22.3876 0.5 16.8466 2.24054 12.3323 5.00782C5.4002 9.4492 0.654443 16.7822 0.00710035 25.2277C0.00495683 25.2684 0.00281276 25.3091 0.000669235 25.3498C-0.025053 26.4173 0.693026 27.3669 1.75407 27.5619L17.1488 28.3658C17.1488 24.0787 19.2924 19.7917 25.7229 19.7917C32.1535 19.7917 36.4405 24.0787 36.4405 28.3658C36.4405 30.5093 25.7229 36.9398 15.0053 39.0834V47.6575C15.0053 47.6575 19.2924 51.9445 27.8664 51.9445C43.2569 51.9445 51.7581 37.1178 51.7581 24.8375C51.7581 10.0408 39.6558 0.5 27.8664 0.5Z" fill="#0097A7"/>
<path d="M25.7209 21.9353C34.2949 21.9353 36.4385 28.3658 36.4385 28.3658C36.4385 19.7917 30.3466 17.7468 26.7926 17.6482C23.1894 17.5475 17.1468 19.7917 17.1468 28.3658C17.6655 23.8323 21.4338 21.9353 25.7209 21.9353Z" fill="#006064"/>
<path d="M27.8651 51.9445C40.7262 51.9445 46.7195 45.8547 46.7195 45.8547C46.7195 45.8547 40.9942 49.533 34.5636 49.533C26.7933 49.533 23.578 45.5139 23.578 45.5139C23.578 45.5139 20.6307 46.5857 15.004 47.6574C15.004 47.6574 19.291 51.9445 27.8651 51.9445Z" fill="#00838F"/>
<path d="M27.8656 0.5C22.1231 0.5 16.7901 2.17623 12.3444 5.02497C13.4204 4.4205 17.1159 2.64352 23.5786 2.64352C31.3488 2.64352 45.0138 6.93056 45.0138 22.739C45.0138 39.0834 23.5786 45.5139 23.5786 45.5139C23.5786 45.5139 26.7939 49.533 34.5641 49.533C40.9947 49.533 46.72 45.8548 46.72 45.8548C52.2589 41.5227 55.7314 35.0986 55.7314 27.294C55.7314 12.4951 43.2561 0.5 27.8656 0.5Z" fill="#26C6DA"/>
</svg>
