<svg width="91" height="53" viewBox="0 0 91 53" fill="none" xmlns="http://www.w3.org/2000/svg">
<path d="M45.5 11.0452C21.9256 11.0452 2.5775 29.0977 0.5 52.1302H90.5C88.4225 29.0977 69.0744 11.0452 45.5 11.0452ZM62.7106 35.4033C62.7106 33.3333 64.3888 31.6552 66.4588 31.6552C68.5288 31.6552 70.2069 33.3333 70.2069 35.4033C70.2069 37.4733 68.5288 39.1515 66.4588 39.1515C64.3888 39.1515 62.7106 37.4733 62.7106 35.4033ZM24.5412 39.1515C22.4712 39.1515 20.7931 37.4733 20.7931 35.4033C20.7931 33.3333 22.4712 31.6552 24.5412 31.6552C26.6112 31.6552 28.2894 33.3333 28.2894 35.4033C28.2894 37.4733 26.6112 39.1515 24.5412 39.1515Z" fill="#7CB342"/>
<path d="M64.3233 20.8419C64.0608 20.8419 63.7964 20.7763 63.5545 20.6356C62.8176 20.21 62.5664 19.2688 62.9901 18.5319L72.7345 1.64188C73.1601 0.903126 74.1014 0.650002 74.8383 1.0775C75.5751 1.50313 75.8264 2.44438 75.4026 3.18125L65.6583 20.0713C65.3733 20.5663 64.8558 20.8419 64.3233 20.8419Z" fill="#7CB342"/>
<path d="M26.6808 20.8419C26.1483 20.8419 25.6308 20.5644 25.3458 20.0713L15.6033 3.18125C15.1777 2.44438 15.4308 1.50313 16.1658 1.0775C16.9008 0.650002 17.844 0.903126 18.2696 1.64188L28.014 18.5319C28.4396 19.2706 28.1865 20.2119 27.4496 20.6356C27.2077 20.7763 26.9433 20.8419 26.6808 20.8419Z" fill="#7CB342"/>
</svg>
