<svg width="88" height="91" viewBox="0 0 88 91" fill="none" xmlns="http://www.w3.org/2000/svg">
<path d="M44.2348 0.5C42.746 0.5 41.2573 0.851563 39.9313 1.55469L4.85233 20.0729C2.16771 21.4868 0.5 24.1388 0.5 26.9818V64.0182C0.5 66.8612 2.16771 69.5132 4.85233 70.9271L39.9313 89.4453C41.2573 90.1484 42.746 90.5 44.2348 90.5C45.7235 90.5 47.2123 90.1484 48.5383 89.4453L83.6172 70.9348C86.3018 69.5133 87.9696 66.8612 87.9696 64.0182V26.9818C87.9696 24.1388 86.3018 21.4868 83.6172 20.0729L48.5383 1.55469C47.2123 0.851563 45.7235 0.5 44.2348 0.5ZM44.2348 22.0217C52.1096 22.0217 59.3906 25.4533 64.1091 31.2923L54.9814 36.26C52.2398 33.4399 48.3431 31.8043 44.2348 31.8043C36.1972 31.8043 29.6565 37.9491 29.6565 45.5C29.6565 53.051 36.1972 59.1957 44.2348 59.1957C48.3431 59.1957 52.2398 57.5601 54.9814 54.74L64.1091 59.7077C59.3906 65.5467 52.1096 68.9783 44.2348 68.9783C30.4538 68.9783 19.2435 58.4467 19.2435 45.5C19.2435 32.5533 30.4538 22.0217 44.2348 22.0217ZM65.0609 35.7174H69.2261V39.6304H73.3913V35.7174H77.5565V39.6304H81.7217V43.5435H77.5565V47.4565H81.7217V51.3696H77.5565V55.2826H73.3913V51.3696H69.2261V55.2826H65.0609V51.3696H60.8957V47.4565H65.0609V43.5435H60.8957V39.6304H65.0609V35.7174ZM69.2261 43.5435V47.4565H73.3913V43.5435H69.2261Z" fill="#9655F5"/>
</svg>
