<svg width="86" height="91" viewBox="0 0 86 91" fill="none" xmlns="http://www.w3.org/2000/svg">
<path d="M7.5632 12.3421H55.4632V26.5526H7.5632V12.3421ZM5.04214 90.5H80.6737V85.7632C80.6737 83.1579 78.4048 81.0263 75.6316 81.0263H10.0842C7.31109 81.0263 5.04214 83.1579 5.04214 85.7632V90.5Z" fill="#455A64"/>
<path d="M70.0853 27.5L57.48 19.4474L70.0853 11.3947L80.6737 17.5526L85.7158 9.97368L69.8332 0.5L40.589 19.4474L69.8332 38.3947L85.7158 28.9211L80.6737 21.3421L70.0853 27.5ZM22.6895 14.7105H5.04214L27.7316 81.0263H45.379L22.6895 14.7105Z" fill="#455A64"/>
<path d="M39.3284 61.8421C38.32 60.421 36.8074 59.7105 35.0426 59.7105H30.2526C28.4879 59.7105 26.9753 60.421 25.9668 61.8421L12.6053 81.0263H52.9421L39.3284 61.8421ZM32.7737 73.921C30.0005 73.921 27.7316 71.7895 27.7316 69.1842C27.7316 66.5789 30.0005 64.4473 32.7737 64.4473C35.5468 64.4473 37.8158 66.5789 37.8158 69.1842C37.8158 71.7895 35.5468 73.921 32.7737 73.921ZM15.1263 5.23682C6.80684 5.23682 0 11.6316 0 19.4473C0 27.2631 6.80684 33.6579 15.1263 33.6579C23.4458 33.6579 30.2526 27.2631 30.2526 19.4473C30.2526 11.6316 23.4458 5.23682 15.1263 5.23682ZM15.1263 24.1842C12.3532 24.1842 10.0842 22.0526 10.0842 19.4473C10.0842 16.8421 12.3532 14.7105 15.1263 14.7105C17.8995 14.7105 20.1684 16.8421 20.1684 19.4473C20.1684 22.0526 17.8995 24.1842 15.1263 24.1842ZM57.9842 31.2894H50.4211C47.6479 31.2894 45.379 29.1579 45.379 26.5526V12.3421C45.379 9.73682 47.6479 7.60524 50.4211 7.60524H57.9842V31.2894Z" fill="#FFC107"/>
</svg>
