<svg width="30" height="29" viewBox="0 0 30 29" fill="none" xmlns="http://www.w3.org/2000/svg"><path d="M2.763 0A2.782 2.782 0 0 0 0 2.763v13.421a2.782 2.782 0 0 0 2.763 2.763h24.474A2.782 2.782 0 0 0 30 16.184V2.764A2.782 2.782 0 0 0 27.237 0H2.763zm1.974 2.368h20.526a2.365 2.365 0 0 0 2.369 2.369v9.473a2.365 2.365 0 0 0-2.369 2.369H4.737a2.365 2.365 0 0 0-2.369-2.369V4.737a2.365 2.365 0 0 0 2.369-2.369zM15 3.948c-2.612 0-4.737 2.478-4.737 5.526C10.263 12.52 12.388 15 15 15s4.737-2.479 4.737-5.526c0-3.048-2.125-5.527-4.737-5.527zM5.526 7.894a1.579 1.579 0 1 0 0 3.158 1.579 1.579 0 0 0 0-3.158zm18.948 0a1.579 1.579 0 1 0 0 3.158 1.579 1.579 0 0 0 0-3.158zm-22.07 12.63a2.723 2.723 0 0 0 2.615 2.368c8.585.297 14.94 3.157 18.355 4.694.608.274 1.131.508 1.564.684a1.951 1.951 0 0 0 2.694-1.813v-5.932h-2.369v3.158c-.896 0-1.665.5-2.068 1.232-3.75-1.655-9.924-4.107-18.094-4.39l-.003-.001H2.404z" fill="#268E6C"/></svg>