<svg width="30" height="30" viewBox="0 0 30 30" fill="none" xmlns="http://www.w3.org/2000/svg"><path d="M25.417 0H4.583A4.59 4.59 0 0 0 0 4.583v20.834A4.59 4.59 0 0 0 4.583 30h20.834A4.59 4.59 0 0 0 30 25.417V4.583A4.59 4.59 0 0 0 25.417 0zM7.083 22.917a1.667 1.667 0 1 1 0-3.334 1.667 1.667 0 0 1 0 3.334zm0-5.834a1.667 1.667 0 1 1 0-3.333 1.667 1.667 0 0 1 0 3.333zm0-5.833a1.667 1.667 0 1 1 0-3.334 1.667 1.667 0 0 1 0 3.334zM23.75 22.5H12.083a1.25 1.25 0 0 1 0-2.5H23.75a1.25 1.25 0 0 1 0 2.5zm0-5.833H12.083a1.25 1.25 0 0 1 0-2.5H23.75a1.25 1.25 0 0 1 0 2.5zm0-5.834H12.083a1.25 1.25 0 0 1 0-2.5H23.75a1.25 1.25 0 0 1 0 2.5z" fill="#007AA9"/></svg>