<svg width="25" height="26" viewBox="0 0 25 26" fill="none" xmlns="http://www.w3.org/2000/svg">
<path d="M12.8434 7.7819C12.6363 7.78195 12.4338 7.84381 12.262 7.95957C12.0901 8.07533 11.9568 8.23973 11.8789 8.43172C11.801 8.62371 11.7822 8.83457 11.8248 9.03732C11.8675 9.24007 11.9696 9.42549 12.1182 9.56985L14.504 11.9556L1.05705 11.9434C0.919106 11.9413 0.782115 11.9666 0.65404 12.0179C0.525963 12.0691 0.409356 12.1454 0.310993 12.2421C0.21263 12.3388 0.134473 12.4542 0.0810637 12.5814C0.0276546 12.7086 5.84456e-05 12.8451 -0.000121188 12.9831C-0.000300821 13.121 0.0269396 13.2577 0.0800173 13.385C0.133095 13.5123 0.210951 13.6279 0.309062 13.7248C0.407173 13.8218 0.523582 13.8984 0.651524 13.95C0.779466 14.0016 0.91639 14.0273 1.05434 14.0255L14.5067 14.0377L12.1182 16.4262C12.0183 16.5221 11.9385 16.637 11.8836 16.7641C11.8286 16.8913 11.7996 17.0281 11.7982 17.1666C11.7968 17.3051 11.823 17.4425 11.8754 17.5707C11.9278 17.6989 12.0052 17.8154 12.1031 17.9134C12.201 18.0113 12.3175 18.0887 12.4458 18.1411C12.574 18.1934 12.7114 18.2197 12.8499 18.2183C12.9884 18.2169 13.1252 18.1878 13.2524 18.1329C13.3795 18.0779 13.4944 17.9982 13.5903 17.8983L17.7545 13.7341C17.9497 13.5388 18.0593 13.2741 18.0593 12.998C18.0593 12.7219 17.9497 12.4572 17.7545 12.2619L13.5903 8.09774C13.4933 7.99781 13.3772 7.91837 13.2489 7.86411C13.1206 7.80986 12.9827 7.78191 12.8434 7.7819Z" fill="black"/>
<path d="M8.69022 0.5C6.59439 0.5 4.87303 2.22136 4.87303 4.31719V8.48139C4.87108 8.61935 4.89657 8.75631 4.94801 8.88433C4.99945 9.01234 5.07582 9.12886 5.17269 9.2271C5.26955 9.32535 5.38497 9.40336 5.51225 9.4566C5.63953 9.50985 5.77612 9.53727 5.91408 9.53727C6.05205 9.53727 6.18864 9.50985 6.31591 9.4566C6.44319 9.40336 6.55861 9.32535 6.65548 9.2271C6.75234 9.12886 6.82871 9.01234 6.88016 8.88433C6.9316 8.75631 6.95708 8.61935 6.95513 8.48139V4.31719C6.95513 3.34677 7.7198 2.5821 8.69022 2.5821H21.1828C22.1533 2.5821 22.9179 3.34677 22.9179 4.31719V21.6828C22.9179 22.6532 22.1533 23.4179 21.1828 23.4179H8.69022C7.7198 23.4179 6.95513 22.6532 6.95513 21.6828V17.5322C6.95708 17.3942 6.9316 17.2572 6.88016 17.1292C6.82871 17.0012 6.75234 16.8847 6.65548 16.7865C6.55861 16.6882 6.44319 16.6102 6.31591 16.5569C6.18864 16.5037 6.05205 16.4763 5.91408 16.4763C5.77612 16.4763 5.63953 16.5037 5.51225 16.5569C5.38497 16.6102 5.26955 16.6882 5.17269 16.7865C5.07582 16.8847 4.99945 17.0012 4.94801 17.1292C4.89657 17.2572 4.87108 17.3942 4.87303 17.5322V21.6828C4.87303 23.7786 6.59439 25.5 8.69022 25.5H21.1828C23.2787 25.5 25 23.7786 25 21.6828V4.31719C25 2.22136 23.2787 0.5 21.1828 0.5H8.69022Z" fill="black"/>
</svg>
