<svg width="917" height="453" viewBox="0 0 917 453" fill="none" xmlns="http://www.w3.org/2000/svg">
<path d="M38.0458 68.96C37.6191 68.96 37.2351 68.8107 36.8938 68.512C36.5951 68.2133 36.4458 67.8293 36.4458 67.36V60H6.17375C5.70442 60 5.32042 59.8507 5.02175 59.552C4.72308 59.2107 4.57375 58.8053 4.57375 58.336V16.8C4.57375 16.3307 4.72308 15.9467 5.02175 15.648C5.32042 15.3493 5.70442 15.2 6.17375 15.2H14.4298C14.8991 15.2 15.2831 15.3493 15.5818 15.648C15.9231 15.9467 16.0938 16.3307 16.0938 16.8V49.76H31.8378V16.8C31.8378 16.3307 31.9871 15.9467 32.2858 15.648C32.5844 15.3493 32.9684 15.2 33.4378 15.2H41.6938C42.1631 15.2 42.5471 15.3493 42.8458 15.648C43.1444 15.9467 43.2938 16.3307 43.2938 16.8V49.76H46.3018C46.7711 49.76 47.1551 49.9093 47.4538 50.208C47.7951 50.5067 47.9658 50.8907 47.9658 51.36V67.36C47.9658 67.8293 47.7951 68.2133 47.4538 68.512C47.1551 68.8107 46.7711 68.96 46.3018 68.96H38.0458ZM239.301 68.96C238.832 68.96 238.427 68.8107 238.085 68.512C237.787 68.2133 237.637 67.8293 237.637 67.36V51.36C237.637 50.8907 237.787 50.5067 238.085 50.208C238.427 49.9093 238.832 49.76 239.301 49.76H240.453C242.373 49.76 243.739 48.0107 244.549 44.512C245.403 41.0133 245.829 36.1067 245.829 29.792V16.8C245.829 16.3307 245.979 15.9467 246.277 15.648C246.619 15.3493 247.003 15.2 247.429 15.2H277.509C277.979 15.2 278.363 15.3493 278.661 15.648C278.96 15.9467 279.109 16.3307 279.109 16.8V49.76H282.117C282.587 49.76 282.971 49.9093 283.269 50.208C283.611 50.5067 283.781 50.8907 283.781 51.36V67.36C283.781 67.8293 283.611 68.2133 283.269 68.512C282.971 68.8107 282.587 68.96 282.117 68.96H273.861C273.435 68.96 273.051 68.8107 272.709 68.512C272.411 68.2133 272.261 67.8293 272.261 67.36V60H249.157V67.36C249.157 67.8293 249.008 68.2133 248.709 68.512C248.411 68.8107 248.027 68.96 247.557 68.96H239.301ZM267.653 49.76V25.44H256.965V31.264C256.965 39.9253 255.984 46.0907 254.021 49.76H267.653ZM114.19 136.64C108.174 136.64 103.438 135.168 99.9823 132.224C96.5263 129.28 94.6916 124.949 94.4783 119.232C94.4356 117.995 94.4143 116.16 94.4143 113.728C94.4143 111.253 94.4356 109.397 94.4783 108.16C94.6916 102.528 96.5476 98.1973 100.046 95.168C103.588 92.096 108.302 90.56 114.19 90.56C120.078 90.56 124.793 92.096 128.334 95.168C131.876 98.1973 133.732 102.528 133.902 108.16C133.988 110.635 134.03 112.491 134.03 113.728C134.03 114.923 133.988 116.757 133.902 119.232C133.689 124.949 131.854 129.28 128.398 132.224C124.942 135.168 120.206 136.64 114.19 136.64ZM114.19 127.424C116.537 127.424 118.393 126.72 119.758 125.312C121.166 123.904 121.913 121.749 121.998 118.848C122.084 116.373 122.126 114.624 122.126 113.6C122.126 112.491 122.084 110.741 121.998 108.352C121.913 105.451 121.166 103.296 119.758 101.888C118.35 100.48 116.494 99.776 114.19 99.776C111.886 99.776 110.03 100.48 108.622 101.888C107.257 103.296 106.51 105.451 106.382 108.352C106.34 109.547 106.318 111.296 106.318 113.6C106.318 115.861 106.34 117.611 106.382 118.848C106.51 121.749 107.257 123.904 108.622 125.312C109.988 126.72 111.844 127.424 114.19 127.424ZM607.114 144.96C606.644 144.96 606.239 144.811 605.898 144.512C605.599 144.213 605.45 143.829 605.45 143.36V127.36C605.45 126.891 605.599 126.507 605.898 126.208C606.239 125.909 606.644 125.76 607.114 125.76H608.266C610.186 125.76 611.551 124.011 612.362 120.512C613.215 117.013 613.642 112.107 613.642 105.792V92.8C613.642 92.3307 613.791 91.9467 614.09 91.648C614.431 91.3493 614.815 91.2 615.242 91.2H645.322C645.791 91.2 646.175 91.3493 646.474 91.648C646.772 91.9467 646.922 92.3307 646.922 92.8V125.76H649.93C650.399 125.76 650.783 125.909 651.082 126.208C651.423 126.507 651.594 126.891 651.594 127.36V143.36C651.594 143.829 651.423 144.213 651.082 144.512C650.783 144.811 650.399 144.96 649.93 144.96H641.674C641.247 144.96 640.863 144.811 640.522 144.512C640.223 144.213 640.074 143.829 640.074 143.36V136H616.97V143.36C616.97 143.829 616.82 144.213 616.522 144.512C616.223 144.811 615.839 144.96 615.37 144.96H607.114ZM635.466 125.76V101.44H624.778V107.264C624.778 115.925 623.796 122.091 621.834 125.76H635.466Z" fill="#007AA9"/>
<path d="M56.1113 60C55.6846 60 55.3006 59.8507 54.9593 59.552C54.6606 59.2107 54.5113 58.8267 54.5113 58.4V16.8C54.5113 16.3307 54.6606 15.9467 54.9593 15.648C55.3006 15.3493 55.6846 15.2 56.1113 15.2H85.9993C86.4686 15.2 86.8526 15.3493 87.1513 15.648C87.4499 15.9467 87.5993 16.3307 87.5993 16.8V22.816C87.5993 23.2427 87.4499 23.6267 87.1513 23.968C86.8526 24.2667 86.4686 24.416 85.9993 24.416H65.5833V33.056H84.5913C85.0606 33.056 85.4446 33.2267 85.7433 33.568C86.0419 33.8667 86.1912 34.2507 86.1912 34.72V40.288C86.1912 40.7147 86.0419 41.0987 85.7433 41.44C85.4446 41.7387 85.0606 41.888 84.5913 41.888H65.5833V50.784H86.5113C86.9806 50.784 87.3646 50.9333 87.6632 51.232C87.9619 51.5307 88.1113 51.9147 88.1113 52.384V58.4C88.1113 58.8267 87.9619 59.2107 87.6632 59.552C87.3646 59.8507 86.9806 60 86.5113 60H56.1113ZM96.9863 60C96.5169 60 96.1329 59.8507 95.8343 59.552C95.5356 59.2533 95.3863 58.8693 95.3863 58.4V16.8C95.3863 16.3307 95.5356 15.9467 95.8343 15.648C96.1756 15.3493 96.5596 15.2 96.9863 15.2H105.242C105.712 15.2 106.096 15.3493 106.394 15.648C106.736 15.9467 106.906 16.3307 106.906 16.8V32.224H122.65V16.8C122.65 16.3307 122.8 15.9467 123.098 15.648C123.397 15.3493 123.781 15.2 124.25 15.2H132.506C132.976 15.2 133.36 15.3493 133.658 15.648C133.957 15.9467 134.106 16.3307 134.106 16.8V58.4C134.106 58.8693 133.957 59.2533 133.658 59.552C133.36 59.8507 132.976 60 132.506 60H124.25C123.781 60 123.397 59.8507 123.098 59.552C122.8 59.2533 122.65 58.8693 122.65 58.4V42.464H106.906V58.4C106.906 58.8693 106.736 59.2533 106.394 59.552C106.096 59.8507 105.712 60 105.242 60H96.9863ZM154.53 60C154.103 60 153.719 59.8507 153.378 59.552C153.079 59.2107 152.93 58.8267 152.93 58.4V25.248H141.538C141.111 25.248 140.727 25.0987 140.386 24.8C140.087 24.4587 139.938 24.0747 139.938 23.648V16.8C139.938 16.3307 140.087 15.9467 140.386 15.648C140.727 15.3493 141.111 15.2 141.538 15.2H175.97C176.439 15.2 176.823 15.3493 177.122 15.648C177.42 15.9467 177.57 16.3307 177.57 16.8V23.648C177.57 24.1173 177.42 24.5013 177.122 24.8C176.823 25.0987 176.439 25.248 175.97 25.248H164.578V58.4C164.578 58.8267 164.428 59.2107 164.13 59.552C163.831 59.8507 163.447 60 162.978 60H154.53ZM184.986 60C184.56 60 184.176 59.8507 183.834 59.552C183.536 59.2107 183.386 58.8267 183.386 58.4V16.8C183.386 16.3307 183.536 15.9467 183.834 15.648C184.176 15.3493 184.56 15.2 184.986 15.2H202.906C208.368 15.2 212.656 16.4587 215.77 18.976C218.928 21.4933 220.506 25.1627 220.506 29.984C220.506 34.7627 218.949 38.368 215.834 40.8C212.72 43.1893 208.41 44.384 202.906 44.384H195.29V58.4C195.29 58.8693 195.12 59.2533 194.778 59.552C194.48 59.8507 194.096 60 193.626 60H184.986ZM202.586 35.552C204.464 35.552 205.936 35.0827 207.002 34.144C208.069 33.1627 208.602 31.7333 208.602 29.856C208.602 28.1067 208.09 26.72 207.066 25.696C206.085 24.6293 204.592 24.096 202.586 24.096H195.098V35.552H202.586ZM308.628 60.64C302.612 60.64 297.876 59.168 294.42 56.224C290.964 53.28 289.129 48.9493 288.916 43.232C288.873 41.9947 288.852 40.16 288.852 37.728C288.852 35.2533 288.873 33.3973 288.916 32.16C289.129 26.528 290.985 22.1973 294.484 19.168C298.025 16.096 302.74 14.56 308.628 14.56C314.516 14.56 319.23 16.096 322.772 19.168C326.313 22.1973 328.169 26.528 328.34 32.16C328.425 34.6347 328.468 36.4907 328.468 37.728C328.468 38.9227 328.425 40.7573 328.34 43.232C328.126 48.9493 326.292 53.28 322.836 56.224C319.38 59.168 314.644 60.64 308.628 60.64ZM308.628 51.424C310.974 51.424 312.83 50.72 314.196 49.312C315.604 47.904 316.35 45.7493 316.436 42.848C316.521 40.3733 316.564 38.624 316.564 37.6C316.564 36.4907 316.521 34.7413 316.436 32.352C316.35 29.4507 315.604 27.296 314.196 25.888C312.788 24.48 310.932 23.776 308.628 23.776C306.324 23.776 304.468 24.48 303.06 25.888C301.694 27.296 300.948 29.4507 300.82 32.352C300.777 33.5467 300.756 35.296 300.756 37.6C300.756 39.8613 300.777 41.6107 300.82 42.848C300.948 45.7493 301.694 47.904 303.06 49.312C304.425 50.72 306.281 51.424 308.628 51.424ZM337.486 60C337.017 60 336.633 59.8507 336.334 59.552C336.036 59.2533 335.886 58.8693 335.886 58.4V16.8C335.886 16.3307 336.036 15.9467 336.334 15.648C336.676 15.3493 337.06 15.2 337.486 15.2H373.006C373.476 15.2 373.86 15.3493 374.158 15.648C374.457 15.9467 374.606 16.3307 374.606 16.8V58.4C374.606 58.8693 374.457 59.2533 374.158 59.552C373.86 59.8507 373.476 60 373.006 60H364.75C364.281 60 363.897 59.8507 363.598 59.552C363.3 59.2533 363.15 58.8693 363.15 58.4V25.44H347.406V58.4C347.406 58.8693 347.236 59.2533 346.894 59.552C346.596 59.8507 346.212 60 345.742 60H337.486ZM401.878 60.64C395.862 60.64 391.126 59.168 387.67 56.224C384.214 53.28 382.379 48.9493 382.166 43.232C382.123 41.9947 382.102 40.16 382.102 37.728C382.102 35.2533 382.123 33.3973 382.166 32.16C382.379 26.528 384.235 22.1973 387.734 19.168C391.275 16.096 395.99 14.56 401.878 14.56C407.766 14.56 412.48 16.096 416.022 19.168C419.563 22.1973 421.419 26.528 421.59 32.16C421.675 34.6347 421.718 36.4907 421.718 37.728C421.718 38.9227 421.675 40.7573 421.59 43.232C421.376 48.9493 419.542 53.28 416.086 56.224C412.63 59.168 407.894 60.64 401.878 60.64ZM401.878 51.424C404.224 51.424 406.08 50.72 407.446 49.312C408.854 47.904 409.6 45.7493 409.686 42.848C409.771 40.3733 409.814 38.624 409.814 37.6C409.814 36.4907 409.771 34.7413 409.686 32.352C409.6 29.4507 408.854 27.296 407.446 25.888C406.038 24.48 404.182 23.776 401.878 23.776C399.574 23.776 397.718 24.48 396.31 25.888C394.944 27.296 394.198 29.4507 394.07 32.352C394.027 33.5467 394.006 35.296 394.006 37.6C394.006 39.8613 394.027 41.6107 394.07 42.848C394.198 45.7493 394.944 47.904 396.31 49.312C397.675 50.72 399.531 51.424 401.878 51.424ZM458.59 60C458.163 60 457.779 59.8507 457.438 59.552C457.139 59.2107 456.99 58.8267 456.99 58.4V25.44H445.086V31.264C445.086 38.4747 444.616 44.1067 443.678 48.16C442.739 52.1707 441.011 55.136 438.494 57.056C436.019 58.9333 432.414 59.9147 427.678 60C427.208 60 426.803 59.8507 426.462 59.552C426.12 59.2107 425.95 58.8053 425.95 58.336V51.616C425.95 50.72 426.483 50.1653 427.55 49.952C429.854 49.568 431.496 47.6907 432.478 44.32C433.459 40.9067 433.95 36.064 433.95 29.792V16.8C433.95 16.3307 434.099 15.9467 434.398 15.648C434.739 15.3493 435.144 15.2 435.614 15.2H466.846C467.315 15.2 467.699 15.3493 467.998 15.648C468.339 15.9467 468.51 16.3307 468.51 16.8V58.4C468.51 58.8693 468.339 59.2533 467.998 59.552C467.699 59.8507 467.315 60 466.846 60H458.59ZM478.986 60C478.517 60 478.133 59.8507 477.834 59.552C477.536 59.2533 477.386 58.8693 477.386 58.4V16.8C477.386 16.3307 477.536 15.9467 477.834 15.648C478.176 15.3493 478.56 15.2 478.986 15.2H487.242C487.712 15.2 488.096 15.3493 488.394 15.648C488.736 15.9467 488.906 16.3307 488.906 16.8V32.224H504.65V16.8C504.65 16.3307 504.8 15.9467 505.098 15.648C505.397 15.3493 505.781 15.2 506.25 15.2H514.506C514.976 15.2 515.36 15.3493 515.658 15.648C515.957 15.9467 516.106 16.3307 516.106 16.8V58.4C516.106 58.8693 515.957 59.2533 515.658 59.552C515.36 59.8507 514.976 60 514.506 60H506.25C505.781 60 505.397 59.8507 505.098 59.552C504.8 59.2533 504.65 58.8693 504.65 58.4V42.464H488.906V58.4C488.906 58.8693 488.736 59.2533 488.394 59.552C488.096 59.8507 487.712 60 487.242 60H478.986ZM526.674 60C526.204 60 525.82 59.8507 525.522 59.552C525.223 59.2107 525.074 58.8053 525.074 58.336V16.8C525.074 16.3307 525.223 15.9467 525.522 15.648C525.863 15.3493 526.247 15.2 526.674 15.2H534.93C535.399 15.2 535.783 15.3493 536.082 15.648C536.423 15.9467 536.594 16.3307 536.594 16.8V42.528L554.77 16.416C555.282 15.6053 556.007 15.2 556.946 15.2H564.37C564.839 15.2 565.223 15.3493 565.522 15.648C565.82 15.9467 565.97 16.3307 565.97 16.8V58.4C565.97 58.8267 565.82 59.2107 565.522 59.552C565.223 59.8507 564.839 60 564.37 60H556.114C555.644 60 555.239 59.8507 554.898 59.552C554.599 59.2533 554.45 58.8693 554.45 58.4V33.568L536.274 58.784C535.719 59.5947 534.994 60 534.098 60H526.674ZM586.405 60C585.978 60 585.594 59.8507 585.253 59.552C584.954 59.2107 584.805 58.8267 584.805 58.4V25.248H573.413C572.986 25.248 572.602 25.0987 572.261 24.8C571.962 24.4587 571.813 24.0747 571.813 23.648V16.8C571.813 16.3307 571.962 15.9467 572.261 15.648C572.602 15.3493 572.986 15.2 573.413 15.2H607.845C608.314 15.2 608.698 15.3493 608.997 15.648C609.295 15.9467 609.445 16.3307 609.445 16.8V23.648C609.445 24.1173 609.295 24.5013 608.997 24.8C608.698 25.0987 608.314 25.248 607.845 25.248H596.453V58.4C596.453 58.8267 596.303 59.2107 596.005 59.552C595.706 59.8507 595.322 60 594.853 60H586.405ZM616.861 60C616.435 60 616.051 59.8507 615.709 59.552C615.411 59.2107 615.261 58.8267 615.261 58.4V16.8C615.261 16.3307 615.411 15.9467 615.709 15.648C616.051 15.3493 616.435 15.2 616.861 15.2H646.749C647.219 15.2 647.603 15.3493 647.901 15.648C648.2 15.9467 648.349 16.3307 648.349 16.8V22.816C648.349 23.2427 648.2 23.6267 647.901 23.968C647.603 24.2667 647.219 24.416 646.749 24.416H626.333V33.056H645.341C645.811 33.056 646.195 33.2267 646.493 33.568C646.792 33.8667 646.941 34.2507 646.941 34.72V40.288C646.941 40.7147 646.792 41.0987 646.493 41.44C646.195 41.7387 645.811 41.888 645.341 41.888H626.333V50.784H647.261C647.731 50.784 648.115 50.9333 648.413 51.232C648.712 51.5307 648.861 51.9147 648.861 52.384V58.4C648.861 58.8267 648.712 59.2107 648.413 59.552C648.115 59.8507 647.731 60 647.261 60H616.861ZM686.152 60C685.726 60 685.342 59.8507 685 59.552C684.702 59.2107 684.552 58.8267 684.552 58.4V25.44H672.648V31.264C672.648 38.4747 672.179 44.1067 671.24 48.16C670.302 52.1707 668.574 55.136 666.056 57.056C663.582 58.9333 659.976 59.9147 655.24 60C654.771 60 654.366 59.8507 654.024 59.552C653.683 59.2107 653.512 58.8053 653.512 58.336V51.616C653.512 50.72 654.046 50.1653 655.112 49.952C657.416 49.568 659.059 47.6907 660.04 44.32C661.022 40.9067 661.512 36.064 661.512 29.792V16.8C661.512 16.3307 661.662 15.9467 661.96 15.648C662.302 15.3493 662.707 15.2 663.176 15.2H694.408C694.878 15.2 695.262 15.3493 695.56 15.648C695.902 15.9467 696.072 16.3307 696.072 16.8V58.4C696.072 58.8693 695.902 59.2533 695.56 59.552C695.262 59.8507 694.878 60 694.408 60H686.152ZM706.549 60C706.122 60 705.738 59.8507 705.397 59.552C705.098 59.2107 704.949 58.8267 704.949 58.4V16.8C704.949 16.3307 705.098 15.9467 705.397 15.648C705.738 15.3493 706.122 15.2 706.549 15.2H714.805C715.274 15.2 715.658 15.3493 715.957 15.648C716.298 15.9467 716.469 16.3307 716.469 16.8V30.56H723.189C728.735 30.56 733.002 31.7973 735.989 34.272C738.975 36.704 740.469 40.3093 740.469 45.088C740.469 49.6107 738.954 53.2373 735.925 55.968C732.938 58.656 728.693 60 723.189 60H706.549ZM722.933 51.104C724.725 51.104 726.111 50.5493 727.093 49.44C728.074 48.3307 728.565 46.88 728.565 45.088C728.565 43.2107 728.074 41.8027 727.093 40.864C726.111 39.8827 724.725 39.392 722.933 39.392H716.469V51.104H722.933ZM748.674 60C748.204 60 747.82 59.8507 747.522 59.552C747.223 59.2533 747.074 58.8693 747.074 58.4V16.8C747.074 16.3307 747.223 15.9467 747.522 15.648C747.863 15.3493 748.247 15.2 748.674 15.2H756.93C757.399 15.2 757.783 15.3493 758.082 15.648C758.423 15.9467 758.594 16.3307 758.594 16.8V32.224H774.338V16.8C774.338 16.3307 774.487 15.9467 774.786 15.648C775.084 15.3493 775.468 15.2 775.938 15.2H784.194C784.663 15.2 785.047 15.3493 785.346 15.648C785.644 15.9467 785.794 16.3307 785.794 16.8V58.4C785.794 58.8693 785.644 59.2533 785.346 59.552C785.047 59.8507 784.663 60 784.194 60H775.938C775.468 60 775.084 59.8507 774.786 59.552C774.487 59.2533 774.338 58.8693 774.338 58.4V42.464H758.594V58.4C758.594 58.8693 758.423 59.2533 758.082 59.552C757.783 59.8507 757.399 60 756.93 60H748.674ZM813.065 60.64C807.049 60.64 802.313 59.168 798.857 56.224C795.401 53.28 793.567 48.9493 793.353 43.232C793.311 41.9947 793.289 40.16 793.289 37.728C793.289 35.2533 793.311 33.3973 793.353 32.16C793.567 26.528 795.423 22.1973 798.921 19.168C802.463 16.096 807.177 14.56 813.065 14.56C818.953 14.56 823.668 16.096 827.209 19.168C830.751 22.1973 832.607 26.528 832.777 32.16C832.863 34.6347 832.905 36.4907 832.905 37.728C832.905 38.9227 832.863 40.7573 832.777 43.232C832.564 48.9493 830.729 53.28 827.273 56.224C823.817 59.168 819.081 60.64 813.065 60.64ZM813.065 51.424C815.412 51.424 817.268 50.72 818.633 49.312C820.041 47.904 820.788 45.7493 820.873 42.848C820.959 40.3733 821.001 38.624 821.001 37.6C821.001 36.4907 820.959 34.7413 820.873 32.352C820.788 29.4507 820.041 27.296 818.633 25.888C817.225 24.48 815.369 23.776 813.065 23.776C810.761 23.776 808.905 24.48 807.497 25.888C806.132 27.296 805.385 29.4507 805.257 32.352C805.215 33.5467 805.193 35.296 805.193 37.6C805.193 39.8613 805.215 41.6107 805.257 42.848C805.385 45.7493 806.132 47.904 807.497 49.312C808.863 50.72 810.719 51.424 813.065 51.424ZM841.924 60C841.497 60 841.113 59.8507 840.772 59.552C840.473 59.2107 840.324 58.8267 840.324 58.4V16.8C840.324 16.3307 840.473 15.9467 840.772 15.648C841.113 15.3493 841.497 15.2 841.924 15.2H869.508C869.977 15.2 870.361 15.3493 870.66 15.648C870.958 15.9467 871.108 16.3307 871.108 16.8V23.2C871.108 23.6693 870.958 24.0747 870.66 24.416C870.361 24.7147 869.977 24.864 869.508 24.864H851.844V58.4C851.844 58.8693 851.673 59.2533 851.332 59.552C851.033 59.8507 850.649 60 850.18 60H841.924ZM894.128 60.64C888.112 60.64 883.376 59.168 879.92 56.224C876.464 53.28 874.629 48.9493 874.416 43.232C874.373 41.9947 874.352 40.16 874.352 37.728C874.352 35.2533 874.373 33.3973 874.416 32.16C874.629 26.528 876.485 22.1973 879.984 19.168C883.525 16.096 888.24 14.56 894.128 14.56C900.016 14.56 904.73 16.096 908.272 19.168C911.813 22.1973 913.669 26.528 913.84 32.16C913.925 34.6347 913.968 36.4907 913.968 37.728C913.968 38.9227 913.925 40.7573 913.84 43.232C913.626 48.9493 911.792 53.28 908.336 56.224C904.88 59.168 900.144 60.64 894.128 60.64ZM894.128 51.424C896.474 51.424 898.33 50.72 899.696 49.312C901.104 47.904 901.85 45.7493 901.936 42.848C902.021 40.3733 902.064 38.624 902.064 37.6C902.064 36.4907 902.021 34.7413 901.936 32.352C901.85 29.4507 901.104 27.296 899.696 25.888C898.288 24.48 896.432 23.776 894.128 23.776C891.824 23.776 889.968 24.48 888.56 25.888C887.194 27.296 886.448 29.4507 886.32 32.352C886.277 33.5467 886.256 35.296 886.256 37.6C886.256 39.8613 886.277 41.6107 886.32 42.848C886.448 45.7493 887.194 47.904 888.56 49.312C889.925 50.72 891.781 51.424 894.128 51.424ZM143.049 136C142.622 136 142.238 135.851 141.897 135.552C141.598 135.211 141.449 134.827 141.449 134.4V92.8C141.449 92.3307 141.598 91.9467 141.897 91.648C142.238 91.3493 142.622 91.2 143.049 91.2H173.769C174.238 91.2 174.622 91.3493 174.921 91.648C175.219 91.9467 175.369 92.3307 175.369 92.8V99.2C175.369 99.6693 175.219 100.075 174.921 100.416C174.622 100.715 174.238 100.864 173.769 100.864H152.969V108.416H161.865C166.985 108.416 171.017 109.632 173.961 112.064C176.905 114.496 178.377 117.824 178.377 122.048C178.377 124.693 177.737 127.083 176.457 129.216C175.177 131.307 173.299 132.971 170.825 134.208C168.35 135.403 165.363 136 161.865 136H143.049ZM160.841 127.68C162.59 127.68 163.955 127.125 164.937 126.016C165.961 124.907 166.473 123.563 166.473 121.984C166.473 120.405 165.982 119.104 165.001 118.08C164.019 117.056 162.633 116.544 160.841 116.544H152.969V127.68H160.841ZM185.111 136C184.685 136 184.301 135.851 183.959 135.552C183.661 135.211 183.511 134.827 183.511 134.4V92.8C183.511 92.3307 183.661 91.9467 183.959 91.648C184.301 91.3493 184.685 91.2 185.111 91.2H203.031C208.493 91.2 212.781 92.4587 215.895 94.976C219.053 97.4933 220.631 101.163 220.631 105.984C220.631 110.763 219.074 114.368 215.959 116.8C212.845 119.189 208.535 120.384 203.031 120.384H195.415V134.4C195.415 134.869 195.245 135.253 194.903 135.552C194.605 135.851 194.221 136 193.751 136H185.111ZM202.711 111.552C204.589 111.552 206.061 111.083 207.127 110.144C208.194 109.163 208.727 107.733 208.727 105.856C208.727 104.107 208.215 102.72 207.191 101.696C206.21 100.629 204.717 100.096 202.711 100.096H195.223V111.552H202.711ZM224.201 136C223.86 136 223.54 135.872 223.241 135.616C222.985 135.317 222.857 134.997 222.857 134.656C222.857 134.4 222.879 134.208 222.921 134.08L237.961 92.992C238.089 92.48 238.367 92.0533 238.793 91.712C239.22 91.3707 239.775 91.2 240.457 91.2H249.929C250.612 91.2 251.167 91.3707 251.593 91.712C252.02 92.0533 252.297 92.48 252.425 92.992L267.401 134.08L267.529 134.656C267.529 134.997 267.38 135.317 267.081 135.616C266.825 135.872 266.505 136 266.121 136H258.249C257.225 136 256.543 135.552 256.201 134.656L253.705 128.128H236.617L234.185 134.656C233.844 135.552 233.14 136 232.073 136H224.201ZM251.145 118.912L245.193 102.016L239.241 118.912H251.145ZM289.342 136.64C285.203 136.64 281.747 136.064 278.974 134.912C276.243 133.717 274.195 132.181 272.83 130.304C271.464 128.427 270.675 126.4 270.462 124.224V124.096C270.462 123.755 270.59 123.477 270.846 123.264C271.144 123.051 271.486 122.944 271.87 122.944H280.062C280.958 122.944 281.619 123.328 282.046 124.096C283.112 126.357 285.459 127.488 289.086 127.488C291.39 127.488 293.203 127.061 294.526 126.208C295.891 125.312 296.574 124.075 296.574 122.496C296.574 120.875 295.955 119.637 294.718 118.784C293.48 117.931 291.752 117.504 289.534 117.504H284.798C284.371 117.504 283.987 117.355 283.646 117.056C283.347 116.715 283.198 116.309 283.198 115.84V110.656C283.198 110.187 283.347 109.803 283.646 109.504C283.987 109.163 284.371 108.992 284.798 108.992H289.406C291.24 108.992 292.691 108.608 293.758 107.84C294.824 107.072 295.358 105.92 295.358 104.384C295.358 103.019 294.803 101.909 293.694 101.056C292.627 100.203 291.112 99.776 289.15 99.776C287.272 99.776 285.758 100.075 284.606 100.672C283.496 101.269 282.792 102.123 282.494 103.232C282.28 103.659 282.046 103.957 281.79 104.128C281.534 104.299 281.171 104.384 280.702 104.384H272.254C271.87 104.384 271.528 104.256 271.23 104C270.974 103.701 270.867 103.36 270.91 102.976C271.123 100.757 271.87 98.7307 273.15 96.896C274.472 95.0187 276.478 93.504 279.166 92.352C281.896 91.1573 285.31 90.56 289.406 90.56C292.947 90.56 296.062 91.136 298.75 92.288C301.438 93.44 303.507 94.9973 304.958 96.96C306.408 98.88 307.134 100.992 307.134 103.296C307.134 107.52 305.448 110.571 302.078 112.448C304.296 113.515 305.918 115.008 306.942 116.928C307.966 118.805 308.478 120.832 308.478 123.008C308.478 125.696 307.688 128.085 306.11 130.176C304.574 132.224 302.355 133.824 299.454 134.976C296.595 136.085 293.224 136.64 289.342 136.64ZM333.878 136.64C327.862 136.64 323.126 135.168 319.67 132.224C316.214 129.28 314.379 124.949 314.166 119.232C314.123 117.995 314.102 116.16 314.102 113.728C314.102 111.253 314.123 109.397 314.166 108.16C314.379 102.528 316.235 98.1973 319.734 95.168C323.275 92.096 327.99 90.56 333.878 90.56C339.766 90.56 344.48 92.096 348.022 95.168C351.563 98.1973 353.419 102.528 353.59 108.16C353.675 110.635 353.718 112.491 353.718 113.728C353.718 114.923 353.675 116.757 353.59 119.232C353.376 124.949 351.542 129.28 348.086 132.224C344.63 135.168 339.894 136.64 333.878 136.64ZM333.878 127.424C336.224 127.424 338.08 126.72 339.446 125.312C340.854 123.904 341.6 121.749 341.686 118.848C341.771 116.373 341.814 114.624 341.814 113.6C341.814 112.491 341.771 110.741 341.686 108.352C341.6 105.451 340.854 103.296 339.446 101.888C338.038 100.48 336.182 99.776 333.878 99.776C331.574 99.776 329.718 100.48 328.31 101.888C326.944 103.296 326.198 105.451 326.07 108.352C326.027 109.547 326.006 111.296 326.006 113.6C326.006 115.861 326.027 117.611 326.07 118.848C326.198 121.749 326.944 123.904 328.31 125.312C329.675 126.72 331.531 127.424 333.878 127.424ZM362.736 136C362.31 136 361.926 135.851 361.584 135.552C361.286 135.211 361.136 134.827 361.136 134.4V92.8C361.136 92.3307 361.286 91.9467 361.584 91.648C361.926 91.3493 362.31 91.2 362.736 91.2H382.256C387.632 91.2 391.622 92.3093 394.224 94.528C396.87 96.704 398.192 99.8187 398.192 103.872C398.192 106.005 397.638 107.819 396.528 109.312C395.462 110.763 394.246 111.829 392.88 112.512C394.63 113.323 396.102 114.624 397.296 116.416C398.491 118.208 399.088 120.213 399.088 122.432C399.088 126.699 397.68 130.027 394.864 132.416C392.048 134.805 388.038 136 382.832 136H362.736ZM380.976 108.992C382.683 108.992 383.984 108.565 384.88 107.712C385.776 106.816 386.224 105.643 386.224 104.192C386.224 102.784 385.776 101.653 384.88 100.8C383.984 99.9467 382.683 99.52 380.976 99.52H372.656V108.992H380.976ZM381.552 127.68C383.302 127.68 384.667 127.168 385.648 126.144C386.63 125.12 387.12 123.883 387.12 122.432C387.12 120.896 386.63 119.637 385.648 118.656C384.667 117.632 383.302 117.12 381.552 117.12H372.656V127.68H381.552ZM403.639 136C403.297 136 402.977 135.872 402.679 135.616C402.423 135.317 402.295 134.997 402.295 134.656C402.295 134.4 402.316 134.208 402.359 134.08L417.399 92.992C417.527 92.48 417.804 92.0533 418.231 91.712C418.657 91.3707 419.212 91.2 419.895 91.2H429.367C430.049 91.2 430.604 91.3707 431.031 91.712C431.457 92.0533 431.735 92.48 431.863 92.992L446.839 134.08L446.967 134.656C446.967 134.997 446.817 135.317 446.519 135.616C446.263 135.872 445.943 136 445.559 136H437.687C436.663 136 435.98 135.552 435.639 134.656L433.143 128.128H416.055L413.623 134.656C413.281 135.552 412.577 136 411.511 136H403.639ZM430.583 118.912L424.631 102.016L418.679 118.912H430.583ZM453.611 136C453.142 136 452.758 135.851 452.459 135.552C452.161 135.253 452.011 134.869 452.011 134.4V92.8C452.011 92.3307 452.161 91.9467 452.459 91.648C452.801 91.3493 453.185 91.2 453.611 91.2H461.867C462.337 91.2 462.721 91.3493 463.019 91.648C463.361 91.9467 463.531 92.3307 463.531 92.8V108.224H479.275V92.8C479.275 92.3307 479.425 91.9467 479.723 91.648C480.022 91.3493 480.406 91.2 480.875 91.2H489.131C489.601 91.2 489.985 91.3493 490.283 91.648C490.582 91.9467 490.731 92.3307 490.731 92.8V134.4C490.731 134.869 490.582 135.253 490.283 135.552C489.985 135.851 489.601 136 489.131 136H480.875C480.406 136 480.022 135.851 479.723 135.552C479.425 135.253 479.275 134.869 479.275 134.4V118.464H463.531V134.4C463.531 134.869 463.361 135.253 463.019 135.552C462.721 135.851 462.337 136 461.867 136H453.611ZM501.299 136C500.829 136 500.445 135.851 500.147 135.552C499.848 135.211 499.699 134.805 499.699 134.336V92.8C499.699 92.3307 499.848 91.9467 500.147 91.648C500.488 91.3493 500.872 91.2 501.299 91.2H509.555C510.024 91.2 510.408 91.3493 510.707 91.648C511.048 91.9467 511.219 92.3307 511.219 92.8V118.528L529.395 92.416C529.907 91.6053 530.632 91.2 531.571 91.2H538.995C539.464 91.2 539.848 91.3493 540.147 91.648C540.445 91.9467 540.595 92.3307 540.595 92.8V134.4C540.595 134.827 540.445 135.211 540.147 135.552C539.848 135.851 539.464 136 538.995 136H530.739C530.269 136 529.864 135.851 529.523 135.552C529.224 135.253 529.075 134.869 529.075 134.4V109.568L510.899 134.784C510.344 135.595 509.619 136 508.723 136H501.299ZM583.942 91.2C584.411 91.2 584.795 91.3493 585.094 91.648C585.392 91.9467 585.542 92.3307 585.542 92.8V134.4C585.542 134.827 585.392 135.211 585.094 135.552C584.795 135.851 584.411 136 583.942 136H575.622C575.195 136 574.811 135.851 574.47 135.552C574.171 135.211 574.022 134.827 574.022 134.4V120.64H568.582L561.158 134.272C560.518 135.424 559.643 136 558.534 136H550.022C549.638 136 549.318 135.872 549.062 135.616C548.806 135.317 548.678 134.997 548.678 134.656C548.678 134.443 548.742 134.208 548.87 133.952L557.574 119.04C555.099 117.845 553.158 116.139 551.75 113.92C550.342 111.701 549.638 109.077 549.638 106.048C549.638 103.147 550.299 100.587 551.622 98.368C552.987 96.1067 554.971 94.3573 557.574 93.12C560.176 91.84 563.291 91.2 566.918 91.2H583.942ZM574.022 100.096H567.174C565.424 100.096 564.059 100.651 563.078 101.76C562.096 102.827 561.606 104.256 561.606 106.048C561.606 107.797 562.075 109.163 563.014 110.144C563.952 111.125 565.339 111.616 567.174 111.616H574.022V100.096ZM659.736 136C659.31 136 658.926 135.851 658.584 135.552C658.286 135.211 658.136 134.827 658.136 134.4V92.8C658.136 92.3307 658.286 91.9467 658.584 91.648C658.926 91.3493 659.31 91.2 659.736 91.2H689.624C690.094 91.2 690.478 91.3493 690.776 91.648C691.075 91.9467 691.224 92.3307 691.224 92.8V98.816C691.224 99.2427 691.075 99.6267 690.776 99.968C690.478 100.267 690.094 100.416 689.624 100.416H669.208V109.056H688.216C688.686 109.056 689.07 109.227 689.368 109.568C689.667 109.867 689.816 110.251 689.816 110.72V116.288C689.816 116.715 689.667 117.099 689.368 117.44C689.07 117.739 688.686 117.888 688.216 117.888H669.208V126.784H690.136C690.606 126.784 690.99 126.933 691.288 127.232C691.587 127.531 691.736 127.915 691.736 128.384V134.4C691.736 134.827 691.587 135.211 691.288 135.552C690.99 135.851 690.606 136 690.136 136H659.736ZM710.467 136C710.041 136 709.657 135.851 709.315 135.552C709.017 135.211 708.867 134.827 708.867 134.4V101.248H697.475C697.049 101.248 696.665 101.099 696.323 100.8C696.025 100.459 695.875 100.075 695.875 99.648V92.8C695.875 92.3307 696.025 91.9467 696.323 91.648C696.665 91.3493 697.049 91.2 697.475 91.2H731.907C732.377 91.2 732.761 91.3493 733.059 91.648C733.358 91.9467 733.507 92.3307 733.507 92.8V99.648C733.507 100.117 733.358 100.501 733.059 100.8C732.761 101.099 732.377 101.248 731.907 101.248H720.515V134.4C720.515 134.827 720.366 135.211 720.067 135.552C719.769 135.851 719.385 136 718.915 136H710.467ZM740.924 136C740.497 136 740.113 135.851 739.772 135.552C739.473 135.211 739.324 134.827 739.324 134.4V92.8C739.324 92.3307 739.473 91.9467 739.772 91.648C740.113 91.3493 740.497 91.2 740.924 91.2H770.812C771.281 91.2 771.665 91.3493 771.964 91.648C772.262 91.9467 772.412 92.3307 772.412 92.8V98.816C772.412 99.2427 772.262 99.6267 771.964 99.968C771.665 100.267 771.281 100.416 770.812 100.416H750.396V109.056H769.404C769.873 109.056 770.257 109.227 770.556 109.568C770.854 109.867 771.004 110.251 771.004 110.72V116.288C771.004 116.715 770.854 117.099 770.556 117.44C770.257 117.739 769.873 117.888 769.404 117.888H750.396V126.784H771.324C771.793 126.784 772.177 126.933 772.476 127.232C772.774 127.531 772.924 127.915 772.924 128.384V134.4C772.924 134.827 772.774 135.211 772.476 135.552C772.177 135.851 771.793 136 771.324 136H740.924ZM781.799 136C781.329 136 780.945 135.851 780.647 135.552C780.348 135.211 780.199 134.805 780.199 134.336V92.8C780.199 92.3307 780.348 91.9467 780.647 91.648C780.988 91.3493 781.372 91.2 781.799 91.2H790.055C790.524 91.2 790.908 91.3493 791.207 91.648C791.548 91.9467 791.719 92.3307 791.719 92.8V118.528L809.895 92.416C810.407 91.6053 811.132 91.2 812.071 91.2H819.495C819.964 91.2 820.348 91.3493 820.647 91.648C820.945 91.9467 821.095 92.3307 821.095 92.8V134.4C821.095 134.827 820.945 135.211 820.647 135.552C820.348 135.851 819.964 136 819.495 136H811.239C810.769 136 810.364 135.851 810.023 135.552C809.724 135.253 809.575 134.869 809.575 134.4V109.568L791.399 134.784C790.844 135.595 790.119 136 789.223 136H781.799ZM800.871 88.576C796.988 88.576 794.129 87.744 792.295 86.08C790.46 84.3733 789.543 82.1547 789.543 79.424C789.543 79.0827 789.649 78.8053 789.863 78.592C790.076 78.336 790.375 78.208 790.759 78.208H795.879C796.263 78.208 796.561 78.336 796.775 78.592C796.988 78.8053 797.095 79.0827 797.095 79.424C797.095 81.6853 798.353 82.816 800.871 82.816C803.431 82.816 804.711 81.6853 804.711 79.424C804.711 79.0827 804.817 78.8053 805.031 78.592C805.244 78.336 805.543 78.208 805.927 78.208H811.047C811.431 78.208 811.729 78.336 811.943 78.592C812.156 78.8053 812.263 79.0827 812.263 79.424C812.263 82.1547 811.324 84.3733 809.447 86.08C807.612 87.744 804.753 88.576 800.871 88.576Z" fill="#2C2C2C"/>
<line opacity="0.15" x1="260.5" y1="190" x2="656.5" y2="190" stroke="#007AA9" stroke-width="4" stroke-linecap="round"/>
<path d="M241.169 269C240.902 269 240.676 268.92 240.489 268.76C240.329 268.573 240.249 268.347 240.249 268.08V249.12C240.249 248.853 240.329 248.64 240.489 248.48C240.676 248.293 240.902 248.2 241.169 248.2H257.049C257.316 248.2 257.529 248.293 257.689 248.48C257.876 248.64 257.969 248.853 257.969 249.12V268.08C257.969 268.347 257.876 268.573 257.689 268.76C257.529 268.92 257.316 269 257.049 269H255.129C254.862 269 254.649 268.92 254.489 268.76C254.329 268.573 254.249 268.347 254.249 268.08V251.4H244.009V268.08C244.009 268.347 243.916 268.573 243.729 268.76C243.569 268.92 243.356 269 243.089 269H241.169ZM264.881 276.6C264.614 276.6 264.388 276.507 264.201 276.32C264.041 276.16 263.961 275.947 263.961 275.68V249.12C263.961 248.853 264.041 248.64 264.201 248.48C264.388 248.293 264.614 248.2 264.881 248.2H266.721C266.988 248.2 267.201 248.293 267.361 248.48C267.548 248.64 267.641 248.853 267.641 249.12V250.88C269.134 248.827 271.321 247.8 274.201 247.8C277.001 247.8 279.094 248.68 280.481 250.44C281.894 252.2 282.654 254.467 282.761 257.24C282.788 257.533 282.801 257.987 282.801 258.6C282.801 259.213 282.788 259.667 282.761 259.96C282.654 262.707 281.894 264.973 280.481 266.76C279.068 268.52 276.974 269.4 274.201 269.4C271.428 269.4 269.268 268.4 267.721 266.4V275.68C267.721 275.947 267.641 276.16 267.481 276.32C267.321 276.507 267.108 276.6 266.841 276.6H264.881ZM273.361 266.16C275.254 266.16 276.628 265.573 277.481 264.4C278.361 263.227 278.841 261.68 278.921 259.76C278.948 259.493 278.961 259.107 278.961 258.6C278.961 253.56 277.094 251.04 273.361 251.04C271.521 251.04 270.134 251.653 269.201 252.88C268.294 254.08 267.801 255.52 267.721 257.2L267.681 258.72L267.721 260.28C267.774 261.853 268.281 263.227 269.241 264.4C270.201 265.573 271.574 266.16 273.361 266.16ZM305.429 248.2C305.642 248.2 305.829 248.28 305.989 248.44C306.176 248.6 306.269 248.787 306.269 249V268.08C306.269 268.347 306.176 268.573 305.989 268.76C305.829 268.92 305.616 269 305.349 269H303.469C303.202 269 302.976 268.92 302.789 268.76C302.629 268.573 302.549 268.347 302.549 268.08V253.56L291.469 268.4C291.176 268.8 290.829 269 290.429 269H288.629C288.389 269 288.176 268.92 287.989 268.76C287.829 268.573 287.749 268.373 287.749 268.16V249.12C287.749 248.853 287.829 248.64 287.989 248.48C288.176 248.293 288.402 248.2 288.669 248.2H290.589C290.856 248.2 291.069 248.293 291.229 248.48C291.416 248.64 291.509 248.853 291.509 249.12V263.56L302.549 248.8C302.842 248.4 303.189 248.2 303.589 248.2H305.429ZM339.289 267.84C339.422 268 339.489 268.173 339.489 268.36C339.489 268.547 339.409 268.707 339.249 268.84C339.115 268.947 338.929 269 338.689 269H336.249C335.822 269 335.475 268.8 335.209 268.4L329.409 260.04H325.649V268.08C325.649 268.347 325.555 268.573 325.369 268.76C325.209 268.92 324.995 269 324.729 269H322.849C322.582 269 322.355 268.92 322.169 268.76C322.009 268.573 321.929 268.347 321.929 268.08V249.12C321.929 248.853 322.009 248.64 322.169 248.48C322.355 248.293 322.582 248.2 322.849 248.2H324.729C324.995 248.2 325.209 248.293 325.369 248.48C325.555 248.64 325.649 248.853 325.649 249.12V256.8H329.329L334.689 248.8C335.009 248.4 335.369 248.2 335.769 248.2H337.849C338.089 248.2 338.289 248.267 338.449 248.4C338.609 248.507 338.689 248.653 338.689 248.84C338.689 248.973 338.622 249.133 338.489 249.32L332.529 258.16L339.289 267.84ZM349.174 269.4C347.867 269.4 346.654 269.133 345.534 268.6C344.414 268.067 343.521 267.347 342.854 266.44C342.214 265.507 341.894 264.48 341.894 263.36C341.894 261.6 342.614 260.16 344.054 259.04C345.521 257.893 347.494 257.147 349.974 256.8L355.934 255.96V254.8C355.934 252.08 354.374 250.72 351.254 250.72C350.081 250.72 349.121 250.973 348.374 251.48C347.627 251.96 347.067 252.533 346.694 253.2C346.614 253.44 346.507 253.613 346.374 253.72C346.267 253.827 346.107 253.88 345.894 253.88H344.174C343.934 253.88 343.721 253.8 343.534 253.64C343.374 253.453 343.294 253.24 343.294 253C343.321 252.36 343.614 251.64 344.174 250.84C344.761 250.013 345.654 249.307 346.854 248.72C348.054 248.107 349.534 247.8 351.294 247.8C354.281 247.8 356.427 248.507 357.734 249.92C359.041 251.307 359.694 253.04 359.694 255.12V268.08C359.694 268.347 359.601 268.573 359.414 268.76C359.254 268.92 359.041 269 358.774 269H356.934C356.667 269 356.441 268.92 356.254 268.76C356.094 268.573 356.014 268.347 356.014 268.08V266.36C355.427 267.213 354.574 267.933 353.454 268.52C352.334 269.107 350.907 269.4 349.174 269.4ZM350.014 266.4C351.747 266.4 353.161 265.84 354.254 264.72C355.374 263.573 355.934 261.933 355.934 259.8V258.68L351.294 259.36C349.401 259.627 347.974 260.08 347.014 260.72C346.054 261.333 345.574 262.12 345.574 263.08C345.574 264.147 346.014 264.973 346.894 265.56C347.774 266.12 348.814 266.4 350.014 266.4ZM375.884 276.6C375.618 276.6 375.391 276.507 375.204 276.32C375.044 276.16 374.964 275.947 374.964 275.68V269C371.604 269 369.071 268.2 367.364 266.6C365.658 264.973 364.724 262.773 364.564 260L364.524 258.6L364.564 257.2C364.724 254.453 365.658 252.267 367.364 250.64C369.098 249.013 371.631 248.2 374.964 248.2V241.52C374.964 241.253 375.044 241.04 375.204 240.88C375.391 240.693 375.618 240.6 375.884 240.6H377.764C378.031 240.6 378.244 240.693 378.404 240.88C378.591 241.04 378.684 241.253 378.684 241.52V248.2C382.018 248.2 384.538 249.013 386.244 250.64C387.978 252.267 388.924 254.453 389.084 257.2C389.111 257.493 389.124 257.96 389.124 258.6C389.124 259.24 389.111 259.707 389.084 260C388.924 262.773 387.991 264.973 386.284 266.6C384.604 268.2 382.071 269 378.684 269V275.68C378.684 275.947 378.591 276.16 378.404 276.32C378.244 276.507 378.031 276.6 377.764 276.6H375.884ZM374.964 251.28C370.724 251.28 368.498 253.347 368.284 257.48L368.244 258.6C368.244 261.08 368.778 262.92 369.844 264.12C370.938 265.32 372.644 265.92 374.964 265.92V251.28ZM378.684 265.92C382.924 265.92 385.151 263.853 385.364 259.72C385.391 259.453 385.404 259.08 385.404 258.6C385.404 258.093 385.391 257.72 385.364 257.48C385.151 253.347 382.924 251.28 378.684 251.28V265.92ZM402.436 269.4C399.69 269.4 397.49 268.56 395.836 266.88C394.21 265.173 393.316 262.853 393.156 259.92L393.116 258.56L393.156 257.24C393.343 254.36 394.25 252.067 395.876 250.36C397.53 248.653 399.703 247.8 402.396 247.8C405.356 247.8 407.65 248.747 409.276 250.64C410.903 252.507 411.716 255.04 411.716 258.24V258.92C411.716 259.187 411.623 259.413 411.436 259.6C411.276 259.76 411.063 259.84 410.796 259.84H396.956V260.2C397.036 261.933 397.556 263.413 398.516 264.64C399.503 265.84 400.796 266.44 402.396 266.44C403.623 266.44 404.623 266.2 405.396 265.72C406.196 265.213 406.783 264.693 407.156 264.16C407.396 263.84 407.57 263.653 407.676 263.6C407.81 263.52 408.036 263.48 408.356 263.48H410.316C410.556 263.48 410.756 263.547 410.916 263.68C411.076 263.813 411.156 264 411.156 264.24C411.156 264.827 410.783 265.533 410.036 266.36C409.316 267.187 408.29 267.907 406.956 268.52C405.65 269.107 404.143 269.4 402.436 269.4ZM407.916 257.08V256.96C407.916 255.12 407.41 253.627 406.396 252.48C405.41 251.307 404.076 250.72 402.396 250.72C400.716 250.72 399.383 251.307 398.396 252.48C397.436 253.627 396.956 255.12 396.956 256.96V257.08H407.916ZM415.299 273.4C415.032 273.4 414.806 273.307 414.619 273.12C414.459 272.96 414.379 272.747 414.379 272.48V266.72C414.379 266.453 414.459 266.24 414.619 266.08C414.806 265.893 415.032 265.8 415.299 265.8H415.499C416.619 265.773 417.459 264.84 418.019 263C418.606 261.16 418.899 258.24 418.899 254.24V249.12C418.899 248.853 418.979 248.64 419.139 248.48C419.326 248.293 419.552 248.2 419.819 248.2H432.579C432.846 248.2 433.059 248.293 433.219 248.48C433.406 248.64 433.499 248.853 433.499 249.12V265.72H435.379C435.646 265.72 435.859 265.813 436.019 266C436.206 266.16 436.299 266.373 436.299 266.64V272.48C436.299 272.747 436.206 272.96 436.019 273.12C435.859 273.307 435.646 273.4 435.379 273.4H433.499C433.232 273.4 433.006 273.307 432.819 273.12C432.659 272.96 432.579 272.747 432.579 272.48V269H418.099V272.48C418.099 272.747 418.006 272.96 417.819 273.12C417.659 273.307 417.446 273.4 417.179 273.4H415.299ZM429.779 265.72V251.4H422.539V254.68C422.539 260.013 421.779 263.72 420.259 265.8L429.779 265.72ZM441.443 276.6C441.177 276.6 440.95 276.507 440.763 276.32C440.603 276.16 440.523 275.947 440.523 275.68V249.12C440.523 248.853 440.603 248.64 440.763 248.48C440.95 248.293 441.177 248.2 441.443 248.2H443.283C443.55 248.2 443.763 248.293 443.923 248.48C444.11 248.64 444.203 248.853 444.203 249.12V250.88C445.697 248.827 447.883 247.8 450.763 247.8C453.563 247.8 455.657 248.68 457.043 250.44C458.457 252.2 459.217 254.467 459.323 257.24C459.35 257.533 459.363 257.987 459.363 258.6C459.363 259.213 459.35 259.667 459.323 259.96C459.217 262.707 458.457 264.973 457.043 266.76C455.63 268.52 453.537 269.4 450.763 269.4C447.99 269.4 445.83 268.4 444.283 266.4V275.68C444.283 275.947 444.203 276.16 444.043 276.32C443.883 276.507 443.67 276.6 443.403 276.6H441.443ZM449.923 266.16C451.817 266.16 453.19 265.573 454.043 264.4C454.923 263.227 455.403 261.68 455.483 259.76C455.51 259.493 455.523 259.107 455.523 258.6C455.523 253.56 453.657 251.04 449.923 251.04C448.083 251.04 446.697 251.653 445.763 252.88C444.857 254.08 444.363 255.52 444.283 257.2L444.243 258.72L444.283 260.28C444.337 261.853 444.843 263.227 445.803 264.4C446.763 265.573 448.137 266.16 449.923 266.16ZM472.632 269.4C469.885 269.4 467.685 268.56 466.032 266.88C464.405 265.173 463.512 262.853 463.352 259.92L463.312 258.56L463.352 257.24C463.538 254.36 464.445 252.067 466.072 250.36C467.725 248.653 469.898 247.8 472.592 247.8C475.552 247.8 477.845 248.747 479.472 250.64C481.098 252.507 481.912 255.04 481.912 258.24V258.92C481.912 259.187 481.818 259.413 481.632 259.6C481.472 259.76 481.258 259.84 480.992 259.84H467.152V260.2C467.232 261.933 467.752 263.413 468.712 264.64C469.698 265.84 470.992 266.44 472.592 266.44C473.818 266.44 474.818 266.2 475.592 265.72C476.392 265.213 476.978 264.693 477.352 264.16C477.592 263.84 477.765 263.653 477.872 263.6C478.005 263.52 478.232 263.48 478.552 263.48H480.512C480.752 263.48 480.952 263.547 481.112 263.68C481.272 263.813 481.352 264 481.352 264.24C481.352 264.827 480.978 265.533 480.232 266.36C479.512 267.187 478.485 267.907 477.152 268.52C475.845 269.107 474.338 269.4 472.632 269.4ZM478.112 257.08V256.96C478.112 255.12 477.605 253.627 476.592 252.48C475.605 251.307 474.272 250.72 472.592 250.72C470.912 250.72 469.578 251.307 468.592 252.48C467.632 253.627 467.152 255.12 467.152 256.96V257.08H478.112ZM507.099 269.4C503.526 269.4 500.806 268.44 498.939 266.52C497.099 264.6 496.112 261.947 495.979 258.56C495.952 257.84 495.939 256.667 495.939 255.04C495.939 253.387 495.952 252.187 495.979 251.44C496.112 248.08 497.112 245.44 498.979 243.52C500.846 241.573 503.552 240.6 507.099 240.6C509.472 240.6 511.486 241.027 513.139 241.88C514.792 242.707 516.046 243.8 516.899 245.16C517.752 246.52 518.219 247.973 518.299 249.52V249.6C518.299 249.813 518.206 250 518.019 250.16C517.859 250.293 517.672 250.36 517.459 250.36H515.259C514.726 250.36 514.392 250.053 514.259 249.44C513.806 247.44 512.992 246.04 511.819 245.24C510.646 244.413 509.072 244 507.099 244C502.512 244 500.139 246.547 499.979 251.64C499.952 252.36 499.939 253.467 499.939 254.96C499.939 256.453 499.952 257.587 499.979 258.36C500.139 263.453 502.512 266 507.099 266C509.072 266 510.646 265.6 511.819 264.8C513.019 263.973 513.832 262.56 514.259 260.56C514.339 260.213 514.459 259.973 514.619 259.84C514.779 259.707 514.992 259.64 515.259 259.64H517.459C517.699 259.64 517.899 259.72 518.059 259.88C518.246 260.013 518.326 260.2 518.299 260.44C518.219 262.013 517.752 263.48 516.899 264.84C516.046 266.2 514.792 267.307 513.139 268.16C511.486 268.987 509.472 269.4 507.099 269.4ZM521.78 269C521.566 269 521.38 268.92 521.22 268.76C521.06 268.6 520.98 268.413 520.98 268.2C520.98 267.987 520.993 267.84 521.02 267.76L530.94 241.88C531.153 241.293 531.58 241 532.22 241H534.94C535.58 241 536.006 241.293 536.22 241.88L546.1 267.76L546.18 268.2C546.18 268.413 546.1 268.6 545.94 268.76C545.78 268.92 545.593 269 545.38 269H543.34C543.046 269 542.82 268.933 542.66 268.8C542.5 268.64 542.393 268.48 542.34 268.32L540.14 262.64H527.02L524.82 268.32C524.766 268.48 524.646 268.64 524.46 268.8C524.3 268.933 524.086 269 523.82 269H521.78ZM538.98 259.2L533.58 245L528.18 259.2H538.98ZM551.377 269C551.11 269 550.883 268.92 550.697 268.76C550.537 268.573 550.457 268.347 550.457 268.08V241.96C550.457 241.667 550.537 241.44 550.697 241.28C550.883 241.093 551.11 241 551.377 241H571.097C571.39 241 571.617 241.093 571.777 241.28C571.963 241.44 572.057 241.667 572.057 241.96V268.08C572.057 268.347 571.963 268.573 571.777 268.76C571.59 268.92 571.363 269 571.097 269H569.057C568.79 269 568.563 268.92 568.377 268.76C568.217 268.573 568.137 268.347 568.137 268.08V244.6H554.377V268.08C554.377 268.347 554.283 268.573 554.097 268.76C553.91 268.92 553.683 269 553.417 269H551.377ZM579.931 269C579.665 269 579.438 268.92 579.251 268.76C579.091 268.573 579.011 268.347 579.011 268.08V241.96C579.011 241.667 579.091 241.44 579.251 241.28C579.438 241.093 579.665 241 579.931 241H590.091C593.105 241 595.478 241.733 597.211 243.2C598.945 244.667 599.811 246.787 599.811 249.56C599.811 252.333 598.945 254.453 597.211 255.92C595.505 257.36 593.131 258.08 590.091 258.08H583.011V268.08C583.011 268.347 582.918 268.573 582.731 268.76C582.545 268.92 582.318 269 582.051 269H579.931ZM589.891 254.72C591.838 254.72 593.305 254.28 594.291 253.4C595.305 252.52 595.811 251.24 595.811 249.56C595.811 247.88 595.318 246.6 594.331 245.72C593.345 244.813 591.865 244.36 589.891 244.36H582.971V254.72H589.891ZM621.835 248.2C622.049 248.2 622.235 248.28 622.395 248.44C622.582 248.6 622.675 248.787 622.675 249V268.08C622.675 268.347 622.582 268.573 622.395 268.76C622.235 268.92 622.022 269 621.755 269H619.875C619.609 269 619.382 268.92 619.195 268.76C619.035 268.573 618.955 268.347 618.955 268.08V253.56L607.875 268.4C607.582 268.8 607.235 269 606.835 269H605.035C604.795 269 604.582 268.92 604.395 268.76C604.235 268.573 604.155 268.373 604.155 268.16V249.12C604.155 248.853 604.235 248.64 604.395 248.48C604.582 248.293 604.809 248.2 605.075 248.2H606.995C607.262 248.2 607.475 248.293 607.635 248.48C607.822 248.64 607.915 248.853 607.915 249.12V263.56L618.955 248.8C619.249 248.4 619.595 248.2 619.995 248.2H621.835ZM629.97 269C629.704 269 629.477 268.92 629.29 268.76C629.13 268.573 629.05 268.347 629.05 268.08V241.96C629.05 241.667 629.13 241.44 629.29 241.28C629.477 241.093 629.704 241 629.97 241H649.69C649.984 241 650.21 241.093 650.37 241.28C650.557 241.44 650.65 241.667 650.65 241.96V268.08C650.65 268.347 650.557 268.573 650.37 268.76C650.184 268.92 649.957 269 649.69 269H647.65C647.384 269 647.157 268.92 646.97 268.76C646.81 268.573 646.73 268.347 646.73 268.08V244.6H632.97V268.08C632.97 268.347 632.877 268.573 632.69 268.76C632.504 268.92 632.277 269 632.01 269H629.97ZM678.085 267.6C678.165 267.707 678.205 267.853 678.205 268.04C678.205 268.307 678.112 268.533 677.925 268.72C677.765 268.907 677.552 269 677.285 269H675.005C674.738 269 674.525 268.947 674.365 268.84C674.232 268.733 674.098 268.587 673.965 268.4L666.285 256.6H661.525V268.08C661.525 268.347 661.432 268.573 661.245 268.76C661.058 268.92 660.832 269 660.565 269H658.525C658.258 269 658.032 268.92 657.845 268.76C657.685 268.573 657.605 268.347 657.605 268.08V241.96C657.605 241.667 657.685 241.44 657.845 241.28C658.032 241.093 658.258 241 658.525 241H660.565C660.858 241 661.085 241.093 661.245 241.28C661.432 241.44 661.525 241.667 661.525 241.96V253L666.085 253.04L673.165 241.64C673.432 241.213 673.885 241 674.525 241H676.685C677.245 241 677.525 241.267 677.525 241.8C677.525 241.933 677.458 242.107 677.325 242.32L669.645 254.56L678.085 267.6ZM228.73 295.2C228.943 295.2 229.13 295.28 229.29 295.44C229.477 295.6 229.57 295.787 229.57 296V315.08C229.57 315.347 229.477 315.573 229.29 315.76C229.13 315.92 228.917 316 228.65 316H226.77C226.503 316 226.277 315.92 226.09 315.76C225.93 315.573 225.85 315.347 225.85 315.08V300.56L214.77 315.4C214.477 315.8 214.13 316 213.73 316H211.93C211.69 316 211.477 315.92 211.29 315.76C211.13 315.573 211.05 315.373 211.05 315.16V296.12C211.05 295.853 211.13 295.64 211.29 295.48C211.477 295.293 211.703 295.2 211.97 295.2H213.89C214.157 295.2 214.37 295.293 214.53 295.48C214.717 295.64 214.81 295.853 214.81 296.12V310.56L225.85 295.8C226.143 295.4 226.49 295.2 226.89 295.2H228.73ZM267.27 321.6C267.003 321.6 266.776 321.507 266.59 321.32C266.43 321.16 266.35 320.947 266.35 320.68V316H246.67C246.403 316 246.176 315.92 245.99 315.76C245.83 315.573 245.75 315.333 245.75 315.04V288.92C245.75 288.627 245.83 288.4 245.99 288.24C246.176 288.08 246.403 288 246.67 288H248.71C248.976 288 249.203 288.093 249.39 288.28C249.576 288.44 249.67 288.653 249.67 288.92V312.4H263.43V288.92C263.43 288.653 263.51 288.44 263.67 288.28C263.856 288.093 264.083 288 264.35 288H266.39C266.656 288 266.883 288.093 267.07 288.28C267.256 288.44 267.35 288.653 267.35 288.92V312.4H269.31C269.576 312.4 269.803 312.493 269.99 312.68C270.176 312.84 270.27 313.053 270.27 313.32V320.68C270.27 320.947 270.176 321.16 269.99 321.32C269.803 321.507 269.576 321.6 269.31 321.6H267.27ZM276.045 316C275.778 316 275.551 315.92 275.365 315.76C275.205 315.573 275.125 315.347 275.125 315.08V288.96C275.125 288.667 275.205 288.44 275.365 288.28C275.551 288.093 275.778 288 276.045 288H278.045C278.471 288 278.818 288.213 279.085 288.64L287.525 304.8L296.045 288.64C296.098 288.48 296.205 288.333 296.365 288.2C296.551 288.067 296.778 288 297.045 288H299.005C299.298 288 299.525 288.093 299.685 288.28C299.871 288.44 299.965 288.667 299.965 288.96V315.08C299.965 315.347 299.871 315.573 299.685 315.76C299.498 315.92 299.271 316 299.005 316H297.045C296.778 316 296.551 315.92 296.365 315.76C296.205 315.573 296.125 315.347 296.125 315.08V295.4L289.445 308.44C289.178 309 288.751 309.28 288.165 309.28H286.925C286.338 309.28 285.911 309 285.645 308.44L278.925 295.4V315.08C278.925 315.347 278.831 315.573 278.645 315.76C278.485 315.92 278.271 316 278.005 316H276.045ZM307.802 316C307.536 316 307.309 315.92 307.122 315.76C306.962 315.573 306.882 315.333 306.882 315.04V288.96C306.882 288.667 306.962 288.44 307.122 288.28C307.309 288.093 307.536 288 307.802 288H309.882C310.149 288 310.362 288.093 310.522 288.28C310.709 288.467 310.802 288.693 310.802 288.96V309.64L325.722 288.56C325.936 288.187 326.269 288 326.722 288H328.682C328.949 288 329.162 288.093 329.322 288.28C329.509 288.44 329.602 288.667 329.602 288.96V315.08C329.602 315.347 329.509 315.573 329.322 315.76C329.162 315.92 328.949 316 328.682 316H326.642C326.376 316 326.149 315.92 325.962 315.76C325.776 315.573 325.682 315.347 325.682 315.08V294.56L310.802 315.44C310.589 315.813 310.256 316 309.802 316H307.802ZM343.61 316C343.343 316 343.117 315.92 342.93 315.76C342.77 315.573 342.69 315.347 342.69 315.08V291.56H335.01C334.743 291.56 334.517 291.48 334.33 291.32C334.17 291.133 334.09 290.907 334.09 290.64V288.96C334.09 288.693 334.17 288.467 334.33 288.28C334.517 288.093 334.743 288 335.01 288H354.29C354.583 288 354.81 288.093 354.97 288.28C355.157 288.44 355.25 288.667 355.25 288.96V290.64C355.25 290.907 355.157 291.133 354.97 291.32C354.783 291.48 354.557 291.56 354.29 291.56H346.65V315.08C346.65 315.347 346.557 315.573 346.37 315.76C346.183 315.92 345.957 316 345.69 316H343.61ZM377.019 312.6C376.779 312.6 376.485 312.467 376.139 312.2L368.419 304.68C368.019 304.28 367.792 303.84 367.739 303.36V302.32C367.792 301.813 368.019 301.373 368.419 301L376.139 293.48C376.539 293.187 376.832 293.04 377.019 293.04C377.259 293.04 377.459 293.12 377.619 293.28C377.779 293.44 377.859 293.64 377.859 293.88V295.48C377.859 295.8 377.805 296.067 377.699 296.28C377.592 296.493 377.405 296.733 377.139 297L371.099 302.84L377.139 308.68C377.405 308.947 377.592 309.187 377.699 309.4C377.805 309.613 377.859 309.88 377.859 310.2V311.8C377.859 312.04 377.779 312.24 377.619 312.4C377.459 312.533 377.259 312.6 377.019 312.6ZM387.299 312.6C387.032 312.6 386.739 312.467 386.419 312.2L378.659 304.68C378.285 304.307 378.072 303.867 378.019 303.36V302.32C378.072 301.787 378.285 301.347 378.659 301L386.419 293.48C386.765 293.187 387.059 293.04 387.299 293.04C387.539 293.04 387.725 293.12 387.859 293.28C388.019 293.44 388.099 293.64 388.099 293.88V295.48C388.099 295.8 388.045 296.067 387.939 296.28C387.832 296.493 387.645 296.733 387.379 297L381.379 302.84L387.379 308.68C387.645 308.947 387.832 309.187 387.939 309.4C388.045 309.613 388.099 309.88 388.099 310.2V311.8C388.099 312.04 388.019 312.24 387.859 312.4C387.725 312.533 387.539 312.6 387.299 312.6ZM412.115 316C411.848 316 411.621 315.92 411.435 315.76C411.275 315.573 411.195 315.347 411.195 315.08V291.6H401.275V298.04C401.275 302.333 400.968 305.76 400.355 308.32C399.741 310.88 398.781 312.76 397.475 313.96C396.168 315.16 394.435 315.827 392.275 315.96C392.008 315.987 391.781 315.907 391.595 315.72C391.408 315.533 391.315 315.293 391.315 315V313.24C391.315 313 391.381 312.8 391.515 312.64C391.675 312.453 391.888 312.347 392.155 312.32C393.888 312.08 395.195 310.8 396.075 308.48C396.981 306.16 397.435 302.507 397.435 297.52V288.92C397.435 288.653 397.515 288.44 397.675 288.28C397.861 288.093 398.088 288 398.355 288H414.195C414.461 288 414.675 288.093 414.835 288.28C415.021 288.44 415.115 288.667 415.115 288.96V315.08C415.115 315.347 415.021 315.573 414.835 315.76C414.675 315.92 414.461 316 414.195 316H412.115ZM443.078 316.4C439.424 316.4 436.704 315.413 434.918 313.44C433.158 311.467 432.198 308.84 432.038 305.56C431.984 304.653 431.958 304 431.958 303.6H425.998V315.08C425.998 315.347 425.904 315.573 425.718 315.76C425.531 315.92 425.304 316 425.038 316H422.998C422.731 316 422.504 315.92 422.318 315.76C422.158 315.573 422.078 315.347 422.078 315.08V288.92C422.078 288.653 422.158 288.44 422.318 288.28C422.504 288.093 422.731 288 422.998 288H425.038C425.304 288 425.531 288.093 425.718 288.28C425.904 288.44 425.998 288.653 425.998 288.92V300H431.958C431.958 299.653 431.984 299.107 432.038 298.36C432.224 295.16 433.198 292.573 434.958 290.6C436.744 288.6 439.451 287.6 443.078 287.6C446.758 287.6 449.491 288.627 451.278 290.68C453.091 292.707 454.051 295.36 454.158 298.64C454.211 300.187 454.238 301.307 454.238 302C454.238 302.667 454.211 303.8 454.158 305.4C454.051 308.733 453.104 311.4 451.318 313.4C449.531 315.4 446.784 316.4 443.078 316.4ZM443.078 313C445.211 313 446.904 312.387 448.158 311.16C449.411 309.907 450.078 307.973 450.158 305.36C450.211 303.76 450.238 302.64 450.238 302C450.238 301.307 450.211 300.187 450.158 298.64C450.078 296.027 449.398 294.107 448.118 292.88C446.864 291.627 445.184 291 443.078 291C440.971 291 439.291 291.627 438.038 292.88C436.784 294.107 436.104 296.027 435.998 298.64C435.971 299.413 435.958 300.533 435.958 302C435.958 303.44 435.971 304.56 435.998 305.36C436.104 308 436.771 309.933 437.998 311.16C439.251 312.387 440.944 313 443.078 313ZM480.605 314.6C480.685 314.707 480.725 314.853 480.725 315.04C480.725 315.307 480.631 315.533 480.445 315.72C480.285 315.907 480.071 316 479.805 316H477.525C477.258 316 477.045 315.947 476.885 315.84C476.751 315.733 476.618 315.587 476.485 315.4L468.805 303.6H464.045V315.08C464.045 315.347 463.951 315.573 463.765 315.76C463.578 315.92 463.351 316 463.085 316H461.045C460.778 316 460.551 315.92 460.365 315.76C460.205 315.573 460.125 315.347 460.125 315.08V288.96C460.125 288.667 460.205 288.44 460.365 288.28C460.551 288.093 460.778 288 461.045 288H463.085C463.378 288 463.605 288.093 463.765 288.28C463.951 288.44 464.045 288.667 464.045 288.96V300L468.605 300.04L475.685 288.64C475.951 288.213 476.405 288 477.045 288H479.205C479.765 288 480.045 288.267 480.045 288.8C480.045 288.933 479.978 289.107 479.845 289.32L472.165 301.56L480.605 314.6ZM494.345 316.4C490.772 316.4 488.052 315.44 486.185 313.52C484.345 311.6 483.358 308.947 483.225 305.56C483.198 304.84 483.185 303.667 483.185 302.04C483.185 300.387 483.198 299.187 483.225 298.44C483.358 295.08 484.358 292.44 486.225 290.52C488.092 288.573 490.798 287.6 494.345 287.6C496.718 287.6 498.732 288.027 500.385 288.88C502.038 289.707 503.292 290.8 504.145 292.16C504.998 293.52 505.465 294.973 505.545 296.52V296.6C505.545 296.813 505.452 297 505.265 297.16C505.105 297.293 504.918 297.36 504.705 297.36H502.505C501.972 297.36 501.638 297.053 501.505 296.44C501.052 294.44 500.238 293.04 499.065 292.24C497.892 291.413 496.318 291 494.345 291C489.758 291 487.385 293.547 487.225 298.64C487.198 299.36 487.185 300.467 487.185 301.96C487.185 303.453 487.198 304.587 487.225 305.36C487.385 310.453 489.758 313 494.345 313C496.318 313 497.892 312.6 499.065 311.8C500.265 310.973 501.078 309.56 501.505 307.56C501.585 307.213 501.705 306.973 501.865 306.84C502.025 306.707 502.238 306.64 502.505 306.64H504.705C504.945 306.64 505.145 306.72 505.305 306.88C505.492 307.013 505.572 307.2 505.545 307.44C505.465 309.013 504.998 310.48 504.145 311.84C503.292 313.2 502.038 314.307 500.385 315.16C498.732 315.987 496.718 316.4 494.345 316.4ZM510.546 312.6C510.306 312.6 510.106 312.533 509.946 312.4C509.786 312.24 509.706 312.04 509.706 311.8V310.2C509.706 309.88 509.759 309.613 509.866 309.4C509.972 309.187 510.159 308.947 510.426 308.68L516.466 302.84L510.426 297C510.159 296.733 509.972 296.493 509.866 296.28C509.759 296.067 509.706 295.8 509.706 295.48V293.88C509.706 293.64 509.786 293.44 509.946 293.28C510.106 293.12 510.306 293.04 510.546 293.04C510.732 293.04 511.026 293.187 511.426 293.48L519.146 301C519.546 301.373 519.772 301.813 519.826 302.32V303.36C519.772 303.84 519.546 304.28 519.146 304.68L511.426 312.2C511.079 312.467 510.786 312.6 510.546 312.6ZM520.786 312.6C520.546 312.6 520.346 312.533 520.186 312.4C520.052 312.24 519.986 312.04 519.986 311.8V310.2C519.986 309.88 520.039 309.613 520.146 309.4C520.252 309.187 520.439 308.947 520.706 308.68L526.706 302.84L520.706 297C520.439 296.733 520.252 296.493 520.146 296.28C520.039 296.067 519.986 295.8 519.986 295.48V293.88C519.986 293.64 520.052 293.44 520.186 293.28C520.346 293.12 520.546 293.04 520.786 293.04C521.026 293.04 521.319 293.187 521.666 293.48L529.426 301C529.852 301.4 530.066 301.84 530.066 302.32V303.36C530.066 303.813 529.852 304.253 529.426 304.68L521.666 312.2C521.346 312.467 521.052 312.6 520.786 312.6ZM534.442 319C534.228 319 534.055 318.92 533.922 318.76C533.815 318.6 533.775 318.4 533.802 318.16L534.722 312.44C534.828 311.667 535.202 311.28 535.842 311.28H538.522C538.708 311.28 538.855 311.347 538.962 311.48C539.095 311.613 539.162 311.773 539.162 311.96C539.162 312.093 539.122 312.307 539.042 312.6L536.922 318.08C536.788 318.4 536.642 318.627 536.482 318.76C536.322 318.92 536.082 319 535.762 319H534.442ZM555.927 316C555.661 316 555.434 315.92 555.247 315.76C555.087 315.573 555.007 315.347 555.007 315.08V288.96C555.007 288.667 555.087 288.44 555.247 288.28C555.434 288.093 555.661 288 555.927 288H566.887C569.741 288 571.887 288.68 573.327 290.04C574.767 291.4 575.487 293.187 575.487 295.4C575.487 296.893 575.141 298.133 574.447 299.12C573.781 300.107 572.981 300.827 572.047 301.28C573.167 301.84 574.114 302.707 574.887 303.88C575.661 305.053 576.047 306.4 576.047 307.92C576.047 309.413 575.701 310.773 575.007 312C574.341 313.227 573.341 314.2 572.007 314.92C570.674 315.64 569.074 316 567.207 316H555.927ZM566.287 299.84C567.967 299.84 569.247 299.453 570.127 298.68C571.034 297.907 571.487 296.827 571.487 295.44C571.487 294.08 571.047 293.04 570.167 292.32C569.287 291.6 567.994 291.24 566.287 291.24H558.927V299.84H566.287ZM566.687 312.76C568.367 312.76 569.674 312.307 570.607 311.4C571.567 310.493 572.047 309.333 572.047 307.92C572.047 306.453 571.567 305.28 570.607 304.4C569.674 303.493 568.367 303.04 566.687 303.04H558.927V312.76H566.687ZM589.726 316.4C586.793 316.4 584.513 315.573 582.886 313.92C581.286 312.267 580.433 310.067 580.326 307.32L580.286 305.6L580.326 303.88C580.433 301.16 581.299 298.973 582.926 297.32C584.553 295.64 586.819 294.8 589.726 294.8C592.633 294.8 594.899 295.64 596.526 297.32C598.153 298.973 599.019 301.16 599.126 303.88C599.153 304.173 599.166 304.747 599.166 305.6C599.166 306.453 599.153 307.027 599.126 307.32C599.019 310.067 598.153 312.267 596.526 313.92C594.926 315.573 592.659 316.4 589.726 316.4ZM589.726 313.32C591.406 313.32 592.726 312.787 593.686 311.72C594.673 310.653 595.206 309.12 595.286 307.12C595.313 306.853 595.326 306.347 595.326 305.6C595.326 304.853 595.313 304.347 595.286 304.08C595.206 302.08 594.673 300.547 593.686 299.48C592.726 298.413 591.406 297.88 589.726 297.88C588.046 297.88 586.713 298.413 585.726 299.48C584.739 300.547 584.219 302.08 584.166 304.08L584.126 305.6L584.166 307.12C584.219 309.12 584.739 310.653 585.726 311.72C586.713 312.787 588.046 313.32 589.726 313.32ZM602.823 316C602.557 316 602.33 315.907 602.143 315.72C601.957 315.533 601.863 315.307 601.863 315.04V313.56C601.863 313.293 601.943 313.08 602.103 312.92C602.263 312.76 602.463 312.68 602.703 312.68C603.983 312.627 604.93 311.72 605.543 309.96C606.183 308.173 606.503 305.267 606.503 301.24V296.12C606.503 295.853 606.583 295.64 606.743 295.48C606.93 295.293 607.157 295.2 607.423 295.2H620.143C620.41 295.2 620.623 295.293 620.783 295.48C620.97 295.64 621.063 295.853 621.063 296.12V315.08C621.063 315.347 620.97 315.573 620.783 315.76C620.623 315.92 620.41 316 620.143 316H618.223C617.957 316 617.743 315.92 617.583 315.76C617.423 315.573 617.343 315.347 617.343 315.08V298.4H610.143V301.68C610.143 306.773 609.557 310.44 608.383 312.68C607.21 314.893 605.357 316 602.823 316ZM627.946 316C627.68 316 627.453 315.92 627.266 315.76C627.106 315.573 627.026 315.347 627.026 315.08V296.12C627.026 295.853 627.106 295.64 627.266 295.48C627.453 295.293 627.68 295.2 627.946 295.2H639.906C640.173 295.2 640.386 295.293 640.546 295.48C640.733 295.64 640.826 295.853 640.826 296.12V297.48C640.826 297.747 640.733 297.973 640.546 298.16C640.386 298.32 640.173 298.4 639.906 298.4H630.786V315.08C630.786 315.347 630.693 315.573 630.506 315.76C630.346 315.92 630.133 316 629.866 316H627.946ZM645.654 316C645.387 316 645.161 315.92 644.974 315.76C644.814 315.573 644.734 315.347 644.734 315.08V288.96C644.734 288.667 644.814 288.44 644.974 288.28C645.161 288.093 645.387 288 645.654 288H661.054C661.347 288 661.574 288.093 661.734 288.28C661.921 288.44 662.014 288.667 662.014 288.96V290.56C662.014 290.827 661.921 291.053 661.734 291.24C661.574 291.4 661.347 291.48 661.054 291.48H648.654V315.08C648.654 315.347 648.561 315.573 648.374 315.76C648.187 315.92 647.961 316 647.694 316H645.654ZM672.711 316C672.445 316 672.218 315.92 672.031 315.76C671.871 315.573 671.791 315.347 671.791 315.08V291.56H664.111C663.845 291.56 663.618 291.48 663.431 291.32C663.271 291.133 663.191 290.907 663.191 290.64V288.96C663.191 288.693 663.271 288.467 663.431 288.28C663.618 288.093 663.845 288 664.111 288H683.391C683.685 288 683.911 288.093 684.071 288.28C684.258 288.44 684.351 288.667 684.351 288.96V290.64C684.351 290.907 684.258 291.133 684.071 291.32C683.885 291.48 683.658 291.56 683.391 291.56H675.751V315.08C675.751 315.347 675.658 315.573 675.471 315.76C675.285 315.92 675.058 316 674.791 316H672.711ZM708.115 288C708.329 288 708.515 288.08 708.675 288.24C708.835 288.4 708.915 288.587 708.915 288.8C708.915 289.013 708.875 289.2 708.795 289.36L700.635 307.84C699.702 309.947 698.862 311.56 698.115 312.68C697.395 313.773 696.542 314.6 695.555 315.16C694.569 315.72 693.289 316 691.715 316H690.115C689.849 316 689.622 315.92 689.435 315.76C689.275 315.573 689.195 315.347 689.195 315.08V313.4C689.195 313.133 689.275 312.907 689.435 312.72C689.622 312.533 689.849 312.44 690.115 312.44H691.515C692.582 312.44 693.462 312.12 694.155 311.48C694.875 310.813 695.609 309.707 696.355 308.16L685.995 289.28C685.915 289.12 685.875 288.973 685.875 288.84C685.875 288.627 685.955 288.44 686.115 288.28C686.302 288.093 686.502 288 686.715 288H688.995C689.395 288 689.715 288.227 689.955 288.68L698.275 303.84L704.955 288.68C705.035 288.467 705.169 288.307 705.355 288.2C705.542 288.067 705.742 288 705.955 288H708.115Z" fill="#2B2E36"/>
<path d="M186.662 403C186.369 403 186.129 402.907 185.942 402.72C185.782 402.533 185.702 402.293 185.702 402V376C185.702 375.707 185.795 375.467 185.982 375.28C186.169 375.093 186.409 375 186.702 375H190.302C190.595 375 190.822 375.093 190.982 375.28C191.169 375.467 191.262 375.707 191.262 376V394.36L204.422 375.64C204.715 375.213 205.102 375 205.582 375H208.902C209.195 375 209.422 375.093 209.582 375.28C209.769 375.467 209.862 375.707 209.862 376V402.04C209.862 402.307 209.769 402.533 209.582 402.72C209.422 402.907 209.195 403 208.902 403H205.302C205.009 403 204.769 402.92 204.582 402.76C204.395 402.573 204.302 402.333 204.302 402.04V384.04L191.182 402.36C191.022 402.573 190.862 402.733 190.702 402.84C190.542 402.947 190.315 403 190.022 403H186.662ZM223.613 403.4C221.479 403.4 219.746 403.093 218.413 402.48C217.106 401.84 216.146 401.067 215.533 400.16C214.946 399.253 214.626 398.36 214.573 397.48V397.36C214.573 397.173 214.639 397.027 214.773 396.92C214.933 396.787 215.106 396.72 215.293 396.72H218.573C218.839 396.72 219.039 396.773 219.173 396.88C219.333 396.987 219.466 397.16 219.573 397.4C219.839 398.173 220.319 398.733 221.013 399.08C221.733 399.4 222.666 399.56 223.813 399.56C224.986 399.56 225.919 399.333 226.613 398.88C227.306 398.427 227.653 397.733 227.653 396.8C227.653 394.987 226.573 394.08 224.413 394.08H222.213C221.946 394.08 221.733 394 221.573 393.84C221.413 393.68 221.333 393.467 221.333 393.2V391.52C221.333 391.28 221.413 391.08 221.573 390.92C221.733 390.733 221.946 390.64 222.213 390.64H224.253C225.213 390.64 225.933 390.467 226.413 390.12C226.893 389.747 227.133 389.173 227.133 388.4C227.133 387.627 226.853 386.987 226.293 386.48C225.733 385.947 224.826 385.68 223.573 385.68C222.373 385.68 221.506 385.867 220.973 386.24C220.439 386.613 220.026 387.227 219.733 388.08C219.599 388.32 219.453 388.493 219.293 388.6C219.159 388.707 218.959 388.76 218.693 388.76H215.533C215.319 388.76 215.133 388.693 214.973 388.56C214.813 388.4 214.746 388.213 214.773 388C214.826 386.933 215.159 385.933 215.773 385C216.413 384.067 217.386 383.307 218.693 382.72C219.999 382.107 221.639 381.8 223.613 381.8C226.546 381.8 228.706 382.373 230.093 383.52C231.506 384.667 232.213 386.053 232.213 387.68C232.213 388.72 232.013 389.587 231.613 390.28C231.239 390.973 230.599 391.547 229.693 392C231.826 392.827 232.893 394.573 232.893 397.24C232.893 399.16 232.039 400.667 230.333 401.76C228.653 402.853 226.413 403.4 223.613 403.4ZM246.219 403.4C243.099 403.4 240.686 402.6 238.979 401C237.272 399.373 236.352 397.16 236.219 394.36L236.179 392.6L236.219 390.84C236.352 388.067 237.286 385.867 239.019 384.24C240.752 382.613 243.152 381.8 246.219 381.8C249.286 381.8 251.686 382.613 253.419 384.24C255.152 385.867 256.086 388.067 256.219 390.84C256.246 391.16 256.259 391.747 256.259 392.6C256.259 393.453 256.246 394.04 256.219 394.36C256.086 397.16 255.166 399.373 253.459 401C251.752 402.6 249.339 403.4 246.219 403.4ZM246.219 399.44C247.632 399.44 248.726 399 249.499 398.12C250.272 397.213 250.699 395.893 250.779 394.16C250.806 393.893 250.819 393.373 250.819 392.6C250.819 391.827 250.806 391.307 250.779 391.04C250.699 389.307 250.272 388 249.499 387.12C248.726 386.213 247.632 385.76 246.219 385.76C244.806 385.76 243.712 386.213 242.939 387.12C242.166 388 241.739 389.307 241.659 391.04L241.619 392.6L241.659 394.16C241.739 395.893 242.166 397.213 242.939 398.12C243.712 399 244.806 399.44 246.219 399.44ZM280.091 392.12C280.117 392.413 280.131 392.867 280.131 393.48C280.131 394.067 280.117 394.493 280.091 394.76C279.957 397.427 279.037 399.533 277.331 401.08C275.651 402.627 273.237 403.4 270.091 403.4C266.784 403.4 264.317 402.547 262.691 400.84C261.091 399.107 260.224 396.56 260.091 393.2L260.051 390.8L260.091 388.4C260.171 384.613 260.757 381.773 261.851 379.88C262.944 377.96 264.531 376.573 266.611 375.72C268.691 374.84 272.051 373.84 276.691 372.72L276.891 372.68C277.104 372.68 277.304 372.76 277.491 372.92C277.677 373.053 277.784 373.24 277.811 373.48L278.331 376.12L278.371 376.36C278.371 376.573 278.304 376.76 278.171 376.92C278.037 377.053 277.864 377.147 277.651 377.2L276.371 377.48C273.197 378.2 270.917 378.813 269.531 379.32C268.171 379.8 267.131 380.547 266.411 381.56C265.691 382.573 265.277 384.093 265.171 386.12C265.811 385.32 266.651 384.68 267.691 384.2C268.757 383.72 269.877 383.48 271.051 383.48C273.851 383.48 276.024 384.253 277.571 385.8C279.117 387.347 279.957 389.453 280.091 392.12ZM274.651 394.56C274.677 394.373 274.691 394.027 274.691 393.52C274.691 392.96 274.677 392.56 274.651 392.32C274.597 390.667 274.197 389.4 273.451 388.52C272.704 387.613 271.691 387.16 270.411 387.16C268.944 387.16 267.784 387.613 266.931 388.52C266.077 389.4 265.624 390.667 265.571 392.32L265.531 393.52L265.571 394.56C265.624 396.24 266.037 397.52 266.811 398.4C267.584 399.28 268.677 399.72 270.091 399.72C271.504 399.72 272.597 399.293 273.371 398.44C274.171 397.56 274.597 396.267 274.651 394.56ZM285.558 410.6C285.291 410.6 285.065 410.507 284.878 410.32C284.691 410.16 284.598 409.933 284.598 409.64V383.16C284.598 382.867 284.691 382.64 284.878 382.48C285.065 382.293 285.291 382.2 285.558 382.2H288.718C289.011 382.2 289.238 382.293 289.398 382.48C289.585 382.64 289.678 382.867 289.678 383.16V384.76C291.171 382.787 293.305 381.8 296.078 381.8C298.771 381.8 300.838 382.653 302.278 384.36C303.718 386.04 304.491 388.32 304.598 391.2C304.625 391.52 304.638 391.987 304.638 392.6C304.638 393.24 304.625 393.72 304.598 394.04C304.491 396.84 303.718 399.107 302.278 400.84C300.838 402.547 298.771 403.4 296.078 403.4C293.385 403.4 291.331 402.453 289.918 400.56V409.64C289.918 409.933 289.825 410.16 289.638 410.32C289.478 410.507 289.251 410.6 288.958 410.6H285.558ZM294.598 399.12C297.478 399.12 299.011 397.347 299.198 393.8C299.225 393.533 299.238 393.133 299.238 392.6C299.238 392.067 299.225 391.667 299.198 391.4C299.011 387.853 297.478 386.08 294.598 386.08C293.051 386.08 291.905 386.573 291.158 387.56C290.411 388.547 289.998 389.76 289.918 391.2L289.878 392.72L289.918 394.28C289.971 395.613 290.385 396.76 291.158 397.72C291.958 398.653 293.105 399.12 294.598 399.12ZM318.088 403.4C315.128 403.4 312.768 402.547 311.008 400.84C309.275 399.107 308.355 396.68 308.248 393.56L308.208 392.56L308.248 391.56C308.382 388.52 309.315 386.133 311.048 384.4C312.808 382.667 315.155 381.8 318.088 381.8C321.235 381.8 323.662 382.76 325.368 384.68C327.102 386.6 327.968 389.16 327.968 392.36V393.2C327.968 393.467 327.875 393.693 327.688 393.88C327.502 394.067 327.262 394.16 326.968 394.16H313.688V394.48C313.742 395.947 314.142 397.187 314.888 398.2C315.662 399.187 316.715 399.68 318.048 399.68C319.622 399.68 320.888 399.067 321.848 397.84C322.088 397.547 322.275 397.36 322.408 397.28C322.568 397.2 322.795 397.16 323.088 397.16H326.528C326.768 397.16 326.968 397.24 327.128 397.4C327.315 397.533 327.408 397.707 327.408 397.92C327.408 398.56 327.022 399.32 326.248 400.2C325.502 401.053 324.422 401.8 323.008 402.44C321.595 403.08 319.955 403.4 318.088 403.4ZM322.528 390.8V390.68C322.528 389.107 322.128 387.84 321.328 386.88C320.555 385.92 319.475 385.44 318.088 385.44C316.702 385.44 315.622 385.92 314.848 386.88C314.075 387.84 313.688 389.107 313.688 390.68V390.8H322.528ZM338.574 403C338.308 403 338.081 402.907 337.894 402.72C337.708 402.533 337.614 402.307 337.614 402.04V386.44H331.094C330.828 386.44 330.601 386.347 330.414 386.16C330.228 385.973 330.134 385.733 330.134 385.44V383.16C330.134 382.867 330.228 382.64 330.414 382.48C330.601 382.293 330.828 382.2 331.094 382.2H349.254C349.548 382.2 349.788 382.293 349.974 382.48C350.161 382.667 350.254 382.893 350.254 383.16V385.44C350.254 385.707 350.161 385.947 349.974 386.16C349.788 386.347 349.548 386.44 349.254 386.44H342.774V402.04C342.774 402.307 342.681 402.533 342.494 402.72C342.334 402.907 342.108 403 341.814 403H338.574ZM359.465 403.4C358.105 403.4 356.852 403.133 355.705 402.6C354.585 402.04 353.692 401.293 353.025 400.36C352.385 399.427 352.065 398.4 352.065 397.28C352.065 395.467 352.798 394 354.265 392.88C355.732 391.76 357.745 391 360.305 390.6L365.785 389.8V388.96C365.785 387.787 365.492 386.907 364.905 386.32C364.318 385.733 363.372 385.44 362.065 385.44C361.185 385.44 360.465 385.613 359.905 385.96C359.372 386.28 358.945 386.6 358.625 386.92C358.305 387.267 358.092 387.493 357.985 387.6C357.878 387.92 357.678 388.08 357.385 388.08H354.305C354.065 388.08 353.852 388 353.665 387.84C353.505 387.68 353.425 387.467 353.425 387.2C353.452 386.533 353.772 385.773 354.385 384.92C355.025 384.067 355.998 383.333 357.305 382.72C358.612 382.107 360.212 381.8 362.105 381.8C365.252 381.8 367.545 382.507 368.985 383.92C370.425 385.333 371.145 387.187 371.145 389.48V402.04C371.145 402.307 371.052 402.533 370.865 402.72C370.705 402.907 370.478 403 370.185 403H366.945C366.678 403 366.452 402.907 366.265 402.72C366.078 402.533 365.985 402.307 365.985 402.04V400.48C365.398 401.333 364.558 402.04 363.465 402.6C362.398 403.133 361.065 403.4 359.465 403.4ZM360.825 399.6C362.292 399.6 363.492 399.12 364.425 398.16C365.358 397.2 365.825 395.8 365.825 393.96V393.12L361.825 393.76C360.278 394 359.105 394.387 358.305 394.92C357.532 395.453 357.145 396.107 357.145 396.88C357.145 397.733 357.505 398.4 358.225 398.88C358.945 399.36 359.812 399.6 360.825 399.6ZM395.237 382.2C395.477 382.2 395.69 382.293 395.877 382.48C396.063 382.64 396.157 382.84 396.157 383.08V402.04C396.157 402.307 396.063 402.533 395.877 402.72C395.69 402.907 395.463 403 395.197 403H391.877C391.61 403 391.383 402.907 391.197 402.72C391.01 402.533 390.917 402.307 390.917 402.04V389.2L381.317 402.36C381.077 402.787 380.717 403 380.237 403H377.197C376.957 403 376.743 402.92 376.557 402.76C376.37 402.573 376.277 402.347 376.277 402.08V383.16C376.277 382.893 376.37 382.667 376.557 382.48C376.743 382.293 376.97 382.2 377.237 382.2H380.557C380.85 382.2 381.077 382.293 381.237 382.48C381.423 382.64 381.517 382.867 381.517 383.16V396.04L391.117 382.84C391.41 382.413 391.77 382.2 392.197 382.2H395.237ZM386.437 379.48C384.17 379.48 382.517 378.987 381.477 378C380.437 376.987 379.917 375.693 379.917 374.12C379.917 373.907 379.983 373.733 380.117 373.6C380.25 373.44 380.437 373.36 380.677 373.36H382.957C383.197 373.36 383.383 373.44 383.517 373.6C383.65 373.733 383.717 373.907 383.717 374.12C383.717 375.64 384.623 376.4 386.437 376.4C388.25 376.4 389.157 375.64 389.157 374.12C389.157 373.907 389.223 373.733 389.357 373.6C389.49 373.44 389.677 373.36 389.917 373.36H392.237C392.477 373.36 392.663 373.44 392.797 373.6C392.93 373.733 392.997 373.907 392.997 374.12C392.997 375.693 392.463 376.987 391.397 378C390.357 378.987 388.703 379.48 386.437 379.48ZM429.739 392.12C429.766 392.413 429.779 392.867 429.779 393.48C429.779 394.067 429.766 394.493 429.739 394.76C429.606 397.427 428.686 399.533 426.979 401.08C425.299 402.627 422.886 403.4 419.739 403.4C416.433 403.4 413.966 402.547 412.339 400.84C410.739 399.107 409.873 396.56 409.739 393.2L409.699 390.8L409.739 388.4C409.819 384.613 410.406 381.773 411.499 379.88C412.593 377.96 414.179 376.573 416.259 375.72C418.339 374.84 421.699 373.84 426.339 372.72L426.539 372.68C426.753 372.68 426.953 372.76 427.139 372.92C427.326 373.053 427.433 373.24 427.459 373.48L427.979 376.12L428.019 376.36C428.019 376.573 427.953 376.76 427.819 376.92C427.686 377.053 427.513 377.147 427.299 377.2L426.019 377.48C422.846 378.2 420.566 378.813 419.179 379.32C417.819 379.8 416.779 380.547 416.059 381.56C415.339 382.573 414.926 384.093 414.819 386.12C415.459 385.32 416.299 384.68 417.339 384.2C418.406 383.72 419.526 383.48 420.699 383.48C423.499 383.48 425.673 384.253 427.219 385.8C428.766 387.347 429.606 389.453 429.739 392.12ZM424.299 394.56C424.326 394.373 424.339 394.027 424.339 393.52C424.339 392.96 424.326 392.56 424.299 392.32C424.246 390.667 423.846 389.4 423.099 388.52C422.353 387.613 421.339 387.16 420.059 387.16C418.593 387.16 417.433 387.613 416.579 388.52C415.726 389.4 415.273 390.667 415.219 392.32L415.179 393.52L415.219 394.56C415.273 396.24 415.686 397.52 416.459 398.4C417.233 399.28 418.326 399.72 419.739 399.72C421.153 399.72 422.246 399.293 423.019 398.44C423.819 397.56 424.246 396.267 424.299 394.56ZM452.646 382.2C452.86 382.2 453.046 382.28 453.206 382.44C453.393 382.6 453.486 382.787 453.486 383C453.486 383.187 453.433 383.4 453.326 383.64L445.726 401.8C444.9 403.773 444.153 405.347 443.486 406.52C442.82 407.693 441.993 408.667 441.006 409.44C440.02 410.213 438.833 410.6 437.446 410.6H435.686C435.42 410.6 435.193 410.507 435.006 410.32C434.82 410.16 434.726 409.933 434.726 409.64V407.36C434.726 407.093 434.82 406.867 435.006 406.68C435.193 406.493 435.42 406.4 435.686 406.4H436.926C437.726 406.4 438.326 406.173 438.726 405.72C439.126 405.267 439.606 404.36 440.166 403L440.606 401.92L432.726 383.64C432.62 383.4 432.566 383.213 432.566 383.08C432.593 382.84 432.686 382.64 432.846 382.48C433.006 382.293 433.206 382.2 433.446 382.2H436.646C437.126 382.2 437.473 382.453 437.686 382.96L443.006 396.12L448.486 382.96C448.673 382.453 449.046 382.2 449.606 382.2H452.646ZM456.219 407.4C455.952 407.4 455.726 407.307 455.539 407.12C455.352 406.96 455.259 406.733 455.259 406.44V399.72C455.259 399.453 455.352 399.227 455.539 399.04C455.726 398.853 455.952 398.76 456.219 398.76H456.539C457.579 398.76 458.339 397.933 458.819 396.28C459.299 394.627 459.539 392.053 459.539 388.56V383.16C459.539 382.867 459.632 382.64 459.819 382.48C460.006 382.293 460.232 382.2 460.499 382.2H474.739C475.032 382.2 475.259 382.293 475.419 382.48C475.606 382.64 475.699 382.867 475.699 383.16V398.72H477.499C477.792 398.72 478.019 398.813 478.179 399C478.366 399.16 478.459 399.387 478.459 399.68V406.44C478.459 406.733 478.366 406.96 478.179 407.12C478.019 407.307 477.792 407.4 477.499 407.4H474.219C473.926 407.4 473.686 407.307 473.499 407.12C473.312 406.933 473.219 406.707 473.219 406.44V403H460.499V406.44C460.499 406.733 460.406 406.96 460.219 407.12C460.059 407.307 459.832 407.4 459.539 407.4H456.219ZM470.499 398.72V386.44H464.579V389.12C464.579 393.707 463.952 396.92 462.699 398.76L470.499 398.72ZM500.576 382.2C500.789 382.2 500.976 382.28 501.136 382.44C501.323 382.6 501.416 382.787 501.416 383C501.416 383.187 501.363 383.4 501.256 383.64L493.656 401.8C492.829 403.773 492.083 405.347 491.416 406.52C490.749 407.693 489.923 408.667 488.936 409.44C487.949 410.213 486.763 410.6 485.376 410.6H483.616C483.349 410.6 483.123 410.507 482.936 410.32C482.749 410.16 482.656 409.933 482.656 409.64V407.36C482.656 407.093 482.749 406.867 482.936 406.68C483.123 406.493 483.349 406.4 483.616 406.4H484.856C485.656 406.4 486.256 406.173 486.656 405.72C487.056 405.267 487.536 404.36 488.096 403L488.536 401.92L480.656 383.64C480.549 383.4 480.496 383.213 480.496 383.08C480.523 382.84 480.616 382.64 480.776 382.48C480.936 382.293 481.136 382.2 481.376 382.2H484.576C485.056 382.2 485.403 382.453 485.616 382.96L490.936 396.12L496.416 382.96C496.603 382.453 496.976 382.2 497.536 382.2H500.576ZM530.389 407.88C530.122 407.88 529.895 407.787 529.709 407.6C529.522 407.413 529.429 407.187 529.429 406.92V403H505.909C505.642 403 505.415 402.907 505.229 402.72C505.042 402.533 504.949 402.307 504.949 402.04V383.16C504.949 382.893 505.042 382.667 505.229 382.48C505.415 382.293 505.642 382.2 505.909 382.2H509.069C509.362 382.2 509.589 382.293 509.749 382.48C509.935 382.64 510.029 382.867 510.029 383.16V398.76H516.029V383.16C516.029 382.867 516.122 382.64 516.309 382.48C516.495 382.293 516.722 382.2 516.989 382.2H519.869C520.162 382.2 520.389 382.293 520.549 382.48C520.735 382.64 520.829 382.867 520.829 383.16V398.76H526.829V383.16C526.829 382.867 526.922 382.64 527.109 382.48C527.295 382.293 527.522 382.2 527.789 382.2H530.949C531.215 382.2 531.442 382.293 531.629 382.48C531.815 382.667 531.909 382.893 531.909 383.16V398.76H533.709C533.975 398.76 534.202 398.853 534.389 399.04C534.575 399.227 534.669 399.453 534.669 399.72V406.92C534.669 407.213 534.575 407.44 534.389 407.6C534.229 407.787 534.002 407.88 533.709 407.88H530.389ZM547.19 403.4C544.23 403.4 541.87 402.547 540.11 400.84C538.377 399.107 537.457 396.68 537.35 393.56L537.31 392.56L537.35 391.56C537.483 388.52 538.417 386.133 540.15 384.4C541.91 382.667 544.257 381.8 547.19 381.8C550.337 381.8 552.763 382.76 554.47 384.68C556.203 386.6 557.07 389.16 557.07 392.36V393.2C557.07 393.467 556.977 393.693 556.79 393.88C556.603 394.067 556.363 394.16 556.07 394.16H542.79V394.48C542.843 395.947 543.243 397.187 543.99 398.2C544.763 399.187 545.817 399.68 547.15 399.68C548.723 399.68 549.99 399.067 550.95 397.84C551.19 397.547 551.377 397.36 551.51 397.28C551.67 397.2 551.897 397.16 552.19 397.16H555.63C555.87 397.16 556.07 397.24 556.23 397.4C556.417 397.533 556.51 397.707 556.51 397.92C556.51 398.56 556.123 399.32 555.35 400.2C554.603 401.053 553.523 401.8 552.11 402.44C550.697 403.08 549.057 403.4 547.19 403.4ZM551.63 390.8V390.68C551.63 389.107 551.23 387.84 550.43 386.88C549.657 385.92 548.577 385.44 547.19 385.44C545.803 385.44 544.723 385.92 543.95 386.88C543.177 387.84 542.79 389.107 542.79 390.68V390.8H551.63ZM570.276 403.4C567.316 403.4 564.956 402.547 563.196 400.84C561.462 399.107 560.542 396.68 560.436 393.56L560.396 392.56L560.436 391.56C560.569 388.52 561.502 386.133 563.236 384.4C564.996 382.667 567.342 381.8 570.276 381.8C573.422 381.8 575.849 382.76 577.556 384.68C579.289 386.6 580.156 389.16 580.156 392.36V393.2C580.156 393.467 580.062 393.693 579.876 393.88C579.689 394.067 579.449 394.16 579.156 394.16H565.876V394.48C565.929 395.947 566.329 397.187 567.076 398.2C567.849 399.187 568.902 399.68 570.236 399.68C571.809 399.68 573.076 399.067 574.036 397.84C574.276 397.547 574.462 397.36 574.596 397.28C574.756 397.2 574.982 397.16 575.276 397.16H578.716C578.956 397.16 579.156 397.24 579.316 397.4C579.502 397.533 579.596 397.707 579.596 397.92C579.596 398.56 579.209 399.32 578.436 400.2C577.689 401.053 576.609 401.8 575.196 402.44C573.782 403.08 572.142 403.4 570.276 403.4ZM574.716 390.8V390.68C574.716 389.107 574.316 387.84 573.516 386.88C572.742 385.92 571.662 385.44 570.276 385.44C568.889 385.44 567.809 385.92 567.036 386.88C566.262 387.84 565.876 389.107 565.876 390.68V390.8H574.716ZM602.542 403.4C599.609 403.4 597.262 402.587 595.502 400.96C593.769 399.333 592.849 397.08 592.742 394.2L592.702 392.6L592.742 391C592.849 388.12 593.769 385.867 595.502 384.24C597.262 382.613 599.609 381.8 602.542 381.8C604.622 381.8 606.382 382.173 607.822 382.92C609.289 383.667 610.369 384.587 611.062 385.68C611.782 386.747 612.169 387.76 612.222 388.72C612.249 388.987 612.156 389.213 611.942 389.4C611.756 389.587 611.529 389.68 611.262 389.68H607.742C607.476 389.68 607.262 389.627 607.102 389.52C606.969 389.387 606.836 389.173 606.702 388.88C606.302 387.84 605.769 387.093 605.102 386.64C604.462 386.187 603.636 385.96 602.622 385.96C601.262 385.96 600.196 386.4 599.422 387.28C598.649 388.133 598.236 389.44 598.182 391.2L598.142 392.68L598.182 394C598.289 397.493 599.769 399.24 602.622 399.24C603.662 399.24 604.502 399.013 605.142 398.56C605.782 398.107 606.302 397.36 606.702 396.32C606.836 396.027 606.969 395.827 607.102 395.72C607.262 395.587 607.476 395.52 607.742 395.52H611.262C611.529 395.52 611.756 395.613 611.942 395.8C612.156 395.987 612.249 396.213 612.222 396.48C612.169 397.413 611.796 398.413 611.102 399.48C610.409 400.547 609.342 401.467 607.902 402.24C606.462 403.013 604.676 403.4 602.542 403.4ZM626.495 403C626.228 403 626.001 402.907 625.815 402.72C625.628 402.533 625.535 402.307 625.535 402.04V383.16C625.535 382.893 625.628 382.667 625.815 382.48C626.001 382.293 626.228 382.2 626.495 382.2H629.815C630.108 382.2 630.335 382.293 630.495 382.48C630.681 382.64 630.775 382.867 630.775 383.16V390.32H639.815V383.16C639.815 382.867 639.908 382.64 640.095 382.48C640.281 382.293 640.508 382.2 640.775 382.2H644.095C644.388 382.2 644.615 382.293 644.775 382.48C644.961 382.64 645.055 382.867 645.055 383.16V402.04C645.055 402.307 644.961 402.533 644.775 402.72C644.615 402.907 644.388 403 644.095 403H640.775C640.508 403 640.281 402.907 640.095 402.72C639.908 402.533 639.815 402.307 639.815 402.04V394.52H630.775V402.04C630.775 402.307 630.681 402.533 630.495 402.72C630.335 402.907 630.108 403 629.815 403H626.495ZM656.496 403.4C655.136 403.4 653.883 403.133 652.736 402.6C651.616 402.04 650.723 401.293 650.056 400.36C649.416 399.427 649.096 398.4 649.096 397.28C649.096 395.467 649.83 394 651.296 392.88C652.763 391.76 654.776 391 657.336 390.6L662.816 389.8V388.96C662.816 387.787 662.523 386.907 661.936 386.32C661.35 385.733 660.403 385.44 659.096 385.44C658.216 385.44 657.496 385.613 656.936 385.96C656.403 386.28 655.976 386.6 655.656 386.92C655.336 387.267 655.123 387.493 655.016 387.6C654.91 387.92 654.71 388.08 654.416 388.08H651.336C651.096 388.08 650.883 388 650.696 387.84C650.536 387.68 650.456 387.467 650.456 387.2C650.483 386.533 650.803 385.773 651.416 384.92C652.056 384.067 653.03 383.333 654.336 382.72C655.643 382.107 657.243 381.8 659.136 381.8C662.283 381.8 664.576 382.507 666.016 383.92C667.456 385.333 668.176 387.187 668.176 389.48V402.04C668.176 402.307 668.083 402.533 667.896 402.72C667.736 402.907 667.51 403 667.216 403H663.976C663.71 403 663.483 402.907 663.296 402.72C663.11 402.533 663.016 402.307 663.016 402.04V400.48C662.43 401.333 661.59 402.04 660.496 402.6C659.43 403.133 658.096 403.4 656.496 403.4ZM657.856 399.6C659.323 399.6 660.523 399.12 661.456 398.16C662.39 397.2 662.856 395.8 662.856 393.96V393.12L658.856 393.76C657.31 394 656.136 394.387 655.336 394.92C654.563 395.453 654.176 396.107 654.176 396.88C654.176 397.733 654.536 398.4 655.256 398.88C655.976 399.36 656.843 399.6 657.856 399.6ZM695.188 382.2C695.401 382.2 695.588 382.28 695.748 382.44C695.935 382.6 696.028 382.773 696.028 382.96V402.16C696.028 402.4 695.948 402.6 695.788 402.76C695.628 402.92 695.415 403 695.148 403H691.708C691.441 403 691.228 402.92 691.068 402.76C690.935 402.6 690.868 402.4 690.868 402.16V390.96L686.588 398.84C686.401 399.16 686.215 399.4 686.028 399.56C685.868 399.72 685.628 399.8 685.308 399.8H683.988C683.695 399.8 683.455 399.72 683.268 399.56C683.081 399.4 682.908 399.16 682.748 398.84L678.468 391.12V402.16C678.468 402.4 678.388 402.6 678.228 402.76C678.068 402.92 677.868 403 677.628 403H674.188C673.921 403 673.708 402.92 673.548 402.76C673.388 402.6 673.308 402.4 673.308 402.16V382.96C673.308 382.773 673.388 382.6 673.548 382.44C673.708 382.28 673.895 382.2 674.108 382.2H677.468C677.921 382.2 678.268 382.427 678.508 382.88L684.668 394.08L690.828 382.88C691.068 382.427 691.415 382.2 691.868 382.2H695.188ZM720.393 382.2C720.633 382.2 720.846 382.293 721.033 382.48C721.22 382.64 721.313 382.84 721.313 383.08V402.04C721.313 402.307 721.22 402.533 721.033 402.72C720.846 402.907 720.62 403 720.353 403H717.033C716.766 403 716.54 402.907 716.353 402.72C716.166 402.533 716.073 402.307 716.073 402.04V389.2L706.473 402.36C706.233 402.787 705.873 403 705.393 403H702.353C702.113 403 701.9 402.92 701.713 402.76C701.526 402.573 701.433 402.347 701.433 402.08V383.16C701.433 382.893 701.526 382.667 701.713 382.48C701.9 382.293 702.126 382.2 702.393 382.2H705.713C706.006 382.2 706.233 382.293 706.393 382.48C706.58 382.64 706.673 382.867 706.673 383.16V396.04L716.273 382.84C716.566 382.413 716.926 382.2 717.353 382.2H720.393ZM727.435 395.24C727.168 395.24 726.942 395.147 726.755 394.96C726.568 394.773 726.475 394.547 726.475 394.28V375.96C726.475 375.693 726.568 375.467 726.755 375.28C726.942 375.093 727.168 375 727.435 375H730.675C730.968 375 731.195 375.093 731.355 375.28C731.542 375.44 731.635 375.667 731.635 375.96V394.28C731.635 394.547 731.542 394.773 731.355 394.96C731.195 395.147 730.968 395.24 730.675 395.24H727.435ZM727.195 403C726.928 403 726.702 402.907 726.515 402.72C726.328 402.533 726.235 402.307 726.235 402.04V398.32C726.235 398.027 726.328 397.787 726.515 397.6C726.702 397.413 726.928 397.32 727.195 397.32H730.915C731.208 397.32 731.448 397.413 731.635 397.6C731.822 397.787 731.915 398.027 731.915 398.32V402.04C731.915 402.307 731.822 402.533 731.635 402.72C731.448 402.907 731.208 403 730.915 403H727.195Z" fill="#2B2E36"/>
<line opacity="0.15" x1="310.5" y1="451" x2="606.5" y2="451" stroke="#007AA9" stroke-width="4" stroke-linecap="round"/>
</svg>
