<svg width="918" height="507" viewBox="0 0 918 507" fill="none" xmlns="http://www.w3.org/2000/svg">
<path d="M38.5458 68.96C38.1191 68.96 37.7351 68.8107 37.3938 68.512C37.0951 68.2133 36.9458 67.8293 36.9458 67.36V60H6.67375C6.20442 60 5.82042 59.8507 5.52175 59.552C5.22308 59.2107 5.07375 58.8053 5.07375 58.336V16.8C5.07375 16.3307 5.22308 15.9467 5.52175 15.648C5.82042 15.3493 6.20442 15.2 6.67375 15.2H14.9298C15.3991 15.2 15.7831 15.3493 16.0818 15.648C16.4231 15.9467 16.5938 16.3307 16.5938 16.8V49.76H32.3378V16.8C32.3378 16.3307 32.4871 15.9467 32.7858 15.648C33.0844 15.3493 33.4684 15.2 33.9378 15.2H42.1938C42.6631 15.2 43.0471 15.3493 43.3458 15.648C43.6444 15.9467 43.7938 16.3307 43.7938 16.8V49.76H46.8018C47.2711 49.76 47.6551 49.9093 47.9538 50.208C48.2951 50.5067 48.4658 50.8907 48.4658 51.36V67.36C48.4658 67.8293 48.2951 68.2133 47.9538 68.512C47.6551 68.8107 47.2711 68.96 46.8018 68.96H38.5458ZM239.801 68.96C239.332 68.96 238.927 68.8107 238.585 68.512C238.287 68.2133 238.137 67.8293 238.137 67.36V51.36C238.137 50.8907 238.287 50.5067 238.585 50.208C238.927 49.9093 239.332 49.76 239.801 49.76H240.953C242.873 49.76 244.239 48.0107 245.049 44.512C245.903 41.0133 246.329 36.1067 246.329 29.792V16.8C246.329 16.3307 246.479 15.9467 246.777 15.648C247.119 15.3493 247.503 15.2 247.929 15.2H278.009C278.479 15.2 278.863 15.3493 279.161 15.648C279.46 15.9467 279.609 16.3307 279.609 16.8V49.76H282.617C283.087 49.76 283.471 49.9093 283.769 50.208C284.111 50.5067 284.281 50.8907 284.281 51.36V67.36C284.281 67.8293 284.111 68.2133 283.769 68.512C283.471 68.8107 283.087 68.96 282.617 68.96H274.361C273.935 68.96 273.551 68.8107 273.209 68.512C272.911 68.2133 272.761 67.8293 272.761 67.36V60H249.657V67.36C249.657 67.8293 249.508 68.2133 249.209 68.512C248.911 68.8107 248.527 68.96 248.057 68.96H239.801ZM268.153 49.76V25.44H257.465V31.264C257.465 39.9253 256.484 46.0907 254.521 49.76H268.153ZM114.69 136.64C108.674 136.64 103.938 135.168 100.482 132.224C97.0263 129.28 95.1916 124.949 94.9783 119.232C94.9356 117.995 94.9143 116.16 94.9143 113.728C94.9143 111.253 94.9356 109.397 94.9783 108.16C95.1916 102.528 97.0476 98.1973 100.546 95.168C104.088 92.096 108.802 90.56 114.69 90.56C120.578 90.56 125.293 92.096 128.834 95.168C132.376 98.1973 134.232 102.528 134.402 108.16C134.488 110.635 134.53 112.491 134.53 113.728C134.53 114.923 134.488 116.757 134.402 119.232C134.189 124.949 132.354 129.28 128.898 132.224C125.442 135.168 120.706 136.64 114.69 136.64ZM114.69 127.424C117.037 127.424 118.893 126.72 120.258 125.312C121.666 123.904 122.413 121.749 122.498 118.848C122.584 116.373 122.626 114.624 122.626 113.6C122.626 112.491 122.584 110.741 122.498 108.352C122.413 105.451 121.666 103.296 120.258 101.888C118.85 100.48 116.994 99.776 114.69 99.776C112.386 99.776 110.53 100.48 109.122 101.888C107.757 103.296 107.01 105.451 106.882 108.352C106.84 109.547 106.818 111.296 106.818 113.6C106.818 115.861 106.84 117.611 106.882 118.848C107.01 121.749 107.757 123.904 109.122 125.312C110.488 126.72 112.344 127.424 114.69 127.424ZM607.614 144.96C607.144 144.96 606.739 144.811 606.398 144.512C606.099 144.213 605.95 143.829 605.95 143.36V127.36C605.95 126.891 606.099 126.507 606.398 126.208C606.739 125.909 607.144 125.76 607.614 125.76H608.766C610.686 125.76 612.051 124.011 612.862 120.512C613.715 117.013 614.142 112.107 614.142 105.792V92.8C614.142 92.3307 614.291 91.9467 614.59 91.648C614.931 91.3493 615.315 91.2 615.742 91.2H645.822C646.291 91.2 646.675 91.3493 646.974 91.648C647.272 91.9467 647.422 92.3307 647.422 92.8V125.76H650.43C650.899 125.76 651.283 125.909 651.582 126.208C651.923 126.507 652.094 126.891 652.094 127.36V143.36C652.094 143.829 651.923 144.213 651.582 144.512C651.283 144.811 650.899 144.96 650.43 144.96H642.174C641.747 144.96 641.363 144.811 641.022 144.512C640.723 144.213 640.574 143.829 640.574 143.36V136H617.47V143.36C617.47 143.829 617.32 144.213 617.022 144.512C616.723 144.811 616.339 144.96 615.87 144.96H607.614ZM635.966 125.76V101.44H625.278V107.264C625.278 115.925 624.296 122.091 622.334 125.76H635.966Z" fill="#007AA9"/>
<path d="M56.6113 60C56.1846 60 55.8006 59.8507 55.4593 59.552C55.1606 59.2107 55.0113 58.8267 55.0113 58.4V16.8C55.0113 16.3307 55.1606 15.9467 55.4593 15.648C55.8006 15.3493 56.1846 15.2 56.6113 15.2H86.4993C86.9686 15.2 87.3526 15.3493 87.6513 15.648C87.9499 15.9467 88.0993 16.3307 88.0993 16.8V22.816C88.0993 23.2427 87.9499 23.6267 87.6513 23.968C87.3526 24.2667 86.9686 24.416 86.4993 24.416H66.0833V33.056H85.0913C85.5606 33.056 85.9446 33.2267 86.2433 33.568C86.5419 33.8667 86.6912 34.2507 86.6912 34.72V40.288C86.6912 40.7147 86.5419 41.0987 86.2433 41.44C85.9446 41.7387 85.5606 41.888 85.0913 41.888H66.0833V50.784H87.0113C87.4806 50.784 87.8646 50.9333 88.1632 51.232C88.4619 51.5307 88.6113 51.9147 88.6113 52.384V58.4C88.6113 58.8267 88.4619 59.2107 88.1632 59.552C87.8646 59.8507 87.4806 60 87.0113 60H56.6113ZM97.4863 60C97.0169 60 96.6329 59.8507 96.3343 59.552C96.0356 59.2533 95.8863 58.8693 95.8863 58.4V16.8C95.8863 16.3307 96.0356 15.9467 96.3343 15.648C96.6756 15.3493 97.0596 15.2 97.4863 15.2H105.742C106.212 15.2 106.596 15.3493 106.894 15.648C107.236 15.9467 107.406 16.3307 107.406 16.8V32.224H123.15V16.8C123.15 16.3307 123.3 15.9467 123.598 15.648C123.897 15.3493 124.281 15.2 124.75 15.2H133.006C133.476 15.2 133.86 15.3493 134.158 15.648C134.457 15.9467 134.606 16.3307 134.606 16.8V58.4C134.606 58.8693 134.457 59.2533 134.158 59.552C133.86 59.8507 133.476 60 133.006 60H124.75C124.281 60 123.897 59.8507 123.598 59.552C123.3 59.2533 123.15 58.8693 123.15 58.4V42.464H107.406V58.4C107.406 58.8693 107.236 59.2533 106.894 59.552C106.596 59.8507 106.212 60 105.742 60H97.4863ZM155.03 60C154.603 60 154.219 59.8507 153.878 59.552C153.579 59.2107 153.43 58.8267 153.43 58.4V25.248H142.038C141.611 25.248 141.227 25.0987 140.886 24.8C140.587 24.4587 140.438 24.0747 140.438 23.648V16.8C140.438 16.3307 140.587 15.9467 140.886 15.648C141.227 15.3493 141.611 15.2 142.038 15.2H176.47C176.939 15.2 177.323 15.3493 177.622 15.648C177.92 15.9467 178.07 16.3307 178.07 16.8V23.648C178.07 24.1173 177.92 24.5013 177.622 24.8C177.323 25.0987 176.939 25.248 176.47 25.248H165.078V58.4C165.078 58.8267 164.928 59.2107 164.63 59.552C164.331 59.8507 163.947 60 163.478 60H155.03ZM185.486 60C185.06 60 184.676 59.8507 184.334 59.552C184.036 59.2107 183.886 58.8267 183.886 58.4V16.8C183.886 16.3307 184.036 15.9467 184.334 15.648C184.676 15.3493 185.06 15.2 185.486 15.2H203.406C208.868 15.2 213.156 16.4587 216.27 18.976C219.428 21.4933 221.006 25.1627 221.006 29.984C221.006 34.7627 219.449 38.368 216.334 40.8C213.22 43.1893 208.91 44.384 203.406 44.384H195.79V58.4C195.79 58.8693 195.62 59.2533 195.278 59.552C194.98 59.8507 194.596 60 194.126 60H185.486ZM203.086 35.552C204.964 35.552 206.436 35.0827 207.502 34.144C208.569 33.1627 209.102 31.7333 209.102 29.856C209.102 28.1067 208.59 26.72 207.566 25.696C206.585 24.6293 205.092 24.096 203.086 24.096H195.598V35.552H203.086ZM309.128 60.64C303.112 60.64 298.376 59.168 294.92 56.224C291.464 53.28 289.629 48.9493 289.416 43.232C289.373 41.9947 289.352 40.16 289.352 37.728C289.352 35.2533 289.373 33.3973 289.416 32.16C289.629 26.528 291.485 22.1973 294.984 19.168C298.525 16.096 303.24 14.56 309.128 14.56C315.016 14.56 319.73 16.096 323.272 19.168C326.813 22.1973 328.669 26.528 328.84 32.16C328.925 34.6347 328.968 36.4907 328.968 37.728C328.968 38.9227 328.925 40.7573 328.84 43.232C328.626 48.9493 326.792 53.28 323.336 56.224C319.88 59.168 315.144 60.64 309.128 60.64ZM309.128 51.424C311.474 51.424 313.33 50.72 314.696 49.312C316.104 47.904 316.85 45.7493 316.936 42.848C317.021 40.3733 317.064 38.624 317.064 37.6C317.064 36.4907 317.021 34.7413 316.936 32.352C316.85 29.4507 316.104 27.296 314.696 25.888C313.288 24.48 311.432 23.776 309.128 23.776C306.824 23.776 304.968 24.48 303.56 25.888C302.194 27.296 301.448 29.4507 301.32 32.352C301.277 33.5467 301.256 35.296 301.256 37.6C301.256 39.8613 301.277 41.6107 301.32 42.848C301.448 45.7493 302.194 47.904 303.56 49.312C304.925 50.72 306.781 51.424 309.128 51.424ZM337.986 60C337.517 60 337.133 59.8507 336.834 59.552C336.536 59.2533 336.386 58.8693 336.386 58.4V16.8C336.386 16.3307 336.536 15.9467 336.834 15.648C337.176 15.3493 337.56 15.2 337.986 15.2H373.506C373.976 15.2 374.36 15.3493 374.658 15.648C374.957 15.9467 375.106 16.3307 375.106 16.8V58.4C375.106 58.8693 374.957 59.2533 374.658 59.552C374.36 59.8507 373.976 60 373.506 60H365.25C364.781 60 364.397 59.8507 364.098 59.552C363.8 59.2533 363.65 58.8693 363.65 58.4V25.44H347.906V58.4C347.906 58.8693 347.736 59.2533 347.394 59.552C347.096 59.8507 346.712 60 346.242 60H337.986ZM402.378 60.64C396.362 60.64 391.626 59.168 388.17 56.224C384.714 53.28 382.879 48.9493 382.666 43.232C382.623 41.9947 382.602 40.16 382.602 37.728C382.602 35.2533 382.623 33.3973 382.666 32.16C382.879 26.528 384.735 22.1973 388.234 19.168C391.775 16.096 396.49 14.56 402.378 14.56C408.266 14.56 412.98 16.096 416.522 19.168C420.063 22.1973 421.919 26.528 422.09 32.16C422.175 34.6347 422.218 36.4907 422.218 37.728C422.218 38.9227 422.175 40.7573 422.09 43.232C421.876 48.9493 420.042 53.28 416.586 56.224C413.13 59.168 408.394 60.64 402.378 60.64ZM402.378 51.424C404.724 51.424 406.58 50.72 407.946 49.312C409.354 47.904 410.1 45.7493 410.186 42.848C410.271 40.3733 410.314 38.624 410.314 37.6C410.314 36.4907 410.271 34.7413 410.186 32.352C410.1 29.4507 409.354 27.296 407.946 25.888C406.538 24.48 404.682 23.776 402.378 23.776C400.074 23.776 398.218 24.48 396.81 25.888C395.444 27.296 394.698 29.4507 394.57 32.352C394.527 33.5467 394.506 35.296 394.506 37.6C394.506 39.8613 394.527 41.6107 394.57 42.848C394.698 45.7493 395.444 47.904 396.81 49.312C398.175 50.72 400.031 51.424 402.378 51.424ZM459.09 60C458.663 60 458.279 59.8507 457.938 59.552C457.639 59.2107 457.49 58.8267 457.49 58.4V25.44H445.586V31.264C445.586 38.4747 445.116 44.1067 444.178 48.16C443.239 52.1707 441.511 55.136 438.994 57.056C436.519 58.9333 432.914 59.9147 428.178 60C427.708 60 427.303 59.8507 426.962 59.552C426.62 59.2107 426.45 58.8053 426.45 58.336V51.616C426.45 50.72 426.983 50.1653 428.05 49.952C430.354 49.568 431.996 47.6907 432.978 44.32C433.959 40.9067 434.45 36.064 434.45 29.792V16.8C434.45 16.3307 434.599 15.9467 434.898 15.648C435.239 15.3493 435.644 15.2 436.114 15.2H467.346C467.815 15.2 468.199 15.3493 468.498 15.648C468.839 15.9467 469.01 16.3307 469.01 16.8V58.4C469.01 58.8693 468.839 59.2533 468.498 59.552C468.199 59.8507 467.815 60 467.346 60H459.09ZM479.486 60C479.017 60 478.633 59.8507 478.334 59.552C478.036 59.2533 477.886 58.8693 477.886 58.4V16.8C477.886 16.3307 478.036 15.9467 478.334 15.648C478.676 15.3493 479.06 15.2 479.486 15.2H487.742C488.212 15.2 488.596 15.3493 488.894 15.648C489.236 15.9467 489.406 16.3307 489.406 16.8V32.224H505.15V16.8C505.15 16.3307 505.3 15.9467 505.598 15.648C505.897 15.3493 506.281 15.2 506.75 15.2H515.006C515.476 15.2 515.86 15.3493 516.158 15.648C516.457 15.9467 516.606 16.3307 516.606 16.8V58.4C516.606 58.8693 516.457 59.2533 516.158 59.552C515.86 59.8507 515.476 60 515.006 60H506.75C506.281 60 505.897 59.8507 505.598 59.552C505.3 59.2533 505.15 58.8693 505.15 58.4V42.464H489.406V58.4C489.406 58.8693 489.236 59.2533 488.894 59.552C488.596 59.8507 488.212 60 487.742 60H479.486ZM527.174 60C526.704 60 526.32 59.8507 526.022 59.552C525.723 59.2107 525.574 58.8053 525.574 58.336V16.8C525.574 16.3307 525.723 15.9467 526.022 15.648C526.363 15.3493 526.747 15.2 527.174 15.2H535.43C535.899 15.2 536.283 15.3493 536.582 15.648C536.923 15.9467 537.094 16.3307 537.094 16.8V42.528L555.27 16.416C555.782 15.6053 556.507 15.2 557.446 15.2H564.87C565.339 15.2 565.723 15.3493 566.022 15.648C566.32 15.9467 566.47 16.3307 566.47 16.8V58.4C566.47 58.8267 566.32 59.2107 566.022 59.552C565.723 59.8507 565.339 60 564.87 60H556.614C556.144 60 555.739 59.8507 555.398 59.552C555.099 59.2533 554.95 58.8693 554.95 58.4V33.568L536.774 58.784C536.219 59.5947 535.494 60 534.598 60H527.174ZM586.905 60C586.478 60 586.094 59.8507 585.753 59.552C585.454 59.2107 585.305 58.8267 585.305 58.4V25.248H573.913C573.486 25.248 573.102 25.0987 572.761 24.8C572.462 24.4587 572.313 24.0747 572.313 23.648V16.8C572.313 16.3307 572.462 15.9467 572.761 15.648C573.102 15.3493 573.486 15.2 573.913 15.2H608.345C608.814 15.2 609.198 15.3493 609.497 15.648C609.795 15.9467 609.945 16.3307 609.945 16.8V23.648C609.945 24.1173 609.795 24.5013 609.497 24.8C609.198 25.0987 608.814 25.248 608.345 25.248H596.953V58.4C596.953 58.8267 596.803 59.2107 596.505 59.552C596.206 59.8507 595.822 60 595.353 60H586.905ZM617.361 60C616.935 60 616.551 59.8507 616.209 59.552C615.911 59.2107 615.761 58.8267 615.761 58.4V16.8C615.761 16.3307 615.911 15.9467 616.209 15.648C616.551 15.3493 616.935 15.2 617.361 15.2H647.249C647.719 15.2 648.103 15.3493 648.401 15.648C648.7 15.9467 648.849 16.3307 648.849 16.8V22.816C648.849 23.2427 648.7 23.6267 648.401 23.968C648.103 24.2667 647.719 24.416 647.249 24.416H626.833V33.056H645.841C646.311 33.056 646.695 33.2267 646.993 33.568C647.292 33.8667 647.441 34.2507 647.441 34.72V40.288C647.441 40.7147 647.292 41.0987 646.993 41.44C646.695 41.7387 646.311 41.888 645.841 41.888H626.833V50.784H647.761C648.231 50.784 648.615 50.9333 648.913 51.232C649.212 51.5307 649.361 51.9147 649.361 52.384V58.4C649.361 58.8267 649.212 59.2107 648.913 59.552C648.615 59.8507 648.231 60 647.761 60H617.361ZM686.652 60C686.226 60 685.842 59.8507 685.5 59.552C685.202 59.2107 685.052 58.8267 685.052 58.4V25.44H673.148V31.264C673.148 38.4747 672.679 44.1067 671.74 48.16C670.802 52.1707 669.074 55.136 666.556 57.056C664.082 58.9333 660.476 59.9147 655.74 60C655.271 60 654.866 59.8507 654.524 59.552C654.183 59.2107 654.012 58.8053 654.012 58.336V51.616C654.012 50.72 654.546 50.1653 655.612 49.952C657.916 49.568 659.559 47.6907 660.54 44.32C661.522 40.9067 662.012 36.064 662.012 29.792V16.8C662.012 16.3307 662.162 15.9467 662.46 15.648C662.802 15.3493 663.207 15.2 663.676 15.2H694.908C695.378 15.2 695.762 15.3493 696.06 15.648C696.402 15.9467 696.572 16.3307 696.572 16.8V58.4C696.572 58.8693 696.402 59.2533 696.06 59.552C695.762 59.8507 695.378 60 694.908 60H686.652ZM707.049 60C706.622 60 706.238 59.8507 705.897 59.552C705.598 59.2107 705.449 58.8267 705.449 58.4V16.8C705.449 16.3307 705.598 15.9467 705.897 15.648C706.238 15.3493 706.622 15.2 707.049 15.2H715.305C715.774 15.2 716.158 15.3493 716.457 15.648C716.798 15.9467 716.969 16.3307 716.969 16.8V30.56H723.689C729.235 30.56 733.502 31.7973 736.489 34.272C739.475 36.704 740.969 40.3093 740.969 45.088C740.969 49.6107 739.454 53.2373 736.425 55.968C733.438 58.656 729.193 60 723.689 60H707.049ZM723.433 51.104C725.225 51.104 726.611 50.5493 727.593 49.44C728.574 48.3307 729.065 46.88 729.065 45.088C729.065 43.2107 728.574 41.8027 727.593 40.864C726.611 39.8827 725.225 39.392 723.433 39.392H716.969V51.104H723.433ZM749.174 60C748.704 60 748.32 59.8507 748.022 59.552C747.723 59.2533 747.574 58.8693 747.574 58.4V16.8C747.574 16.3307 747.723 15.9467 748.022 15.648C748.363 15.3493 748.747 15.2 749.174 15.2H757.43C757.899 15.2 758.283 15.3493 758.582 15.648C758.923 15.9467 759.094 16.3307 759.094 16.8V32.224H774.838V16.8C774.838 16.3307 774.987 15.9467 775.286 15.648C775.584 15.3493 775.968 15.2 776.438 15.2H784.694C785.163 15.2 785.547 15.3493 785.846 15.648C786.144 15.9467 786.294 16.3307 786.294 16.8V58.4C786.294 58.8693 786.144 59.2533 785.846 59.552C785.547 59.8507 785.163 60 784.694 60H776.438C775.968 60 775.584 59.8507 775.286 59.552C774.987 59.2533 774.838 58.8693 774.838 58.4V42.464H759.094V58.4C759.094 58.8693 758.923 59.2533 758.582 59.552C758.283 59.8507 757.899 60 757.43 60H749.174ZM813.565 60.64C807.549 60.64 802.813 59.168 799.357 56.224C795.901 53.28 794.067 48.9493 793.853 43.232C793.811 41.9947 793.789 40.16 793.789 37.728C793.789 35.2533 793.811 33.3973 793.853 32.16C794.067 26.528 795.923 22.1973 799.421 19.168C802.963 16.096 807.677 14.56 813.565 14.56C819.453 14.56 824.168 16.096 827.709 19.168C831.251 22.1973 833.107 26.528 833.277 32.16C833.363 34.6347 833.405 36.4907 833.405 37.728C833.405 38.9227 833.363 40.7573 833.277 43.232C833.064 48.9493 831.229 53.28 827.773 56.224C824.317 59.168 819.581 60.64 813.565 60.64ZM813.565 51.424C815.912 51.424 817.768 50.72 819.133 49.312C820.541 47.904 821.288 45.7493 821.373 42.848C821.459 40.3733 821.501 38.624 821.501 37.6C821.501 36.4907 821.459 34.7413 821.373 32.352C821.288 29.4507 820.541 27.296 819.133 25.888C817.725 24.48 815.869 23.776 813.565 23.776C811.261 23.776 809.405 24.48 807.997 25.888C806.632 27.296 805.885 29.4507 805.757 32.352C805.715 33.5467 805.693 35.296 805.693 37.6C805.693 39.8613 805.715 41.6107 805.757 42.848C805.885 45.7493 806.632 47.904 807.997 49.312C809.363 50.72 811.219 51.424 813.565 51.424ZM842.424 60C841.997 60 841.613 59.8507 841.272 59.552C840.973 59.2107 840.824 58.8267 840.824 58.4V16.8C840.824 16.3307 840.973 15.9467 841.272 15.648C841.613 15.3493 841.997 15.2 842.424 15.2H870.008C870.477 15.2 870.861 15.3493 871.16 15.648C871.458 15.9467 871.608 16.3307 871.608 16.8V23.2C871.608 23.6693 871.458 24.0747 871.16 24.416C870.861 24.7147 870.477 24.864 870.008 24.864H852.344V58.4C852.344 58.8693 852.173 59.2533 851.832 59.552C851.533 59.8507 851.149 60 850.68 60H842.424ZM894.628 60.64C888.612 60.64 883.876 59.168 880.42 56.224C876.964 53.28 875.129 48.9493 874.916 43.232C874.873 41.9947 874.852 40.16 874.852 37.728C874.852 35.2533 874.873 33.3973 874.916 32.16C875.129 26.528 876.985 22.1973 880.484 19.168C884.025 16.096 888.74 14.56 894.628 14.56C900.516 14.56 905.23 16.096 908.772 19.168C912.313 22.1973 914.169 26.528 914.34 32.16C914.425 34.6347 914.468 36.4907 914.468 37.728C914.468 38.9227 914.425 40.7573 914.34 43.232C914.126 48.9493 912.292 53.28 908.836 56.224C905.38 59.168 900.644 60.64 894.628 60.64ZM894.628 51.424C896.974 51.424 898.83 50.72 900.196 49.312C901.604 47.904 902.35 45.7493 902.436 42.848C902.521 40.3733 902.564 38.624 902.564 37.6C902.564 36.4907 902.521 34.7413 902.436 32.352C902.35 29.4507 901.604 27.296 900.196 25.888C898.788 24.48 896.932 23.776 894.628 23.776C892.324 23.776 890.468 24.48 889.06 25.888C887.694 27.296 886.948 29.4507 886.82 32.352C886.777 33.5467 886.756 35.296 886.756 37.6C886.756 39.8613 886.777 41.6107 886.82 42.848C886.948 45.7493 887.694 47.904 889.06 49.312C890.425 50.72 892.281 51.424 894.628 51.424ZM143.549 136C143.122 136 142.738 135.851 142.397 135.552C142.098 135.211 141.949 134.827 141.949 134.4V92.8C141.949 92.3307 142.098 91.9467 142.397 91.648C142.738 91.3493 143.122 91.2 143.549 91.2H174.269C174.738 91.2 175.122 91.3493 175.421 91.648C175.719 91.9467 175.869 92.3307 175.869 92.8V99.2C175.869 99.6693 175.719 100.075 175.421 100.416C175.122 100.715 174.738 100.864 174.269 100.864H153.469V108.416H162.365C167.485 108.416 171.517 109.632 174.461 112.064C177.405 114.496 178.877 117.824 178.877 122.048C178.877 124.693 178.237 127.083 176.957 129.216C175.677 131.307 173.799 132.971 171.325 134.208C168.85 135.403 165.863 136 162.365 136H143.549ZM161.341 127.68C163.09 127.68 164.455 127.125 165.437 126.016C166.461 124.907 166.973 123.563 166.973 121.984C166.973 120.405 166.482 119.104 165.501 118.08C164.519 117.056 163.133 116.544 161.341 116.544H153.469V127.68H161.341ZM185.611 136C185.185 136 184.801 135.851 184.459 135.552C184.161 135.211 184.011 134.827 184.011 134.4V92.8C184.011 92.3307 184.161 91.9467 184.459 91.648C184.801 91.3493 185.185 91.2 185.611 91.2H203.531C208.993 91.2 213.281 92.4587 216.395 94.976C219.553 97.4933 221.131 101.163 221.131 105.984C221.131 110.763 219.574 114.368 216.459 116.8C213.345 119.189 209.035 120.384 203.531 120.384H195.915V134.4C195.915 134.869 195.745 135.253 195.403 135.552C195.105 135.851 194.721 136 194.251 136H185.611ZM203.211 111.552C205.089 111.552 206.561 111.083 207.627 110.144C208.694 109.163 209.227 107.733 209.227 105.856C209.227 104.107 208.715 102.72 207.691 101.696C206.71 100.629 205.217 100.096 203.211 100.096H195.723V111.552H203.211ZM224.701 136C224.36 136 224.04 135.872 223.741 135.616C223.485 135.317 223.357 134.997 223.357 134.656C223.357 134.4 223.379 134.208 223.421 134.08L238.461 92.992C238.589 92.48 238.867 92.0533 239.293 91.712C239.72 91.3707 240.275 91.2 240.957 91.2H250.429C251.112 91.2 251.667 91.3707 252.093 91.712C252.52 92.0533 252.797 92.48 252.925 92.992L267.901 134.08L268.029 134.656C268.029 134.997 267.88 135.317 267.581 135.616C267.325 135.872 267.005 136 266.621 136H258.749C257.725 136 257.043 135.552 256.701 134.656L254.205 128.128H237.117L234.685 134.656C234.344 135.552 233.64 136 232.573 136H224.701ZM251.645 118.912L245.693 102.016L239.741 118.912H251.645ZM289.842 136.64C285.703 136.64 282.247 136.064 279.474 134.912C276.743 133.717 274.695 132.181 273.33 130.304C271.964 128.427 271.175 126.4 270.962 124.224V124.096C270.962 123.755 271.09 123.477 271.346 123.264C271.644 123.051 271.986 122.944 272.37 122.944H280.562C281.458 122.944 282.119 123.328 282.546 124.096C283.612 126.357 285.959 127.488 289.586 127.488C291.89 127.488 293.703 127.061 295.026 126.208C296.391 125.312 297.074 124.075 297.074 122.496C297.074 120.875 296.455 119.637 295.218 118.784C293.98 117.931 292.252 117.504 290.034 117.504H285.298C284.871 117.504 284.487 117.355 284.146 117.056C283.847 116.715 283.698 116.309 283.698 115.84V110.656C283.698 110.187 283.847 109.803 284.146 109.504C284.487 109.163 284.871 108.992 285.298 108.992H289.906C291.74 108.992 293.191 108.608 294.258 107.84C295.324 107.072 295.858 105.92 295.858 104.384C295.858 103.019 295.303 101.909 294.194 101.056C293.127 100.203 291.612 99.776 289.65 99.776C287.772 99.776 286.258 100.075 285.106 100.672C283.996 101.269 283.292 102.123 282.994 103.232C282.78 103.659 282.546 103.957 282.29 104.128C282.034 104.299 281.671 104.384 281.202 104.384H272.754C272.37 104.384 272.028 104.256 271.73 104C271.474 103.701 271.367 103.36 271.41 102.976C271.623 100.757 272.37 98.7307 273.65 96.896C274.972 95.0187 276.978 93.504 279.666 92.352C282.396 91.1573 285.81 90.56 289.906 90.56C293.447 90.56 296.562 91.136 299.25 92.288C301.938 93.44 304.007 94.9973 305.458 96.96C306.908 98.88 307.634 100.992 307.634 103.296C307.634 107.52 305.948 110.571 302.578 112.448C304.796 113.515 306.418 115.008 307.442 116.928C308.466 118.805 308.978 120.832 308.978 123.008C308.978 125.696 308.188 128.085 306.61 130.176C305.074 132.224 302.855 133.824 299.954 134.976C297.095 136.085 293.724 136.64 289.842 136.64ZM334.378 136.64C328.362 136.64 323.626 135.168 320.17 132.224C316.714 129.28 314.879 124.949 314.666 119.232C314.623 117.995 314.602 116.16 314.602 113.728C314.602 111.253 314.623 109.397 314.666 108.16C314.879 102.528 316.735 98.1973 320.234 95.168C323.775 92.096 328.49 90.56 334.378 90.56C340.266 90.56 344.98 92.096 348.522 95.168C352.063 98.1973 353.919 102.528 354.09 108.16C354.175 110.635 354.218 112.491 354.218 113.728C354.218 114.923 354.175 116.757 354.09 119.232C353.876 124.949 352.042 129.28 348.586 132.224C345.13 135.168 340.394 136.64 334.378 136.64ZM334.378 127.424C336.724 127.424 338.58 126.72 339.946 125.312C341.354 123.904 342.1 121.749 342.186 118.848C342.271 116.373 342.314 114.624 342.314 113.6C342.314 112.491 342.271 110.741 342.186 108.352C342.1 105.451 341.354 103.296 339.946 101.888C338.538 100.48 336.682 99.776 334.378 99.776C332.074 99.776 330.218 100.48 328.81 101.888C327.444 103.296 326.698 105.451 326.57 108.352C326.527 109.547 326.506 111.296 326.506 113.6C326.506 115.861 326.527 117.611 326.57 118.848C326.698 121.749 327.444 123.904 328.81 125.312C330.175 126.72 332.031 127.424 334.378 127.424ZM363.236 136C362.81 136 362.426 135.851 362.084 135.552C361.786 135.211 361.636 134.827 361.636 134.4V92.8C361.636 92.3307 361.786 91.9467 362.084 91.648C362.426 91.3493 362.81 91.2 363.236 91.2H382.756C388.132 91.2 392.122 92.3093 394.724 94.528C397.37 96.704 398.692 99.8187 398.692 103.872C398.692 106.005 398.138 107.819 397.028 109.312C395.962 110.763 394.746 111.829 393.38 112.512C395.13 113.323 396.602 114.624 397.796 116.416C398.991 118.208 399.588 120.213 399.588 122.432C399.588 126.699 398.18 130.027 395.364 132.416C392.548 134.805 388.538 136 383.332 136H363.236ZM381.476 108.992C383.183 108.992 384.484 108.565 385.38 107.712C386.276 106.816 386.724 105.643 386.724 104.192C386.724 102.784 386.276 101.653 385.38 100.8C384.484 99.9467 383.183 99.52 381.476 99.52H373.156V108.992H381.476ZM382.052 127.68C383.802 127.68 385.167 127.168 386.148 126.144C387.13 125.12 387.62 123.883 387.62 122.432C387.62 120.896 387.13 119.637 386.148 118.656C385.167 117.632 383.802 117.12 382.052 117.12H373.156V127.68H382.052ZM404.139 136C403.797 136 403.477 135.872 403.179 135.616C402.923 135.317 402.795 134.997 402.795 134.656C402.795 134.4 402.816 134.208 402.859 134.08L417.899 92.992C418.027 92.48 418.304 92.0533 418.731 91.712C419.157 91.3707 419.712 91.2 420.395 91.2H429.867C430.549 91.2 431.104 91.3707 431.531 91.712C431.957 92.0533 432.235 92.48 432.363 92.992L447.339 134.08L447.467 134.656C447.467 134.997 447.317 135.317 447.019 135.616C446.763 135.872 446.443 136 446.059 136H438.187C437.163 136 436.48 135.552 436.139 134.656L433.643 128.128H416.555L414.123 134.656C413.781 135.552 413.077 136 412.011 136H404.139ZM431.083 118.912L425.131 102.016L419.179 118.912H431.083ZM454.111 136C453.642 136 453.258 135.851 452.959 135.552C452.661 135.253 452.511 134.869 452.511 134.4V92.8C452.511 92.3307 452.661 91.9467 452.959 91.648C453.301 91.3493 453.685 91.2 454.111 91.2H462.367C462.837 91.2 463.221 91.3493 463.519 91.648C463.861 91.9467 464.031 92.3307 464.031 92.8V108.224H479.775V92.8C479.775 92.3307 479.925 91.9467 480.223 91.648C480.522 91.3493 480.906 91.2 481.375 91.2H489.631C490.101 91.2 490.485 91.3493 490.783 91.648C491.082 91.9467 491.231 92.3307 491.231 92.8V134.4C491.231 134.869 491.082 135.253 490.783 135.552C490.485 135.851 490.101 136 489.631 136H481.375C480.906 136 480.522 135.851 480.223 135.552C479.925 135.253 479.775 134.869 479.775 134.4V118.464H464.031V134.4C464.031 134.869 463.861 135.253 463.519 135.552C463.221 135.851 462.837 136 462.367 136H454.111ZM501.799 136C501.329 136 500.945 135.851 500.647 135.552C500.348 135.211 500.199 134.805 500.199 134.336V92.8C500.199 92.3307 500.348 91.9467 500.647 91.648C500.988 91.3493 501.372 91.2 501.799 91.2H510.055C510.524 91.2 510.908 91.3493 511.207 91.648C511.548 91.9467 511.719 92.3307 511.719 92.8V118.528L529.895 92.416C530.407 91.6053 531.132 91.2 532.071 91.2H539.495C539.964 91.2 540.348 91.3493 540.647 91.648C540.945 91.9467 541.095 92.3307 541.095 92.8V134.4C541.095 134.827 540.945 135.211 540.647 135.552C540.348 135.851 539.964 136 539.495 136H531.239C530.769 136 530.364 135.851 530.023 135.552C529.724 135.253 529.575 134.869 529.575 134.4V109.568L511.399 134.784C510.844 135.595 510.119 136 509.223 136H501.799ZM584.442 91.2C584.911 91.2 585.295 91.3493 585.594 91.648C585.892 91.9467 586.042 92.3307 586.042 92.8V134.4C586.042 134.827 585.892 135.211 585.594 135.552C585.295 135.851 584.911 136 584.442 136H576.122C575.695 136 575.311 135.851 574.97 135.552C574.671 135.211 574.522 134.827 574.522 134.4V120.64H569.082L561.658 134.272C561.018 135.424 560.143 136 559.034 136H550.522C550.138 136 549.818 135.872 549.562 135.616C549.306 135.317 549.178 134.997 549.178 134.656C549.178 134.443 549.242 134.208 549.37 133.952L558.074 119.04C555.599 117.845 553.658 116.139 552.25 113.92C550.842 111.701 550.138 109.077 550.138 106.048C550.138 103.147 550.799 100.587 552.122 98.368C553.487 96.1067 555.471 94.3573 558.074 93.12C560.676 91.84 563.791 91.2 567.418 91.2H584.442ZM574.522 100.096H567.674C565.924 100.096 564.559 100.651 563.578 101.76C562.596 102.827 562.106 104.256 562.106 106.048C562.106 107.797 562.575 109.163 563.514 110.144C564.452 111.125 565.839 111.616 567.674 111.616H574.522V100.096ZM660.236 136C659.81 136 659.426 135.851 659.084 135.552C658.786 135.211 658.636 134.827 658.636 134.4V92.8C658.636 92.3307 658.786 91.9467 659.084 91.648C659.426 91.3493 659.81 91.2 660.236 91.2H690.124C690.594 91.2 690.978 91.3493 691.276 91.648C691.575 91.9467 691.724 92.3307 691.724 92.8V98.816C691.724 99.2427 691.575 99.6267 691.276 99.968C690.978 100.267 690.594 100.416 690.124 100.416H669.708V109.056H688.716C689.186 109.056 689.57 109.227 689.868 109.568C690.167 109.867 690.316 110.251 690.316 110.72V116.288C690.316 116.715 690.167 117.099 689.868 117.44C689.57 117.739 689.186 117.888 688.716 117.888H669.708V126.784H690.636C691.106 126.784 691.49 126.933 691.788 127.232C692.087 127.531 692.236 127.915 692.236 128.384V134.4C692.236 134.827 692.087 135.211 691.788 135.552C691.49 135.851 691.106 136 690.636 136H660.236ZM710.967 136C710.541 136 710.157 135.851 709.815 135.552C709.517 135.211 709.367 134.827 709.367 134.4V101.248H697.975C697.549 101.248 697.165 101.099 696.823 100.8C696.525 100.459 696.375 100.075 696.375 99.648V92.8C696.375 92.3307 696.525 91.9467 696.823 91.648C697.165 91.3493 697.549 91.2 697.975 91.2H732.407C732.877 91.2 733.261 91.3493 733.559 91.648C733.858 91.9467 734.007 92.3307 734.007 92.8V99.648C734.007 100.117 733.858 100.501 733.559 100.8C733.261 101.099 732.877 101.248 732.407 101.248H721.015V134.4C721.015 134.827 720.866 135.211 720.567 135.552C720.269 135.851 719.885 136 719.415 136H710.967ZM741.424 136C740.997 136 740.613 135.851 740.272 135.552C739.973 135.211 739.824 134.827 739.824 134.4V92.8C739.824 92.3307 739.973 91.9467 740.272 91.648C740.613 91.3493 740.997 91.2 741.424 91.2H771.312C771.781 91.2 772.165 91.3493 772.464 91.648C772.762 91.9467 772.912 92.3307 772.912 92.8V98.816C772.912 99.2427 772.762 99.6267 772.464 99.968C772.165 100.267 771.781 100.416 771.312 100.416H750.896V109.056H769.904C770.373 109.056 770.757 109.227 771.056 109.568C771.354 109.867 771.504 110.251 771.504 110.72V116.288C771.504 116.715 771.354 117.099 771.056 117.44C770.757 117.739 770.373 117.888 769.904 117.888H750.896V126.784H771.824C772.293 126.784 772.677 126.933 772.976 127.232C773.274 127.531 773.424 127.915 773.424 128.384V134.4C773.424 134.827 773.274 135.211 772.976 135.552C772.677 135.851 772.293 136 771.824 136H741.424ZM782.299 136C781.829 136 781.445 135.851 781.147 135.552C780.848 135.211 780.699 134.805 780.699 134.336V92.8C780.699 92.3307 780.848 91.9467 781.147 91.648C781.488 91.3493 781.872 91.2 782.299 91.2H790.555C791.024 91.2 791.408 91.3493 791.707 91.648C792.048 91.9467 792.219 92.3307 792.219 92.8V118.528L810.395 92.416C810.907 91.6053 811.632 91.2 812.571 91.2H819.995C820.464 91.2 820.848 91.3493 821.147 91.648C821.445 91.9467 821.595 92.3307 821.595 92.8V134.4C821.595 134.827 821.445 135.211 821.147 135.552C820.848 135.851 820.464 136 819.995 136H811.739C811.269 136 810.864 135.851 810.523 135.552C810.224 135.253 810.075 134.869 810.075 134.4V109.568L791.899 134.784C791.344 135.595 790.619 136 789.723 136H782.299ZM801.371 88.576C797.488 88.576 794.629 87.744 792.795 86.08C790.96 84.3733 790.043 82.1547 790.043 79.424C790.043 79.0827 790.149 78.8053 790.363 78.592C790.576 78.336 790.875 78.208 791.259 78.208H796.379C796.763 78.208 797.061 78.336 797.275 78.592C797.488 78.8053 797.595 79.0827 797.595 79.424C797.595 81.6853 798.853 82.816 801.371 82.816C803.931 82.816 805.211 81.6853 805.211 79.424C805.211 79.0827 805.317 78.8053 805.531 78.592C805.744 78.336 806.043 78.208 806.427 78.208H811.547C811.931 78.208 812.229 78.336 812.443 78.592C812.656 78.8053 812.763 79.0827 812.763 79.424C812.763 82.1547 811.824 84.3733 809.947 86.08C808.112 87.744 805.253 88.576 801.371 88.576Z" fill="#2C2C2C"/>
<line opacity="0.15" x1="261" y1="190" x2="657" y2="190" stroke="#007AA9" stroke-width="4" stroke-linecap="round"/>
<path d="M168.261 283C167.895 283 167.601 282.89 167.381 282.67C167.161 282.45 167.051 282.157 167.051 281.79V255.61C167.051 255.243 167.161 254.95 167.381 254.73C167.601 254.51 167.895 254.4 168.261 254.4H188.611C188.978 254.4 189.271 254.51 189.491 254.73C189.711 254.95 189.821 255.243 189.821 255.61V281.79C189.821 282.157 189.711 282.45 189.491 282.67C189.271 282.89 188.978 283 188.611 283H187.676C187.31 283 187.016 282.89 186.796 282.67C186.576 282.45 186.466 282.157 186.466 281.79V257.59H170.406V281.79C170.406 282.157 170.296 282.45 170.076 282.67C169.856 282.89 169.563 283 169.196 283H168.261ZM200.006 293.45C199.639 293.45 199.346 293.34 199.126 293.12C198.906 292.9 198.796 292.607 198.796 292.24V255.61C198.796 255.243 198.906 254.95 199.126 254.73C199.346 254.51 199.639 254.4 200.006 254.4H200.941C201.307 254.4 201.601 254.51 201.821 254.73C202.041 254.95 202.151 255.243 202.151 255.61V258.195C204.277 255.298 207.357 253.85 211.391 253.85C215.351 253.85 218.266 255.115 220.136 257.645C222.042 260.138 223.051 263.218 223.161 266.885C223.197 267.252 223.216 267.857 223.216 268.7C223.216 269.543 223.197 270.148 223.161 270.515C223.051 274.182 222.042 277.28 220.136 279.81C218.266 282.303 215.351 283.55 211.391 283.55C207.394 283.55 204.314 282.102 202.151 279.205V292.24C202.151 292.607 202.041 292.9 201.821 293.12C201.601 293.34 201.307 293.45 200.941 293.45H200.006ZM211.061 280.36C214.031 280.36 216.194 279.425 217.551 277.555C218.944 275.648 219.696 273.21 219.806 270.24C219.842 269.873 219.861 269.36 219.861 268.7C219.861 265.29 219.201 262.503 217.881 260.34C216.561 258.14 214.287 257.04 211.061 257.04C208.164 257.04 205.982 258.012 204.516 259.955C203.049 261.862 202.261 264.117 202.151 266.72L202.096 268.865L202.151 271.01C202.187 272.587 202.536 274.09 203.196 275.52C203.856 276.913 204.846 278.068 206.166 278.985C207.486 279.902 209.117 280.36 211.061 280.36ZM253.469 254.4C253.762 254.4 254.019 254.51 254.239 254.73C254.459 254.95 254.569 255.188 254.569 255.445V281.79C254.569 282.157 254.459 282.45 254.239 282.67C254.019 282.89 253.725 283 253.359 283H252.424C252.057 283 251.764 282.89 251.544 282.67C251.324 282.45 251.214 282.157 251.214 281.79V260.01L234.274 282.175C233.87 282.725 233.394 283 232.844 283H231.799C231.505 283 231.249 282.89 231.029 282.67C230.809 282.45 230.699 282.193 230.699 281.9V255.61C230.699 255.243 230.809 254.95 231.029 254.73C231.249 254.51 231.542 254.4 231.909 254.4H232.844C233.21 254.4 233.504 254.51 233.724 254.73C233.944 254.95 234.054 255.243 234.054 255.61V277.39L250.994 255.225C251.397 254.675 251.874 254.4 252.424 254.4H253.469ZM299.367 281.515C299.55 281.735 299.642 281.973 299.642 282.23C299.642 282.743 299.294 283 298.597 283H297.167C296.617 283 296.14 282.743 295.737 282.23L287.047 270.075H280.997V281.79C280.997 282.157 280.887 282.45 280.667 282.67C280.447 282.89 280.154 283 279.787 283H278.852C278.485 283 278.192 282.89 277.972 282.67C277.752 282.45 277.642 282.157 277.642 281.79V255.61C277.642 255.243 277.752 254.95 277.972 254.73C278.192 254.51 278.485 254.4 278.852 254.4H279.787C280.154 254.4 280.447 254.51 280.667 254.73C280.887 254.95 280.997 255.243 280.997 255.61V266.775H286.882L294.967 255.225C295.37 254.675 295.847 254.4 296.397 254.4H297.497C297.827 254.4 298.084 254.473 298.267 254.62C298.487 254.73 298.597 254.913 298.597 255.17C298.597 255.317 298.505 255.537 298.322 255.83L289.797 268.04L299.367 281.515ZM313.164 283.55C311.404 283.55 309.773 283.183 308.269 282.45C306.766 281.717 305.556 280.727 304.639 279.48C303.759 278.233 303.319 276.858 303.319 275.355C303.319 272.935 304.291 270.955 306.234 269.415C308.214 267.875 310.873 266.885 314.209 266.445L322.899 265.235V263.31C322.899 261.293 322.276 259.753 321.029 258.69C319.819 257.59 317.949 257.04 315.419 257.04C313.549 257.04 312.009 257.407 310.799 258.14C309.626 258.873 308.874 259.753 308.544 260.78C308.398 261.22 308.214 261.532 307.994 261.715C307.811 261.862 307.554 261.935 307.224 261.935H306.454C306.124 261.935 305.831 261.825 305.574 261.605C305.354 261.348 305.244 261.055 305.244 260.725C305.244 259.918 305.611 258.983 306.344 257.92C307.078 256.82 308.214 255.867 309.754 255.06C311.294 254.253 313.183 253.85 315.419 253.85C319.343 253.85 322.129 254.785 323.779 256.655C325.429 258.525 326.254 260.798 326.254 263.475V281.79C326.254 282.157 326.144 282.45 325.924 282.67C325.704 282.89 325.411 283 325.044 283H324.109C323.743 283 323.449 282.89 323.229 282.67C323.009 282.45 322.899 282.157 322.899 281.79V279.205C322.093 280.415 320.901 281.442 319.324 282.285C317.784 283.128 315.731 283.55 313.164 283.55ZM313.714 280.36C316.391 280.36 318.591 279.48 320.314 277.72C322.038 275.96 322.899 273.43 322.899 270.13V268.26L315.804 269.25C312.798 269.653 310.524 270.35 308.984 271.34C307.444 272.33 306.674 273.577 306.674 275.08C306.674 276.767 307.371 278.068 308.764 278.985C310.194 279.902 311.844 280.36 313.714 280.36ZM348.702 293.45C348.335 293.45 348.042 293.34 347.822 293.12C347.602 292.9 347.492 292.607 347.492 292.24V283C342.945 283 339.535 281.863 337.262 279.59C335.025 277.317 333.815 274.273 333.632 270.46L333.577 268.7L333.632 266.94C333.815 263.127 335.025 260.083 337.262 257.81C339.535 255.537 342.945 254.4 347.492 254.4V245.16C347.492 244.793 347.602 244.5 347.822 244.28C348.042 244.06 348.335 243.95 348.702 243.95H349.637C350.003 243.95 350.297 244.06 350.517 244.28C350.737 244.5 350.847 244.793 350.847 245.16V254.4C355.393 254.4 358.785 255.537 361.022 257.81C363.295 260.083 364.523 263.127 364.707 266.94C364.743 267.307 364.762 267.893 364.762 268.7C364.762 269.507 364.743 270.093 364.707 270.46C364.523 274.273 363.295 277.317 361.022 279.59C358.785 281.863 355.393 283 350.847 283V292.24C350.847 292.607 350.737 292.9 350.517 293.12C350.297 293.34 350.003 293.45 349.637 293.45H348.702ZM347.492 257.59C340.818 257.59 337.317 260.798 336.987 267.215L336.932 268.7L336.987 270.185C337.317 276.602 340.818 279.81 347.492 279.81V257.59ZM350.847 279.81C357.52 279.81 361.022 276.602 361.352 270.185C361.388 269.818 361.407 269.323 361.407 268.7C361.407 268.077 361.388 267.582 361.352 267.215C361.022 260.798 357.52 257.59 350.847 257.59V279.81ZM382.896 283.55C379.412 283.55 376.607 282.413 374.481 280.14C372.354 277.83 371.144 274.75 370.851 270.9L370.796 268.7L370.851 266.5C371.144 262.687 372.336 259.625 374.426 257.315C376.552 255.005 379.376 253.85 382.896 253.85C386.709 253.85 389.679 255.115 391.806 257.645C393.969 260.175 395.051 263.64 395.051 268.04V268.865C395.051 269.232 394.922 269.525 394.666 269.745C394.446 269.965 394.152 270.075 393.786 270.075H374.206V270.625C374.279 272.348 374.664 273.962 375.361 275.465C376.094 276.932 377.102 278.123 378.386 279.04C379.669 279.92 381.172 280.36 382.896 280.36C384.912 280.36 386.544 279.975 387.791 279.205C389.074 278.398 389.991 277.592 390.541 276.785C390.871 276.345 391.109 276.07 391.256 275.96C391.439 275.85 391.751 275.795 392.191 275.795H393.071C393.401 275.795 393.676 275.887 393.896 276.07C394.116 276.253 394.226 276.492 394.226 276.785C394.226 277.555 393.731 278.49 392.741 279.59C391.787 280.653 390.449 281.588 388.726 282.395C387.002 283.165 385.059 283.55 382.896 283.55ZM391.696 266.995V266.775C391.696 263.952 390.889 261.623 389.276 259.79C387.699 257.957 385.572 257.04 382.896 257.04C380.219 257.04 378.092 257.957 376.516 259.79C374.976 261.623 374.206 263.952 374.206 266.775V266.995H391.696ZM400.16 289.05C399.793 289.05 399.5 288.94 399.28 288.72C399.06 288.5 398.95 288.207 398.95 287.84V281.02C398.95 280.653 399.06 280.36 399.28 280.14C399.5 279.92 399.793 279.81 400.16 279.81H400.325C403.735 279.737 405.44 273.925 405.44 262.375V255.61C405.44 255.243 405.55 254.95 405.77 254.73C405.99 254.51 406.283 254.4 406.65 254.4H422.49C422.857 254.4 423.15 254.51 423.37 254.73C423.59 254.95 423.7 255.243 423.7 255.61V279.7H426.395C426.762 279.7 427.055 279.81 427.275 280.03C427.495 280.25 427.605 280.543 427.605 280.91V287.84C427.605 288.207 427.495 288.5 427.275 288.72C427.055 288.94 426.762 289.05 426.395 289.05H425.46C425.093 289.05 424.8 288.94 424.58 288.72C424.36 288.5 424.25 288.207 424.25 287.84V283H402.305V287.84C402.305 288.207 402.195 288.5 401.975 288.72C401.755 288.94 401.462 289.05 401.095 289.05H400.16ZM420.345 279.7V257.59H408.795V262.76C408.795 271.083 407.585 276.767 405.165 279.81L420.345 279.7ZM435.26 293.45C434.893 293.45 434.6 293.34 434.38 293.12C434.16 292.9 434.05 292.607 434.05 292.24V255.61C434.05 255.243 434.16 254.95 434.38 254.73C434.6 254.51 434.893 254.4 435.26 254.4H436.195C436.561 254.4 436.855 254.51 437.075 254.73C437.295 254.95 437.405 255.243 437.405 255.61V258.195C439.531 255.298 442.611 253.85 446.645 253.85C450.605 253.85 453.52 255.115 455.39 257.645C457.296 260.138 458.305 263.218 458.415 266.885C458.451 267.252 458.47 267.857 458.47 268.7C458.47 269.543 458.451 270.148 458.415 270.515C458.305 274.182 457.296 277.28 455.39 279.81C453.52 282.303 450.605 283.55 446.645 283.55C442.648 283.55 439.568 282.102 437.405 279.205V292.24C437.405 292.607 437.295 292.9 437.075 293.12C436.855 293.34 436.561 293.45 436.195 293.45H435.26ZM446.315 280.36C449.285 280.36 451.448 279.425 452.805 277.555C454.198 275.648 454.95 273.21 455.06 270.24C455.096 269.873 455.115 269.36 455.115 268.7C455.115 265.29 454.455 262.503 453.135 260.34C451.815 258.14 449.541 257.04 446.315 257.04C443.418 257.04 441.236 258.012 439.77 259.955C438.303 261.862 437.515 264.117 437.405 266.72L437.35 268.865L437.405 271.01C437.441 272.587 437.79 274.09 438.45 275.52C439.11 276.913 440.1 278.068 441.42 278.985C442.74 279.902 444.371 280.36 446.315 280.36ZM476.568 283.55C473.084 283.55 470.279 282.413 468.153 280.14C466.026 277.83 464.816 274.75 464.523 270.9L464.468 268.7L464.523 266.5C464.816 262.687 466.008 259.625 468.098 257.315C470.224 255.005 473.048 253.85 476.568 253.85C480.381 253.85 483.351 255.115 485.478 257.645C487.641 260.175 488.723 263.64 488.723 268.04V268.865C488.723 269.232 488.594 269.525 488.338 269.745C488.118 269.965 487.824 270.075 487.458 270.075H467.878V270.625C467.951 272.348 468.336 273.962 469.033 275.465C469.766 276.932 470.774 278.123 472.058 279.04C473.341 279.92 474.844 280.36 476.568 280.36C478.584 280.36 480.216 279.975 481.463 279.205C482.746 278.398 483.663 277.592 484.213 276.785C484.543 276.345 484.781 276.07 484.928 275.96C485.111 275.85 485.423 275.795 485.863 275.795H486.743C487.073 275.795 487.348 275.887 487.568 276.07C487.788 276.253 487.898 276.492 487.898 276.785C487.898 277.555 487.403 278.49 486.413 279.59C485.459 280.653 484.121 281.588 482.398 282.395C480.674 283.165 478.731 283.55 476.568 283.55ZM485.368 266.995V266.775C485.368 263.952 484.561 261.623 482.948 259.79C481.371 257.957 479.244 257.04 476.568 257.04C473.891 257.04 471.764 257.957 470.188 259.79C468.648 261.623 467.878 263.952 467.878 266.775V266.995H485.368ZM523.907 283.55C519.14 283.55 515.565 282.212 513.182 279.535C510.798 276.822 509.515 273.192 509.332 268.645C509.295 267.655 509.277 266.042 509.277 263.805C509.277 261.532 509.295 259.882 509.332 258.855C509.515 254.308 510.798 250.697 513.182 248.02C515.565 245.307 519.14 243.95 523.907 243.95C527.17 243.95 529.883 244.555 532.047 245.765C534.21 246.938 535.805 248.442 536.832 250.275C537.895 252.072 538.482 253.923 538.592 255.83V255.94C538.592 256.233 538.482 256.472 538.262 256.655C538.042 256.838 537.767 256.93 537.437 256.93H536.337C535.677 256.93 535.273 256.545 535.127 255.775C534.43 252.658 533.165 250.458 531.332 249.175C529.498 247.892 527.023 247.25 523.907 247.25C520.46 247.25 517.783 248.222 515.877 250.165C513.97 252.108 512.943 255.097 512.797 259.13C512.76 260.12 512.742 261.642 512.742 263.695C512.742 265.748 512.76 267.307 512.797 268.37C512.943 272.403 513.97 275.392 515.877 277.335C517.783 279.278 520.46 280.25 523.907 280.25C527.023 280.25 529.498 279.608 531.332 278.325C533.165 277.042 534.43 274.842 535.127 271.725C535.273 270.955 535.677 270.57 536.337 270.57H537.437C537.767 270.57 538.042 270.68 538.262 270.9C538.518 271.083 538.628 271.34 538.592 271.67C538.482 273.577 537.895 275.447 536.832 277.28C535.805 279.077 534.21 280.58 532.047 281.79C529.883 282.963 527.17 283.55 523.907 283.55ZM543.947 283C543.654 283 543.397 282.89 543.177 282.67C542.957 282.45 542.847 282.193 542.847 281.9L542.957 281.295L556.872 245.6C557.165 244.867 557.697 244.5 558.467 244.5H560.337C561.107 244.5 561.639 244.867 561.932 245.6L575.847 281.295L575.957 281.9C575.957 282.193 575.847 282.45 575.627 282.67C575.407 282.89 575.15 283 574.857 283H573.757C573.427 283 573.152 282.908 572.932 282.725C572.749 282.542 572.62 282.358 572.547 282.175L569.137 273.375H549.667L546.257 282.175C546.184 282.358 546.037 282.542 545.817 282.725C545.634 282.908 545.377 283 545.047 283H543.947ZM567.817 270.075L559.402 248.405L550.987 270.075H567.817ZM583.678 283C583.312 283 583.018 282.89 582.798 282.67C582.578 282.45 582.468 282.157 582.468 281.79V245.765C582.468 245.398 582.578 245.105 582.798 244.885C583.018 244.628 583.312 244.5 583.678 244.5H609.363C609.767 244.5 610.078 244.61 610.298 244.83C610.518 245.05 610.628 245.362 610.628 245.765V281.79C610.628 282.157 610.5 282.45 610.243 282.67C610.023 282.89 609.73 283 609.363 283H608.373C608.007 283 607.713 282.89 607.493 282.67C607.273 282.45 607.163 282.157 607.163 281.79V247.8H585.933V281.79C585.933 282.157 585.805 282.45 585.548 282.67C585.328 282.89 585.035 283 584.668 283H583.678ZM622.189 283C621.822 283 621.529 282.89 621.309 282.67C621.089 282.45 620.979 282.157 620.979 281.79V245.765C620.979 245.398 621.089 245.105 621.309 244.885C621.529 244.628 621.822 244.5 622.189 244.5H635.554C639.477 244.5 642.557 245.49 644.794 247.47C647.067 249.413 648.204 252.218 648.204 255.885C648.204 259.552 647.067 262.375 644.794 264.355C642.557 266.298 639.477 267.27 635.554 267.27H624.444V281.79C624.444 282.157 624.316 282.45 624.059 282.67C623.839 282.89 623.546 283 623.179 283H622.189ZM635.279 263.97C638.432 263.97 640.797 263.292 642.374 261.935C643.951 260.542 644.739 258.525 644.739 255.885C644.739 253.245 643.951 251.247 642.374 249.89C640.797 248.497 638.432 247.8 635.279 247.8H624.444V263.97H635.279ZM677.57 254.4C677.864 254.4 678.12 254.51 678.34 254.73C678.56 254.95 678.67 255.188 678.67 255.445V281.79C678.67 282.157 678.56 282.45 678.34 282.67C678.12 282.89 677.827 283 677.46 283H676.525C676.159 283 675.865 282.89 675.645 282.67C675.425 282.45 675.315 282.157 675.315 281.79V260.01L658.375 282.175C657.972 282.725 657.495 283 656.945 283H655.9C655.607 283 655.35 282.89 655.13 282.67C654.91 282.45 654.8 282.193 654.8 281.9V255.61C654.8 255.243 654.91 254.95 655.13 254.73C655.35 254.51 655.644 254.4 656.01 254.4H656.945C657.312 254.4 657.605 254.51 657.825 254.73C658.045 254.95 658.155 255.243 658.155 255.61V277.39L675.095 255.225C675.499 254.675 675.975 254.4 676.525 254.4H677.57ZM689.489 283C689.122 283 688.829 282.89 688.609 282.67C688.389 282.45 688.279 282.157 688.279 281.79V245.765C688.279 245.398 688.389 245.105 688.609 244.885C688.829 244.628 689.122 244.5 689.489 244.5H715.174C715.577 244.5 715.889 244.61 716.109 244.83C716.329 245.05 716.439 245.362 716.439 245.765V281.79C716.439 282.157 716.311 282.45 716.054 282.67C715.834 282.89 715.541 283 715.174 283H714.184C713.817 283 713.524 282.89 713.304 282.67C713.084 282.45 712.974 282.157 712.974 281.79V247.8H691.744V281.79C691.744 282.157 691.616 282.45 691.359 282.67C691.139 282.89 690.846 283 690.479 283H689.489ZM752.805 281.075C752.878 281.185 752.915 281.387 752.915 281.68C752.915 282.047 752.786 282.358 752.53 282.615C752.31 282.872 752.016 283 751.65 283H750.715C750.165 283 749.743 282.762 749.45 282.285L737.9 265.125H730.255V281.79C730.255 282.157 730.126 282.45 729.87 282.67C729.65 282.89 729.356 283 728.99 283H728C727.633 283 727.34 282.89 727.12 282.67C726.9 282.45 726.79 282.157 726.79 281.79V245.765C726.79 245.398 726.9 245.105 727.12 244.885C727.34 244.628 727.633 244.5 728 244.5H728.99C729.393 244.5 729.705 244.61 729.925 244.83C730.145 245.05 730.255 245.362 730.255 245.765V261.825L737.68 261.88L748.185 245.325C748.588 244.775 749.193 244.5 750 244.5H750.88C751.613 244.5 751.98 244.867 751.98 245.6C751.98 245.783 751.888 246.022 751.705 246.315L740.98 263.2L752.805 281.075ZM150.317 319.4C150.61 319.4 150.867 319.51 151.087 319.73C151.307 319.95 151.417 320.188 151.417 320.445V346.79C151.417 347.157 151.307 347.45 151.087 347.67C150.867 347.89 150.573 348 150.207 348H149.272C148.905 348 148.612 347.89 148.392 347.67C148.172 347.45 148.062 347.157 148.062 346.79V325.01L131.122 347.175C130.718 347.725 130.242 348 129.692 348H128.647C128.353 348 128.097 347.89 127.877 347.67C127.657 347.45 127.547 347.193 127.547 346.9V320.61C127.547 320.243 127.657 319.95 127.877 319.73C128.097 319.51 128.39 319.4 128.757 319.4H129.692C130.058 319.4 130.352 319.51 130.572 319.73C130.792 319.95 130.902 320.243 130.902 320.61V342.39L147.842 320.225C148.245 319.675 148.722 319.4 149.272 319.4H150.317ZM205.125 355.7C204.758 355.7 204.465 355.59 204.245 355.37C204.025 355.15 203.915 354.857 203.915 354.49V348H176.415C176.048 348 175.755 347.89 175.535 347.67C175.315 347.413 175.205 347.102 175.205 346.735V310.71C175.205 310.343 175.315 310.05 175.535 309.83C175.755 309.61 176.048 309.5 176.415 309.5H177.405C177.772 309.5 178.065 309.61 178.285 309.83C178.542 310.05 178.67 310.343 178.67 310.71V344.7H199.9V310.71C199.9 310.343 200.01 310.05 200.23 309.83C200.45 309.61 200.743 309.5 201.11 309.5H202.1C202.467 309.5 202.76 309.61 202.98 309.83C203.237 310.05 203.365 310.343 203.365 310.71V344.7H206.115C206.482 344.7 206.775 344.81 206.995 345.03C207.252 345.25 207.38 345.543 207.38 345.91V354.49C207.38 354.857 207.252 355.15 206.995 355.37C206.775 355.59 206.482 355.7 206.115 355.7H205.125ZM215.733 348C215.366 348 215.055 347.89 214.798 347.67C214.578 347.45 214.468 347.157 214.468 346.79V310.765C214.468 310.362 214.578 310.05 214.798 309.83C215.055 309.61 215.366 309.5 215.733 309.5H217.108C217.658 309.5 218.043 309.738 218.263 310.215L230.748 334.525L243.288 310.215C243.545 309.738 243.93 309.5 244.443 309.5H245.763C246.166 309.5 246.478 309.61 246.698 309.83C246.918 310.05 247.028 310.362 247.028 310.765V346.79C247.028 347.157 246.9 347.45 246.643 347.67C246.423 347.89 246.13 348 245.763 348H244.773C244.406 348 244.113 347.89 243.893 347.67C243.673 347.45 243.563 347.157 243.563 346.79V316.98L233.058 337.66C232.728 338.393 232.16 338.76 231.353 338.76H230.143C229.336 338.76 228.768 338.393 228.438 337.66L217.933 316.98V346.79C217.933 347.157 217.823 347.45 217.603 347.67C217.383 347.89 217.09 348 216.723 348H215.733ZM258.593 348C258.226 348 257.933 347.89 257.713 347.67C257.493 347.413 257.383 347.102 257.383 346.735V310.765C257.383 310.362 257.493 310.05 257.713 309.83C257.97 309.61 258.281 309.5 258.648 309.5H259.638C260.005 309.5 260.298 309.628 260.518 309.885C260.738 310.105 260.848 310.398 260.848 310.765V341.95L283.453 310.16C283.746 309.72 284.131 309.5 284.608 309.5H285.763C286.13 309.5 286.423 309.628 286.643 309.885C286.863 310.105 286.973 310.398 286.973 310.765V346.79C286.973 347.157 286.863 347.45 286.643 347.67C286.423 347.89 286.13 348 285.763 348H284.773C284.406 348 284.095 347.89 283.838 347.67C283.618 347.45 283.508 347.157 283.508 346.79V315.66L260.958 347.34C260.665 347.78 260.28 348 259.803 348H258.593ZM306.915 348C306.548 348 306.255 347.89 306.035 347.67C305.815 347.45 305.705 347.157 305.705 346.79V312.8H294.815C294.448 312.8 294.155 312.69 293.935 312.47C293.715 312.25 293.605 311.957 293.605 311.59V310.765C293.605 310.398 293.715 310.105 293.935 309.885C294.155 309.628 294.448 309.5 294.815 309.5H320.005C320.408 309.5 320.72 309.61 320.94 309.83C321.16 310.05 321.27 310.362 321.27 310.765V311.59C321.27 311.957 321.142 312.25 320.885 312.47C320.665 312.69 320.372 312.8 320.005 312.8H309.17V346.79C309.17 347.157 309.042 347.45 308.785 347.67C308.565 347.89 308.272 348 307.905 348H306.915ZM352.095 342.94C351.728 342.94 351.288 342.72 350.775 342.28L340.435 332.27C339.885 331.72 339.573 331.078 339.5 330.345V329.465C339.573 328.732 339.885 328.09 340.435 327.54L350.775 317.53C351.288 317.09 351.728 316.87 352.095 316.87C352.425 316.87 352.682 316.98 352.865 317.2C353.085 317.383 353.195 317.64 353.195 317.97V318.905C353.195 319.308 353.122 319.657 352.975 319.95C352.828 320.207 352.572 320.518 352.205 320.885L342.91 329.905L352.205 338.925C352.572 339.292 352.828 339.622 352.975 339.915C353.122 340.172 353.195 340.502 353.195 340.905V341.84C353.195 342.17 353.085 342.445 352.865 342.665C352.682 342.848 352.425 342.94 352.095 342.94ZM365.79 342.94C365.423 342.94 364.983 342.72 364.47 342.28L354.13 332.27C353.58 331.72 353.268 331.078 353.195 330.345V329.465C353.268 328.732 353.58 328.09 354.13 327.54L364.47 317.53C364.983 317.09 365.423 316.87 365.79 316.87C366.12 316.87 366.377 316.98 366.56 317.2C366.78 317.383 366.89 317.64 366.89 317.97V318.905C366.89 319.308 366.817 319.657 366.67 319.95C366.523 320.207 366.267 320.518 365.9 320.885L356.605 329.905L365.9 338.925C366.267 339.292 366.523 339.622 366.67 339.915C366.817 340.172 366.89 340.502 366.89 340.905V341.84C366.89 342.17 366.78 342.445 366.56 342.665C366.377 342.848 366.12 342.94 365.79 342.94ZM400.03 348C399.663 348 399.37 347.89 399.15 347.67C398.93 347.45 398.82 347.157 398.82 346.79V312.8H383.695V323.305C383.695 329.098 383.273 333.773 382.43 337.33C381.586 340.85 380.34 343.453 378.69 345.14C377.04 346.79 374.95 347.725 372.42 347.945C372.053 347.982 371.741 347.872 371.485 347.615C371.265 347.358 371.155 347.047 371.155 346.68V345.69C371.155 345.36 371.246 345.085 371.43 344.865C371.65 344.645 371.925 344.517 372.255 344.48C374.821 344.113 376.783 342.298 378.14 339.035C379.533 335.772 380.23 330.382 380.23 322.865V310.71C380.23 310.343 380.34 310.05 380.56 309.83C380.78 309.61 381.073 309.5 381.44 309.5H401.02C401.423 309.5 401.735 309.61 401.955 309.83C402.175 310.05 402.285 310.362 402.285 310.765V346.79C402.285 347.157 402.156 347.45 401.9 347.67C401.68 347.89 401.386 348 401.02 348H400.03ZM439.503 348.55C434.479 348.55 430.831 347.175 428.558 344.425C426.321 341.638 425.129 337.953 424.983 333.37C424.909 331.83 424.873 330.748 424.873 330.125H416.073V346.79C416.073 347.157 415.944 347.45 415.688 347.67C415.468 347.89 415.174 348 414.808 348H413.818C413.451 348 413.158 347.89 412.938 347.67C412.718 347.45 412.608 347.157 412.608 346.79V310.71C412.608 310.343 412.718 310.05 412.938 309.83C413.158 309.61 413.451 309.5 413.818 309.5H414.808C415.174 309.5 415.468 309.61 415.688 309.83C415.944 310.05 416.073 310.343 416.073 310.71V326.825H424.873C424.873 326.275 424.909 325.377 424.983 324.13C425.129 319.657 426.339 316.008 428.613 313.185C430.886 310.362 434.516 308.95 439.503 308.95C444.489 308.95 448.119 310.362 450.393 313.185C452.666 316.008 453.876 319.657 454.023 324.13C454.096 326.33 454.133 327.87 454.133 328.75C454.133 329.63 454.096 331.17 454.023 333.37C453.876 337.953 452.666 341.638 450.393 344.425C448.156 347.175 444.526 348.55 439.503 348.55ZM439.503 345.25C442.839 345.25 445.479 344.297 447.423 342.39C449.366 340.483 450.411 337.477 450.558 333.37C450.631 331.17 450.668 329.63 450.668 328.75C450.668 327.87 450.631 326.33 450.558 324.13C450.411 320.023 449.348 317.017 447.368 315.11C445.424 313.203 442.803 312.25 439.503 312.25C436.203 312.25 433.563 313.203 431.583 315.11C429.639 317.017 428.594 320.023 428.448 324.13C428.411 325.23 428.393 326.77 428.393 328.75C428.393 330.73 428.411 332.27 428.448 333.37C428.594 337.477 429.639 340.483 431.583 342.39C433.526 344.297 436.166 345.25 439.503 345.25ZM488.896 346.075C488.969 346.185 489.006 346.387 489.006 346.68C489.006 347.047 488.878 347.358 488.621 347.615C488.401 347.872 488.108 348 487.741 348H486.806C486.256 348 485.834 347.762 485.541 347.285L473.991 330.125H466.346V346.79C466.346 347.157 466.218 347.45 465.961 347.67C465.741 347.89 465.448 348 465.081 348H464.091C463.724 348 463.431 347.89 463.211 347.67C462.991 347.45 462.881 347.157 462.881 346.79V310.765C462.881 310.398 462.991 310.105 463.211 309.885C463.431 309.628 463.724 309.5 464.091 309.5H465.081C465.484 309.5 465.796 309.61 466.016 309.83C466.236 310.05 466.346 310.362 466.346 310.765V326.825L473.771 326.88L484.276 310.325C484.679 309.775 485.284 309.5 486.091 309.5H486.971C487.704 309.5 488.071 309.867 488.071 310.6C488.071 310.783 487.979 311.022 487.796 311.315L477.071 328.2L488.896 346.075ZM507.659 348.55C502.892 348.55 499.317 347.212 496.934 344.535C494.551 341.822 493.267 338.192 493.084 333.645C493.047 332.655 493.029 331.042 493.029 328.805C493.029 326.532 493.047 324.882 493.084 323.855C493.267 319.308 494.551 315.697 496.934 313.02C499.317 310.307 502.892 308.95 507.659 308.95C510.922 308.95 513.636 309.555 515.799 310.765C517.962 311.938 519.557 313.442 520.584 315.275C521.647 317.072 522.234 318.923 522.344 320.83V320.94C522.344 321.233 522.234 321.472 522.014 321.655C521.794 321.838 521.519 321.93 521.189 321.93H520.089C519.429 321.93 519.026 321.545 518.879 320.775C518.182 317.658 516.917 315.458 515.084 314.175C513.251 312.892 510.776 312.25 507.659 312.25C504.212 312.25 501.536 313.222 499.629 315.165C497.722 317.108 496.696 320.097 496.549 324.13C496.512 325.12 496.494 326.642 496.494 328.695C496.494 330.748 496.512 332.307 496.549 333.37C496.696 337.403 497.722 340.392 499.629 342.335C501.536 344.278 504.212 345.25 507.659 345.25C510.776 345.25 513.251 344.608 515.084 343.325C516.917 342.042 518.182 339.842 518.879 336.725C519.026 335.955 519.429 335.57 520.089 335.57H521.189C521.519 335.57 521.794 335.68 522.014 335.9C522.271 336.083 522.381 336.34 522.344 336.67C522.234 338.577 521.647 340.447 520.584 342.28C519.557 344.077 517.962 345.58 515.799 346.79C513.636 347.963 510.922 348.55 507.659 348.55ZM529.569 342.94C529.239 342.94 528.964 342.848 528.744 342.665C528.561 342.445 528.469 342.17 528.469 341.84V340.905C528.469 340.502 528.543 340.172 528.689 339.915C528.836 339.622 529.093 339.292 529.459 338.925L538.754 329.905L529.459 320.885C529.093 320.518 528.836 320.207 528.689 319.95C528.543 319.657 528.469 319.308 528.469 318.905V317.97C528.469 317.64 528.561 317.383 528.744 317.2C528.964 316.98 529.239 316.87 529.569 316.87C529.936 316.87 530.376 317.09 530.889 317.53L541.229 327.54C541.779 328.09 542.091 328.732 542.164 329.465V330.345C542.091 331.078 541.779 331.72 541.229 332.27L530.889 342.28C530.376 342.72 529.936 342.94 529.569 342.94ZM543.264 342.94C542.934 342.94 542.659 342.848 542.439 342.665C542.256 342.445 542.164 342.17 542.164 341.84V340.905C542.164 340.502 542.238 340.172 542.384 339.915C542.531 339.622 542.788 339.292 543.154 338.925L552.449 329.905L543.154 320.885C542.788 320.518 542.531 320.207 542.384 319.95C542.238 319.657 542.164 319.308 542.164 318.905V317.97C542.164 317.64 542.256 317.383 542.439 317.2C542.659 316.98 542.934 316.87 543.264 316.87C543.631 316.87 544.071 317.09 544.584 317.53L554.924 327.54C555.474 328.09 555.786 328.732 555.859 329.465V330.345C555.786 331.078 555.474 331.72 554.924 332.27L544.584 342.28C544.071 342.72 543.631 342.94 543.264 342.94ZM562.379 352.125C562.086 352.125 561.866 352.015 561.719 351.795C561.609 351.648 561.554 351.483 561.554 351.3C561.554 351.19 561.572 351.08 561.609 350.97L562.654 344.37C562.764 343.38 563.222 342.885 564.029 342.885H566.504C566.761 342.885 566.962 342.977 567.109 343.16C567.256 343.343 567.329 343.545 567.329 343.765C567.329 344.095 567.256 344.425 567.109 344.755L564.744 350.97C564.561 351.373 564.359 351.667 564.139 351.85C563.956 352.033 563.681 352.125 563.314 352.125H562.379ZM592.03 348C591.664 348 591.37 347.89 591.15 347.67C590.93 347.45 590.82 347.157 590.82 346.79V310.765C590.82 310.398 590.93 310.105 591.15 309.885C591.37 309.628 591.664 309.5 592.03 309.5H606.385C610.015 309.5 612.765 310.435 614.635 312.305C616.505 314.175 617.44 316.522 617.44 319.345C617.44 321.508 616.964 323.287 616.01 324.68C615.057 326.073 613.92 327.082 612.6 327.705C614.177 328.512 615.497 329.74 616.56 331.39C617.66 333.04 618.21 334.947 618.21 337.11C618.21 339.017 617.752 340.813 616.835 342.5C615.955 344.15 614.654 345.488 612.93 346.515C611.207 347.505 609.154 348 606.77 348H592.03ZM605.67 326.22C608.384 326.22 610.437 325.633 611.83 324.46C613.26 323.25 613.975 321.545 613.975 319.345C613.975 317.182 613.26 315.55 611.83 314.45C610.437 313.35 608.384 312.8 605.67 312.8H594.285V326.22H605.67ZM606.22 344.7C608.897 344.7 610.987 344.003 612.49 342.61C613.994 341.18 614.745 339.347 614.745 337.11C614.745 334.837 613.994 333.003 612.49 331.61C610.987 330.217 608.897 329.52 606.22 329.52H594.285V344.7H606.22ZM636.928 348.55C633.115 348.55 630.145 347.395 628.018 345.085C625.928 342.738 624.828 339.713 624.718 336.01L624.663 333.7L624.718 331.39C624.828 327.687 625.928 324.68 628.018 322.37C630.145 320.023 633.115 318.85 636.928 318.85C640.741 318.85 643.693 320.023 645.783 322.37C647.91 324.68 649.028 327.687 649.138 331.39C649.175 331.757 649.193 332.527 649.193 333.7C649.193 334.873 649.175 335.643 649.138 336.01C649.028 339.713 647.91 342.738 645.783 345.085C643.693 347.395 640.741 348.55 636.928 348.55ZM636.928 345.36C639.531 345.36 641.621 344.535 643.198 342.885C644.811 341.198 645.673 338.815 645.783 335.735C645.82 335.368 645.838 334.69 645.838 333.7C645.838 332.71 645.82 332.032 645.783 331.665C645.673 328.585 644.811 326.22 643.198 324.57C641.621 322.883 639.531 322.04 636.928 322.04C634.325 322.04 632.216 322.883 630.603 324.57C629.026 326.22 628.183 328.585 628.073 331.665L628.018 333.7L628.073 335.735C628.183 338.815 629.026 341.198 630.603 342.885C632.216 344.535 634.325 345.36 636.928 345.36ZM654.355 348C653.988 348 653.677 347.89 653.42 347.67C653.2 347.413 653.09 347.102 653.09 346.735V345.855C653.09 345.525 653.182 345.25 653.365 345.03C653.585 344.81 653.86 344.7 654.19 344.7C656.06 344.7 657.49 343.343 658.48 340.63C659.47 337.917 659.965 333.498 659.965 327.375V320.61C659.965 320.243 660.075 319.95 660.295 319.73C660.515 319.51 660.808 319.4 661.175 319.4H676.905C677.272 319.4 677.565 319.51 677.785 319.73C678.005 319.95 678.115 320.243 678.115 320.61V346.79C678.115 347.157 678.005 347.45 677.785 347.67C677.565 347.89 677.272 348 676.905 348H675.97C675.603 348 675.31 347.89 675.09 347.67C674.87 347.45 674.76 347.157 674.76 346.79V322.59H663.32V327.76C663.32 341.253 660.332 348 654.355 348ZM688.21 348C687.843 348 687.55 347.89 687.33 347.67C687.11 347.45 687 347.157 687 346.79V320.61C687 320.243 687.11 319.95 687.33 319.73C687.55 319.51 687.843 319.4 688.21 319.4H703.775C704.142 319.4 704.435 319.51 704.655 319.73C704.875 319.95 704.985 320.243 704.985 320.61V321.38C704.985 321.747 704.875 322.04 704.655 322.26C704.435 322.48 704.142 322.59 703.775 322.59H690.355V346.79C690.355 347.157 690.245 347.45 690.025 347.67C689.805 347.89 689.512 348 689.145 348H688.21ZM711.913 348C711.547 348 711.253 347.89 711.033 347.67C710.813 347.45 710.703 347.157 710.703 346.79V310.765C710.703 310.398 710.813 310.105 711.033 309.885C711.253 309.628 711.547 309.5 711.913 309.5H732.043C732.447 309.5 732.758 309.61 732.978 309.83C733.198 310.05 733.308 310.362 733.308 310.765V311.59C733.308 311.957 733.18 312.25 732.923 312.47C732.703 312.69 732.41 312.8 732.043 312.8H714.168V346.79C714.168 347.157 714.04 347.45 713.783 347.67C713.563 347.89 713.27 348 712.903 348H711.913ZM748.097 348C747.73 348 747.437 347.89 747.217 347.67C746.997 347.45 746.887 347.157 746.887 346.79V312.8H735.997C735.63 312.8 735.337 312.69 735.117 312.47C734.897 312.25 734.787 311.957 734.787 311.59V310.765C734.787 310.398 734.897 310.105 735.117 309.885C735.337 309.628 735.63 309.5 735.997 309.5H761.187C761.59 309.5 761.902 309.61 762.122 309.83C762.342 310.05 762.452 310.362 762.452 310.765V311.59C762.452 311.957 762.323 312.25 762.067 312.47C761.847 312.69 761.553 312.8 761.187 312.8H750.352V346.79C750.352 347.157 750.223 347.45 749.967 347.67C749.747 347.89 749.453 348 749.087 348H748.097ZM793.782 309.5C794.075 309.5 794.332 309.61 794.552 309.83C794.772 310.05 794.882 310.307 794.882 310.6C794.882 310.82 794.827 311.04 794.717 311.26L783.387 336.78C782.104 339.677 781.004 341.877 780.087 343.38C779.17 344.883 778.07 346.038 776.787 346.845C775.54 347.615 773.945 348 772.002 348H770.132C769.765 348 769.472 347.89 769.252 347.67C769.032 347.45 768.922 347.157 768.922 346.79V345.965C768.922 345.598 769.032 345.305 769.252 345.085C769.472 344.828 769.765 344.7 770.132 344.7H772.002C773.579 344.7 774.899 344.15 775.962 343.05C777.025 341.95 778.18 340.098 779.427 337.495L764.907 311.26C764.797 311.04 764.742 310.82 764.742 310.6C764.742 310.307 764.852 310.05 765.072 309.83C765.292 309.61 765.549 309.5 765.842 309.5H766.997C767.51 309.5 767.932 309.775 768.262 310.325L781.242 333.48L791.362 310.325C791.472 310.068 791.637 309.867 791.857 309.72C792.114 309.573 792.37 309.5 792.627 309.5H793.782Z" fill="#2B2E36"/>
<path d="M95.7336 453C95.3669 453 95.0553 452.89 94.7986 452.67C94.5786 452.413 94.4686 452.083 94.4686 451.68V415.82C94.4686 415.417 94.5786 415.105 94.7986 414.885C95.0553 414.628 95.3669 414.5 95.7336 414.5H98.5936C98.9603 414.5 99.2536 414.628 99.4736 414.885C99.7303 415.142 99.8586 415.453 99.8586 415.82V444.255L120.374 415.27C120.667 414.757 121.125 414.5 121.749 414.5H124.444C124.81 414.5 125.104 414.628 125.324 414.885C125.58 415.105 125.709 415.417 125.709 415.82V451.735C125.709 452.102 125.58 452.413 125.324 452.67C125.104 452.89 124.81 453 124.444 453H121.639C121.272 453 120.96 452.89 120.704 452.67C120.447 452.413 120.319 452.102 120.319 451.735V423.52L99.8586 452.23C99.5653 452.743 99.1069 453 98.4836 453H95.7336ZM144.529 453.55C141.852 453.55 139.634 453.128 137.874 452.285C136.151 451.442 134.886 450.415 134.079 449.205C133.309 447.995 132.906 446.803 132.869 445.63V445.52C132.869 445.227 132.979 444.988 133.199 444.805C133.419 444.622 133.676 444.53 133.969 444.53H136.554C137.214 444.53 137.654 444.878 137.874 445.575C138.277 446.968 139.066 447.958 140.239 448.545C141.449 449.095 143.026 449.37 144.969 449.37C146.839 449.37 148.379 448.985 149.589 448.215C150.799 447.445 151.404 446.308 151.404 444.805C151.404 443.265 150.964 442.128 150.084 441.395C149.241 440.625 147.921 440.24 146.124 440.24H143.099C142.769 440.24 142.494 440.13 142.274 439.91C142.054 439.69 141.944 439.397 141.944 439.03V437.545C141.944 437.178 142.054 436.885 142.274 436.665C142.494 436.445 142.769 436.335 143.099 436.335H145.794C148.911 436.335 150.469 435.107 150.469 432.65C150.469 431.33 149.992 430.23 149.039 429.35C148.122 428.47 146.619 428.03 144.529 428.03C142.512 428.03 141.046 428.378 140.129 429.075C139.249 429.735 138.607 430.798 138.204 432.265C138.057 432.632 137.874 432.907 137.654 433.09C137.471 433.237 137.196 433.31 136.829 433.31H134.354C134.024 433.31 133.749 433.218 133.529 433.035C133.309 432.815 133.199 432.558 133.199 432.265C133.236 430.762 133.676 429.368 134.519 428.085C135.362 426.802 136.627 425.775 138.314 425.005C140.001 424.235 142.072 423.85 144.529 423.85C147.096 423.85 149.204 424.253 150.854 425.06C152.504 425.867 153.696 426.875 154.429 428.085C155.162 429.295 155.529 430.56 155.529 431.88C155.529 433.383 155.272 434.612 154.759 435.565C154.282 436.482 153.402 437.252 152.119 437.875C153.696 438.462 154.814 439.378 155.474 440.625C156.171 441.872 156.519 443.393 156.519 445.19C156.519 447.867 155.419 449.938 153.219 451.405C151.019 452.835 148.122 453.55 144.529 453.55ZM174.433 453.55C170.4 453.55 167.265 452.413 165.028 450.14C162.828 447.867 161.655 444.842 161.508 441.065L161.453 438.7L161.508 436.335C161.655 432.595 162.847 429.588 165.083 427.315C167.32 425.005 170.437 423.85 174.433 423.85C178.43 423.85 181.547 425.005 183.783 427.315C186.02 429.588 187.212 432.595 187.358 436.335C187.395 436.738 187.413 437.527 187.413 438.7C187.413 439.873 187.395 440.662 187.358 441.065C187.212 444.842 186.02 447.867 183.783 450.14C181.583 452.413 178.467 453.55 174.433 453.55ZM174.433 449.315C176.743 449.315 178.558 448.582 179.878 447.115C181.235 445.648 181.968 443.54 182.078 440.79C182.115 440.423 182.133 439.727 182.133 438.7C182.133 437.673 182.115 436.977 182.078 436.61C181.968 433.86 181.235 431.752 179.878 430.285C178.558 428.818 176.743 428.085 174.433 428.085C172.123 428.085 170.29 428.818 168.933 430.285C167.577 431.752 166.862 433.86 166.788 436.61L166.733 438.7L166.788 440.79C166.862 443.54 167.577 445.648 168.933 447.115C170.29 448.582 172.123 449.315 174.433 449.315ZM219.325 438.04C219.362 438.407 219.38 438.993 219.38 439.8C219.38 440.497 219.362 440.992 219.325 441.285C219.179 444.988 217.987 447.958 215.75 450.195C213.55 452.432 210.434 453.55 206.4 453.55C202.257 453.55 199.104 452.377 196.94 450.03C194.777 447.683 193.622 444.457 193.475 440.35L193.42 437.05L193.475 433.75C193.512 428.507 194.209 424.583 195.565 421.98C196.959 419.34 198.92 417.452 201.45 416.315C204.017 415.142 208.16 413.803 213.88 412.3L215.2 411.97L215.475 411.915C215.769 411.915 216.025 412.025 216.245 412.245C216.502 412.428 216.649 412.648 216.685 412.905L217.125 415.16L217.18 415.49C217.18 415.747 217.089 415.967 216.905 416.15C216.759 416.333 216.539 416.462 216.245 416.535L213.495 417.195C209.279 418.222 206.254 419.102 204.42 419.835C202.587 420.568 201.157 421.723 200.13 423.3C199.14 424.84 198.59 427.15 198.48 430.23C199.36 428.91 200.607 427.847 202.22 427.04C203.834 426.197 205.539 425.775 207.335 425.775C211.039 425.775 213.917 426.912 215.97 429.185C218.06 431.422 219.179 434.373 219.325 438.04ZM214.045 441.065C214.082 440.808 214.1 440.387 214.1 439.8C214.1 439.14 214.082 438.645 214.045 438.315C213.972 435.638 213.275 433.567 211.955 432.1C210.672 430.597 208.985 429.845 206.895 429.845C204.549 429.845 202.624 430.597 201.12 432.1C199.654 433.567 198.865 435.638 198.755 438.315L198.7 439.8L198.755 441.065C198.865 443.778 199.599 445.868 200.955 447.335C202.312 448.765 204.127 449.48 206.4 449.48C208.71 449.48 210.544 448.765 211.9 447.335C213.257 445.868 213.972 443.778 214.045 441.065ZM227.578 463.45C227.212 463.45 226.9 463.322 226.643 463.065C226.423 462.845 226.313 462.552 226.313 462.185V425.665C226.313 425.298 226.423 425.005 226.643 424.785C226.9 424.528 227.212 424.4 227.578 424.4H230.108C230.475 424.4 230.768 424.528 230.988 424.785C231.245 425.005 231.373 425.298 231.373 425.665V428.085C233.427 425.262 236.433 423.85 240.393 423.85C244.243 423.85 247.122 425.06 249.028 427.48C250.972 429.9 252.017 433.017 252.163 436.83C252.2 437.233 252.218 437.857 252.218 438.7C252.218 439.543 252.2 440.167 252.163 440.57C252.017 444.347 250.972 447.463 249.028 449.92C247.085 452.34 244.207 453.55 240.393 453.55C236.58 453.55 233.61 452.175 231.483 449.425V462.185C231.483 462.552 231.373 462.845 231.153 463.065C230.933 463.322 230.64 463.45 230.273 463.45H227.578ZM239.238 449.095C241.842 449.095 243.73 448.288 244.903 446.675C246.113 445.062 246.773 442.935 246.883 440.295C246.92 439.928 246.938 439.397 246.938 438.7C246.938 431.77 244.372 428.305 239.238 428.305C236.708 428.305 234.802 429.148 233.518 430.835C232.272 432.485 231.593 434.465 231.483 436.775L231.428 438.865L231.483 441.01C231.557 443.173 232.253 445.062 233.573 446.675C234.893 448.288 236.782 449.095 239.238 449.095ZM270.462 453.55C266.685 453.55 263.66 452.395 261.387 450.085C259.15 447.738 257.922 444.548 257.702 440.515L257.647 438.645L257.702 436.83C257.959 432.87 259.205 429.717 261.442 427.37C263.715 425.023 266.704 423.85 270.407 423.85C274.477 423.85 277.63 425.152 279.867 427.755C282.104 430.322 283.222 433.805 283.222 438.205V439.14C283.222 439.507 283.094 439.818 282.837 440.075C282.617 440.295 282.324 440.405 281.957 440.405H262.927V440.9C263.037 443.283 263.752 445.318 265.072 447.005C266.429 448.655 268.207 449.48 270.407 449.48C272.094 449.48 273.469 449.15 274.532 448.49C275.632 447.793 276.439 447.078 276.952 446.345C277.282 445.905 277.52 445.648 277.667 445.575C277.85 445.465 278.162 445.41 278.602 445.41H281.297C281.627 445.41 281.902 445.502 282.122 445.685C282.342 445.868 282.452 446.125 282.452 446.455C282.452 447.262 281.939 448.233 280.912 449.37C279.922 450.507 278.51 451.497 276.677 452.34C274.88 453.147 272.809 453.55 270.462 453.55ZM277.997 436.61V436.445C277.997 433.915 277.3 431.862 275.907 430.285C274.55 428.672 272.717 427.865 270.407 427.865C268.097 427.865 266.264 428.672 264.907 430.285C263.587 431.862 262.927 433.915 262.927 436.445V436.61H277.997ZM298.544 453C298.177 453 297.865 452.89 297.609 452.67C297.389 452.413 297.279 452.102 297.279 451.735V428.8H287.709C287.342 428.8 287.03 428.69 286.774 428.47C286.554 428.213 286.444 427.902 286.444 427.535V425.665C286.444 425.298 286.554 425.005 286.774 424.785C287.03 424.528 287.342 424.4 287.709 424.4H311.909C312.275 424.4 312.569 424.528 312.789 424.785C313.045 425.005 313.174 425.298 313.174 425.665V427.535C313.174 427.902 313.045 428.213 312.789 428.47C312.569 428.69 312.275 428.8 311.909 428.8H302.339V451.735C302.339 452.102 302.229 452.413 302.009 452.67C301.789 452.89 301.495 453 301.129 453H298.544ZM325.918 453.55C324.121 453.55 322.453 453.183 320.913 452.45C319.373 451.717 318.145 450.727 317.228 449.48C316.348 448.197 315.908 446.785 315.908 445.245C315.908 442.825 316.898 440.845 318.878 439.305C320.895 437.728 323.608 436.702 327.018 436.225L335.213 435.07V433.475C335.213 429.735 333.068 427.865 328.778 427.865C327.165 427.865 325.845 428.213 324.818 428.91C323.791 429.57 323.021 430.358 322.508 431.275C322.398 431.605 322.251 431.843 322.068 431.99C321.921 432.137 321.701 432.21 321.408 432.21H319.043C318.713 432.21 318.42 432.1 318.163 431.88C317.943 431.623 317.833 431.33 317.833 431C317.87 430.12 318.273 429.13 319.043 428.03C319.85 426.893 321.078 425.922 322.728 425.115C324.378 424.272 326.413 423.85 328.833 423.85C332.94 423.85 335.891 424.822 337.688 426.765C339.485 428.672 340.383 431.055 340.383 433.915V451.735C340.383 452.102 340.255 452.413 339.998 452.67C339.778 452.89 339.485 453 339.118 453H336.588C336.221 453 335.91 452.89 335.653 452.67C335.433 452.413 335.323 452.102 335.323 451.735V449.37C334.516 450.543 333.343 451.533 331.803 452.34C330.263 453.147 328.301 453.55 325.918 453.55ZM327.073 449.425C329.456 449.425 331.4 448.655 332.903 447.115C334.443 445.538 335.213 443.283 335.213 440.35V438.81L328.833 439.745C326.23 440.112 324.268 440.735 322.948 441.615C321.628 442.458 320.968 443.54 320.968 444.86C320.968 446.327 321.573 447.463 322.783 448.27C323.993 449.04 325.423 449.425 327.073 449.425ZM372.6 424.4C372.893 424.4 373.15 424.51 373.37 424.73C373.626 424.95 373.755 425.207 373.755 425.5V451.735C373.755 452.102 373.626 452.413 373.37 452.67C373.15 452.89 372.856 453 372.49 453H369.905C369.538 453 369.226 452.89 368.97 452.67C368.75 452.413 368.64 452.102 368.64 451.735V431.77L353.405 452.175C353.001 452.725 352.525 453 351.975 453H349.5C349.17 453 348.876 452.89 348.62 452.67C348.4 452.413 348.29 452.138 348.29 451.845V425.665C348.29 425.298 348.4 425.005 348.62 424.785C348.876 424.528 349.188 424.4 349.555 424.4H352.195C352.561 424.4 352.855 424.528 353.075 424.785C353.331 425.005 353.46 425.298 353.46 425.665V445.52L368.64 425.225C369.043 424.675 369.52 424.4 370.07 424.4H372.6ZM361.16 420.605C358.226 420.605 356.118 419.963 354.835 418.68C353.551 417.397 352.91 415.747 352.91 413.73C352.91 413.437 353.001 413.198 353.185 413.015C353.368 412.795 353.625 412.685 353.955 412.685H355.825C356.155 412.685 356.411 412.795 356.595 413.015C356.778 413.198 356.87 413.437 356.87 413.73C356.87 416.04 358.3 417.195 361.16 417.195C364.02 417.195 365.45 416.04 365.45 413.73C365.45 413.437 365.541 413.198 365.725 413.015C365.908 412.795 366.165 412.685 366.495 412.685H368.42C368.75 412.685 369.006 412.795 369.19 413.015C369.373 413.198 369.465 413.437 369.465 413.73C369.465 415.71 368.805 417.36 367.485 418.68C366.201 419.963 364.093 420.605 361.16 420.605ZM420.312 438.04C420.348 438.407 420.367 438.993 420.367 439.8C420.367 440.497 420.348 440.992 420.312 441.285C420.165 444.988 418.973 447.958 416.737 450.195C414.537 452.432 411.42 453.55 407.387 453.55C403.243 453.55 400.09 452.377 397.927 450.03C395.763 447.683 394.608 444.457 394.462 440.35L394.407 437.05L394.462 433.75C394.498 428.507 395.195 424.583 396.552 421.98C397.945 419.34 399.907 417.452 402.437 416.315C405.003 415.142 409.147 413.803 414.867 412.3L416.187 411.97L416.462 411.915C416.755 411.915 417.012 412.025 417.232 412.245C417.488 412.428 417.635 412.648 417.672 412.905L418.112 415.16L418.167 415.49C418.167 415.747 418.075 415.967 417.892 416.15C417.745 416.333 417.525 416.462 417.232 416.535L414.482 417.195C410.265 418.222 407.24 419.102 405.407 419.835C403.573 420.568 402.143 421.723 401.117 423.3C400.127 424.84 399.577 427.15 399.467 430.23C400.347 428.91 401.593 427.847 403.207 427.04C404.82 426.197 406.525 425.775 408.322 425.775C412.025 425.775 414.903 426.912 416.957 429.185C419.047 431.422 420.165 434.373 420.312 438.04ZM415.032 441.065C415.068 440.808 415.087 440.387 415.087 439.8C415.087 439.14 415.068 438.645 415.032 438.315C414.958 435.638 414.262 433.567 412.942 432.1C411.658 430.597 409.972 429.845 407.882 429.845C405.535 429.845 403.61 430.597 402.107 432.1C400.64 433.567 399.852 435.638 399.742 438.315L399.687 439.8L399.742 441.065C399.852 443.778 400.585 445.868 401.942 447.335C403.298 448.765 405.113 449.48 407.387 449.48C409.697 449.48 411.53 448.765 412.887 447.335C414.243 445.868 414.958 443.778 415.032 441.065ZM450.73 424.4C451.023 424.4 451.28 424.51 451.5 424.73C451.72 424.95 451.83 425.207 451.83 425.5C451.83 425.757 451.738 426.087 451.555 426.49L441.105 451.24L440.61 452.34C439.656 454.65 438.776 456.557 437.97 458.06C437.163 459.563 436.155 460.828 434.945 461.855C433.735 462.918 432.305 463.45 430.655 463.45H428.565C428.198 463.45 427.886 463.34 427.63 463.12C427.41 462.9 427.3 462.588 427.3 462.185V460.315C427.3 459.948 427.41 459.637 427.63 459.38C427.886 459.16 428.198 459.05 428.565 459.05H429.995C430.801 459.05 431.461 458.885 431.975 458.555C432.488 458.262 432.946 457.748 433.35 457.015C433.79 456.282 434.321 455.163 434.945 453.66L435.88 451.405L425.1 426.49C424.916 426.013 424.825 425.702 424.825 425.555C424.861 425.225 424.99 424.95 425.21 424.73C425.43 424.51 425.686 424.4 425.98 424.4H428.565C429.188 424.4 429.646 424.712 429.94 425.335L438.355 445.52L446.88 425.335C447.136 424.712 447.595 424.4 448.255 424.4H450.73ZM455.727 459.05C455.36 459.05 455.048 458.922 454.792 458.665C454.572 458.445 454.462 458.152 454.462 457.785V449.865C454.462 449.498 454.572 449.205 454.792 448.985C455.048 448.728 455.36 448.6 455.727 448.6H456.002C457.542 448.563 458.697 447.28 459.467 444.75C460.273 442.22 460.677 438.205 460.677 432.705V425.665C460.677 425.298 460.787 425.005 461.007 424.785C461.263 424.528 461.575 424.4 461.942 424.4H479.487C479.853 424.4 480.147 424.528 480.367 424.785C480.623 425.005 480.752 425.298 480.752 425.665V448.49H483.337C483.703 448.49 483.997 448.618 484.217 448.875C484.473 449.095 484.602 449.388 484.602 449.755V457.785C484.602 458.152 484.473 458.445 484.217 458.665C483.997 458.922 483.703 459.05 483.337 459.05H480.752C480.385 459.05 480.073 458.922 479.817 458.665C479.597 458.445 479.487 458.152 479.487 457.785V453H459.577V457.785C459.577 458.152 459.448 458.445 459.192 458.665C458.972 458.922 458.678 459.05 458.312 459.05H455.727ZM475.637 448.49V428.8H465.682V433.31C465.682 440.643 464.637 445.74 462.547 448.6L475.637 448.49ZM513.84 424.4C514.133 424.4 514.39 424.51 514.61 424.73C514.83 424.95 514.94 425.207 514.94 425.5C514.94 425.757 514.848 426.087 514.665 426.49L504.215 451.24L503.72 452.34C502.767 454.65 501.887 456.557 501.08 458.06C500.273 459.563 499.265 460.828 498.055 461.855C496.845 462.918 495.415 463.45 493.765 463.45H491.675C491.308 463.45 490.997 463.34 490.74 463.12C490.52 462.9 490.41 462.588 490.41 462.185V460.315C490.41 459.948 490.52 459.637 490.74 459.38C490.997 459.16 491.308 459.05 491.675 459.05H493.105C493.912 459.05 494.572 458.885 495.085 458.555C495.598 458.262 496.057 457.748 496.46 457.015C496.9 456.282 497.432 455.163 498.055 453.66L498.99 451.405L488.21 426.49C488.027 426.013 487.935 425.702 487.935 425.555C487.972 425.225 488.1 424.95 488.32 424.73C488.54 424.51 488.797 424.4 489.09 424.4H491.675C492.298 424.4 492.757 424.712 493.05 425.335L501.465 445.52L509.99 425.335C510.247 424.712 510.705 424.4 511.365 424.4H513.84ZM555.577 459.93C555.21 459.93 554.899 459.802 554.642 459.545C554.422 459.325 554.312 459.032 554.312 458.665V453H521.752C521.385 453 521.074 452.89 520.817 452.67C520.597 452.413 520.487 452.102 520.487 451.735V425.665C520.487 425.298 520.597 425.005 520.817 424.785C521.074 424.528 521.385 424.4 521.752 424.4H524.282C524.649 424.4 524.942 424.528 525.162 424.785C525.419 425.005 525.547 425.298 525.547 425.665V448.6H535.612V425.665C535.612 425.298 535.722 425.005 535.942 424.785C536.199 424.528 536.51 424.4 536.877 424.4H539.187C539.554 424.4 539.847 424.528 540.067 424.785C540.324 425.005 540.452 425.298 540.452 425.665V448.6H550.517V425.665C550.517 425.298 550.627 425.005 550.847 424.785C551.104 424.528 551.415 424.4 551.782 424.4H554.312C554.679 424.4 554.972 424.528 555.192 424.785C555.449 425.005 555.577 425.298 555.577 425.665V448.6H558.217C558.584 448.6 558.877 448.728 559.097 448.985C559.354 449.205 559.482 449.498 559.482 449.865V458.665C559.482 459.032 559.354 459.325 559.097 459.545C558.877 459.802 558.584 459.93 558.217 459.93H555.577ZM576.614 453.55C572.838 453.55 569.813 452.395 567.539 450.085C565.303 447.738 564.074 444.548 563.854 440.515L563.799 438.645L563.854 436.83C564.111 432.87 565.358 429.717 567.594 427.37C569.868 425.023 572.856 423.85 576.559 423.85C580.629 423.85 583.783 425.152 586.019 427.755C588.256 430.322 589.374 433.805 589.374 438.205V439.14C589.374 439.507 589.246 439.818 588.989 440.075C588.769 440.295 588.476 440.405 588.109 440.405H569.079V440.9C569.189 443.283 569.904 445.318 571.224 447.005C572.581 448.655 574.359 449.48 576.559 449.48C578.246 449.48 579.621 449.15 580.684 448.49C581.784 447.793 582.591 447.078 583.104 446.345C583.434 445.905 583.673 445.648 583.819 445.575C584.003 445.465 584.314 445.41 584.754 445.41H587.449C587.779 445.41 588.054 445.502 588.274 445.685C588.494 445.868 588.604 446.125 588.604 446.455C588.604 447.262 588.091 448.233 587.064 449.37C586.074 450.507 584.663 451.497 582.829 452.34C581.033 453.147 578.961 453.55 576.614 453.55ZM584.149 436.61V436.445C584.149 433.915 583.453 431.862 582.059 430.285C580.703 428.672 578.869 427.865 576.559 427.865C574.249 427.865 572.416 428.672 571.059 430.285C569.739 431.862 569.079 433.915 569.079 436.445V436.61H584.149ZM607.391 453.55C603.614 453.55 600.589 452.395 598.316 450.085C596.079 447.738 594.851 444.548 594.631 440.515L594.576 438.645L594.631 436.83C594.888 432.87 596.134 429.717 598.371 427.37C600.644 425.023 603.633 423.85 607.336 423.85C611.406 423.85 614.559 425.152 616.796 427.755C619.033 430.322 620.151 433.805 620.151 438.205V439.14C620.151 439.507 620.023 439.818 619.766 440.075C619.546 440.295 619.253 440.405 618.886 440.405H599.856V440.9C599.966 443.283 600.681 445.318 602.001 447.005C603.358 448.655 605.136 449.48 607.336 449.48C609.023 449.48 610.398 449.15 611.461 448.49C612.561 447.793 613.368 447.078 613.881 446.345C614.211 445.905 614.449 445.648 614.596 445.575C614.779 445.465 615.091 445.41 615.531 445.41H618.226C618.556 445.41 618.831 445.502 619.051 445.685C619.271 445.868 619.381 446.125 619.381 446.455C619.381 447.262 618.868 448.233 617.841 449.37C616.851 450.507 615.439 451.497 613.606 452.34C611.809 453.147 609.738 453.55 607.391 453.55ZM614.926 436.61V436.445C614.926 433.915 614.229 431.862 612.836 430.285C611.479 428.672 609.646 427.865 607.336 427.865C605.026 427.865 603.193 428.672 601.836 430.285C600.516 431.862 599.856 433.915 599.856 436.445V436.61H614.926ZM651.759 453.55C647.835 453.55 644.755 452.45 642.519 450.25C640.319 448.013 639.145 444.897 638.999 440.9L638.944 438.7L638.999 436.5C639.145 432.503 640.319 429.405 642.519 427.205C644.755 424.968 647.835 423.85 651.759 423.85C654.399 423.85 656.635 424.327 658.469 425.28C660.302 426.233 661.659 427.407 662.539 428.8C663.455 430.193 663.95 431.587 664.024 432.98C664.06 433.347 663.95 433.64 663.694 433.86C663.437 434.08 663.125 434.19 662.759 434.19H660.119C659.752 434.19 659.477 434.117 659.294 433.97C659.11 433.823 658.927 433.53 658.744 433.09C658.12 431.33 657.24 430.083 656.104 429.35C654.967 428.58 653.537 428.195 651.814 428.195C649.54 428.195 647.725 428.91 646.369 430.34C645.049 431.733 644.334 433.878 644.224 436.775L644.169 438.755L644.224 440.625C644.334 443.558 645.049 445.722 646.369 447.115C647.689 448.508 649.504 449.205 651.814 449.205C653.537 449.205 654.967 448.838 656.104 448.105C657.24 447.335 658.12 446.07 658.744 444.31C658.927 443.87 659.11 443.577 659.294 443.43C659.477 443.247 659.752 443.155 660.119 443.155H662.759C663.125 443.155 663.437 443.283 663.694 443.54C663.95 443.76 664.06 444.053 664.024 444.42C663.95 445.777 663.455 447.17 662.539 448.6C661.659 449.993 660.302 451.167 658.469 452.12C656.672 453.073 654.435 453.55 651.759 453.55ZM685.302 453C684.935 453 684.623 452.89 684.367 452.67C684.147 452.413 684.037 452.102 684.037 451.735V425.665C684.037 425.298 684.147 425.005 684.367 424.785C684.623 424.528 684.935 424.4 685.302 424.4H687.942C688.308 424.4 688.602 424.528 688.822 424.785C689.078 425.005 689.207 425.298 689.207 425.665V436.225H704.167V425.665C704.167 425.298 704.277 425.005 704.497 424.785C704.753 424.528 705.065 424.4 705.432 424.4H708.017C708.383 424.4 708.677 424.528 708.897 424.785C709.153 425.005 709.282 425.298 709.282 425.665V451.735C709.282 452.102 709.153 452.413 708.897 452.67C708.677 452.89 708.383 453 708.017 453H705.432C705.065 453 704.753 452.89 704.497 452.67C704.277 452.413 704.167 452.102 704.167 451.735V440.625H689.207V451.735C689.207 452.102 689.078 452.413 688.822 452.67C688.602 452.89 688.308 453 687.942 453H685.302ZM725.527 453.55C723.731 453.55 722.062 453.183 720.522 452.45C718.982 451.717 717.754 450.727 716.837 449.48C715.957 448.197 715.517 446.785 715.517 445.245C715.517 442.825 716.507 440.845 718.487 439.305C720.504 437.728 723.217 436.702 726.627 436.225L734.822 435.07V433.475C734.822 429.735 732.677 427.865 728.387 427.865C726.774 427.865 725.454 428.213 724.427 428.91C723.401 429.57 722.631 430.358 722.117 431.275C722.007 431.605 721.861 431.843 721.677 431.99C721.531 432.137 721.311 432.21 721.017 432.21H718.652C718.322 432.21 718.029 432.1 717.772 431.88C717.552 431.623 717.442 431.33 717.442 431C717.479 430.12 717.882 429.13 718.652 428.03C719.459 426.893 720.687 425.922 722.337 425.115C723.987 424.272 726.022 423.85 728.442 423.85C732.549 423.85 735.501 424.822 737.297 426.765C739.094 428.672 739.992 431.055 739.992 433.915V451.735C739.992 452.102 739.864 452.413 739.607 452.67C739.387 452.89 739.094 453 738.727 453H736.197C735.831 453 735.519 452.89 735.262 452.67C735.042 452.413 734.932 452.102 734.932 451.735V449.37C734.126 450.543 732.952 451.533 731.412 452.34C729.872 453.147 727.911 453.55 725.527 453.55ZM726.682 449.425C729.066 449.425 731.009 448.655 732.512 447.115C734.052 445.538 734.822 443.283 734.822 440.35V438.81L728.442 439.745C725.839 440.112 723.877 440.735 722.557 441.615C721.237 442.458 720.577 443.54 720.577 444.86C720.577 446.327 721.182 447.463 722.392 448.27C723.602 449.04 725.032 449.425 726.682 449.425ZM776.059 424.4C776.352 424.4 776.609 424.51 776.829 424.73C777.049 424.913 777.159 425.152 777.159 425.445V451.79C777.159 452.157 777.049 452.45 776.829 452.67C776.609 452.89 776.334 453 776.004 453H773.309C772.942 453 772.649 452.89 772.429 452.67C772.209 452.45 772.099 452.157 772.099 451.79V433.695L765.059 447.005C764.802 447.482 764.546 447.848 764.289 448.105C764.069 448.325 763.721 448.435 763.244 448.435H761.814C761.374 448.435 761.026 448.325 760.769 448.105C760.549 447.885 760.292 447.518 759.999 447.005L753.014 434.025V451.79C753.014 452.157 752.904 452.45 752.684 452.67C752.464 452.89 752.171 453 751.804 453H749.109C748.742 453 748.449 452.89 748.229 452.67C748.009 452.45 747.899 452.157 747.899 451.79V425.445C747.899 425.188 748.009 424.95 748.229 424.73C748.449 424.51 748.706 424.4 748.999 424.4H751.804C752.354 424.4 752.812 424.693 753.179 425.28L762.529 442.77L771.934 425.28C772.227 424.693 772.686 424.4 773.309 424.4H776.059ZM809.699 424.4C809.993 424.4 810.249 424.51 810.469 424.73C810.726 424.95 810.854 425.207 810.854 425.5V451.735C810.854 452.102 810.726 452.413 810.469 452.67C810.249 452.89 809.956 453 809.589 453H807.004C806.638 453 806.326 452.89 806.069 452.67C805.849 452.413 805.739 452.102 805.739 451.735V431.77L790.504 452.175C790.101 452.725 789.624 453 789.074 453H786.599C786.269 453 785.976 452.89 785.719 452.67C785.499 452.413 785.389 452.138 785.389 451.845V425.665C785.389 425.298 785.499 425.005 785.719 424.785C785.976 424.528 786.288 424.4 786.654 424.4H789.294C789.661 424.4 789.954 424.528 790.174 424.785C790.431 425.005 790.559 425.298 790.559 425.665V445.52L805.739 425.225C806.143 424.675 806.619 424.4 807.169 424.4H809.699ZM820.28 443.87C819.913 443.87 819.602 443.76 819.345 443.54C819.125 443.283 819.015 442.972 819.015 442.605V415.765C819.015 415.398 819.125 415.105 819.345 414.885C819.602 414.628 819.913 414.5 820.28 414.5H822.865C823.232 414.5 823.525 414.628 823.745 414.885C824.002 415.105 824.13 415.398 824.13 415.765V442.605C824.13 442.972 824.002 443.283 823.745 443.54C823.525 443.76 823.232 443.87 822.865 443.87H820.28ZM819.785 453C819.418 453 819.107 452.89 818.85 452.67C818.63 452.413 818.52 452.102 818.52 451.735V448.27C818.52 447.903 818.63 447.592 818.85 447.335C819.107 447.078 819.418 446.95 819.785 446.95H823.305C823.672 446.95 823.965 447.078 824.185 447.335C824.442 447.592 824.57 447.903 824.57 448.27V451.735C824.57 452.102 824.442 452.413 824.185 452.67C823.965 452.89 823.672 453 823.305 453H819.785Z" fill="#2B2E36"/>
<line opacity="0.15" x1="311" y1="505" x2="607" y2="505" stroke="#007AA9" stroke-width="4" stroke-linecap="round"/>
</svg>
