<svg width="30" height="18" viewBox="0 0 30 18" fill="none" xmlns="http://www.w3.org/2000/svg">
<path d="M10.6822 0.82633C11.4527 0.449611 12.8226 0.432486 14.4322 0.449611C15.6823 0.458172 16.0419 0.535228 16.5299 0.655094C18.0111 1.01469 17.5059 2.38458 17.5059 5.698C17.5059 6.7511 17.3176 8.24086 18.0796 8.73744C18.4049 8.95149 19.2183 8.76313 21.2218 5.35553C22.1721 3.73735 22.8913 1.83662 22.8913 1.83662C22.8913 1.83662 23.0454 1.49415 23.2852 1.3486C23.5335 1.20305 23.8674 1.24586 23.8674 1.24586L28.3794 1.22017C28.3794 1.22017 29.7322 1.0575 29.9548 1.66539C30.186 2.31609 29.4497 3.8144 27.6089 6.27164C24.578 10.3043 24.2441 9.92753 26.7613 12.2563C29.1586 14.4824 29.6551 15.5698 29.7322 15.6982C30.7254 17.3506 28.6363 17.479 28.6363 17.479L24.6294 17.539C24.6294 17.539 23.7646 17.7102 22.6259 16.9311C21.1276 15.9037 19.7234 13.2324 18.619 13.5749C17.5059 13.9345 17.5402 16.3403 17.5402 16.3403C17.5402 16.3403 17.5487 16.854 17.2919 17.128C17.0179 17.4191 16.4785 17.479 16.4785 17.479H14.6805C14.6805 17.479 10.725 17.7188 7.24033 14.0886C3.43889 10.133 0.0826586 2.28184 0.0826586 2.28184C0.0826586 2.28184 -0.114263 1.77669 0.0997844 1.51984C0.330952 1.24586 0.973087 1.22017 0.973087 1.22017L5.26255 1.19449C5.26255 1.19449 5.66496 1.26298 5.95606 1.47703C6.19579 1.64826 6.32422 1.97361 6.32422 1.97361C6.32422 1.97361 7.01773 3.72879 7.93384 5.32128C9.73182 8.41209 10.5623 9.08848 11.1702 8.75457C12.0521 8.26654 11.7952 4.37948 11.7952 4.37948C11.7952 4.37948 11.8123 2.96678 11.35 2.34177C10.9904 1.85375 10.314 1.7082 10.0144 1.66539C9.77463 1.6397 10.1685 1.07462 10.6822 0.82633Z" fill="#2787F5"/>
</svg>
