<svg width="550" height="288" viewBox="0 0 550 288" fill="none" xmlns="http://www.w3.org/2000/svg">
<path d="M492.399 140.297C492.399 140.297 496.781 138.711 499.613 143.145C502.444 147.579 500.912 147.157 502.289 149.375C503.669 151.593 504.329 157.894 504.806 161.3C509.661 196.048 451.583 198.863 474.262 154.575C476.39 150.42 478.19 147.923 480.101 143.489C482.016 139.055 490.106 139.227 492.399 140.297Z" fill="#FE6B6B"/>
<path d="M479.979 172.759L474.12 170.714C474.12 170.714 471.796 173.683 471.099 181.109C470.404 188.535 471.099 192.901 471.099 192.901H477.725L479.979 172.759Z" fill="#355389"/>
<path d="M491.71 168.772C489.726 168.977 474.944 167.573 474.121 170.714C469.693 187.596 475.781 210.901 477.337 212.457C478.893 214.012 504.295 208.947 504.295 208.947C504.295 208.947 508.281 167.065 491.71 168.772Z" fill="#466EB6"/>
<path d="M511.885 151.465C511.885 151.465 510.254 150.688 508.769 147.94C507.818 146.178 504.988 143.92 506.162 143.555C507.34 143.19 509.149 146.17 509.487 145.315C509.822 144.463 506.452 138.012 507.521 137.681C508.588 137.35 511.383 143.625 511.686 142.861C511.99 142.098 508.832 136.615 510.341 136.147C511.85 135.679 513.481 142.896 514.29 142.645C515.102 142.393 513.92 136.888 515.137 136.511C516.35 136.134 516.179 143.32 516.614 143.113C516.851 143.001 517.928 139.52 518.591 139.782C519.336 140.076 517.322 147.221 518.218 148.795C519.11 150.369 526.268 169.944 523.822 172.39C521.156 175.053 504.186 181.164 500.635 180.113C497.087 179.063 495.051 175.555 495.905 173.401C496.759 171.244 513.533 166.401 513.802 165.726C514.07 165.048 511.885 151.465 511.885 151.465Z" fill="#F7A491"/>
<path d="M513.247 145.284C513.758 145.263 514.265 145.377 514.749 145.557C514.821 145.607 516.429 146.076 517.122 147.853C516.357 146.943 515.506 145.939 513.247 145.284Z" fill="#F48C7F"/>
<path d="M282.553 275.437C282.272 273.422 282.904 269.957 284.484 264.534C281.356 264.54 278.728 263.158 275.532 263.206C274.658 268.305 273.306 276.678 273.306 276.678L273.163 283.298L295.414 283.465C295.414 283.465 295.228 283.56 288.668 279.419C288.184 279.113 282.826 277.385 282.553 275.437Z" fill="#F7A491"/>
<path d="M273.057 285.001H296.028C296.877 284.925 297.084 284.233 296.789 283.807C296.183 282.927 291.703 280.816 288.691 279.417C283.408 279.972 274.121 277.799 273.289 276.577C271.84 280.626 272.586 284.898 273.057 285.001Z" fill="#357E84"/>
<path d="M254.836 275.437C254.553 273.422 254.075 270.898 254.776 264.179C251.648 264.187 248.674 263.601 245.479 263.649C245.479 268.895 245.589 276.678 245.589 276.678L245.443 283.298L267.694 283.465C267.694 283.465 267.51 283.56 260.95 279.419C260.464 279.113 255.106 277.385 254.836 275.437Z" fill="#F7A491"/>
<path d="M245.339 285.001H268.308C269.158 284.925 269.365 284.233 269.071 283.807C268.465 282.927 263.985 280.816 260.973 279.417C255.689 279.972 246.404 277.799 245.569 276.577C244.12 280.626 244.866 284.898 245.339 285.001Z" fill="#357E84"/>
<path d="M271.005 83.4586L279.375 74.6345C279.375 74.6345 288.334 79.5586 298.778 84.2618C301.648 79.2686 306.333 62.8452 306.587 62.062C306.838 61.2767 301.098 51.4106 302.382 51.163C303.667 50.9175 305.335 56.4329 306.69 55.8729C308.048 55.3151 311.54 42.5173 312.358 43.2157C313.885 44.5231 310.52 51.1763 311.326 51.6605C312.132 52.1446 314.176 44.2866 315.732 44.6213C317.286 44.9559 313.106 51.7765 313.564 52.4302C314.021 53.0862 318.396 46.6895 319.298 48.171C319.79 48.9742 315.265 53.7421 316.194 54.2754C317.128 54.8086 321.203 51.8055 321.69 52.7783C322.177 53.7511 317.885 54.764 316.695 57.2249C315.502 59.6859 313.336 60.643 312.617 65.2972C311.902 69.9446 309.933 94.8173 304.859 96.8142C300.429 98.5567 271.005 83.4586 271.005 83.4586Z" fill="#FFD3AC"/>
<path d="M276.413 131.043L269.624 134.827L255.828 155.902L280.502 213.926C280.502 213.926 277.722 222.652 276.818 227.011C275.87 231.572 273.547 270.721 273.547 270.721L284.073 270.896C284.073 270.896 294.072 229.221 295.764 215.694C297.821 199.268 285.301 160.146 285.301 160.146C282.967 152.165 277.934 135.745 277.934 135.745C277.934 135.745 276.702 131.744 276.413 131.043Z" fill="#414698"/>
<path d="M252.789 123.13C252.789 123.13 253.49 128.09 250.683 133.743C248.972 137.191 246.015 139.894 243.899 144.117C239.894 152.111 237.719 163.462 239.22 170.759C239.22 170.759 247.502 202.356 247.174 213.903C247.052 218.162 245.59 225.835 244.655 231.022C243.827 235.607 244.118 269.622 244.118 269.622L255.302 269.84L264.304 214.047L268.11 164.451L276.411 131.048L252.789 123.13Z" fill="#466EB6"/>
<path d="M278.921 49.4216C277.835 44.3 276.716 39.1594 271.622 35.4706C267.499 32.4867 263.07 31.6321 258.374 33.335C245.068 38.157 252.224 48.7062 235.713 59.9496C230.583 63.4442 228.635 64.6618 224.954 69.3171C219.8 75.8357 216.983 84.5785 219.572 91.7787C224.931 106.667 241.532 110.967 250.215 107.81C266.379 101.935 279.846 81.4532 280.742 75.8652C281.698 69.8826 279.62 52.7199 278.921 49.4216Z" fill="#13375B"/>
<path d="M280.155 89.0017C283.9 90.7321 290.684 93.3298 290.684 93.3298L294.543 81.1346C272.729 68.7369 274.44 70.7374 258.068 70.9801C244.988 71.1658 239.507 68.6714 228.243 99.0486C228.243 99.0486 236.818 102.898 239.887 104.134C241.207 100.378 243.594 92.8888 244.986 97.1578C247.088 103.609 248.627 110.121 249.66 116.825C250.315 120.799 251.743 125.887 250.991 129.934C250.991 129.934 259.9 131.768 266.703 132.066C266.722 132.066 266.743 132.068 266.762 132.066C270.048 131.981 273.417 131.692 276.414 131.046C276.414 131.046 277.747 102.866 278.461 101.689C279.251 100.387 282.584 96.1808 279.747 89.888C279.247 88.7759 279.382 88.645 280.155 89.0017Z" fill="#357E84"/>
<path d="M260.116 58.4375C260.116 58.4375 259.074 66.8406 258.46 69.7591C257.818 72.8126 256.85 82.4269 263.187 83.9885C269.523 85.548 267.565 73.5259 267.671 70.4217C267.774 67.3175 269.572 56.494 269.572 56.494L260.116 58.4375Z" fill="#FFD3AC"/>
<path d="M259.769 61.121C259.835 61.159 259.894 61.2012 259.959 61.237C263.461 63.2439 266.509 62.9274 268.799 61.3658C269.206 58.6794 269.57 56.4953 269.57 56.4953L260.114 58.4389C260.114 58.4389 259.974 59.5573 259.769 61.121Z" fill="#F47458"/>
<path d="M262.02 36.5515C262.02 36.5515 258.307 37.5939 256.165 41.2785C254.026 44.9609 252.957 55.5417 260.839 60.0577C268.72 64.5715 274.315 57.3375 274.076 50.572C273.837 43.8044 271.949 34.8527 262.02 36.5515Z" fill="#FFD3AC"/>
<path d="M275.818 47.6691C275.907 49.4269 275.153 50.8935 274.137 50.9463C273.119 50.9969 272.225 49.6126 272.137 47.8548C272.05 46.0948 272.802 44.6282 273.82 44.5754C274.836 44.5248 275.731 45.9091 275.818 47.6691Z" fill="#FFD3AC"/>
<path d="M263.137 36.2743C263.137 36.2743 258.889 47.3405 254.73 48.5202C250.572 49.6998 250.905 55.1422 250.905 55.1422C250.905 55.1422 250.373 42.5608 254.171 39.4756C257.968 36.3904 263.137 36.2743 263.137 36.2743Z" fill="#13375B"/>
<path d="M256.514 50.6817C257.156 52.41 256.736 54.1679 255.576 54.6047C254.417 55.0415 252.955 53.9927 252.313 52.2623C251.673 50.534 252.093 48.7762 253.253 48.3393C254.413 47.9025 255.874 48.9513 256.514 50.6817Z" fill="#FFD3AC"/>
<path d="M263.779 137.916C263.933 137.937 264.628 137.846 265.196 137.861C265.982 137.873 266.669 137.994 266.669 137.994C266.669 137.994 266.979 137.728 267.568 137.453C267.813 137.342 268.213 137.299 268.487 137.173C268.768 137.04 269.007 136.801 269.273 136.683C269.968 136.381 270.606 136.31 270.817 136.675C270.992 136.977 267.125 139.34 267.125 139.34C263.547 139.361 259.8 141.184 251.506 135.778C246.768 133.71 223.765 122.359 223.302 119.883C223.043 118.495 226.572 107.747 229.457 99.587C231.681 100.581 236.41 102.685 239.057 103.793C236.628 108.931 233.766 115.747 234.066 116.581C234.144 116.798 234.431 117.191 249.983 127.364C250.376 127.618 250.775 127.883 251.182 128.149C252.277 128.865 253.449 129.629 254.691 130.435L259.126 129.973C259.126 129.973 266.151 130.456 266.36 131.256C266.451 131.621 265.87 131.802 265.154 131.908H265.133C265.027 131.922 264.922 131.935 264.816 131.95C264.81 131.95 264.804 131.95 264.804 131.95C264.031 132.041 263.217 132.055 263.021 132.125C262.795 132.201 262.347 132.378 261.961 132.644C266.339 134.432 266.003 133.794 267.456 133.704C267.82 133.674 268.206 133.779 268.551 133.752C269.14 133.704 269.611 133.351 270.065 133.324C270.732 133.29 271.273 133.598 271.393 133.725C271.548 133.879 271.258 134.102 270.699 134.356C267.315 135.82 264.514 135.259 263.617 135.476C263.013 135.624 264.115 135.848 265.834 135.666C266.263 135.624 266.825 135.778 267.393 135.645C267.771 135.561 268.115 135.316 268.487 135.223C268.831 135.141 269.182 135.147 269.469 135.09C269.849 135.02 270.375 134.733 270.677 134.697C271.799 134.573 272.346 134.769 272.473 134.873C272.733 135.105 267.632 137.061 267.632 137.061C267.632 137.061 264.115 137.565 263.329 137.565C263.329 137.565 262.858 137.776 263.779 137.916Z" fill="#FFD3AC"/>
<path d="M548.446 284.999H1.5547C0.69602 284.999 0 285.672 0 286.5C0 287.329 0.69602 288 1.5547 288H548.446C549.303 288 550 287.329 550 286.5C550 285.672 549.303 284.999 548.446 284.999Z" fill="#184655"/>
<path d="M31.7601 174.027C31.7601 174.027 29.4085 203.009 29.4085 205.527C29.4085 208.044 39.4181 208.756 39.4181 208.756L42.4783 179.016L31.7601 174.027Z" fill="#466EB6"/>
<path d="M46.6895 166.974C46.6895 166.974 40.1952 163.498 34.8411 166.683C29.4873 169.867 28.0293 188.572 28.0293 188.572L45.18 190.626L46.6895 166.974Z" fill="#86B1F2"/>
<path d="M86.3466 262.381C86.3466 262.381 83.0648 275.753 80.6188 277.853C78.1727 279.953 70.1963 283.969 72.2835 284.401C74.3707 284.832 89.8173 285.19 89.3938 282.618C88.9703 280.044 88.5259 278.402 88.5259 278.402L92.6118 268.851L86.3466 262.381Z" fill="#F47458"/>
<path d="M71.2473 284.949C75.0145 285.325 86.0139 285.72 89.2188 285.31C89.2188 285.31 89.8197 285.192 89.3962 282.62C89.2927 281.989 89.188 281.417 89.0887 280.908C86.1822 281.672 79.8521 280.047 77.3444 279.714C74.6204 281.018 71.55 282.964 70.5596 283.126C69.1251 283.362 69.1263 284.738 71.2473 284.949Z" fill="#13375B"/>
<path d="M122.369 273.593C122.369 273.593 122.714 276.976 122.714 278.468C122.714 279.958 121.324 284.164 121.968 284.807C122.611 285.451 141.01 285.371 141.01 284.765C141.01 284.159 137.759 282.326 133.34 281.064C128.921 279.802 127.419 274.912 128.567 272.104L122.369 273.593Z" fill="#F47458"/>
<path d="M141.307 284.807C141.307 284.242 138.289 282.511 134.382 281.317C130.218 282.722 124.435 281.564 122.267 281.15C121.604 282.883 121.392 284.527 121.733 284.866C122.377 285.51 141.307 285.413 141.307 284.807Z" fill="#13375B"/>
<path d="M102.4 217.063L99.1004 219.988C99.1004 219.988 95.3858 230.037 95.1695 230.699C94.8687 231.622 82.8359 270.362 82.8359 270.362L91.2188 273.377C91.2188 273.377 99.5306 257.198 100.908 251.578C102.285 245.961 116.058 222.453 116.058 222.453L102.4 217.063Z" fill="#86B1F2"/>
<path d="M116.975 223.025L120.992 274.372H130.289C130.289 274.372 133.617 235.944 132.469 222.451L116.975 223.025Z" fill="#86B1F2"/>
<path d="M67.1624 187.247C67.1624 187.247 69.9873 201.046 72.467 203.523C73.8783 204.933 77.7247 210.639 80.684 210.639C83.0392 210.639 84.4419 210.812 84.8375 210.812C85.7556 210.812 84.7226 216.43 83.8619 217.291C83.8619 217.291 83.5749 218.149 81.8533 218.149C80.1317 218.149 71.0073 211.901 68.2529 209.149C65.4982 206.397 60.3907 191.374 60.3907 191.374L67.1624 187.247Z" fill="#F7A491"/>
<path d="M112.501 169.932C112.501 169.932 108.943 174.06 104.238 181.055C99.532 188.048 87.5058 207.469 86.2186 208.754C85.9071 209.067 84.9315 209.693 84.9315 209.693C84.9315 209.693 83.2428 209.33 82.3342 209.664C81.4463 209.991 80.2504 211.709 80.6713 212.131C81.0921 212.551 82.7154 211.145 83.2114 211.16C83.7077 211.177 83.751 211.175 83.751 211.443C83.751 211.709 81.7424 212.819 81.1685 212.971C80.5949 213.125 79.0824 215.446 79.3705 216.22C79.6586 216.993 79.6383 217.252 80.3653 217.252C81.0921 217.252 81.207 217.826 81.8188 217.826C82.4312 217.826 82.5843 217.06 83.2728 217.366C83.9616 217.672 84.1528 217.596 86.2951 216.296C88.4376 214.996 92.4355 210.162 94.4439 208.155C96.4523 206.148 114.797 186.177 114.797 186.177L112.501 169.932Z" fill="#F47458"/>
<path d="M120.284 139.182C120.284 139.182 115.903 137.595 113.072 142.028C110.241 146.462 111.771 146.042 110.394 148.258C109.017 150.476 105.421 150.018 105.421 153.457C105.421 156.897 107.027 157.433 107.027 157.433C107.027 157.433 105.574 160.109 107.18 162.861C108.787 165.613 112.794 167.982 116.147 167.6C116.147 167.6 121.183 170.359 126.232 169.057C131.283 167.752 129.523 167.752 131.589 167.752C133.655 167.752 139.24 164.925 138.322 160.797C138.322 160.797 141.726 156.756 138.423 153.457C135.121 150.157 134.496 146.806 132.583 142.372C130.67 137.939 122.579 138.11 120.284 139.182Z" fill="#184655"/>
<path d="M57.9787 168.369C58.6291 168.595 61.2891 170.488 62.8383 173.47C64.3878 176.45 68.4802 188.911 68.4802 188.911L61.7449 191.375L57.9787 168.369Z" fill="#59C8FF"/>
<path d="M24.0853 271.111C24.0853 271.111 22.9758 275.049 22.0959 275.929C21.216 276.807 18.2989 280.219 19.0162 281.909C19.7335 283.602 37.5089 286.024 38.1831 285.349C38.8573 284.676 35.1129 281.823 32.9898 280.076C30.8665 278.326 29.3457 276.176 30.2352 273.568C31.1246 270.959 31.1246 271.217 31.1246 270.959C31.1246 270.7 24.0853 271.111 24.0853 271.111Z" fill="#F7A491"/>
<path d="M38.1832 285.345C38.9877 284.743 36.4903 282.048 32.871 279.972C31.356 279.97 29.3355 279.866 27.6243 279.44C24.945 278.771 22.891 276.452 22.2816 275.699C22.2263 275.777 17.9173 279.923 18.7582 281.905C19.4752 283.597 36.5765 286.55 38.1832 285.345Z" fill="#355389"/>
<path d="M53.5787 273.02C53.5787 273.02 53.9069 277.064 53.2403 278.115C52.5736 279.163 50.2407 283.323 51.5409 284.623C52.7132 285.794 68.996 285.04 69.5069 284.236C70.0178 283.432 67.2313 281.031 64.7774 279.788C62.3233 278.543 60.3696 276.777 60.6683 274.035C60.9667 271.296 61.0229 271.547 60.9667 271.296C60.9103 271.045 53.5787 273.02 53.5787 273.02Z" fill="#F7A491"/>
<path d="M71.5296 284.883C72.3787 284.345 68.6257 280.954 64.6403 279.715C63.1612 280.042 61.1671 280.384 59.4035 280.34C56.6427 280.27 54.132 278.455 53.373 277.854C53.3358 277.94 49.6267 283.309 51.2891 284.678C52.5872 285.748 70.2398 285.702 71.5296 284.883Z" fill="#355389"/>
<path d="M54.7675 215.762L44.2546 246.196L32.1958 274.372L22.0958 271.835C22.0958 271.835 25.7409 252.305 29.1649 246.17C31.7559 241.528 33.5649 214.888 33.5649 214.888L54.7675 215.762Z" fill="#FFB300"/>
<path d="M49.7193 220.883L53.3617 274.372H61.9697C61.9697 274.372 65.7292 218.332 64.3519 213.001C62.9748 207.669 48.6341 208.874 48.6341 208.874L49.7193 220.883Z" fill="#FF7700"/>
<path d="M57.9826 168.368C57.9826 168.368 46.889 165.047 45.1808 165.262C43.3107 165.496 38.7658 167.902 38.7658 167.902C38.7658 167.902 39.045 187.145 38.2418 192.586C37.4383 198.026 31.8144 215.455 31.8144 215.455C31.8144 215.455 39.7338 220.042 53.0474 218.552C66.3609 217.06 65.4428 213.851 65.4428 213.851C65.4428 213.851 64.1802 194.586 62.9175 186.099C61.6551 177.613 57.9826 168.368 57.9826 168.368Z" fill="#4580FF"/>
<path d="M133.272 171.307C133.272 171.307 127.361 169.758 120.647 169.384C117.17 169.192 112.498 169.931 112.498 169.931C112.498 169.931 108.252 179.448 106.989 187.245C105.727 195.043 98.8404 220.041 98.8404 220.041C98.8404 220.041 112.843 230.82 133.272 223.711V171.307Z" fill="#F7A491"/>
<path d="M117.357 162.782C117.357 162.782 117.541 168.872 116.969 169.442C116.397 170.014 115.598 170.964 116.439 172.416C117.281 173.867 120.934 172.941 122.637 172.11C124.271 171.312 125.326 169.826 125.326 169.826L124.473 160.185L117.357 162.782Z" fill="#F47458"/>
<path d="M119.784 165.307C120.958 164.896 123.008 164.105 124.59 161.536L124.471 160.186L117.355 162.784C117.355 162.784 117.4 164.269 117.376 165.841C118.373 165.801 119.225 165.504 119.784 165.307Z" fill="#B75742"/>
<path d="M21.2427 141.376C21.2427 141.376 20.6578 144.083 23.4845 145.035C26.3111 145.987 28.0655 136.052 29.6734 134.087C31.2816 132.125 36.1551 131.589 38.6893 135.509C40.0824 137.664 40.5182 138.603 40.628 139.01C40.7182 139.344 40.5898 139.323 40.5898 139.323L39.8256 140.751C39.8256 140.751 37.3734 139.264 36.4475 141.979C35.5215 144.695 38.2506 149.14 35.9114 152.828C33.572 156.517 29.2837 153.909 29.2837 153.909C25.7261 156.298 21.6326 152.651 20.3169 149.201C19.0011 145.748 21.2427 141.376 21.2427 141.376Z" fill="#F7CC7F"/>
<path d="M49.1427 155.126L48.7566 159.121L45.1816 165.261C45.1816 165.261 52.2302 173.787 54.4065 171.751C54.8925 171.295 56.1192 162.271 56.1192 162.271L49.1427 155.126Z" fill="#F7A491"/>
<path d="M48.753 159.12L48.0058 160.484C50.2039 162.454 53.0227 164.227 55.6876 165.246C55.9364 163.592 56.1157 162.271 56.1157 162.271L49.1391 155.126L48.753 159.12Z" fill="#F48C7F"/>
<path d="M56.3996 142.012C56.3996 142.012 58.2631 143.7 58.9478 144.654C63.0232 150.329 59.7221 161.515 57.5946 162.446C54.373 163.855 50.1802 161.96 45.4549 158.759C40.7299 155.558 39.2366 150.373 43.5631 145.863C47.8894 141.356 56.3996 142.012 56.3996 142.012Z" fill="#F7A491"/>
<path d="M40.7204 141.011L42.008 139.781C47.0551 139.781 51.0793 136.74 56.7443 139.798C60.4832 141.815 58.9468 144.654 58.9468 144.654C45.1016 144.654 50.0961 155.555 48.3995 159.894C46.7032 164.233 36.1164 154.85 40.7204 141.011Z" fill="#F7CC7F"/>
<path d="M50.4048 153.29C50.4048 153.29 50.2092 149.713 48.0134 150.422C45.8172 151.131 47.5285 156.523 49.3514 156.333C51.1742 156.143 50.4048 153.29 50.4048 153.29Z" fill="#F7A491"/>
<path d="M125.725 153.299C125.725 153.299 125.898 149.72 128.098 150.414C130.299 151.11 128.622 156.513 126.798 156.333C124.974 156.156 125.725 153.299 125.725 153.299Z" fill="#F47458"/>
<path d="M40.3616 138.315C40.3616 138.315 42.4473 139.606 43.2884 139.499C44.1294 139.391 42.0008 142.115 40.8723 142.398C39.7438 142.681 40.1413 141.596 39.9028 141.225C39.6644 140.851 38.7864 141.142 38.5836 140.866C38.1219 140.241 39.3761 138.433 40.3616 138.315Z" fill="#50BFA5"/>
<path d="M79.2639 217.062C79.2639 217.062 81.1937 214.08 81.8248 213.937C82.4561 213.793 81.6814 215.973 81.6814 216.374C81.6814 216.775 82.8291 213.308 83.4604 213.308C84.0915 213.308 84.1777 213.766 83.9194 214.654C83.6611 215.543 83.0587 216.691 83.3455 216.691C83.6326 216.691 84.4504 212.833 84.9237 213.308C85.397 213.781 85.2154 216.934 84.3211 217.828C83.4268 218.721 80.796 218.162 79.2639 217.062Z" fill="#F7A491"/>
<path d="M108.198 187.39C108.521 187.048 109.46 185.71 111.059 186.24C112.444 186.7 112.99 188.126 113.382 188.77C113.27 188.12 113.007 187.001 113.314 185.733C114.13 182.359 118.264 182.663 118.19 185.792C118.161 187.02 117.718 187.772 117.095 189.089C117.349 188.81 118.11 187.89 119.156 187.352C122.207 185.782 123.846 189.61 121.688 191.64C120.572 192.691 119.152 192.718 118.286 192.819C119.037 193.03 119.487 193.094 120.223 193.56C124.036 195.974 118.731 202.493 115.865 196.217C115.862 196.211 115.846 196.211 115.837 196.206C115.968 197.095 116.221 198.182 115.855 199.439C114.862 202.845 110.328 202.246 111.115 198.391C111.361 197.186 112.162 195.909 112.211 195.81C111.665 196.392 110.859 197.361 109.693 197.814C106.69 198.988 105.259 194.752 108.025 192.967C109.263 192.167 110.491 192.283 110.926 192.167C109.9 191.92 108.934 191.633 108.233 190.775C107.284 189.612 107.794 188.464 107.763 188.308C107.908 188.002 108.053 187.696 108.198 187.39ZM113.573 193.963C114.355 194.37 115.343 193.847 115.743 193.092C116.296 192.049 115.947 190.975 115.164 190.608C114.346 190.226 113.406 190.593 112.906 191.585C112.443 192.505 112.758 193.619 113.573 193.963Z" fill="#F7CC7F"/>
<path d="M118.813 141.611C118.813 141.611 115.37 141.535 113.61 144.209C111.85 146.884 109.937 154.53 112.844 159.805C115.752 165.079 119.463 163.779 120.993 163.245C122.524 162.709 125.546 161.525 127.076 156.594C128.607 151.662 127.497 140.579 118.813 141.611Z" fill="#F47458"/>
<path d="M40.5468 167.012C40.5468 167.012 43.0419 166.636 45.1825 174.729C47.6087 183.9 44.9964 193.398 40.983 195.804C36.9695 198.21 35.3159 197.745 35.3159 197.745L35.946 203.403C35.946 203.403 47.8037 200.75 49.4186 190.623C52.0653 174.026 44.2576 165.477 44.2576 165.477C44.2576 165.477 42.7893 165.712 42.3333 165.897C41.8458 166.096 40.5468 167.012 40.5468 167.012Z" fill="#466EB6"/>
<path d="M34.4133 186.177C34.4133 186.177 34.4133 195.963 34.4133 198.026C34.4133 200.09 36.7852 214.064 39.6928 218.85C42.6004 223.637 46.5416 228.973 47.3573 229.279C48.173 229.585 49.9459 230.708 50.8641 229.79C51.7822 228.872 52.509 229.292 53.6569 228.796C54.8047 228.298 53.5038 226.656 51.8971 225.05C50.2902 223.444 49.9459 223.063 50.2137 222.795C50.4813 222.527 51.7822 224.018 52.471 223.788C53.1595 223.558 52.0502 221.151 50.2518 220.311C48.4539 219.469 45.5846 217.827 45.3168 216.947C45.0489 216.067 45.0489 216.297 45.0489 216.067C45.0489 215.839 43.0215 201.964 43.0215 199.248C43.0215 196.534 42.2181 187.705 42.2181 187.705L34.4133 186.177Z" fill="#F7A491"/>
<path d="M39.8381 167.433C38.7947 167.564 35.9636 168.596 34.969 171.96C33.9744 175.324 31.3536 184.879 31.8126 189.543C31.8126 189.543 42.9839 190.994 42.9839 190.536C42.9839 190.076 45.4276 178.113 44.208 172.876C43.1444 168.309 41.6517 167.208 39.8381 167.433Z" fill="#59C8FF"/>
<path d="M56.2455 167.858L64.0114 195.743C63.669 192.101 63.2933 188.623 62.9175 186.097C61.6551 177.612 57.9826 168.367 57.9826 168.367C57.9826 168.367 57.2991 168.162 56.2455 167.858Z" fill="#466EB6"/>
<path d="M101.514 224.069H123.004V194.593L101.514 195.741V224.069Z" fill="#357E84"/>
<path d="M101.514 193.442H122.049C122.576 193.442 123.004 193.957 123.004 194.592C123.004 195.225 122.576 195.74 122.049 195.74H101.514L101.532 195.733C102.951 195.092 102.943 194.079 101.514 193.442Z" fill="#3C8F7C"/>
<path d="M102.1 193.783H121.34C121.712 193.783 122.013 194.146 122.013 194.594C122.013 195.039 121.712 195.402 121.34 195.402H102.1C102.752 194.902 102.751 194.283 102.1 193.783Z" fill="#FAE0B2"/>
<path d="M133.272 171.309C133.272 171.309 131.663 172.919 129.941 179.028C128.22 185.137 127.342 199.441 125.85 200.93C124.358 202.422 114.602 210.182 112.843 209.914C111.083 209.646 107.142 205.06 105.918 205.06C104.694 205.06 104.847 206.168 105.459 206.78C106.071 207.39 106.817 208.099 106.454 208.462C106.09 208.825 106.09 208.825 106.09 208.825C106.09 208.825 100.639 207.39 99.7206 207.926C98.8024 208.462 100.6 209.722 100.6 210.64C100.6 211.558 100.376 211.541 100.486 212.552C100.596 213.562 100.849 214.366 101.327 214.845C101.806 215.322 107.831 217.061 113.722 216.259C119.614 215.455 126.806 212.628 132.124 206.052C137.442 199.479 136.377 178.815 136.256 176.755C135.95 171.537 133.272 171.309 133.272 171.309Z" fill="#F47458"/>
<path d="M427.413 59.2543L431.885 58.3654L432.974 53.8536L438.059 53.2127L437.733 48.0449L443.452 47.0655L443.738 42.2714L449.082 40.4332L449.785 42.4522L445.792 43.8292L445.487 48.8856L439.992 49.8287L440.324 55.0815L434.711 55.7896L433.65 60.1957L429.503 61.0198L429.412 64.0609L427.271 63.9901L427.413 59.2543Z" fill="#50BFA5"/>
<path d="M401.945 96.3974L404.61 91.5231L402.1 86.5661C401.817 86.0013 402.301 85.3547 402.924 85.4716L408.388 86.4979L412.333 82.5829C412.781 82.1372 413.546 82.3995 413.628 83.0269L414.339 88.5354L419.287 91.0728C419.847 91.3618 419.836 92.1708 419.261 92.4413L414.237 94.8198L413.353 100.302C413.251 100.927 412.475 101.165 412.042 100.705L408.227 96.6659L402.732 97.5174C402.109 97.6142 401.641 96.9523 401.945 96.3974Z" fill="#F47458"/>
<path d="M43.0295 80.8445L46.3052 76.3581L44.4624 71.1183C44.2525 70.5211 44.8187 69.9429 45.4207 70.1392L50.7046 71.8654L55.1232 68.4932C55.6263 68.1112 56.3518 68.47 56.3507 69.1031L56.3406 74.6573L60.9144 77.8142C61.435 78.173 61.3172 78.9727 60.7148 79.169L55.4246 80.8741L53.8326 86.1962C53.6514 86.8018 52.8533 86.9369 52.4819 86.4241L49.2227 81.925L43.6649 82.0579C43.0321 82.0727 42.6565 81.3552 43.0295 80.8445Z" fill="#F7CC7F"/>
<path d="M147.122 45.8594C146.908 42.7785 149.234 40.1069 152.318 39.8938C155.401 39.6806 158.074 42.004 158.288 45.085C158.502 48.166 156.176 50.8354 153.093 51.0507C150.009 51.2638 147.336 48.9404 147.122 45.8594Z" fill="#F7CC7F"/>
<path d="M156.615 61.6469C156.281 60.0262 156.079 58.2894 155.525 56.7257C155.048 55.3815 152.948 55.793 153.055 57.2364C153.185 59.0048 153.738 60.7964 154.109 62.529C154.259 63.2296 155.188 63.5567 155.803 63.3414C156.554 63.0776 156.76 62.3538 156.615 61.6469Z" fill="#F7CC7F"/>
<path d="M166.204 54.7217C164.349 53.6286 162.732 52.2738 161.021 50.9824C159.684 49.9737 158.242 51.7104 159.342 52.909C160.921 54.6331 162.995 55.9794 164.996 57.1591C165.63 57.5326 166.511 57.1675 166.82 56.5429C167.167 55.8444 166.839 55.0952 166.204 54.7217Z" fill="#F7CC7F"/>
<path d="M162.694 44.7107C162.274 45.0484 162.19 45.5316 162.449 46.0022C163.077 47.1375 164.669 47.0827 165.8 47.0447C166.98 47.0025 168.16 46.764 169.276 46.3842C170.926 45.8207 170.03 43.2631 168.376 43.8287C165.139 44.9323 163.913 43.7337 162.694 44.7107Z" fill="#F7CC7F"/>
<path d="M160.911 33.8397C159.282 36.2201 157.951 37.0241 158.158 38.3346C158.279 39.1006 158.886 39.4678 159.626 39.299C160.501 39.1006 160.978 38.1742 161.502 37.5242C162.005 36.8996 162.498 36.275 162.948 35.6103C163.355 35.0067 163.412 34.2259 162.815 33.7068C162.315 33.2721 161.325 33.2341 160.911 33.8397Z" fill="#F7CC7F"/>
<path d="M154.562 33.4256C154.042 31.9843 153.927 31.4588 153.252 30.7878C152.665 30.2053 151.425 30.5767 151.343 31.4356C151.248 32.438 151.457 32.8094 152.005 34.3266C152.253 35.0125 153.039 35.3965 153.734 35.1539C154.422 34.9133 154.812 34.1177 154.562 33.4256Z" fill="#F7CC7F"/>
<path d="M147.71 36.9147C145.362 35.1337 144.884 34.6314 143.962 34.7285C143.421 34.7854 142.814 35.3046 142.932 35.9102C143.151 37.0371 143.807 37.3431 145.967 38.9173C146.546 39.3394 147.341 39.3605 147.84 38.7865C148.287 38.2737 148.284 37.3515 147.71 36.9147Z" fill="#F7CC7F"/>
<path d="M138.279 45.0889C137.353 45.5785 137.725 47.1781 138.727 47.3089C139.688 47.4334 140.059 47.2794 144.721 46.4289C145.441 46.2981 146.034 45.7726 145.979 44.9855C145.932 44.3166 145.258 43.597 144.533 43.7278C139.692 44.6014 139.207 44.5972 138.279 45.0889Z" fill="#F7CC7F"/>
<path d="M145.581 52.7094C143.026 55.1784 142.652 54.7437 141.643 56.2525C141.181 56.9447 141.942 58.0463 142.745 57.8986C143.776 57.7086 144.053 57.5356 145.397 56.472C146.178 55.8537 146.925 55.1911 147.642 54.501C148.174 53.9882 148.03 53.0281 147.508 52.5744C146.911 52.0552 146.112 52.1945 145.581 52.7094Z" fill="#F7CC7F"/>
<path d="M103.417 47.0988L107.861 44.155L106.12 40.6161L110.404 37.5625L109.243 33.8822L112.164 31.1769L111.018 30.0669L107.111 33.686L108.211 37.1721L103.755 40.3502L105.467 43.8321L101.439 46.4974L103.417 47.0988Z" fill="#86B1F2"/>
<path d="M458.123 74.8661L452.93 73.6673L451.556 77.364L446.391 76.3591L444.513 79.731L440.54 79.4737L440.522 81.0689L445.838 81.4125L447.614 78.2171L452.991 79.2625L454.34 75.6269L459.048 76.7131L458.123 74.8661Z" fill="#F7CC7F"/>
<path d="M97.0094 76.3964C97.0094 76.3964 98.6395 74.5731 101.486 74.8474C104.023 75.0922 105.578 77.2763 105.351 79.6229C105.088 82.3388 102.394 85.3228 95.9347 87.5195C90.0155 84.1305 87.9418 80.6844 88.2043 77.9685C88.4314 75.6219 90.3747 73.7754 92.9125 74.0202C95.7588 74.2946 97.0094 76.3964 97.0094 76.3964Z" fill="#F48C7F"/>
<path d="M75.9268 75.4417C78.3532 76.079 80.3363 76.4694 82.3031 76.7606C82.9515 76.8556 84.0481 77.2143 84.5795 76.7247C84.8558 76.4694 84.9445 76.1233 84.7274 75.792C84.3292 75.1821 83.3209 75.2497 82.6676 75.1526C80.6755 74.8572 78.4355 74.4288 76.1967 73.8633C75.7772 73.7577 75.3409 74.1144 75.2718 74.5174C75.1932 74.9754 75.5069 75.332 75.9268 75.4417Z" fill="#F48C7F"/>
<path d="M108.417 85.4938C109.368 85.6521 110.32 85.7914 111.273 85.9349C112.185 86.0699 113.238 86.3907 114.148 86.2092C114.82 86.0763 115.005 85.2385 114.37 84.8987C113.55 84.4577 112.464 84.4577 111.549 84.3226C110.596 84.1833 109.643 84.0419 108.687 83.9153C107.666 83.7824 107.395 85.325 108.417 85.4938Z" fill="#F48C7F"/>
<path d="M82.838 89.2259C84.3363 87.4026 85.8858 87.0038 87.1144 86.4024C87.7713 86.0816 87.5751 85.1531 86.8291 85.1573C84.7852 85.17 82.8205 86.702 81.5992 88.2214C80.9563 89.0191 82.1845 90.0215 82.838 89.2259Z" fill="#F48C7F"/>
<path d="M93.0596 95.914C93.1712 94.9243 93.4664 93.9853 93.9679 93.1243C94.275 92.5967 95.6476 91.2018 94.5734 90.7397C93.5617 90.3029 92.7316 91.9489 92.3692 92.641C91.8834 93.5695 91.5805 94.6015 91.473 95.6418C91.3676 96.6653 92.9431 96.9438 93.0596 95.914Z" fill="#F48C7F"/>
<path d="M102.046 91.1492C102.517 91.6135 102.988 92.0777 103.459 92.542C103.929 93.0063 104.35 93.6415 105.069 93.6035C105.473 93.5845 105.687 93.2152 105.696 92.8543C105.712 92.198 104.925 91.6895 104.494 91.2695C104.02 90.8074 103.547 90.3473 103.073 89.8852C102.758 89.5792 102.187 89.6847 101.927 90.0034C101.628 90.3726 101.731 90.839 102.046 91.1492Z" fill="#F48C7F"/>
<path d="M91.3485 69.5654C90.0671 64.3953 90.1104 64.3784 89.763 63.9142C89.4073 63.4415 88.5983 63.6039 88.5041 64.2096C88.4106 64.8089 88.4366 64.7118 89.8052 70.1457C89.914 70.5762 90.4836 70.7704 90.867 70.6269C91.3247 70.4538 91.4565 70.0001 91.3485 69.5654Z" fill="#F48C7F"/>
<path d="M100.045 70.8357C100.485 70.076 100.839 69.2783 101.107 68.4427C101.357 67.6661 101.844 66.5097 101.189 65.8428C101.048 65.6993 100.75 65.6571 100.571 65.7415C99.8251 66.0982 99.8003 67.2039 99.5672 67.9193C99.3129 68.698 98.9745 69.4514 98.5914 70.1773C98.3901 70.5592 98.6125 71.0615 98.9884 71.2324C99.4134 71.4266 99.828 71.2092 100.045 70.8357Z" fill="#F48C7F"/>
<path d="M112.188 73.4967C112.386 73.1485 112.141 72.7539 111.842 72.5788C111.225 72.2179 110.267 72.7244 109.666 72.965C108.966 73.2456 108.3 73.5938 107.654 73.9821C107.282 74.2079 107.237 74.7755 107.477 75.1068C107.757 75.493 108.219 75.4951 108.601 75.2841C111.091 73.8998 111.698 74.3577 112.188 73.4967Z" fill="#F48C7F"/>
<path d="M178.444 76.8783L175.135 84.4246L166.737 84.2705L166.777 82.0758L173.709 82.2003L177.129 74.4051L186.506 76.1122L188.139 70.6509L190.194 71.4549L188.048 78.6277L178.444 76.8783Z" fill="#F7CC7F"/>
<path d="M224.319 21.9556C223.741 26.5074 228.487 30.1201 232.707 29.8352C237.37 29.5208 241.328 25.697 242.011 21.1178C242.75 16.1587 239.767 12.1956 235.155 11.8305C230.664 11.4781 227.792 15.4707 229.088 19.5013C230.02 22.3903 232.658 23.4665 233.989 22.6688C235.024 22.0484 234.962 20.4805 233.708 20.204C233.205 20.0943 232.685 20.3729 232.419 20.759C231.321 20.3243 230.275 18.3259 230.985 16.1692C231.891 13.4132 235.376 13.2571 237.543 14.5422C240.298 16.1777 240.733 19.6997 239.721 22.5063C238.661 25.4522 235.763 27.7735 232.609 27.9972C229.038 28.2505 225.893 25.5155 225.608 21.9598C225.54 21.1199 224.423 21.141 224.319 21.9556Z" fill="#86B1F2"/>
<path d="M381.342 68.2901C380.895 63.7216 375.469 61.2493 371.415 62.4608C366.939 63.7994 363.927 68.4017 364.275 73.0195C364.654 78.0187 368.44 81.2253 373.017 80.5585C377.476 79.91 379.392 75.3803 377.234 71.738C375.687 69.1255 372.875 68.6611 371.756 69.7326C370.88 70.5679 371.291 72.0804 372.576 72.0726C373.09 72.07 373.534 71.6835 373.708 71.2476C374.874 71.4292 376.336 73.1467 376.123 75.4063C375.85 78.2937 372.485 79.2199 370.089 78.4442C367.04 77.461 365.838 74.1195 366.201 71.1594C366.583 68.0515 368.892 65.1459 371.919 64.2327C375.347 63.195 379.018 65.1666 380.083 68.5703C380.337 69.3746 381.423 69.1073 381.342 68.2901Z" fill="#86B1F2"/>
<path d="M409.049 272.145C409.049 272.145 409.545 276.425 409.545 277.153C409.545 277.879 409.545 277.879 409.545 277.879L409.191 278.617L409.049 278.911L411.612 282.505C411.612 282.505 421.904 282.656 422.132 282.656C422.362 282.656 420.756 280.173 420.756 280.173C420.756 280.173 417.35 277.611 416.738 275.815C416.128 274.017 417.259 270.271 417.259 270.271L409.049 272.145Z" fill="#F7A491"/>
<path d="M359.444 246.531C359.444 246.531 355.778 248.804 355.209 249.256C354.641 249.707 354.641 249.707 354.641 249.707L354.281 250.444L354.141 250.737L349.73 250.965C349.73 250.965 343.211 243.007 343.071 242.828C342.928 242.648 344.944 243.098 344.944 243.098C344.944 243.098 349.058 243.653 350.847 243.015C352.637 242.376 356.256 238.816 356.256 238.816L359.444 246.531Z" fill="#F7A491"/>
<path d="M392.754 206.365L353.274 239.962L359.355 248.564C359.355 248.564 399.929 223.393 402.051 223.108C404.173 222.821 405.895 223.796 406.298 225.342C406.698 226.891 407.721 273.34 407.721 273.34H418.26L423.759 214.861L392.754 206.365Z" fill="#357E84"/>
<path d="M449.632 158.443C452.556 156.529 459.415 149.173 461.742 146.668C461.765 146.374 461.988 144.671 463.856 142.51C465.176 140.982 466.176 137.497 467.044 138.485C467.907 139.473 465.759 142.242 466.744 142.26C467.729 142.278 472.609 136.795 473.393 137.69C474.178 138.585 469.221 143.46 470.101 143.475C470.98 143.492 475.006 138.555 476.116 139.821C477.225 141.087 470.84 145.19 471.436 145.87C472.029 146.548 475.985 143.858 476.881 144.876C477.773 145.895 471.299 148.295 471.815 148.305C472.335 148.314 476.068 148.213 476.097 148.932C476.128 149.745 466.648 151.009 465.488 152.414C463.008 156.354 458.603 163.552 454.137 166.709C448.673 170.573 436.047 178.771 436.047 178.771L429.776 170.674C429.776 170.674 446.171 160.712 449.632 158.443Z" fill="#F7A491"/>
<path d="M466.74 144.004C466.984 144.482 467.09 145.003 467.121 145.526C467.103 145.61 467.334 147.303 465.891 148.59C466.453 147.543 467.071 146.381 466.74 144.004Z" fill="#F48C7F"/>
<path d="M391.757 149.587C389.438 146.977 384.741 138.084 383.153 135.059C383.205 134.768 383.437 133.068 382.199 130.493C381.324 128.673 381.272 125.049 380.177 125.776C379.082 126.503 380.434 129.736 379.477 129.497C378.525 129.257 375.246 122.69 374.253 123.349C373.26 124.008 376.771 130.008 375.919 129.793C375.064 129.579 372.471 123.763 371.07 124.695C369.669 125.626 374.758 131.255 374.005 131.755C373.252 132.255 370.138 128.625 369.01 129.375C367.882 130.124 373.5 134.132 372.998 134.006C372.496 133.88 368.916 132.807 368.704 133.493C368.461 134.268 377.278 137.966 378.031 139.626C379.391 144.076 381.763 152.176 385.246 156.391C389.507 161.548 399.549 172.758 399.549 172.758L407.723 166.581C407.723 166.581 394.504 152.683 391.757 149.587Z" fill="#F7A491"/>
<path d="M379.021 131.18C378.662 131.579 378.424 132.053 378.254 132.55C378.249 132.636 377.585 134.21 378.644 135.828C378.375 134.671 378.078 133.387 379.021 131.18Z" fill="#F48C7F"/>
<path d="M409.203 168.024C410.394 166.251 412.442 165.244 414.572 165.39C420.843 165.816 433.555 166.819 434.761 168.024C436.367 169.63 441.188 180.103 436.595 194.782C432.008 209.459 429.48 207.931 425.732 207.931C421.983 207.931 404.308 199.598 404.308 199.598L409.203 168.024Z" fill="#355389"/>
<path d="M398.374 155.567L391.005 165.175L400.152 178.775C400.152 178.775 399.293 188.879 397.972 192.034C396.654 195.187 389.02 208.144 389.02 208.144C389.02 208.144 407.557 219.497 425.689 217.834C425.689 217.834 430.798 191.574 432.23 189.052C433.665 186.529 447.498 174.029 447.498 174.029L440.783 163.193L429.189 169.615C429.189 169.615 408.005 166.194 406.984 165.175C405.96 164.156 398.374 155.567 398.374 155.567Z" fill="#FE4C4C"/>
<path d="M422.286 135.916C422.286 135.916 415.133 132.132 412.684 138.401C412.684 138.401 406.257 137.751 407.366 144.403C407.366 144.403 400.898 147.651 404.994 156.022C404.994 156.022 403.197 163.895 412.415 164.393C412.415 164.393 413.793 167.183 418.001 166.533C422.212 165.883 423.28 164.775 423.28 164.775C423.28 164.775 430.743 166.953 433 160.225C433 160.225 438.125 159.004 434.682 152.428C434.682 152.428 439.158 143.905 431.277 141.344C431.277 141.344 430.359 132.629 422.286 135.916Z" fill="#AD3D3D"/>
<path d="M425.181 154.382C424.6 156.003 425.016 157.634 426.113 158.026C427.209 158.419 428.569 157.423 429.15 155.802C429.732 154.181 429.312 152.55 428.216 152.158C427.122 151.765 425.76 152.761 425.181 154.382Z" fill="#F7A491"/>
<path d="M405.88 150.405C405.8 152.125 406.679 153.565 407.841 153.62C409.003 153.674 410.012 152.326 410.095 150.606C410.176 148.886 409.3 147.447 408.135 147.392C406.973 147.337 405.961 148.686 405.88 150.405Z" fill="#F7A491"/>
<path d="M414.061 161.795C414.061 161.907 413.133 165.899 412.64 168.008C412.455 168.795 412.854 169.601 413.589 169.936C415.557 170.833 419.425 172.085 422.1 169.666C422.342 169.444 422.473 169.126 422.462 168.797L422.134 159.273L414.061 161.795Z" fill="#F7A491"/>
<path d="M413.565 164.03C415.643 165.079 418.263 165.1 421.201 163.38C421.571 163.16 421.921 162.93 422.251 162.686L422.132 159.273L414.063 161.795C414.063 161.85 413.844 162.812 413.565 164.03Z" fill="#F48C7F"/>
<path d="M419.787 139.806C419.787 139.806 423.31 140.736 425.38 144.161C427.449 147.585 428.592 157.485 421.198 161.815C413.807 166.145 408.43 159.439 408.569 153.095C408.707 146.752 411.53 138.643 419.787 139.806Z" fill="#F7A491"/>
<path d="M407.727 165.501C404.323 168.072 400.761 181.25 399.41 184.69L398.327 191.008L412.175 166.567C412.175 166.567 408.459 164.946 407.727 165.501Z" fill="#466EB6"/>
<path d="M424.539 168.837C424.539 168.837 424.124 185.073 425.349 190.652C426.574 196.234 429.776 198.184 429.776 198.184L431.352 191.691C431.352 191.691 429.776 177.352 429.192 169.611C429.108 168.436 424.539 168.837 424.539 168.837Z" fill="#466EB6"/>
<path d="M407.173 285.137C405.603 284.936 408.318 279.492 409.191 278.621L420.755 280.176C420.755 280.176 426.324 282.754 427.644 284.073C427.955 284.386 427.998 284.934 426.638 285.137C422.274 285.785 410.661 285.578 407.173 285.137Z" fill="#13375B"/>
<path d="M350.317 256.156C351.673 256.97 354.144 251.667 354.283 250.441L344.944 243.096C344.944 243.096 337.741 241.032 336.288 242.483C334.966 243.802 347.233 254.305 350.317 256.156Z" fill="#13375B"/>
<path d="M211.182 41.3658L204.468 50.0051L218.93 52.5459L211.182 41.3658Z" fill="#96D9C9"/>
<path d="M299.633 0.195412L316.275 23.0151L327.295 10.9763L299.633 0.195412Z" fill="#466EB6"/>
<path d="M328.79 4.66974L327.299 10.9781L299.64 0.199132L328.79 4.66974Z" fill="#9BC1F9"/>
<path d="M327.295 13.3836L299.633 0.195412L325.342 23.0151L327.295 13.3836Z" fill="#9BC1F9"/>
<path d="M325.861 24.7319C325.861 24.7343 325.861 24.7366 325.861 24.7414C325.861 24.739 325.861 24.7343 325.861 24.7319ZM344.096 40.7342C343.892 40.7152 339.033 40.215 332.871 36.3815C326.685 32.5339 324.371 25.8177 324.371 24.7414C324.371 24.3289 324.703 23.9946 325.116 23.9946C325.524 23.9946 325.854 24.3218 325.861 24.7272C325.928 25.4455 327.907 31.5358 333.658 35.1156C339.5 38.7499 344.191 39.2454 344.239 39.2501C344.649 39.2904 344.95 39.6531 344.91 40.0633C344.87 40.4734 344.507 40.7721 344.096 40.7342Z" fill="#F7CC7F"/>
<path d="M374.329 47.4817C365.705 45.7547 357.459 42.5738 349.812 38.0281C343.516 34.2828 338.438 28.5744 332.015 25.4066C331.645 25.2255 331.495 24.7767 331.676 24.4093C331.86 24.0392 332.307 23.887 332.677 24.0707C339.326 27.3514 344.364 33.0519 350.577 36.7473C358.077 41.2064 366.167 44.327 374.623 46.0198C377.731 46.6445 381.414 46.8702 385.569 46.6996C385.982 46.6812 386.329 47.0014 386.347 47.4134C386.363 47.8229 386.045 48.1719 385.632 48.1877C381.939 48.3425 377.967 48.2113 374.329 47.4817Z" fill="#F7CC7F"/>
<path d="M172.728 168.191C173.1 168.165 175.911 172.7 177.673 179.658C179.432 186.613 183.181 199.456 183.181 199.456C183.181 199.456 189.264 211.728 190.909 213.371C192.555 215.015 194.149 213.314 195.805 213.829C196.316 213.988 197.896 215.359 197.896 215.359C197.896 215.359 200.741 221.513 200.321 221.933C199.898 222.353 195.499 223.539 192.438 222.545C189.378 221.551 175.146 204.886 175.146 204.886C175.146 204.886 163.546 168.807 172.728 168.191Z" fill="#F48C7F"/>
<path d="M228.322 173.727L226.945 172.301C226.945 172.301 224.421 176.831 221.513 183.251C218.607 189.672 215.124 197.586 213.939 198.77C212.752 199.955 202.768 213.676 199.745 215.014C196.723 216.352 197.658 215.766 195.23 215.474C193.409 215.257 193.607 216.574 194.792 217.186C195.113 217.35 195.477 217.46 196.203 217.975C197.648 218.998 198.883 220.452 199.79 221.301C200.14 221.628 199.407 222.227 198.995 221.818C198.573 221.394 197.133 219.171 196.531 219.171C195.929 219.171 196.33 220.691 196.588 221.178C196.847 221.666 196.273 221.522 195.758 220.319C195.24 219.115 194.866 217.912 194.121 218.083C193.519 218.222 193.888 219.887 194.053 220.528C193.88 219.919 193.403 218.399 192.944 218.399C192.37 218.399 192.112 218.456 192.112 219.587C192.112 220.72 192.513 221.934 193.833 222.932C195.153 223.93 198.85 223.265 200.368 222.66C201.405 222.248 202.438 220.564 203.477 220.003C208.12 217.502 212.889 214.514 218.797 206.645C226.026 197.012 228.848 188.412 228.848 188.412L228.322 173.727Z" fill="#F4C0B8"/>
<path d="M225.643 283.015C225.643 283.015 224.879 279.805 225.643 275.905C226.41 272.005 230.541 252.129 230.541 248.001C230.541 243.874 232.531 237.834 232.531 237.834L220.365 234.776L219.14 246.625C219.14 246.625 218.49 274.261 217.381 275.369C216.272 276.479 211.581 278.115 210.111 278.115C208.467 278.115 205.865 278.227 205.865 279.054C205.865 279.881 206.096 280.415 206.096 280.415L225.643 283.015Z" fill="#F4C0B8"/>
<path d="M240.131 236.091L241.637 246.319C241.637 246.319 245.217 276.298 244.391 277.123C243.565 277.948 239.814 280.362 238.091 280.554C236.369 280.744 233.947 281.907 233.947 282.823C233.947 284.677 253.304 283.173 253.304 283.173C253.304 283.173 253.917 281.791 253.304 279.765C252.692 277.739 252.692 274.873 252.692 274.413C252.692 273.955 252.732 274.337 252.732 273.611C252.732 272.885 252.732 272.655 252.732 272.655C252.732 272.655 255.064 258.36 252.578 249.339L251.697 231.832L240.131 236.091Z" fill="#F4C0B8"/>
<path d="M159.63 136.066C159.63 136.066 155.154 136.013 152.055 137.758C148.967 139.499 148.137 143.652 148.08 146.898C148.005 151.088 149.381 155.309 151.998 158.599C154.617 161.891 159.228 163.372 159.228 163.372L172.203 155.109C172.203 155.109 173.747 151.259 172.657 146.1C171.565 140.938 171.853 135.262 159.63 136.066Z" fill="#184655"/>
<path d="M181.499 269.703C181.499 269.703 185.782 275.857 186.088 276.696C186.394 277.538 188.498 283.12 188.498 283.12L204.949 275.131L192.363 271.309L189.839 265.803L181.499 269.703Z" fill="#F48C7F"/>
<path d="M159.921 226.14L173.35 254.118L182.187 271.779C182.187 271.779 190.029 268.759 191.981 266.809L185.629 244.563L178.4 218.801L163.199 217.418L159.921 226.14Z" fill="#355389"/>
<path d="M147.258 272.545C147.258 272.545 147.871 276.672 147.871 276.94C147.871 277.208 146.952 281.182 146.799 282.254C146.646 283.324 146.799 284.164 146.799 284.164L162.389 280.437C162.389 280.437 160.075 278.928 158.009 277.78C155.943 276.634 155.637 271.169 155.637 271.169L147.258 272.545Z" fill="#F48C7F"/>
<path d="M145.075 218.801C145.075 218.801 147.745 235.584 147.37 241.199C146.832 249.263 144.692 252.361 146.222 273.505H157.088C157.088 273.505 157.853 262.146 159.536 253.354C161.219 244.563 164.892 229.808 164.892 229.808L170.938 216.197L145.075 218.801Z" fill="#355389"/>
<path d="M151.364 155.703C151.888 157.342 153.213 158.385 154.322 158.03C155.432 157.678 155.906 156.062 155.382 154.422C154.858 152.78 153.533 151.738 152.424 152.092C151.314 152.447 150.84 154.063 151.364 155.703Z" fill="#F48C7F"/>
<path d="M169.814 152.204C169.96 153.92 171.018 155.23 172.179 155.131C173.339 155.034 174.163 153.563 174.017 151.847C173.871 150.132 172.811 148.821 171.651 148.918C170.49 149.018 169.668 150.488 169.814 152.204Z" fill="#F48C7F"/>
<path d="M329.285 157.45C331.739 154.795 336.908 143.743 338.658 140.603C338.621 140.289 338.48 138.459 339.855 135.779C340.827 133.885 341.075 130.016 342.129 130.855C343.181 131.695 341.66 135.072 342.625 134.871C343.592 134.67 347.216 127.842 348.171 128.603C349.126 129.363 345.3 135.572 346.162 135.392C347.027 135.212 349.928 129.148 351.278 130.223C352.627 131.299 347.243 137.021 347.97 137.598C348.693 138.175 351.997 134.476 353.086 135.342C354.172 136.208 348.344 140.166 348.854 140.06C349.359 139.955 352.993 139.014 353.171 139.759C353.37 140.602 344.364 144.045 343.524 145.776C341.928 150.452 339.122 158.97 335.419 163.272C330.886 168.537 317.845 183.136 317.845 183.136L312.427 172.87C312.427 172.87 326.372 160.598 329.285 157.45Z" fill="#6B4744"/>
<path d="M342.988 136.694C343.325 137.14 343.536 137.66 343.68 138.201C343.68 138.294 344.258 140.013 343.116 141.681C343.448 140.461 343.81 139.105 342.988 136.694Z" fill="#4B2F2D"/>
<path d="M146.1 171.235C146.1 171.235 147.362 203.776 146.1 209.853C144.837 215.931 144.258 219.875 144.258 219.875C144.258 219.875 161.709 223.27 178.466 218.799C178.466 218.799 175.94 207.445 174.793 195.634C173.646 183.823 172.727 168.19 172.727 168.19C172.727 168.19 166.373 167.718 161.479 168.165C150.355 169.184 146.1 171.235 146.1 171.235Z" fill="#FAE0B2"/>
<path d="M156.477 159.919L155.985 168.822C155.985 168.822 156.821 173.735 161.699 174.022C166.577 174.309 165.142 163.816 165.142 163.816L164.855 159.919H156.477Z" fill="#F48C7F"/>
<path d="M164.983 166.622C165.1 166.622 165.217 166.62 165.333 166.614C165.306 165.025 165.14 163.813 165.14 163.813L164.853 159.916H156.474L156.401 161.251C157.452 163.039 160.545 166.622 164.983 166.622Z" fill="#F27A6A"/>
<path d="M147.093 278.975C147.093 278.975 147.667 278.401 149.676 278.572C151.684 278.745 161.755 279.863 162.186 279.863C162.616 279.863 168.379 284.233 168.637 285.027C168.895 285.82 156.189 285.301 156.189 285.301H146.515C146.515 285.301 145.601 282.414 147.093 278.975Z" fill="#357E84"/>
<path d="M187.007 278.762C187.007 278.762 186.418 279.156 186.418 279.692C186.418 280.047 187.017 282.463 187.712 284.183C188.116 285.185 189.307 285.608 190.255 285.086L207.704 275.474C207.704 275.474 208.975 274.373 200.746 273.853L187.007 278.762Z" fill="#357E84"/>
<path d="M146.099 171.236C146.099 171.236 143.621 172.319 142.167 175.683C140.714 179.046 136.046 194.259 139.183 203.357C139.183 203.357 140.596 210.272 147.865 215.014C155.134 219.753 167.809 220.893 168.527 220.175C169.244 219.458 169.272 218.215 169.272 217.417C169.272 216.619 170.938 216.219 170.938 215.13C170.938 214.041 168.125 213.849 164.892 213.849C164.892 213.849 164.318 213.792 165.026 213.256C165.734 212.722 166.633 212.053 166.48 211.04C166.327 210.027 165.667 210.073 165.045 210.696C164.423 211.316 162.367 212.99 160.722 212.511C159.077 212.034 149.36 204.063 147.753 201.542C147.753 201.542 148.395 171.779 146.099 171.236Z" fill="#F48C7F"/>
<path d="M226.947 172.302C226.947 172.302 232.185 169.398 237.745 168.748C243.304 168.096 251.279 170.181 251.279 170.181L255.879 236.525C255.879 236.525 235.221 246.329 219.726 236.525C219.726 236.525 223.887 208.67 223.887 204.753C223.887 200.836 223.887 200.836 223.887 200.836L226.947 172.302Z" fill="#FFB300"/>
<path d="M205.876 279.63C205.325 279.567 204.805 279.892 204.62 280.413C204.404 281.014 204.499 281.553 204.949 282.002C205.773 282.823 220.129 285.174 225.139 285.062C225.671 285.051 226.431 283.471 225.646 283.013C224.421 282.295 209.663 280.056 205.876 279.63Z" fill="#13375B"/>
<path d="M210.112 278.114L211.299 280.53L213.939 281.256C213.939 281.256 212.714 276.936 211.643 277.126C210.572 277.318 210.112 278.114 210.112 278.114Z" fill="#13375B"/>
<path d="M233.945 282.98C233.442 282.977 232.988 283.296 232.832 283.775C232.707 284.159 232.665 284.6 232.952 284.889C233.565 285.499 254.122 285.079 254.122 285.079C254.122 285.079 254.618 283.551 253.725 283.245C253.134 283.041 237.521 282.988 233.945 282.98Z" fill="#13375B"/>
<path d="M240.138 279.689C239.954 279.354 238.537 279.708 238.089 280.555L239.914 283.171L242.055 283.163L240.138 279.689Z" fill="#13375B"/>
<path d="M285.905 266.424C285.905 266.424 285.077 273.61 283.732 276.744C282.386 279.879 277.949 281.857 274.045 282.627C270.142 283.395 271.443 284.009 272.016 284.581C272.586 285.151 289.502 285.537 292.484 284.997C292.484 284.997 291.337 279.113 291.337 278.198C291.337 277.28 296.005 262.831 296.005 262.831L285.905 266.424Z" fill="#6B4744"/>
<path d="M292.483 284.998C292.483 284.998 292.251 283.802 291.993 282.403C288.73 282.84 281.266 282.076 277.525 281.641C276.381 282.074 274.989 282.202 273.844 282.428C269.943 283.196 270.234 284.22 271.214 284.931C271.867 285.406 289.501 285.539 292.483 284.998Z" fill="#F47458"/>
<path d="M319.181 264.744C319.181 264.744 318.725 273.576 319.671 276.747C320.646 280.016 322.045 280.577 325.876 281.643C329.639 282.687 328.21 284.361 327.638 284.933C327.066 285.503 313.901 285.541 310.918 285C310.918 285 312.066 279.117 312.066 278.201C312.066 277.283 310.671 262.433 310.671 262.433L319.181 264.744Z" fill="#6B4744"/>
<path d="M310.92 285C310.92 285 311.154 283.804 311.412 282.405C314.673 282.842 322.14 282.078 325.879 281.643C327.172 281.955 328.221 282.215 329.362 282.63C333.097 283.994 332.764 284.361 332.191 284.933C331.62 285.503 313.905 285.541 310.92 285Z" fill="#F47458"/>
<path d="M251.277 170.18C251.277 170.18 246.801 175.453 249.097 184.285C251.393 193.114 256.939 207.179 263.787 215.01C264.896 216.276 267.46 218.952 268.609 219.716C269.756 220.482 274.614 221.016 274.614 221.016C274.614 221.016 276.757 214.442 276.145 213.83C275.532 213.218 270.387 213.161 268.991 211.766C267.593 210.372 254.031 170.18 251.277 170.18Z" fill="#F4C0B8"/>
<path d="M294.572 170.064C294.572 170.064 293.282 170.868 292.365 173.237C291.446 175.607 286.684 195.102 285.995 197.929C285.463 200.114 280.632 206.527 278.235 209.616C277.528 210.528 276.985 211.287 276.64 211.287C274.537 211.287 271.043 212.454 271.043 213.326C271.043 214.195 271.869 214.288 273.246 213.984C274.623 213.678 273.58 215.168 273.084 215.664C272.585 216.162 270.467 218.996 271.219 219.745C271.968 220.494 273.772 221.016 274.613 221.016C275.071 221.016 275.998 220.965 277.694 219.583C279.12 218.42 281.217 216.042 282.757 214.67C288.291 209.741 292.843 199.381 293.685 197.012C294.526 194.642 294.572 170.064 294.572 170.064Z" fill="#6B4744"/>
<path d="M276.843 216.221C276.843 216.221 277.418 216.278 277.418 217.397C277.418 218.515 276.442 220.235 275.783 220.895C275.122 221.554 269.079 219.95 269.079 219.95C269.079 219.95 271.278 220.005 272.027 219.074C272.363 218.659 272.999 216.709 273.63 216.709C274.262 216.709 273.573 219.346 273.573 219.346C273.573 219.346 274.779 215.877 275.409 215.877C276.04 215.877 276.097 216.508 275.81 217.57C275.523 218.629 276.454 215.915 276.843 216.221Z" fill="#F4C0B8"/>
<path d="M281.698 267.138C281.698 267.138 290.651 269.546 300.807 269.546C310.963 269.546 330.933 264.387 330.933 264.387C330.933 264.387 325.425 251.086 323.531 240.881C321.635 230.675 320.261 213.133 320.261 213.133H289.956L288.062 225.277L281.698 267.138Z" fill="#466EB6"/>
<path d="M294.574 170.063C294.574 170.063 292.594 172.357 292.594 179.467C292.594 186.576 292.251 197.241 291.678 200.911C291.104 204.581 289.382 213.697 289.382 213.697C289.382 213.697 294.432 217.882 307.517 216.736C320.6 215.588 321.288 213.83 321.288 213.83C321.288 213.83 319.453 184.284 319.453 181.187C319.453 178.091 316.644 169.135 316.644 169.135C316.644 169.135 309.085 168.354 305.641 168.62C302.199 168.884 294.574 170.063 294.574 170.063Z" fill="#FAE0B2"/>
<path d="M288.625 142.16C288.625 142.16 283.118 143.721 283.575 149.367C283.997 154.573 286.558 154.31 286.558 154.31C286.558 154.31 284.684 161.691 290.346 163.833C295.685 165.85 297.69 163.833 297.69 163.833C297.69 163.833 300.007 169.961 307.926 167.596C315.846 165.23 315.137 160.431 315.137 160.431C315.137 160.431 318.509 161.757 322.414 155.565C326.314 149.371 324.088 144.913 318.925 142.16C318.925 142.16 320.643 134.276 312.745 133.015C304.852 131.753 302.914 136.082 302.914 136.082C302.914 136.082 301.509 131.25 293.101 134.575C287.59 136.754 288.625 142.16 288.625 142.16Z" fill="#13375B"/>
<path d="M310.445 153.976C309.863 155.596 310.281 157.228 311.378 157.62C312.475 158.013 313.834 157.019 314.416 155.396C314.999 153.777 314.58 152.144 313.484 151.751C312.387 151.359 311.028 152.355 310.445 153.976Z" fill="#6B4744"/>
<path d="M292.49 155.586C292.756 157.287 293.905 158.522 295.054 158.342C296.205 158.163 296.923 156.637 296.657 154.936C296.393 153.236 295.244 152.001 294.093 152.181C292.942 152.36 292.224 153.886 292.49 155.586Z" fill="#6B4744"/>
<path d="M301.927 163.034L302.234 169.721C302.234 169.721 302.388 172.321 305.103 172.665C307.821 173.009 310.307 170.909 310.307 168.805C310.307 168.538 308.968 159.364 308.968 159.364L301.927 163.034Z" fill="#6B4744"/>
<path d="M308.971 159.363L301.931 163.032L302.04 165.411C303.315 165.419 305.2 165.318 306.712 164.417C307.985 163.659 308.694 162.697 309.262 161.37C309.094 160.196 308.971 159.363 308.971 159.363Z" fill="#4B2F2D"/>
<path d="M194.792 215.297C194.792 215.297 196.507 216.405 197.525 216.162C198.543 215.917 198.043 215.398 197.563 214.921C197.086 214.442 195.804 213.83 195.804 213.83L194.792 215.297Z" fill="#F48C7F"/>
<path d="M160.899 140.738C158.12 141.148 156.087 143.115 154.611 145.516C151.684 150.275 154.064 157.281 154.867 158.885C155.671 160.49 158.884 164.618 163.647 164.618C168.41 164.618 171.739 160.26 172.14 156.019C172.679 150.338 171.156 143.258 165.745 141.285C164.27 140.747 162.523 140.498 160.899 140.738Z" fill="#F48C7F"/>
<path d="M237.561 140.883C237.561 140.883 235.208 140.769 232.568 142.029C229.928 143.291 227.174 148.963 227.174 154.009C227.174 157.079 225.813 158.345 224.749 158.869C224.176 159.147 224.022 159.89 224.443 160.367C225.484 161.549 226.567 162.849 227.934 163.642C233.113 166.651 238.328 166.744 244.147 165.676C248.829 164.82 253.248 162.714 256.568 159.261C257.193 158.611 257.022 157.539 256.228 157.113C255.13 156.522 253.833 155.252 253.341 152.523C252.424 147.418 250.53 138.418 237.561 140.883Z" fill="#13375B"/>
<path d="M244.579 154.804C244.205 156.486 244.824 158.054 245.96 158.305C247.099 158.558 248.324 157.4 248.697 155.72C249.071 154.038 248.452 152.472 247.314 152.219C246.178 151.966 244.953 153.124 244.579 154.804Z" fill="#F4C0B8"/>
<path d="M227.756 152.56C227.756 154.282 228.7 155.677 229.864 155.677C231.03 155.677 231.974 154.282 231.974 152.56C231.974 150.838 231.03 149.443 229.864 149.443C228.7 149.443 227.756 150.838 227.756 152.56Z" fill="#F4C0B8"/>
<path d="M234.904 163.644L234.33 171.518C234.33 171.518 234.598 173.314 236.74 173.695C238.884 174.077 243.435 170.906 243.435 169.224L242.364 160.127L234.904 163.644Z" fill="#F4C0B8"/>
<path d="M234.62 167.485C238.003 167.654 240.728 166.13 242.741 163.353L242.361 160.127L234.9 163.645L234.62 167.485Z" fill="#F7A491"/>
<path d="M229.644 156.589C230.161 159.512 231.021 164.659 235.612 165.189C240.202 165.718 243.647 163.239 245.827 158.767C248.009 154.296 247.491 148.389 246.285 145.466C245.328 143.143 241.195 143.253 239.165 143.288C232.36 143.402 228.501 150.113 229.644 156.589Z" fill="#F4C0B8"/>
<path d="M236.356 142.353C236.356 142.353 236.284 146.113 239.416 149.243C242.549 152.372 248.847 154.008 248.847 154.008L249.592 155.774C249.592 155.774 250.587 150.152 248.215 146.404C245.843 142.659 236.356 142.353 236.356 142.353Z" fill="#13375B"/>
<path d="M305.546 141.351C305.546 141.351 308.878 142.301 310.872 145.662C312.87 149.021 314.073 158.673 307.16 162.795C300.249 166.914 295.627 160.298 295.145 154.145C294.57 146.866 297.749 140.113 305.546 141.351Z" fill="#6B4744"/>
<path d="M526.338 263.5C526.338 263.5 529.622 276.873 532.066 278.973C534.511 281.072 542.487 285.088 540.401 285.521C538.315 285.953 522.868 286.312 523.291 283.738C523.714 281.163 524.159 279.524 524.159 279.524L520.072 269.97L526.338 263.5Z" fill="#F79C8D"/>
<path d="M541.438 286.068C537.671 286.441 526.671 286.838 523.467 286.429C523.467 286.429 522.867 286.31 523.288 283.736C523.392 283.107 523.496 282.533 523.597 282.026C526.502 282.788 532.833 281.165 535.34 280.832C538.066 282.136 541.136 284.082 542.128 284.244C543.561 284.478 543.557 285.857 541.438 286.068Z" fill="#13375B"/>
<path d="M490.317 274.709C490.317 274.709 489.974 278.092 489.974 279.584C489.974 281.074 491.364 285.277 490.72 285.921C490.075 286.564 471.676 286.486 471.676 285.881C471.676 285.275 474.93 283.439 479.349 282.179C483.765 280.917 485.267 276.028 484.122 273.219L490.317 274.709Z" fill="#F79C8D"/>
<path d="M471.38 285.924C471.38 285.361 474.395 283.628 478.304 282.436C482.467 283.841 488.25 282.681 490.418 282.267C491.082 284.001 491.295 285.643 490.951 285.985C490.307 286.629 471.38 286.53 471.38 285.924Z" fill="#13375B"/>
<path d="M510.289 218.179L513.586 221.104C513.586 221.104 517.304 231.151 517.518 231.816C517.819 232.738 529.852 271.478 529.852 271.478L521.47 274.492C521.47 274.492 513.158 258.315 511.78 252.695C510.405 247.076 496.632 223.569 496.632 223.569L510.289 218.179Z" fill="#FAE0B2"/>
<path d="M495.712 224.143L491.696 275.489H482.399C482.399 275.489 479.072 237.064 480.216 223.571L495.712 224.143Z" fill="#FAE0B2"/>
<path d="M479.419 172.423C479.419 172.423 485.327 170.876 492.042 170.503C495.519 170.311 500.19 171.047 500.19 171.047C500.19 171.047 504.437 180.565 505.699 188.362C506.963 196.162 513.85 221.16 513.85 221.16C513.85 221.16 499.845 231.937 479.419 224.829V172.423Z" fill="#357E84"/>
<path d="M495.329 163.904C495.329 163.904 495.144 169.992 495.716 170.563C496.291 171.136 497.088 172.083 496.248 173.537C495.405 174.989 491.752 174.063 490.049 173.231C488.416 172.433 487.358 170.948 487.358 170.948L488.214 161.304L495.329 163.904Z" fill="#F79C8D"/>
<path d="M492.902 166.425C491.728 166.014 489.675 165.222 488.094 162.652L488.216 161.301L495.33 163.901C495.33 163.901 495.287 165.387 495.311 166.959C494.312 166.917 493.462 166.619 492.902 166.425Z" fill="#B75742"/>
<path d="M486.959 154.419C486.959 154.419 486.783 150.84 484.584 151.534C482.384 152.229 484.061 157.631 485.886 157.454C487.709 157.276 486.959 154.419 486.959 154.419Z" fill="#F79C8D"/>
<path d="M493.879 142.727C493.879 142.727 497.321 142.651 499.081 145.326C500.839 148.002 502.753 155.648 499.843 160.921C496.94 166.197 493.228 164.897 491.694 164.361C490.168 163.827 487.144 162.641 485.614 157.712C484.084 152.78 485.193 141.695 493.879 142.727Z" fill="#F79C8D"/>
<path d="M480.071 172.264C481.644 175.806 485.504 183.43 485.328 191.839C485.141 200.647 478.51 206.364 478.51 206.364V210.718C478.51 210.718 485.828 209.565 488.625 198.185C491.422 186.804 484.69 171.342 484.69 171.342C484.69 171.342 483.731 170.659 481.827 171.188C480.558 171.543 480.071 172.264 480.071 172.264Z" fill="#355389"/>
<path d="M496.148 170.471C496.148 170.471 501.644 200.04 508.778 201.956L507.535 196.915C507.535 196.915 500.188 172.993 500.188 171.047C500.188 169.104 496.148 170.471 496.148 170.471Z" fill="#355389"/>
<path d="M511.024 221.07H489.687V196.777L511.024 197.725V221.07Z" fill="#4580FF"/>
<path d="M511.024 195.834H490.637C490.111 195.834 489.687 196.258 489.687 196.779C489.687 197.303 490.111 197.727 490.637 197.727H511.024L511.008 197.72C509.6 197.193 509.607 196.357 511.024 195.834Z" fill="#B75742"/>
<path d="M510.443 196.109H491.341C490.971 196.109 490.67 196.409 490.67 196.776C490.67 197.145 490.971 197.443 491.341 197.443H510.443C509.795 197.032 509.795 196.523 510.443 196.109Z" fill="#FAE0B2"/>
<path d="M501.671 196.249H500.328C500.038 196.249 499.807 196.483 499.807 196.772V196.819H501.671V196.249Z" fill="#13375B"/>
<path d="M500.385 196.249C500.705 196.249 501.186 196.522 501.455 196.855L504.644 200.803H506.515L503.484 197.047C503.13 196.606 502.495 196.247 502.074 196.249H500.385Z" fill="#355389"/>
<path d="M479.415 172.425C479.415 172.425 481.025 174.038 482.746 180.147C484.468 186.256 485.344 200.559 486.837 202.049C488.33 203.539 498.084 211.298 499.843 211.033C501.603 210.765 505.544 206.177 506.771 206.177C507.991 206.177 507.841 207.285 507.228 207.897C506.618 208.509 505.871 209.216 506.232 209.579C506.597 209.942 506.597 209.942 506.597 209.942C506.597 209.942 512.048 208.509 512.969 209.045C513.886 209.579 512.086 210.841 512.086 211.759C512.086 212.675 512.311 212.66 512.202 213.669C512.093 214.679 511.841 215.485 511.36 215.962C510.883 216.441 504.855 218.18 498.967 217.376C493.073 216.574 485.883 213.747 480.564 207.171C475.246 200.598 476.31 179.934 476.432 177.872C476.739 172.655 479.415 172.425 479.415 172.425Z" fill="#F79C8D"/>
<path d="M475.631 105.378C477.661 110.729 483.644 113.423 488.996 111.395C494.352 109.368 497.046 103.387 495.02 98.0369C492.99 92.6868 487.006 89.9928 481.651 92.0199C476.298 94.0473 473.601 100.028 475.631 105.378Z" fill="#F7CC7F"/>
<path d="M491.091 101.282C492.176 104.142 490.734 107.34 487.871 108.424C485.008 109.508 481.81 108.067 480.726 105.207L491.091 101.282Z" fill="#EFEFEF"/>
</svg>
