<svg xmlns="http://www.w3.org/2000/svg" viewBox="0 0 50 50"><path d="M38.188 6.719c-1.926.093-3.844.93-5.344 2.375l-.094.094c-.004.003-.027-.004-.031 0-.043.05-.086.101-.125.156-.043.05-.086.101-.125.156L13.656 28.406c-.043.051-.086.102-.125.157-1.77 1.917-1.734 4.953.125 6.812 1.906 1.91 5.094 1.91 7 0 .094-.094.176-.2.25-.313.09-.066.172-.14.25-.218L35.25 20.937a1.998 1.998 0 0 0-1.625-3.437 2 2 0 0 0-1.188.594L18.345 32c-.059.07-.11.14-.157.219-.019.011-.042.02-.062.031-.012.02-.02.043-.031.063a1.697 1.697 0 0 0-.282.218c-.378.38-.933.383-1.312 0-.379-.379-.383-.93 0-1.312L35.594 12.03c.043-.05.086-.101.125-.156 1.644-1.516 3.84-1.504 5.062-.281.086.082.18.156.282.219l.03.03c.06.079.122.153.188.22 1.145 1.144.953 3.558-.656 5.25l-.094.093-20.687 21.219a1.807 1.807 0 0 0-.188.156c-2.683 2.684-7.304 3.008-9.875.438-2.52-2.52-2.258-7.078.313-9.782.043-.039.086-.082.125-.125L27.25 12.47a1.998 1.998 0 0 0-1.625-3.438 2 2 0 0 0-1.188.594L7.5 26.375l-.094.094c-.043.05-.086.101-.125.156-4.047 4.195-4.597 11.156-.343 15.406 4.222 4.223 11.144 3.774 15.343-.218.043-.032.086-.063.125-.094l.032-.032.062-.062v-.031l.125-.125c.043-.051.086-.102.125-.157L43.406 20.22a1.98 1.98 0 0 0 .375-.469c2.637-3.016 3.211-7.602.313-10.5a2.432 2.432 0 0 0-.157-.125 2.212 2.212 0 0 0-.312-.375c-1.477-1.477-3.465-2.129-5.438-2.031z"/></svg>