<svg width="50" height="46" viewBox="0 0 50 46" fill="none" xmlns="http://www.w3.org/2000/svg"><path d="M40.677.01c-2.29.11-4.572 1.104-6.356 2.819l-.112.112c-.004.003-.032-.005-.037 0-.05.059-.102.12-.148.185-.051.06-.102.12-.149.185L11.5 25.75c-.05.06-.102.12-.148.186-2.106 2.275-2.063 5.878.148 8.085 2.267 2.267 6.059 2.267 8.326 0a2.31 2.31 0 0 0 .297-.372 2.57 2.57 0 0 0 .298-.259l16.763-16.506a2.37 2.37 0 0 0-1.933-4.079 2.38 2.38 0 0 0-1.413.705l-16.76 16.505c-.07.083-.132.166-.187.26-.023.013-.05.023-.074.037-.014.023-.024.05-.037.074-.12.075-.233.161-.335.26-.45.45-1.11.454-1.56 0-.452-.45-.456-1.105 0-1.558L37.591 6.314c.051-.06.102-.12.149-.185 1.955-1.8 4.567-1.785 6.02-.334.103.097.214.185.336.26l.035.036c.072.093.146.181.224.26 1.362 1.359 1.133 4.224-.78 6.232l-.112.11-24.605 25.185a2.152 2.152 0 0 0-.223.185c-3.191 3.186-8.688 3.57-11.745.52-2.998-2.991-2.686-8.4.372-11.61a2.18 2.18 0 0 0 .148-.149L27.668 6.836a2.37 2.37 0 0 0-1.933-4.08 2.38 2.38 0 0 0-1.413.704L4.178 23.34l-.112.111c-.051.06-.103.12-.149.185-4.813 4.98-5.468 13.241-.408 18.286 5.022 5.012 13.255 4.479 18.249-.26.05-.037.102-.074.148-.11l.039-.039.073-.073v-.037l.149-.148c.051-.061.102-.122.149-.187l24.567-25.034a2.35 2.35 0 0 0 .446-.556c3.137-3.58 3.82-9.023.373-12.463a2.912 2.912 0 0 0-.187-.148 2.631 2.631 0 0 0-.371-.445C45.387.669 43.023-.105 40.676.012l.001-.002z" fill="#000"/></svg>