<svg width="30" height="31" viewBox="0 0 30 31" fill="none" xmlns="http://www.w3.org/2000/svg">
<path d="M4.58333 0.373047C2.06685 0.373047 0 2.4399 0 4.95638V25.7897C0 28.3062 2.06685 30.373 4.58333 30.373H19.5833C22.0998 30.373 24.1667 28.3062 24.1667 25.7897C24.169 25.6241 24.1384 25.4596 24.0766 25.3059C24.0149 25.1522 23.9232 25.0123 23.8069 24.8943C23.6906 24.7764 23.552 24.6827 23.3991 24.6188C23.2463 24.5548 23.0823 24.5219 22.9167 24.5219C22.751 24.5219 22.587 24.5548 22.4342 24.6188C22.2814 24.6827 22.1428 24.7764 22.0265 24.8943C21.9102 25.0123 21.8185 25.1522 21.7567 25.3059C21.6949 25.4596 21.6643 25.6241 21.6667 25.7897C21.6667 26.9549 20.7485 27.873 19.5833 27.873H4.58333C3.41814 27.873 2.5 26.9549 2.5 25.7897V4.95638C2.5 3.79119 3.41814 2.87305 4.58333 2.87305H19.5833C20.7485 2.87305 21.6667 3.79119 21.6667 4.95638C21.6643 5.12202 21.6949 5.28647 21.7567 5.44018C21.8185 5.59389 21.9102 5.7338 22.0265 5.85176C22.1428 5.96972 22.2814 6.06339 22.4342 6.12732C22.587 6.19126 22.751 6.22418 22.9167 6.22418C23.0823 6.22418 23.2463 6.19126 23.3991 6.12732C23.552 6.06339 23.6906 5.96972 23.8069 5.85176C23.9232 5.7338 24.0149 5.59389 24.0766 5.44018C24.1384 5.28647 24.169 5.12202 24.1667 4.95638C24.1667 2.4399 22.0998 0.373047 19.5833 0.373047H4.58333ZM22.9036 8.27669C22.6549 8.27675 22.4118 8.35103 22.2055 8.49003C21.9992 8.62902 21.839 8.82641 21.7455 9.05693C21.652 9.28746 21.6294 9.54064 21.6806 9.78409C21.7318 10.0275 21.8544 10.2502 22.0329 10.4235L25.7324 14.123H7.91667C7.75103 14.1207 7.58657 14.1513 7.43286 14.2131C7.27915 14.2748 7.13925 14.3665 7.02129 14.4828C6.90333 14.5992 6.80966 14.7377 6.74572 14.8906C6.68179 15.0434 6.64886 15.2074 6.64886 15.373C6.64886 15.5387 6.68179 15.7027 6.74572 15.8555C6.80966 16.0084 6.90333 16.1469 7.02129 16.2632C7.13925 16.3796 7.27915 16.4713 7.43286 16.533C7.58657 16.5948 7.75103 16.6254 7.91667 16.623H25.7324L22.0329 20.3226C21.9129 20.4378 21.8171 20.5757 21.7512 20.7284C21.6852 20.8811 21.6503 21.0453 21.6486 21.2116C21.6469 21.3779 21.6785 21.5429 21.7413 21.6969C21.8042 21.8508 21.8971 21.9907 22.0147 22.1083C22.1323 22.2259 22.2722 22.3189 22.4262 22.3817C22.5801 22.4446 22.7451 22.4761 22.9114 22.4744C23.0777 22.4727 23.242 22.4379 23.3946 22.3719C23.5473 22.3059 23.6853 22.2101 23.8005 22.0902L29.6338 16.2568C29.8681 16.0224 29.9998 15.7045 29.9998 15.373C29.9998 15.0416 29.8681 14.7237 29.6338 14.4893L23.8005 8.65592C23.6839 8.53594 23.5445 8.44055 23.3905 8.37541C23.2364 8.31027 23.0709 8.2767 22.9036 8.27669Z" fill="black"/>
</svg>
