<svg width="35" height="22" viewBox="0 0 35 22" fill="none" xmlns="http://www.w3.org/2000/svg"><path d="M2.23.427a1.862 1.862 0 0 0-.65.108 1.712 1.712 0 0 0-.553.323c-.159.14-.285.305-.37.488a1.359 1.359 0 0 0 0 1.157c.085.183.211.349.37.488.158.14.346.25.553.324.206.074.428.11.65.107h30.245c.223.003.444-.033.65-.107.208-.075.396-.184.554-.324.159-.14.285-.305.37-.488a1.36 1.36 0 0 0 0-1.157 1.504 1.504 0 0 0-.37-.488 1.712 1.712 0 0 0-.553-.323 1.862 1.862 0 0 0-.65-.108H2.23zm0 8.987a1.862 1.862 0 0 0-.65.108 1.712 1.712 0 0 0-.553.323 1.48 1.48 0 0 0-.37.489 1.358 1.358 0 0 0 0 1.156c.085.183.211.35.37.489.158.139.346.249.553.323.206.074.428.11.65.108h30.245c.223.002.444-.034.65-.108a1.7 1.7 0 0 0 .554-.323c.159-.14.285-.306.37-.49a1.36 1.36 0 0 0 0-1.155 1.504 1.504 0 0 0-.37-.489 1.712 1.712 0 0 0-.553-.323 1.862 1.862 0 0 0-.65-.108H2.23zm0 8.987a1.863 1.863 0 0 0-.65.108 1.713 1.713 0 0 0-.553.323c-.159.14-.285.306-.37.489a1.358 1.358 0 0 0 0 1.156c.085.183.211.35.37.489.158.139.346.249.553.323.206.074.428.11.65.108h30.245c.223.003.444-.034.65-.108a1.7 1.7 0 0 0 .554-.323c.159-.14.285-.306.37-.489a1.36 1.36 0 0 0 0-1.156 1.504 1.504 0 0 0-.37-.489 1.713 1.713 0 0 0-.553-.323 1.863 1.863 0 0 0-.65-.108H2.23z" fill="#000"/></svg>