<svg width="50" height="55" viewBox="0 0 50 55" fill="none" xmlns="http://www.w3.org/2000/svg"><path d="M18.125.608a4.375 4.375 0 0 0-4.375 4.375v6.25a4.375 4.375 0 0 0 4.375 4.375h5v2.493h-8a4.375 4.375 0 0 0-3.682 2.016 5.173 5.173 0 0 0-2.693-.766c-1.51 0-2.88.634-3.745 1.606-.864.973-1.255 2.196-1.255 3.394s.39 2.42 1.255 3.393c.223.251.558.402.842.603L4.065 37.01c-.88.155-1.741.459-2.458 1.096C.634 38.97 0 40.34 0 41.85a1.875 1.875 0 1 0 3.75 0c0-.572.147-.765.347-.942.2-.177.539-.308.903-.308.365 0 .704.13.903.308.2.177.347.37.347.942a1.876 1.876 0 1 0 3.75 0c0-1.51-.634-2.88-1.606-3.745-.196-.174-.436-.247-.65-.383L9.5 29.194c.995-.148 1.907-.515 2.6-1.093l2.466 9.25a4.375 4.375 0 0 0 4.23 3.25h12.408a4.375 4.375 0 0 0 4.228-3.25l2.466-9.253c.693.58 1.605.948 2.602 1.096l1.756 8.528c-.214.136-.454.21-.65.383C40.634 38.97 40 40.34 40 41.85a1.877 1.877 0 0 0 3.21 1.343 1.875 1.875 0 0 0 .54-1.343c0-.572.147-.765.346-.942.2-.177.54-.308.904-.308s.704.13.903.308c.2.177.347.37.347.942a1.875 1.875 0 1 0 3.75 0c0-1.51-.634-2.88-1.607-3.745-.717-.637-1.578-.94-2.458-1.096l-1.782-8.662c.284-.2.619-.352.842-.603.864-.972 1.255-2.195 1.255-3.393s-.39-2.421-1.255-3.394c-.864-.972-2.235-1.606-3.745-1.606a5.173 5.173 0 0 0-2.698.769 4.3 4.3 0 0 0-.212-.31 4.343 4.343 0 0 0-3.465-1.71h-8v-2.492h5a4.375 4.375 0 0 0 4.375-4.375v-6.25A4.375 4.375 0 0 0 31.875.608h-13.75zM21.2 6.861a1.25 1.25 0 1 1 .051 2.497 1.25 1.25 0 0 1-.051-2.497zm7.5 0a1.25 1.25 0 1 1 .051 2.497 1.25 1.25 0 0 1-.051-2.497zM8.75 23.1c.573 0 .765.147.943.346.177.2.307.539.307.904 0 .364-.13.704-.307.903-.178.2-.37.347-.943.347s-.765-.148-.942-.347c-.177-.2-.308-.539-.308-.903 0-.365.13-.704.308-.904.177-.199.37-.346.942-.346zm32.5 0c.573 0 .765.147.942.346.177.2.308.539.308.904 0 .364-.13.704-.308.903-.177.2-.37.347-.942.347-.573 0-.765-.148-.943-.347-.177-.2-.307-.539-.307-.903 0-.365.13-.704.307-.904.178-.199.37-.346.943-.346zm-22.5 20.041v3.75h2.5a1.25 1.25 0 1 1 0 2.5h-2.5v.625a4.375 4.375 0 0 0 4.375 4.375h3.75a4.375 4.375 0 0 0 4.375-4.375v-.625h-2.5a1.25 1.25 0 0 1 0-2.5h2.5v-3.75h-12.5z" fill="#fff"/></svg>