<svg width="60" height="55" viewBox="0 0 60 55" fill="none" xmlns="http://www.w3.org/2000/svg"><path d="M46.5 36.498c-4.136 0-7.5-3.365-7.5-7.5 0-4.136 3.364-7.5 7.5-7.5s7.5 3.364 7.5 7.5c0 4.135-3.364 7.5-7.5 7.5zm0 18.003c-7.697 0-13.5-3.905-13.5-9.08v-1.344a4.583 4.583 0 0 1 4.578-4.58h17.844A4.583 4.583 0 0 1 60 44.078v1.344c0 5.175-5.803 9.08-13.5 9.08zM30 15.499c-4.136 0-7.5-3.364-7.5-7.5 0-4.135 3.364-7.5 7.5-7.5s7.5 3.365 7.5 7.5c0 4.136-3.364 7.5-7.5 7.5zM13.5 36.498c-4.136 0-7.5-3.365-7.5-7.5 0-4.136 3.364-7.5 7.5-7.5s7.5 3.364 7.5 7.5c0 4.135-3.364 7.5-7.5 7.5zm0 18.003C5.803 54.5 0 50.596 0 45.42v-1.344a4.583 4.583 0 0 1 4.578-4.58h17.844A4.583 4.583 0 0 1 27 44.078v1.344c0 5.175-5.803 9.08-13.5 9.08zm28.358-34.907a4.529 4.529 0 0 0-2.936-1.095H21.078a4.532 4.532 0 0 0-2.936 1.095C21.606 21.312 24 24.876 24 28.998c0 1.2-.212 2.347-.585 3.423 1.926.691 4.161 1.08 6.585 1.08 2.424 0 4.659-.389 6.585-1.08A10.401 10.401 0 0 1 36 28.998c0-4.122 2.394-7.686 5.858-9.404z" fill="#fff"/></svg>