<svg width="50" height="63" viewBox="0 0 50 63" fill="none" xmlns="http://www.w3.org/2000/svg"><path d="M2.138.963C.55.963-.482 2.638.229 4.058l10.379 20.758c-4.27 3.872-6.958 9.458-6.985 15.746-.052 11.526 9.542 21.318 21.067 21.473 12.054.165 21.688-9.357 21.688-21.371 0-6.331-2.69-11.955-6.984-15.849L49.772 4.058c.709-1.42-.32-3.095-1.909-3.095H36.047c-1.157 0-2.21.652-2.726 1.688l-8.32 16.635L16.68 2.651A3.042 3.042 0 0 0 13.954.963H2.138zM25 25.394c8.55 0 15.27 6.719 15.27 15.27 0 8.55-6.72 15.27-15.27 15.27-8.551 0-15.27-6.72-15.27-15.27 0-8.551 6.719-15.27 15.27-15.27zm0 6.108c-.306.916-1.833 3.662-4.581 3.662v3.054h3.358v11.608h4.277V31.502H25z" fill="#fff"/></svg>