<svg width="50" height="51" viewBox="0 0 50 51" fill="none" xmlns="http://www.w3.org/2000/svg"><path d="M47.123.501a2.772 2.772 0 0 0-.306.027H36.08a2.775 2.775 0 1 0 0 5.548h4.4l-6.936 6.935h-4.4a2.774 2.774 0 0 0-2.378 1.347l-3.354 5.588H18.05a2.773 2.773 0 0 0-2.379 1.347l-3.353 5.588H6.954a2.774 2.774 0 0 0-2.379 1.347l-4.16 6.935a2.774 2.774 0 1 0 4.756 2.855l3.354-5.589h5.364a2.773 2.773 0 0 0 2.378-1.346l3.354-5.589h5.364a2.774 2.774 0 0 0 2.378-1.346l3.354-5.589h3.977c.735 0 1.441-.292 1.961-.812l7.748-7.748v4.4a2.775 2.775 0 1 0 5.548 0V3.64A2.774 2.774 0 0 0 47.123.5zm.013 20.794a2.774 2.774 0 0 0-2.733 2.812v23.58a2.775 2.775 0 1 0 5.548 0v-23.58a2.774 2.774 0 0 0-2.815-2.812zM36.04 24.07a2.774 2.774 0 0 0-2.733 2.812v20.806a2.773 2.773 0 1 0 5.548 0V26.88a2.775 2.775 0 0 0-2.815-2.812zm-11.096 5.548a2.775 2.775 0 0 0-2.733 2.812v15.258a2.773 2.773 0 1 0 5.548 0v-15.26a2.775 2.775 0 0 0-2.815-2.812zm-11.096 6.936a2.774 2.774 0 0 0-2.733 2.811v8.323a2.775 2.775 0 1 0 5.548 0v-8.323a2.774 2.774 0 0 0-2.815-2.811zM2.752 43.486A2.774 2.774 0 0 0 .019 46.3v1.387a2.774 2.774 0 1 0 5.548 0V46.3a2.774 2.774 0 0 0-2.815-2.813z" fill="#fff"/></svg>