<svg width="30" height="30" viewBox="0 0 30 30" fill="none" xmlns="http://www.w3.org/2000/svg"><path d="M15 0C6.729 0 0 6.729 0 15s6.729 15 15 15 15-6.729 15-15S23.271 0 15 0zm5.7 20.265c-.085.091-2.113 2.235-5.7 2.235-3.586 0-5.615-2.143-5.7-2.235A1.127 1.127 0 0 1 9 19.5v-2.177l3.846 1.671a4.92 4.92 0 0 0 2.165.506c.733 0 1.44-.163 2.044-.459L21 17.324V19.5c0 .284-.107.556-.3.765zm4.05-2.64a1.125 1.125 0 1 1-2.25 0V14.29l-6.044 2.63a3.29 3.29 0 0 1-1.445.334 3.454 3.454 0 0 1-1.51-.354l-7.575-3.295a1.125 1.125 0 0 1-.043-2.043l7.618-3.709a3.358 3.358 0 0 1 2.998 0l7.618 3.709c.395.192.641.596.633 1.036-.002.084 0 5.027 0 5.027z" fill="#007AA9"/></svg>