<svg width="30" height="30" viewBox="0 0 30 30" fill="none" xmlns="http://www.w3.org/2000/svg"><path d="M15 0C6.734 0 0 6.734 0 15s6.734 15 15 15 15-6.734 15-15a1.5 1.5 0 1 0-3 0c0 6.645-5.355 12-12 12S3 21.645 3 15 8.355 3 15 3a11.95 11.95 0 0 1 8.709 3.75H21.75a1.5 1.5 0 1 0 0 3h4.638a1.5 1.5 0 0 0 .682-.003A1.5 1.5 0 0 0 28.5 8.25V3a1.502 1.502 0 0 0-2.576-1.066A1.5 1.5 0 0 0 25.5 3v1.296A14.96 14.96 0 0 0 15 0zm-.022 6.73A1.5 1.5 0 0 0 13.5 8.25v8.25A1.5 1.5 0 0 0 15 18h5.25a1.5 1.5 0 1 0 0-3H16.5V8.25a1.502 1.502 0 0 0-1.522-1.52z" fill="#007AA9"/></svg>