<svg width="169" height="40" viewBox="0 0 169 40" fill="none" xmlns="http://www.w3.org/2000/svg">
<path d="M8.36289 1.35386C11.1959 1.35795 13.591 1.36163 13.685 1.36163H13.856L13.8617 1.37553C13.885 1.43153 13.9026 1.68989 13.9133 2.13833C13.9186 2.36971 13.9157 3.13416 13.9092 3.25025C13.9039 3.34019 13.8977 3.406 13.892 3.42685L13.8879 3.44239H1.34875V1.34119L2.28043 1.34364C2.79248 1.34487 5.52983 1.34936 8.36289 1.35386Z" fill="white"/>
<path d="M8.23978 4.77546C9.84015 4.77996 11.1505 4.78405 11.1514 4.78527C11.1542 4.78814 11.1219 6.12857 11.1186 6.13348C11.1162 6.13716 10.3199 6.13879 7.62753 6.13961L4.13928 6.14084L4.13641 6.05376C4.13519 6.00593 4.13191 5.8461 4.12946 5.69893C4.12046 5.16627 4.13478 4.85681 4.17159 4.77996L4.17977 4.76238L4.75521 4.76484C5.07136 4.76606 6.63982 4.77097 8.23978 4.77546Z" fill="white"/>
<path d="M7.80258 7.60023C10.3972 7.60513 12.5211 7.61004 12.5219 7.61045C12.5243 7.61249 12.5125 9.64297 12.51 9.64502C12.5088 9.64624 10.3138 9.64829 7.63244 9.64992C3.84685 9.65237 2.75608 9.65197 2.75363 9.64829C2.75076 9.64297 2.76631 7.75107 2.7704 7.64969L2.77285 7.59164H2.92908C3.01456 7.59124 5.20796 7.59532 7.80258 7.60023Z" fill="white"/>
<path d="M7.67783 10.9883C7.90728 10.9908 8.36821 10.9957 8.70235 10.9989C9.99189 11.0128 9.88719 11.0128 10.5857 11.0022C10.9743 10.9961 11.2581 10.9936 11.2974 10.9953C11.3334 10.9969 11.4614 10.9985 11.5816 10.9985C11.7788 10.9989 11.8037 10.9998 11.8331 11.0063C11.8511 11.0104 11.8753 11.0177 11.8863 11.0227C11.91 11.0325 11.9497 11.0566 11.9497 11.0611C11.9497 11.0631 11.818 11.2377 11.6569 11.4498L11.364 11.8353L10.753 12.7825C10.4164 13.3033 10.1399 13.7313 10.1379 13.7334C10.1358 13.7354 9.96816 13.735 9.74854 13.7325C9.3829 13.7289 9.35959 13.7289 9.29743 13.7362C9.04713 13.7653 8.7318 13.7808 8.3772 13.7808C8.10973 13.7808 7.90319 13.7755 7.36291 13.7542C6.93021 13.737 6.77111 13.7321 6.53881 13.7272C6.03166 13.717 5.5785 13.7391 5.25254 13.7906C5.219 13.7959 5.18996 13.7992 5.18833 13.7975C5.18547 13.7947 4.76993 13.121 4.58057 12.8119C4.36545 12.46 4.26647 12.3026 4.14705 12.1211C3.87425 11.7057 3.61618 11.3791 3.37979 11.1494C3.3074 11.0791 3.30412 11.0721 3.33275 11.0607C3.43745 11.0186 3.98427 10.9928 4.96625 10.983C5.228 10.9805 7.28766 10.9846 7.67783 10.9883Z" fill="white"/>
<path d="M7.70319 15.1012C8.06842 15.1102 8.3723 15.1175 8.37884 15.1175C8.40093 15.1175 8.39929 15.0489 8.41238 16.5708L8.41728 17.1227L8.39438 17.1869C8.37066 17.2531 8.36166 17.2719 8.35266 17.2719C8.32608 17.2719 6.93511 16.2372 6.88113 16.1775C6.87417 16.1698 6.87417 16.1444 6.87663 15.6469L6.87949 15.1249L6.94329 15.0824L6.99155 15.0836C7.01814 15.0844 7.33837 15.0926 7.70319 15.1012Z" fill="white"/>
<path d="M7.66884 18.3732L8.3997 18.9369V19.1969C8.3997 19.34 8.39847 19.7508 8.39683 20.1097C8.39479 20.6322 8.39315 20.763 8.38906 20.763C8.37884 20.763 8.13631 20.5848 7.59399 20.178C6.99483 19.7287 6.87663 19.6372 6.87254 19.6196C6.86559 19.5881 6.86272 19.3792 6.86599 19.1626C6.8754 18.6058 6.90526 17.8458 6.91957 17.8086C6.92284 17.8 6.92407 17.7992 6.93061 17.8041C6.9347 17.807 7.2668 18.0633 7.66884 18.3732Z" fill="white"/>
<path d="M7.66025 21.8169L8.3772 22.3561L8.37966 22.6929C8.38088 22.8781 8.38252 23.2922 8.38293 23.6131L8.38334 24.196L8.30686 24.2018L7.60176 23.647C7.01323 23.1843 6.89585 23.0902 6.89176 23.0788C6.87704 23.0367 6.87008 22.8822 6.87008 22.5883C6.87008 22.0879 6.89544 21.4874 6.92366 21.321C6.92734 21.2997 6.93634 21.2781 6.94166 21.2781C6.94247 21.2781 7.26599 21.5205 7.66025 21.8169Z" fill="white"/>
<path d="M6.95802 24.7577C7.17355 24.8844 8.1678 25.6223 8.33876 25.7822L8.3678 25.8095L8.41565 27.4692L8.39479 27.5396C8.38334 27.5784 8.37189 27.6103 8.36943 27.6103C8.36657 27.6103 8.34817 27.6054 8.32853 27.5997L8.29213 27.5894L6.91262 26.5846L6.90771 26.5589C6.89912 26.5143 6.89503 26.4563 6.89013 26.2981C6.88195 26.0319 6.89012 24.8526 6.90117 24.7573L6.90362 24.7356L6.9163 24.7381C6.92325 24.7397 6.94207 24.7483 6.95802 24.7577Z" fill="white"/>
<path d="M6.9572 28.2378C7.14002 28.3183 8.18212 29.0836 8.35389 29.263L8.37925 29.2896V29.8329C8.37925 30.2629 8.38088 30.4514 8.38784 30.7392C8.39234 30.9387 8.3952 31.103 8.39438 31.1038C8.39356 31.1051 8.35266 31.0879 8.30318 31.0662L8.21402 31.0266L7.55105 30.5033C7.18664 30.2155 6.88522 29.9772 6.88154 29.9735C6.87499 29.9674 6.87499 29.949 6.8844 29.6481C6.89012 29.4658 6.89462 29.2487 6.89462 29.1412V28.9532L6.88031 28.9246C6.87254 28.9086 6.86313 28.882 6.85986 28.8653C6.85045 28.8224 6.84718 28.6781 6.85332 28.5963C6.86599 28.4328 6.89871 28.2607 6.92203 28.2349C6.93021 28.2255 6.93021 28.2255 6.9572 28.2378Z" fill="white"/>
<path d="M6.93143 31.67C7.02345 31.7142 7.21323 31.8393 7.50197 32.0461C7.87619 32.3135 8.268 32.6172 8.35798 32.7092L8.37966 32.7312L8.39602 34.467L8.38579 34.4776C8.37802 34.4858 8.36493 34.4911 8.33671 34.4981L8.29786 34.5079L8.25533 34.4756C8.23201 34.458 7.91178 34.2143 7.54328 33.9343L6.87336 33.4254L6.87581 32.9389C6.87704 32.6712 6.87826 32.2726 6.87826 32.0526V31.6533H6.88767C6.89299 31.6533 6.91262 31.6606 6.93143 31.67Z" fill="white"/>
<path d="M6.94616 35.0863C7.56168 35.5589 8.30972 36.1455 8.37843 36.2093L8.40174 36.2309L8.40297 36.9802C8.4042 37.7193 8.40133 37.9896 8.39234 37.9986C8.38293 38.008 8.31136 37.9675 8.16453 37.869C7.79276 37.6196 7.05822 37.0747 6.92039 36.9459L6.89462 36.9218V36.6062C6.89462 35.854 6.89994 35.0585 6.90485 35.0585C6.90771 35.0585 6.92612 35.0712 6.94616 35.0863Z" fill="white"/>
<path fill-rule="evenodd" clip-rule="evenodd" d="M18.1848 12.7709C18.3595 12.7754 18.5468 12.784 18.6899 12.7934C20.4699 12.9144 21.9001 13.4483 23.0477 14.4204C23.3377 14.6661 23.6321 14.9625 23.8857 15.2646C24.0968 15.5156 24.2693 15.7466 24.4603 16.0331C24.6325 16.2911 24.6967 16.399 24.7818 16.5707C24.8869 16.7841 24.9626 16.9799 25.0742 17.327C25.2125 17.7582 25.2575 17.8915 25.3307 18.0832C25.4395 18.3673 25.5004 18.6134 25.5462 18.9519C25.666 19.8329 25.5822 20.991 25.338 21.8359C25.2366 22.1871 25.0575 22.6078 24.8174 23.0603C24.7315 23.2222 24.6722 23.3289 24.4473 23.7225L24.2383 24.0884L23.3225 25.2686L22.9888 25.6557C22.8052 25.8687 22.6498 26.0518 22.6432 26.0629C22.6207 26.1017 22.5573 26.1941 22.5156 26.2489C22.4031 26.3969 22.3144 26.4929 21.9762 26.8335C21.6796 27.1319 21.5921 27.2239 21.4944 27.3404C21.3913 27.4634 21.3214 27.5619 21.2355 27.7046C21.0608 27.9957 20.9161 28.299 20.8236 28.5692C20.777 28.7045 20.7635 28.8047 20.7574 29.0532C20.7496 29.3647 20.7312 29.4853 20.6727 29.6043L20.6519 29.646H20.6003C20.3091 29.6455 16.2757 29.6255 16.2749 29.6247C16.2716 29.6214 16.243 29.4882 16.2303 29.4191C16.2094 29.3058 16.198 29.2245 16.1685 28.9841C16.1305 28.6788 16.1133 28.5725 16.0806 28.4461C16.0311 28.2544 15.9869 28.1584 15.8323 27.9078C15.5992 27.5292 15.3305 27.1617 14.9763 26.7374C14.7592 26.477 14.5919 26.2877 14.1019 25.7485C13.4181 24.9963 13.1707 24.7085 12.8758 24.3235C12.0701 23.2716 11.6222 22.2848 11.4349 21.1471C11.3494 20.6292 11.3224 20.1198 11.3449 19.4322C11.3625 18.8767 11.4161 18.4708 11.5167 18.1204C11.5462 18.0182 11.5736 17.943 11.6451 17.7644C11.684 17.6675 11.7523 17.4937 11.7965 17.3781C12.086 16.6206 12.1977 16.4027 12.5101 15.9861C12.5846 15.8868 12.6296 15.8291 12.8455 15.5569C13.0087 15.3504 13.0999 15.2274 13.2271 15.0418C13.2995 14.9359 13.3592 14.8627 13.4627 14.754C13.9068 14.2855 14.7305 13.768 15.7289 13.3302C15.9796 13.2202 16.3358 13.0796 16.4258 13.0551C16.5186 13.0301 16.7137 12.9921 17.1971 12.9058C17.6887 12.818 17.872 12.7824 17.8924 12.7705C17.9006 12.766 17.9922 12.766 18.1848 12.7709ZM18.0155 13.7251C18.0654 13.723 18.0826 13.721 18.0953 13.7148C18.1096 13.7083 18.1186 13.7075 18.1787 13.7095C18.6249 13.7234 18.8985 13.8412 18.9505 14.0423C18.9582 14.0738 18.9595 14.1388 18.9521 14.1764C18.9337 14.2716 18.874 14.3861 18.8053 14.4564C18.7214 14.5418 18.6233 14.586 18.467 14.6093C18.4233 14.6158 18.382 14.6166 18.0887 14.6166C17.7317 14.6171 17.7088 14.6183 17.5898 14.6416C17.5215 14.6547 17.5595 14.6432 17.02 14.8125C16.6458 14.9298 16.5276 14.9682 16.4753 14.9907C15.9604 15.2098 15.4483 15.5295 15.0348 15.8909C14.7019 16.1815 14.4254 16.5045 14.2316 16.829C14.1821 16.912 14.122 17.033 14.0434 17.2084C13.9363 17.4471 13.8582 17.5972 13.7854 17.7039C13.6373 17.9201 13.4901 18.0109 13.3187 17.9917C13.1833 17.9765 13.0566 17.9095 12.9858 17.8155C12.9531 17.7721 12.9232 17.7006 12.9105 17.6356C12.9032 17.5964 12.904 17.5023 12.9126 17.4537C12.9384 17.3086 13.0005 17.1769 13.1698 16.9059C13.2038 16.8519 13.2549 16.7657 13.2839 16.7146C13.4475 16.4243 13.6099 16.1831 13.8054 15.9387C14.2549 15.3766 14.8279 14.8918 15.4876 14.5157C15.9943 14.2263 16.5841 13.9838 17.0851 13.8587C17.4106 13.7774 17.6822 13.7386 18.0155 13.7251ZM15.4315 18.799C15.4798 18.7651 15.5236 18.7479 15.5837 18.7393C15.6528 18.7295 15.7595 18.7455 15.8659 18.7814C16.0033 18.828 16.1309 18.8918 16.4544 19.0754C16.5534 19.1318 16.6683 19.196 16.71 19.2189C17.0642 19.4106 17.2908 19.4723 17.4589 19.422C17.4842 19.4143 17.5014 19.4008 17.8127 19.1477C17.9926 19.001 18.1501 18.873 18.1623 18.8632C18.2155 18.8207 18.3006 18.7782 18.3754 18.7573C18.449 18.7369 18.5611 18.7402 18.6024 18.7635C18.609 18.7675 18.7897 18.9119 19.004 19.084C19.3251 19.3423 19.3967 19.3983 19.411 19.4016C19.5251 19.4278 19.9046 19.3198 20.4261 19.1126C20.7267 18.9932 21.0784 18.8338 21.1917 18.7663L21.2289 18.7438L21.2633 18.7492C21.397 18.7708 21.5377 18.8383 21.6285 18.9241C21.6915 18.9838 21.7287 19.0443 21.7455 19.1138C21.7561 19.1596 21.7549 19.2356 21.7422 19.281C21.7361 19.3035 21.6682 19.4278 21.4334 19.8472C21.1467 20.3602 21.132 20.3872 21.1152 20.4379C21.0919 20.5086 21.0212 20.7044 20.9823 20.8058C20.9111 20.9914 20.833 21.1831 20.6367 21.654C20.4923 22.0003 20.3897 22.2582 20.3112 22.4724L20.2764 22.5677L19.905 24.4903L19.8805 24.8206C19.8556 25.1533 19.8543 25.168 19.8396 25.2216C19.8196 25.2948 19.8057 25.4121 19.7979 25.5703C19.7922 25.6909 19.795 26.0662 19.804 26.3347C19.8073 26.4349 19.8126 26.5874 19.8151 26.674C19.822 26.8842 19.822 27.3837 19.8155 27.5059C19.8016 27.7557 19.7791 27.9335 19.7435 28.0782C19.6809 28.3305 19.5836 28.4662 19.4384 28.5038C19.404 28.5128 19.3329 28.5128 19.2895 28.5034C19.1472 28.4735 19.0049 28.3844 18.9374 28.2826C18.8973 28.2225 18.9002 28.2736 18.9079 27.7802C18.9116 27.5415 18.9157 27.0677 18.9169 26.7272C18.919 26.1246 18.9227 25.8434 18.9312 25.5539C18.9599 24.6113 19.0376 23.9188 19.177 23.3608C19.2057 23.2455 19.1995 23.2676 19.4752 22.3355C19.7153 21.5228 19.7259 21.4885 19.7697 21.3761C19.795 21.3119 19.8351 21.206 19.8596 21.141C19.8838 21.0756 19.9189 20.9873 19.9374 20.9448C19.9558 20.9019 19.9827 20.8356 19.9975 20.7976C20.0265 20.7216 20.0351 20.706 20.0907 20.6239C20.2196 20.435 20.2666 20.3218 20.2523 20.2331C20.2457 20.1934 20.2433 20.1889 20.2187 20.1783C20.2007 20.1701 20.1905 20.1689 20.1562 20.1689C20.0854 20.1693 20.0028 20.1906 19.8474 20.2486C19.6261 20.3308 19.5954 20.3398 19.5206 20.3455C19.4711 20.3488 19.3959 20.3455 19.3517 20.3377C19.1456 20.3009 18.91 20.1767 18.7071 19.9972C18.6499 19.9465 18.6229 19.9175 18.546 19.8235C18.5043 19.7724 18.483 19.7499 18.4801 19.7523C18.409 19.8067 18.3239 19.8762 18.2789 19.9163C18.0307 20.137 17.791 20.2711 17.562 20.3169C17.4892 20.3316 17.4532 20.3353 17.373 20.3349C17.2822 20.3349 17.2299 20.3287 17.146 20.3071C17.0716 20.2879 17.0401 20.2748 16.9636 20.231C16.8646 20.1742 16.8078 20.1542 16.7485 20.1538C16.7039 20.1538 16.6826 20.1607 16.661 20.182L16.6417 20.2008L16.7571 20.4522C16.8205 20.5904 16.8933 20.7531 16.9186 20.814C16.944 20.8745 16.9947 20.9934 17.0315 21.0776C17.1374 21.3209 17.2102 21.513 17.2646 21.6949C17.3022 21.8208 17.3243 21.8846 17.3885 22.053L17.4667 22.2578L17.5795 22.7541C17.6589 23.1036 17.6986 23.2684 17.7125 23.3117C17.8658 23.783 17.9542 24.4616 17.9906 25.4558C18.0057 25.8744 18.011 26.3409 18.011 27.3526V28.1968L17.9926 28.2328C17.9341 28.3493 17.838 28.4286 17.6981 28.476C17.5407 28.5295 17.438 28.523 17.3476 28.4539C17.2434 28.3734 17.1726 28.1862 17.1423 27.9086C17.1186 27.6936 17.1166 27.38 17.1358 26.8743C17.1595 26.2419 17.153 25.993 17.1088 25.8258C17.1035 25.8053 17.0973 25.7816 17.0949 25.7726C17.0928 25.7636 17.0753 25.509 17.056 25.2065L17.0555 25.1976C17.0213 24.6574 17.0211 24.6545 16.9865 24.3276L16.9517 23.9985L16.6524 22.5922L16.501 22.1753C16.2646 21.5236 16.1477 21.2121 16.0238 20.9035L15.9677 20.7645L15.7076 20.2596C15.5645 19.9825 15.4377 19.7339 15.4254 19.7082C15.4131 19.6824 15.3751 19.6142 15.3407 19.5569C15.2266 19.366 15.196 19.2879 15.196 19.187C15.1964 19.1252 15.2156 19.0578 15.2385 19.0394C15.2442 19.0353 15.2839 18.9834 15.3277 18.9241C15.3947 18.833 15.4103 18.8142 15.4315 18.799ZM12.695 19.3337C12.7658 19.2965 12.8206 19.2626 12.8353 19.2462C12.8414 19.2393 12.848 19.2381 12.8799 19.2381C13.003 19.2381 13.149 19.2859 13.2349 19.3542C13.3142 19.4171 13.3563 19.5185 13.378 19.698C13.3813 19.7262 13.3829 19.8341 13.3833 20.0454C13.3837 20.3067 13.385 20.361 13.3907 20.4121C13.4054 20.5364 13.4152 20.5793 13.4619 20.7138C13.5183 20.8757 13.5396 20.9444 13.6471 21.3045C13.6974 21.4729 13.7477 21.6246 13.785 21.7199L13.8128 21.791V21.9709L13.7972 22.0036C13.7441 22.1152 13.6492 22.2067 13.5216 22.2709C13.4426 22.3102 13.3899 22.322 13.3338 22.3126C13.1277 22.2779 12.9056 21.9512 12.7249 21.4165C12.5842 21.0004 12.4909 20.5536 12.4545 20.1211C12.4443 20.0021 12.4443 19.7773 12.4541 19.6963C12.4725 19.5479 12.4954 19.4821 12.5469 19.4298C12.5793 19.3967 12.6005 19.3832 12.695 19.3337Z" fill="white"/>
<path fill-rule="evenodd" clip-rule="evenodd" d="M17.5938 1.27301C18.6432 1.28242 19.5201 1.28978 19.5426 1.28896C19.6154 1.28691 19.7757 1.27956 19.9597 1.26934C20.3896 1.24563 20.5798 1.24563 20.7695 1.26974C20.8783 1.28323 20.9826 1.3094 21.0644 1.34374C21.0898 1.35436 21.1025 1.36254 21.1131 1.3744L21.127 1.39116L21.136 1.37603C21.1405 1.36785 21.1466 1.36131 21.1491 1.36131C21.1581 1.36131 21.2149 1.40873 21.2403 1.43776C21.401 1.62212 21.5102 1.98227 21.6055 2.64084C21.6309 2.81417 21.6587 3.0435 21.7082 3.48091C21.7761 4.08266 21.8047 4.30381 21.8452 4.55236C21.9315 5.07807 22.0333 5.40551 22.1695 5.59642C22.1957 5.6328 22.2488 5.68758 22.2795 5.70966C22.3036 5.72683 22.3343 5.73745 22.8431 5.90302L23.3813 6.07839L24.1183 6.38866C24.5236 6.55954 24.8709 6.70507 24.8901 6.71243C24.9367 6.73082 25.0381 6.77906 25.0905 6.8085C25.133 6.8318 25.198 6.86981 25.3584 6.96384C25.5514 7.07748 25.6905 7.13921 25.8316 7.17396C25.9105 7.19358 25.9563 7.1993 26.0516 7.20135L26.1395 7.20339L26.5052 6.95771C26.8058 6.75535 27.0434 6.58938 27.8405 6.02606C28.7611 5.37526 28.827 5.32948 29.1411 5.12263C29.3231 5.00285 29.4744 4.90392 29.4773 4.9027C29.4797 4.90188 29.4928 4.90638 29.5059 4.91292C29.5476 4.93417 29.6041 4.95012 29.6949 4.96729C29.7898 4.98527 29.8356 4.99713 29.8728 5.01348C29.8945 5.02329 30.0286 5.15615 31.4498 6.57875C32.3042 7.43354 33.0171 8.14934 33.0338 8.16978C33.076 8.22006 33.1295 8.27116 33.2334 8.35987C33.4109 8.51153 33.4776 8.58634 33.5291 8.68936C33.5778 8.78624 33.5811 8.84838 33.5438 8.9608C33.4702 9.18195 33.2428 9.54128 32.8146 10.1116C32.7111 10.2497 32.5745 10.4276 32.3218 10.7534C32.0292 11.1306 32.0094 11.1567 31.9091 11.2882L31.9054 11.293C31.5725 11.7308 31.3836 12.0133 31.3132 12.178C31.2756 12.2659 31.2601 12.3705 31.2633 12.5132C31.2654 12.6064 31.2711 12.6518 31.2862 12.7009C31.2903 12.7139 31.4335 12.9948 31.6048 13.3251L31.9161 13.9256L32.2645 14.7636L32.4572 15.3789C32.5631 15.7173 32.6555 16.0072 32.6629 16.0235C32.7091 16.1245 32.8007 16.2202 32.9287 16.3007C32.9782 16.3318 33.0976 16.391 33.1647 16.4172C33.4334 16.5235 33.7946 16.6024 34.3091 16.6682C34.4849 16.6907 34.6816 16.7124 35.082 16.7524C35.4763 16.7921 35.6514 16.8109 35.806 16.8305C36.2231 16.8832 36.5082 16.9437 36.7033 17.021C36.8583 17.0823 36.9797 17.1551 37.048 17.2278C37.0795 17.2618 37.0947 17.2838 37.1139 17.3239L37.129 17.3554L37.1278 17.7069C37.127 17.9003 37.1229 19.0879 37.1184 20.3457L37.1098 22.6329L37.0959 22.6595C37.0235 22.7973 36.7957 22.9117 36.4174 23.0016C36.0984 23.0773 35.7045 23.1357 34.9798 23.2154C34.0653 23.316 33.8841 23.3381 33.6199 23.3831C33.2964 23.4382 33.058 23.5057 32.9578 23.5711C32.7692 23.6941 32.5827 24.0633 32.3426 24.7893C32.2895 24.9504 32.2727 25.0023 32.1521 25.3866C32.078 25.622 32.0236 25.7839 31.9897 25.8706C31.9701 25.9208 31.9079 26.039 31.6404 26.5349C31.4613 26.8664 31.3108 27.1497 31.3055 27.1644C31.2911 27.2045 31.2715 27.2899 31.2617 27.3565C31.2552 27.3999 31.2527 27.4367 31.2523 27.4935C31.2519 27.5748 31.2564 27.6161 31.2707 27.659C31.2768 27.6782 31.4568 27.9403 32.1594 28.9537C32.6437 29.6523 33.1582 30.3906 33.3021 30.5942L33.5647 30.9641L33.5622 31.0009C33.5504 31.2115 33.5279 31.274 33.3991 31.4543C33.3623 31.5062 33.3046 31.5642 31.6478 33.219L29.9349 34.9303L29.8797 34.9634C29.7595 35.0345 29.6875 35.0619 29.6041 35.0688C29.5345 35.0742 29.4716 35.0574 29.3624 35.003C29.1468 34.8967 28.8532 34.6915 28.2438 34.2222C27.6794 33.7873 27.4708 33.6291 27.2704 33.4839C26.8786 33.1994 26.6054 33.0249 26.3612 32.903C26.1559 32.8008 26.0021 32.7526 25.8786 32.7526C25.7952 32.7526 25.8422 32.7301 25.1788 33.0829C24.6647 33.356 24.5731 33.4034 24.522 33.4222C24.4893 33.4341 24.2574 33.5126 24.0067 33.5968C23.423 33.7922 23.2529 33.8506 23.019 33.9381C22.5053 34.1298 22.1985 34.2835 22.118 34.3894C22.1077 34.4033 22.0897 34.4254 22.0783 34.4389C22.0456 34.4773 22.01 34.5738 21.9687 34.7373C21.8934 35.0333 21.8452 35.3489 21.7347 36.2601C21.6669 36.8205 21.6305 37.0899 21.5851 37.3618C21.4791 37.9991 21.3589 38.3686 21.2059 38.524C21.1691 38.5616 21.1507 38.5747 21.0963 38.602C20.9973 38.6511 20.8628 38.6858 20.6955 38.7042C20.4734 38.7292 20.2342 38.7304 19.7409 38.7096C19.5839 38.703 19.3643 38.7026 16.7758 38.7026C14.2687 38.7026 13.9345 38.7034 13.5346 38.71C12.7072 38.7235 12.51 38.7255 11.8066 38.728C10.7395 38.7316 10.2091 38.7198 9.92933 38.6858C9.8369 38.6748 9.76164 38.6556 9.76164 38.6433C9.76164 38.6409 9.75551 38.6258 9.74774 38.6094C9.73301 38.5779 9.72442 38.5469 9.71502 38.4921C9.69089 38.3531 9.67166 38.053 9.65939 37.6254C9.63976 36.9517 9.63813 35.5516 9.6553 34.0975C9.66717 33.0903 9.66839 32.4178 9.67575 23.9574C9.68271 15.8016 9.68394 15.1152 9.69007 15.1107C9.70111 15.1025 9.77268 15.0809 9.81645 15.0723C9.93014 15.0502 10.0046 15.0506 10.279 15.0747C10.3764 15.0829 10.5264 15.0813 10.5796 15.0706C10.7375 15.0392 10.8524 14.9668 10.9849 14.8155C11.1305 14.6492 11.2667 14.4305 11.4876 14.0074C11.5309 13.924 11.5784 13.834 11.5927 13.8075C11.6082 13.7784 12.0573 13.1023 12.7072 12.1302L13.7951 10.5011L13.7853 9.19626C13.7771 8.09456 13.7763 7.88812 13.7812 7.86727C13.8282 7.65838 13.8413 7.1715 13.8086 6.84529C13.7963 6.72183 13.7705 6.59551 13.7456 6.53665C13.7092 6.44998 13.6184 6.35964 13.5211 6.31345C13.4556 6.28238 13.3644 6.25948 13.2687 6.25049C13.2049 6.24436 13.0507 6.24436 12.8965 6.25049C12.7231 6.25785 12.6282 6.25335 12.5513 6.23373C12.5174 6.22556 12.4507 6.19449 12.4393 6.18181C12.4327 6.17446 12.4327 6.1348 12.4426 5.4701C12.4479 5.08298 12.4536 4.76452 12.4548 4.76248C12.4561 4.76044 12.4671 4.75512 12.4798 4.75063C12.5734 4.71547 12.7493 4.71588 13.4937 4.75226C13.7121 4.76289 13.9898 4.76125 14.101 4.74817C14.2094 4.73591 14.2589 4.71997 14.3902 4.65538C14.8797 4.41541 15.1145 4.05772 15.1803 3.4523C15.1971 3.29777 15.1983 3.26956 15.1999 2.87344L15.202 2.48223L15.1877 2.43808C15.173 2.39229 15.1611 2.33751 15.1513 2.26884C15.1427 2.20752 15.1439 1.93853 15.1533 1.84982C15.1775 1.6209 15.2257 1.38625 15.2744 1.26198L15.2789 1.25012L15.4826 1.25298C15.5942 1.25462 16.5443 1.26361 17.5938 1.27301ZM17.0375 12.0182L17.1296 11.9887L17.9271 11.8841L18.1704 11.8857C18.399 11.8874 18.4743 11.8894 18.6694 11.9C19.098 11.9233 19.5066 11.9695 19.9066 12.039C21.3057 12.2835 22.5086 12.8219 23.5118 13.6533C24.3535 14.3503 25.0704 15.2579 25.6802 16.3968C25.798 16.6167 25.7625 16.5231 26.0181 17.2818L26.2467 17.9604L26.3068 18.2997C26.3526 18.5593 26.3698 18.6492 26.3808 18.6819C26.4594 18.9227 26.5003 19.2289 26.5093 19.6467C26.5224 20.2231 26.4606 20.9311 26.3502 21.4801C26.306 21.6996 26.2733 21.821 26.2128 21.9927C25.9003 22.8774 25.6197 23.5188 25.3003 24.0796C25.2504 24.1676 25.2415 24.1796 24.7435 24.8533L24.731 24.8702L24.2132 25.5713L23.4648 26.4224C22.9609 26.9952 22.7098 27.2838 22.6963 27.305C22.6443 27.3876 22.5429 27.5131 22.4133 27.6545C22.2374 27.8471 22.2022 27.8863 22.1564 27.9411C22.0374 28.083 21.9589 28.1999 21.9 28.3233C21.8795 28.3662 21.8595 28.4296 21.7384 28.8302C21.6628 29.082 21.5953 29.3057 21.5887 29.3269C21.5458 29.4688 21.5348 29.6098 21.5466 29.8776C21.5544 30.0562 21.5523 30.1212 21.5368 30.1936C21.5041 30.3424 21.4055 30.4462 21.2194 30.5271L21.1744 30.5463L20.6162 30.5378C20.0943 30.5292 19.9368 30.5288 18.1991 30.5284C16.5913 30.5284 16.3238 30.5292 16.2196 30.5345C16.0805 30.5418 15.9185 30.5427 15.8535 30.5369C15.7496 30.5275 15.6711 30.5087 15.649 30.4879C15.6425 30.4813 15.6294 30.4736 15.6208 30.4699C15.5987 30.4609 15.5382 30.3992 15.512 30.3591C15.4813 30.3121 15.4568 30.2586 15.4343 30.1899C15.3865 30.0452 15.3648 29.8882 15.3423 29.5354C15.312 29.0571 15.2952 28.9512 15.2167 28.755C15.1603 28.6136 15.0883 28.4713 14.9885 28.3029C14.9452 28.2301 14.7386 27.8859 14.7231 27.8606C14.719 27.8536 14.3014 27.3847 13.7955 26.8186C13.29 26.2528 12.8679 25.7774 12.8581 25.7626C12.7358 25.5791 12.5767 25.3559 12.2156 24.8608C11.6467 24.0809 11.3829 23.668 11.1342 23.1664C11.0005 22.8974 11.0238 22.9632 10.8029 22.2302L10.6091 21.5864L10.5575 21.149C10.5125 20.7672 10.5044 20.7063 10.4937 20.6687C10.4627 20.562 10.4393 20.4038 10.4234 20.1965C10.4148 20.0857 10.4164 19.697 10.4254 19.5813C10.4426 19.3679 10.4672 19.2244 10.5097 19.0907C10.5735 18.8908 10.5935 18.7584 10.6185 18.3835C10.6348 18.1337 10.6496 18.009 10.6757 17.8913C10.6913 17.8222 10.7035 17.783 10.7502 17.6518C11.068 16.7594 11.4516 15.9818 11.908 15.3053C12.5501 14.3532 13.3284 13.6047 14.265 13.0377C14.6908 12.7797 15.2094 12.5332 15.5815 12.4118C15.7562 12.3546 15.8511 12.3293 16.3198 12.2128C16.7079 12.1163 16.8694 12.0725 17.0375 12.0182ZM19.9293 35.1013H17.0211C16.755 35.1013 16.5392 35.3171 16.5392 35.5833C16.5392 35.8495 16.755 36.0653 17.0211 36.0653H19.9293C20.1954 36.0653 20.4112 35.8495 20.4112 35.5833C20.4112 35.3171 20.1954 35.1013 19.9293 35.1013ZM17.9784 7.7145V9.4398C17.9784 9.70323 18.192 9.91679 18.4554 9.91679C18.7188 9.91679 18.9324 9.70323 18.9324 9.4398V7.7145C18.9324 7.45106 18.7188 7.2375 18.4554 7.2375C18.192 7.2375 17.9784 7.45106 17.9784 7.7145ZM24.0929 8.99024L23.2303 10.4844C23.0986 10.7125 23.1768 11.0043 23.4049 11.136C23.633 11.2677 23.9247 11.1895 24.0565 10.9614L24.9191 9.46723C25.0508 9.23909 24.9726 8.94736 24.7445 8.81565C24.5164 8.68393 24.2247 8.76209 24.0929 8.99024ZM28.6427 13.2924L27.1486 14.1551C26.9204 14.2868 26.8423 14.5785 26.974 14.8066C27.1057 15.0348 27.3974 15.113 27.6256 14.9812L29.1197 14.1186C29.3478 13.9869 29.426 13.6951 29.2943 13.467C29.1626 13.2389 28.8708 13.1607 28.6427 13.2924ZM20.5302 33.3458H16.4202C16.154 33.3458 15.9383 33.5616 15.9383 33.8277C15.9383 34.0939 16.154 34.3097 16.4202 34.3097H20.5302C20.7964 34.3097 21.0121 34.0939 21.0121 33.8277C21.0121 33.5616 20.7964 33.3458 20.5302 33.3458ZM21.1143 31.5338H15.8371C15.5736 31.5338 15.3601 31.7473 15.3601 32.0107C15.3601 32.2742 15.5736 32.4877 15.8371 32.4877H21.1143C21.3778 32.4877 21.5913 32.2742 21.5913 32.0107C21.5913 31.7473 21.3778 31.5338 21.1143 31.5338Z" fill="#007AA9"/>
<path d="M0.579464 0.0065407C0.567604 0.0212573 0.479671 0.0748093 0.428548 0.099337C0.398283 0.113645 0.351249 0.136128 0.324665 0.148801C0.220373 0.198265 0.15698 0.253861 0.0984952 0.347475C0.071911 0.38999 0.0535065 0.429643 0.0490077 0.453761C0.0154707 0.622185 -0.00416068 1.36742 0.000747173 2.26881C0.00401907 2.92492 0.0142438 3.319 0.0342841 3.5749C0.0461448 3.72698 0.0506436 3.74374 0.119354 3.88559C0.296445 4.25023 0.552062 4.52085 0.830174 4.63736C0.943054 4.68478 1.07638 4.71544 1.23834 4.73179C1.34509 4.74283 1.58189 4.74405 1.81093 4.73547C2.04977 4.72648 2.40559 4.72525 2.50416 4.73302C2.58187 4.73915 2.68984 4.75141 2.74996 4.76082L2.79331 4.76777L2.80108 4.78453C2.82808 4.84584 2.84239 5.02122 2.84771 5.36133C2.85139 5.57309 2.84116 6.05669 2.83094 6.15276L2.82849 6.17565L2.7974 6.192C2.69352 6.24678 2.57205 6.25537 2.29353 6.22757C2.15038 6.21367 1.99701 6.20999 1.92708 6.21939C1.80724 6.23534 1.71236 6.27867 1.6412 6.35143C1.59662 6.39681 1.5778 6.42706 1.49928 6.58158L1.4277 6.72262L1.43507 8.39867C1.43916 9.3205 1.44243 10.1741 1.44284 10.2955V10.5162L2.93769 12.7478C4.33233 14.8306 4.43335 14.9803 4.45176 14.9917C4.5082 15.0269 4.59245 15.0596 4.66361 15.0739C4.77649 15.0968 4.90328 15.1013 5.1319 15.0906C5.30286 15.0829 5.41492 15.0841 5.46727 15.0947C5.50367 15.1017 5.55193 15.1188 5.56379 15.1287L5.57238 15.1356L5.57934 17.8663C5.58547 20.2382 5.58629 21.6411 5.58424 28.5379C5.58302 32.9055 5.58097 36.5466 5.57974 36.63C5.57238 37.0911 5.61369 37.3957 5.70898 37.5804C5.79078 37.7399 5.95601 37.8928 6.25703 38.0873C6.28934 38.1086 6.37972 38.1638 6.45784 38.2104C6.65784 38.3302 6.72982 38.3776 6.87419 38.4876C7.02633 38.6028 7.15312 38.7083 7.48154 38.9928C7.6165 39.1097 7.76087 39.234 7.80259 39.2692C8.22794 39.6265 8.52282 39.8223 8.81034 39.938L8.85532 39.9559L10.1743 39.9637C11.315 39.9707 11.9906 39.9719 15.1623 39.9719C17.4743 39.9719 18.9005 39.9735 19.0191 39.976C19.1225 39.9784 19.3029 39.9829 19.4199 39.9862C20.116 40.0058 20.4612 40.0046 20.7818 39.9821C21.2456 39.949 21.5699 39.8705 21.8153 39.7319C22.1495 39.5431 22.4362 39.2271 22.6308 38.8334C22.6816 38.7304 22.6967 38.6936 22.718 38.6188C22.7797 38.4033 22.83 38.0959 22.9494 37.1982C23.039 36.5262 23.0815 36.2351 23.1298 35.9718C23.2104 35.532 23.284 35.3063 23.3617 35.2605C23.3711 35.2552 23.7388 35.1211 24.1784 34.9621L24.978 34.6735L25.8725 34.2148L25.9158 34.2173C25.9665 34.2197 26.0062 34.23 26.0532 34.2529C26.1297 34.2892 26.1935 34.3395 26.3277 34.4695C26.4312 34.5697 26.4806 34.613 26.5228 34.6416C26.5371 34.651 27.0111 34.987 27.5759 35.3881C28.407 35.9776 28.6123 36.1219 28.6495 36.1407C28.7444 36.1889 28.8327 36.2175 29.0249 36.2621C29.0867 36.2764 29.1566 36.2927 29.1804 36.2985C29.2241 36.3087 29.3133 36.3344 29.3971 36.3602C29.4777 36.3855 29.5251 36.3921 29.6282 36.3921C29.7243 36.3925 29.7799 36.3868 29.8756 36.368C30.0973 36.3242 30.3468 36.2245 30.5153 36.1133C30.8224 35.9093 31.1517 35.6301 31.5255 35.2564C31.7124 35.0696 31.8682 34.9049 32.2416 34.5002C32.7958 33.9001 32.9087 33.7868 33.4216 33.3188C33.9254 32.8589 34.1263 32.6586 34.3438 32.3982C34.568 32.13 34.7487 31.8418 34.8277 31.6259C34.9148 31.388 34.9324 31.1207 34.8792 30.8394C34.8105 30.4736 34.6277 30.0762 34.3111 29.6049C34.1528 29.3694 34.013 29.1818 33.669 28.7464C33.3753 28.3744 33.2649 28.2252 33.1741 28.078C33.1578 28.0514 33.0567 27.9186 32.9259 27.7514L32.705 27.4701L32.7079 27.4517C32.7095 27.4403 32.8612 27.1018 33.1034 26.57L33.496 25.707L33.6383 25.2708C33.7169 25.0305 33.7847 24.8281 33.7896 24.8203C33.8036 24.7975 33.8396 24.7672 33.8743 24.7496C33.95 24.7104 34.049 24.6908 34.2355 24.6789C34.4354 24.6662 34.4952 24.6597 34.5708 24.6417C34.6007 24.6348 34.7929 24.6049 35.0326 24.5706C35.3863 24.5195 35.4514 24.5088 35.5041 24.4945C35.7119 24.4385 35.9577 24.3866 36.3929 24.3069C36.7438 24.2427 36.8706 24.2166 37.0268 24.1777C37.4341 24.0759 37.709 23.9423 37.9307 23.7387C38.1274 23.5584 38.275 23.3213 38.3912 23.0004C38.4415 22.861 38.4497 22.8062 38.4492 22.6268C38.4492 22.5421 38.4464 22.4628 38.4402 22.3794C38.4353 22.312 38.4284 22.2106 38.4251 22.1546C38.4137 21.9743 38.421 21.8063 38.4439 21.7315C38.4468 21.7225 38.4521 21.5136 38.4587 21.16L38.4685 20.6028L38.4582 19.2714C38.4497 18.1047 38.4476 17.9371 38.4419 17.9174C38.43 17.8753 38.4194 17.803 38.4169 17.7466C38.4137 17.6816 38.4186 17.6108 38.4357 17.4759C38.4672 17.2262 38.4615 17.144 38.403 16.9915C38.3372 16.8207 38.2505 16.6514 38.1552 16.5079C38.0578 16.3616 37.9327 16.2173 37.81 16.1093C37.5462 15.878 37.2791 15.7553 36.8501 15.6695C36.6489 15.629 36.4845 15.6069 36.0452 15.5607C35.8857 15.5436 35.7152 15.5252 35.6669 15.5195C35.2923 15.4753 35.0272 15.4213 34.7999 15.3425L34.741 15.322L33.8449 15.201L33.8281 15.1847C33.8113 15.1687 33.8056 15.1528 33.534 14.4079L33.2571 13.6476L32.9811 13.108C32.7263 12.6093 32.705 12.5663 32.703 12.5438C32.6977 12.4805 32.7353 12.3991 32.8195 12.2937C32.858 12.2454 32.8707 12.2311 32.9619 12.1326C33.0473 12.0406 33.0788 12.003 33.0993 11.9674C33.213 11.7712 33.3312 11.6106 33.6895 11.1642C34.1258 10.6209 34.2984 10.385 34.4735 10.0927C34.824 9.50855 34.9508 8.99633 34.8628 8.51927C34.7827 8.0839 34.5311 7.68737 34.0473 7.23361C33.9038 7.09912 33.8261 7.03044 33.5463 6.79007C33.224 6.51332 33.1136 6.41275 32.9553 6.2521C32.8302 6.12537 32.7353 6.015 32.6588 5.90707C32.6367 5.8756 32.5521 5.78893 32.2175 5.45413C31.8118 5.04779 31.8032 5.0392 31.7529 5.00568C31.5926 4.89899 31.4801 4.78493 31.22 4.46689C31.0654 4.27803 31.0143 4.21957 30.9231 4.12841C30.8155 4.02131 30.7349 3.95631 30.6364 3.89826C30.2842 3.68937 29.9566 3.56918 29.6716 3.54384C29.593 3.53689 29.4544 3.54097 29.3889 3.55201C29.3088 3.56591 29.2667 3.57817 29.1039 3.63663C28.8393 3.73188 28.7517 3.76704 28.6323 3.82672C28.4716 3.90725 28.4119 3.94895 27.8491 4.3741C27.3657 4.73915 27.142 4.90635 26.9371 5.05474C26.3121 5.5085 25.9571 5.72393 25.8328 5.72475H25.8042L24.6958 5.1414L23.9907 4.89326C23.5204 4.7277 23.2819 4.64186 23.2734 4.63532L23.2611 4.6251L23.1744 4.08998C23.0877 3.55528 23.0873 3.55446 23.0648 3.48088C23.0116 3.31041 22.9732 3.15712 22.9335 2.95967C22.8942 2.76427 22.8701 2.61179 22.8022 2.12777C22.7433 1.70876 22.7045 1.50518 22.6431 1.29342C22.5118 0.839254 22.2934 0.524483 21.9515 0.296784C21.8546 0.231786 21.756 0.178234 21.6448 0.12877C21.4636 0.0486465 21.3106 0.0188045 21.0211 0.00776709C20.9057 0.00327035 20.835 0.00408794 20.3974 0.0163518C20.2612 0.0204397 17.5958 0.0183957 6.49792 0.00613191C3.44892 0.00286156 0.871072 0 0.769644 0C0.606458 0 0.584372 0.000817587 0.579464 0.0065407ZM17.5938 1.27298C18.6432 1.28239 19.5201 1.28975 19.5426 1.28893C19.6154 1.28688 19.7757 1.27953 19.9597 1.26931C20.3896 1.2456 20.5798 1.2456 20.7695 1.26971C20.8783 1.2832 20.9826 1.30937 21.0644 1.34371C21.0898 1.35433 21.1025 1.36251 21.1131 1.37437L21.127 1.39113L21.136 1.376C21.1405 1.36782 21.1466 1.36128 21.1491 1.36128C21.1581 1.36128 21.2149 1.4087 21.2403 1.43773C21.401 1.62209 21.5102 1.98224 21.6055 2.64081C21.6309 2.81414 21.6587 3.04347 21.7082 3.48088C21.7761 4.08263 21.8047 4.30378 21.8452 4.55233C21.9315 5.07804 22.0333 5.40548 22.1695 5.59639C22.1957 5.63277 22.2488 5.68755 22.2795 5.70963C22.3036 5.7268 22.3343 5.73742 22.8431 5.90299L23.3813 6.07836L24.1183 6.38863C24.5236 6.55951 24.8709 6.70504 24.8901 6.7124C24.9367 6.73079 25.0381 6.77903 25.0905 6.80847C25.133 6.83177 25.1981 6.86978 25.3584 6.96381C25.5514 7.07745 25.6905 7.13918 25.8316 7.17393C25.9105 7.19355 25.9563 7.19927 26.0516 7.20132L26.1395 7.20336L26.5052 6.95767C26.8058 6.75532 27.0434 6.58935 27.8405 6.02603C28.7612 5.37523 28.827 5.32945 29.1411 5.1226C29.3231 5.00282 29.4744 4.90389 29.4773 4.90267C29.4797 4.90185 29.4928 4.90635 29.5059 4.91289C29.5476 4.93414 29.6041 4.95009 29.6949 4.96726C29.7898 4.98524 29.8356 4.9971 29.8728 5.01345C29.8945 5.02326 30.0286 5.15612 31.4498 6.57872C32.3042 7.43351 33.0171 8.14931 33.0338 8.16975C33.076 8.22003 33.1295 8.27113 33.2334 8.35984C33.4109 8.5115 33.4776 8.58631 33.5291 8.68933C33.5778 8.78621 33.5811 8.84835 33.5439 8.96077C33.4702 9.18192 33.2428 9.54125 32.8146 10.1115C32.7112 10.2497 32.5746 10.4275 32.3218 10.7533C32.0292 11.1306 32.0094 11.1566 31.9091 11.2881C31.9079 11.2897 31.9067 11.2913 31.9054 11.2929C31.5725 11.7308 31.3836 12.0132 31.3132 12.178C31.2756 12.2659 31.2601 12.3705 31.2633 12.5132C31.2654 12.6064 31.2711 12.6518 31.2862 12.7008C31.2903 12.7139 31.4335 12.9947 31.6048 13.3251L31.9161 13.9256L32.2645 14.7636L32.4572 15.3788C32.5631 15.7173 32.6555 16.0072 32.6629 16.0235C32.7091 16.1245 32.8007 16.2201 32.9287 16.3007C32.9782 16.3317 33.0976 16.391 33.1647 16.4172C33.4334 16.5235 33.7946 16.6024 34.3091 16.6682C34.4849 16.6907 34.6817 16.7123 35.0821 16.7524C35.4763 16.792 35.6514 16.8108 35.806 16.8305C36.2231 16.8832 36.5082 16.9437 36.7033 17.021C36.8583 17.0823 36.9798 17.155 37.0481 17.2278C37.0795 17.2617 37.0947 17.2838 37.1139 17.3239L37.129 17.3554L37.1278 17.7069C37.127 17.9003 37.1229 19.0878 37.1184 20.3457L37.1098 22.6329L37.0959 22.6595C37.0235 22.7972 36.7957 22.9117 36.4174 23.0016C36.0984 23.0772 35.7045 23.1357 34.9798 23.2154C34.0653 23.316 33.8841 23.3381 33.6199 23.383C33.2964 23.4382 33.058 23.5057 32.9578 23.5711C32.7692 23.6941 32.5827 24.0633 32.3427 24.7893C32.2895 24.9503 32.2727 25.0023 32.1521 25.3865C32.078 25.622 32.0236 25.7839 31.9897 25.8705C31.9701 25.9208 31.9079 26.039 31.6404 26.5348C31.4613 26.8664 31.3108 27.1496 31.3055 27.1644C31.2912 27.2044 31.2715 27.2899 31.2617 27.3565C31.2552 27.3998 31.2527 27.4366 31.2523 27.4934C31.2519 27.5748 31.2564 27.6161 31.2707 27.659C31.2768 27.6782 31.4568 27.9403 32.1594 28.9537C32.6437 29.6523 33.1582 30.3906 33.3021 30.5941L33.5647 30.9641L33.5623 31.0009C33.5504 31.2114 33.5279 31.274 33.3991 31.4543C33.3623 31.5062 33.3046 31.5642 31.6478 33.219L29.9349 34.9302L29.8797 34.9633C29.7595 35.0345 29.6875 35.0619 29.6041 35.0688C29.5345 35.0741 29.4716 35.0574 29.3624 35.003C29.1468 34.8967 28.8532 34.6915 28.2438 34.2222C27.6794 33.7872 27.4708 33.629 27.2704 33.4839C26.8786 33.1994 26.6054 33.0248 26.3612 32.903C26.1559 32.8008 26.0021 32.7526 25.8786 32.7526C25.7952 32.7526 25.8422 32.7301 25.1788 33.0829C24.6647 33.356 24.5731 33.4034 24.522 33.4222C24.4893 33.434 24.2574 33.5125 24.0067 33.5967C23.423 33.7921 23.2529 33.8506 23.019 33.9381C22.5053 34.1298 22.1985 34.2835 22.118 34.3894C22.1077 34.4033 22.0897 34.4254 22.0783 34.4389C22.0456 34.4773 22.01 34.5738 21.9687 34.7373C21.8934 35.0332 21.8452 35.3488 21.7347 36.26C21.6669 36.8205 21.6305 37.0899 21.5851 37.3617C21.4791 37.999 21.3589 38.3686 21.2059 38.5239C21.1691 38.5615 21.1507 38.5746 21.0963 38.602C20.9973 38.6511 20.8628 38.6858 20.6955 38.7042C20.4734 38.7291 20.2342 38.7304 19.7409 38.7095C19.5839 38.703 19.3643 38.7026 16.7758 38.7026C14.2687 38.7026 13.9345 38.7034 13.5346 38.7099C12.7072 38.7234 12.51 38.7255 11.8066 38.7279C10.7395 38.7316 10.2091 38.7197 9.92933 38.6858C9.83689 38.6748 9.76164 38.6556 9.76164 38.6433C9.76164 38.6409 9.75551 38.6257 9.74774 38.6094C9.73301 38.5779 9.72442 38.5468 9.71502 38.4921C9.69089 38.3531 9.67166 38.053 9.65939 37.6254C9.63976 36.9517 9.63813 35.5516 9.6553 34.0975C9.66716 33.0902 9.66839 32.4178 9.67575 23.9574C9.68271 15.8015 9.68393 15.1152 9.69007 15.1107C9.70111 15.1025 9.77268 15.0808 9.81644 15.0722C9.93014 15.0502 10.0046 15.0506 10.279 15.0747C10.3763 15.0829 10.5264 15.0812 10.5796 15.0706C10.7375 15.0391 10.8524 14.9668 10.9849 14.8155C11.1305 14.6491 11.2667 14.4304 11.4876 14.0073C11.5309 13.9239 11.5784 13.834 11.5927 13.8074C11.6082 13.7784 12.0573 13.1023 12.7072 12.1301L13.7951 10.5011L13.7853 9.19623C13.7771 8.09453 13.7763 7.88809 13.7812 7.86724C13.8282 7.65835 13.8413 7.17147 13.8086 6.84526C13.7963 6.7218 13.7705 6.59548 13.7456 6.53662C13.7092 6.44995 13.6184 6.35961 13.5211 6.31342C13.4556 6.28235 13.3644 6.25945 13.2687 6.25046C13.2049 6.24433 13.0507 6.24433 12.8965 6.25046C12.7231 6.25782 12.6282 6.25332 12.5513 6.2337C12.5174 6.22553 12.4507 6.19446 12.4393 6.18178C12.4327 6.17443 12.4327 6.13477 12.4426 5.47007C12.4479 5.08295 12.4536 4.76449 12.4548 4.76245C12.456 4.76041 12.4671 4.75509 12.4798 4.7506C12.5734 4.71544 12.7493 4.71585 13.4937 4.75223C13.7121 4.76286 13.9898 4.76122 14.101 4.74814C14.2094 4.73588 14.2589 4.71994 14.3902 4.65535C14.8797 4.41538 15.1145 4.05769 15.1803 3.45227C15.1971 3.29774 15.1983 3.26953 15.1999 2.87341L15.202 2.4822L15.1877 2.43805C15.173 2.39226 15.1611 2.33748 15.1513 2.26881C15.1427 2.20749 15.1439 1.9385 15.1533 1.84979C15.1775 1.62087 15.2257 1.38622 15.2744 1.26195L15.2789 1.25009L15.4826 1.25295C15.5942 1.25459 16.5443 1.26358 17.5938 1.27298ZM8.3629 1.35352C11.196 1.35761 13.591 1.36128 13.6851 1.36128H13.856L13.8617 1.37518C13.8851 1.43119 13.9026 1.68955 13.9133 2.13799C13.9186 2.36937 13.9157 3.13382 13.9092 3.24991C13.9039 3.33985 13.8977 3.40566 13.892 3.42651L13.8879 3.44205H1.34877V1.34084L2.28044 1.3433C2.7925 1.34452 5.52985 1.34902 8.3629 1.35352ZM8.2398 4.77512C9.84017 4.77962 11.1506 4.78371 11.1514 4.78493C11.1542 4.7878 11.1219 6.12823 11.1187 6.13314C11.1162 6.13682 10.3199 6.13845 7.62754 6.13927L4.13929 6.1405L4.13643 6.05342C4.1352 6.00559 4.13193 5.84576 4.12948 5.69859C4.12048 5.16593 4.13479 4.85647 4.1716 4.77962L4.17978 4.76204L4.75523 4.76449C5.07137 4.76572 6.63984 4.77063 8.2398 4.77512ZM7.80259 7.59989C10.3972 7.6048 12.5211 7.6097 12.5219 7.61011C12.5244 7.61215 12.5125 9.64263 12.51 9.64468C12.5088 9.6459 10.3138 9.64795 7.63245 9.64958C3.84686 9.65204 2.7561 9.65163 2.75364 9.64795C2.75078 9.64263 2.76632 7.75074 2.77041 7.64935L2.77286 7.59131H2.9291C3.01458 7.5909 5.20797 7.59498 7.80259 7.59989ZM7.67785 10.988C7.90729 10.9904 8.36822 10.9953 8.70236 10.9986C9.9919 11.0125 9.8872 11.0125 10.5858 11.0019C10.9743 10.9957 11.2581 10.9933 11.2974 10.9949C11.3334 10.9966 11.4614 10.9982 11.5816 10.9982C11.7788 10.9986 11.8037 10.9994 11.8332 11.006C11.8512 11.01 11.8753 11.0174 11.8863 11.0223C11.9101 11.0321 11.9497 11.0562 11.9497 11.0607C11.9497 11.0628 11.818 11.2373 11.6569 11.4495L11.3641 11.835L10.753 12.7822C10.4164 13.303 10.14 13.731 10.1379 13.733C10.1359 13.7351 9.96818 13.7347 9.74855 13.7322C9.38292 13.7285 9.35961 13.7285 9.29744 13.7359C9.04714 13.7649 8.73181 13.7804 8.37722 13.7804C8.10974 13.7804 7.9032 13.7751 7.36293 13.7539C6.93022 13.7367 6.77112 13.7318 6.53882 13.7269C6.03168 13.7167 5.57852 13.7388 5.25255 13.7903C5.21902 13.7956 5.18998 13.7988 5.18834 13.7972C5.18548 13.7943 4.76995 13.1207 4.58059 12.8116C4.36546 12.4596 4.26649 12.3022 4.14706 12.1207C3.87427 11.7054 3.6162 11.3788 3.3798 11.149C3.30741 11.0787 3.30414 11.0718 3.33277 11.0603C3.43747 11.0182 3.98428 10.9925 4.96626 10.9827C5.22802 10.9802 7.28768 10.9843 7.67785 10.988ZM7.70321 15.1009C8.06843 15.1098 8.37231 15.1172 8.37885 15.1172C8.40094 15.1172 8.3993 15.0485 8.41239 16.5705L8.4173 17.1223L8.3944 17.1865C8.37067 17.2527 8.36168 17.2715 8.35268 17.2715C8.32609 17.2715 6.93513 16.2369 6.88114 16.1772C6.87419 16.1694 6.87419 16.1441 6.87664 15.6466L6.87951 15.1246L6.94331 15.082L6.99157 15.0833C7.01815 15.0841 7.33839 15.0923 7.70321 15.1009ZM7.66885 18.3728L8.39971 18.9366V19.1966C8.39971 19.3396 8.39849 19.7505 8.39685 20.1094C8.3948 20.6318 8.39317 20.7627 8.38908 20.7627C8.37885 20.7627 8.13632 20.5844 7.59401 20.1777C6.99484 19.7284 6.87664 19.6368 6.87255 19.6193C6.8656 19.5878 6.86274 19.3789 6.86601 19.1622C6.87542 18.6054 6.90527 17.8455 6.91959 17.8083C6.92286 17.7997 6.92409 17.7989 6.93063 17.8038C6.93472 17.8067 7.26682 18.063 7.66885 18.3728ZM7.66026 21.8165L8.37722 22.3557L8.37967 22.6926C8.3809 22.8778 8.38253 23.2919 8.38294 23.6128L8.38335 24.1957L8.30687 24.2014L7.60178 23.6467C7.01324 23.1839 6.89587 23.0899 6.89178 23.0785C6.87705 23.0364 6.8701 22.8818 6.8701 22.5879C6.8701 22.0876 6.89546 21.487 6.92368 21.3207C6.92736 21.2994 6.93636 21.2777 6.94167 21.2777C6.94249 21.2777 7.266 21.5201 7.66026 21.8165ZM6.95803 24.7574C7.17357 24.8841 8.16782 25.622 8.33877 25.7818L8.36781 25.8092L8.41566 27.4689L8.3948 27.5392C8.38335 27.5781 8.3719 27.61 8.36945 27.61C8.36658 27.61 8.34818 27.605 8.32855 27.5993L8.29215 27.5891L6.91263 26.5843L6.90773 26.5585C6.89914 26.514 6.89505 26.4559 6.89014 26.2977C6.88196 26.0316 6.89014 24.8522 6.90118 24.757L6.90364 24.7353L6.91631 24.7378C6.92327 24.7394 6.94208 24.748 6.95803 24.7574ZM6.95721 28.2375C7.14003 28.318 8.18213 29.0832 8.35391 29.2627L8.37926 29.2893V29.8326C8.37926 30.2626 8.3809 30.4511 8.38785 30.7389C8.39235 30.9384 8.39521 31.1027 8.3944 31.1035C8.39358 31.1047 8.35268 31.0876 8.30319 31.0659L8.21403 31.0262L7.55106 30.503C7.18666 30.2152 6.88523 29.9769 6.88155 29.9732C6.87501 29.9671 6.87501 29.9487 6.88441 29.6478C6.89014 29.4655 6.89464 29.2484 6.89464 29.1409V28.9528L6.88032 28.9242C6.87255 28.9083 6.86315 28.8817 6.85987 28.865C6.85047 28.822 6.8472 28.6777 6.85333 28.596C6.86601 28.4324 6.89873 28.2603 6.92204 28.2346C6.93022 28.2252 6.93022 28.2252 6.95721 28.2375ZM6.93145 31.6697C7.02347 31.7138 7.21324 31.8389 7.50199 32.0458C7.87621 32.3131 8.26802 32.6169 8.358 32.7088L8.37967 32.7309L8.39603 34.4667L8.38581 34.4773C8.37804 34.4855 8.36495 34.4908 8.33673 34.4977L8.29787 34.5075L8.25534 34.4752C8.23203 34.4577 7.91179 34.214 7.54329 33.934L6.87337 33.425L6.87583 32.9386C6.87705 32.6708 6.87828 32.2722 6.87828 32.0523V31.6529H6.88769C6.893 31.6529 6.91263 31.6603 6.93145 31.6697ZM6.94617 35.086C7.5617 35.5585 8.30974 36.1452 8.37845 36.2089L8.40176 36.2306L8.40298 36.9799C8.40421 37.719 8.40135 37.9892 8.39235 37.9982C8.38294 38.0076 8.31137 37.9672 8.16455 37.8686C7.79278 37.6193 7.05823 37.0743 6.92041 36.9456L6.89464 36.9215V36.6059C6.89464 35.8537 6.89996 35.0582 6.90486 35.0582C6.90773 35.0582 6.92613 35.0709 6.94617 35.086Z" fill="#2B2E36"/>
<path d="M17.1296 11.9887L17.0375 12.0181C16.8694 12.0725 16.7079 12.1162 16.3198 12.2127C15.8511 12.3292 15.7562 12.3546 15.5815 12.4118C15.2094 12.5332 14.6908 12.7797 14.265 13.0377C13.3284 13.6047 12.5501 14.3532 11.908 15.3053C11.4516 15.9818 11.068 16.7593 10.7502 17.6517C10.7035 17.7829 10.6913 17.8222 10.6757 17.8913C10.6496 18.009 10.6348 18.1337 10.6185 18.3835C10.5935 18.7583 10.5735 18.8908 10.5097 19.0907C10.4672 19.2244 10.4426 19.3678 10.4254 19.5812C10.4164 19.6969 10.4148 20.0857 10.4234 20.1965C10.4393 20.4037 10.4627 20.5619 10.4937 20.6686C10.5044 20.7062 10.5125 20.7671 10.5575 21.149L10.6091 21.5864L10.8029 22.2302C11.0238 22.9632 11.0005 22.8974 11.1342 23.1664C11.3829 23.6679 11.6467 24.0808 12.2156 24.8608C12.5767 25.3559 12.7358 25.5791 12.8581 25.7626C12.8679 25.7773 13.29 26.2528 13.7955 26.8185C14.3014 27.3847 14.719 27.8536 14.7231 27.8605C14.7386 27.8859 14.9452 28.2301 14.9885 28.3029C15.0883 28.4713 15.1603 28.6135 15.2167 28.755C15.2952 28.9512 15.312 29.0571 15.3423 29.5354C15.3648 29.8882 15.3864 30.0451 15.4343 30.1898C15.4568 30.2585 15.4813 30.3121 15.512 30.3591C15.5382 30.3991 15.5987 30.4609 15.6208 30.4699C15.6294 30.4735 15.6425 30.4813 15.649 30.4879C15.6711 30.5087 15.7496 30.5275 15.8535 30.5369C15.9185 30.5426 16.0805 30.5418 16.2196 30.5345C16.3238 30.5291 16.5913 30.5283 18.1991 30.5283C19.9368 30.5287 20.0943 30.5291 20.6162 30.5377L21.1744 30.5463L21.2194 30.5271C21.4055 30.4462 21.5041 30.3423 21.5368 30.1935C21.5523 30.1212 21.5544 30.0562 21.5466 29.8775C21.5348 29.6098 21.5458 29.4687 21.5887 29.3269C21.5953 29.3056 21.6628 29.082 21.7384 28.8302C21.8595 28.4296 21.8795 28.3662 21.9 28.3233C21.9589 28.1998 22.0374 28.0829 22.1564 27.9411C22.2022 27.8863 22.2374 27.847 22.4133 27.6545C22.5429 27.5131 22.6443 27.3876 22.6963 27.305C22.7098 27.2837 22.9609 26.9951 23.4648 26.4224L24.2132 25.5713L24.731 24.8702C24.7352 24.8645 24.7394 24.8589 24.7435 24.8533C25.2416 24.1796 25.2504 24.1676 25.3003 24.0796C25.6197 23.5187 25.9003 22.8773 26.2128 21.9927C26.2733 21.821 26.306 21.6996 26.3502 21.4801C26.4606 20.9311 26.5224 20.223 26.5093 19.6466C26.5003 19.2289 26.4594 18.9227 26.3808 18.6819C26.3698 18.6492 26.3526 18.5592 26.3068 18.2997L26.2467 17.9604L26.0181 17.2818C25.7625 16.523 25.798 16.6167 25.6803 16.3967C25.0705 15.2578 24.3535 14.3503 23.5118 13.6533C22.5086 12.8218 21.3057 12.2834 19.9066 12.039C19.5066 11.9695 19.098 11.9233 18.6694 11.9C18.4743 11.8894 18.399 11.8873 18.1704 11.8857L17.9271 11.8841L17.1296 11.9887ZM18.1847 12.7707C18.3594 12.7752 18.5467 12.7838 18.6898 12.7932C20.4698 12.9142 21.9 13.4481 23.0476 14.4202C23.3376 14.6659 23.632 14.9623 23.8856 15.2644C24.0967 15.5154 24.2692 15.7463 24.4602 16.0329C24.6324 16.2909 24.6966 16.3988 24.7817 16.5705C24.8868 16.7839 24.9625 16.9797 25.0741 17.3267C25.2124 17.758 25.2574 17.8913 25.3306 18.083C25.4394 18.3671 25.5003 18.6132 25.5461 18.9517C25.6659 19.8326 25.5821 20.9908 25.3379 21.8357C25.2365 22.1869 25.0574 22.6075 24.8173 23.0601C24.7314 23.222 24.6721 23.3286 24.4472 23.7223L24.2382 24.0882L23.3224 25.2684L22.9887 25.6555C22.8051 25.8685 22.6497 26.0516 22.6431 26.0627C22.6206 26.1015 22.5572 26.1939 22.5155 26.2487C22.403 26.3966 22.3143 26.4927 21.9761 26.8332C21.6795 27.1317 21.592 27.2236 21.4943 27.3401C21.3912 27.4632 21.3213 27.5617 21.2354 27.7044C21.0607 27.9954 20.916 28.2988 20.8235 28.569C20.7769 28.7043 20.7634 28.8044 20.7573 29.053C20.7495 29.3645 20.7311 29.4851 20.6726 29.604L20.6518 29.6457H20.6002C20.309 29.6453 16.2756 29.6253 16.2748 29.6245C16.2715 29.6212 16.2429 29.4879 16.2302 29.4189C16.2093 29.3056 16.1979 29.2243 16.1684 28.9839C16.1304 28.6785 16.1132 28.5722 16.0805 28.4459C16.031 28.2542 15.9868 28.1581 15.8322 27.9076C15.5991 27.529 15.3304 27.1615 14.9762 26.7372C14.7591 26.4768 14.5918 26.2875 14.1018 25.7483C13.418 24.9961 13.1706 24.7083 12.8757 24.3232C12.07 23.2714 11.6221 22.2846 11.4348 21.1469C11.3493 20.629 11.3223 20.1196 11.3448 19.432C11.3624 18.8765 11.416 18.4705 11.5166 18.1202C11.5461 18.018 11.5735 17.9428 11.645 17.7641C11.6839 17.6673 11.7522 17.4935 11.7964 17.3778C12.0859 16.6203 12.1976 16.4025 12.51 15.9859C12.5845 15.8866 12.6295 15.8289 12.8454 15.5567C13.0086 15.3502 13.0998 15.2272 13.227 15.0416C13.2994 14.9357 13.3591 14.8625 13.4626 14.7538C13.9067 14.2853 14.7304 13.7678 15.7288 13.33C15.9795 13.22 16.3357 13.0794 16.4257 13.0548C16.5185 13.0299 16.7136 12.9919 17.197 12.9056C17.6886 12.8177 17.8719 12.7822 17.8923 12.7703C17.9005 12.7658 17.9921 12.7658 18.1847 12.7707Z" fill="#2B2E36"/>
<path d="M18.0952 13.7146C18.0825 13.7208 18.0653 13.7228 18.0154 13.7249C17.6821 13.7383 17.4105 13.7772 17.085 13.8585C16.584 13.9836 15.9942 14.226 15.4875 14.5155C14.8278 14.8916 14.2548 15.3764 13.8053 15.9385C13.6098 16.1829 13.4474 16.4241 13.2838 16.7144C13.2548 16.7655 13.2037 16.8517 13.1697 16.9057C13.0004 17.1767 12.9383 17.3083 12.9125 17.4535C12.9039 17.5021 12.9031 17.5961 12.9104 17.6354C12.9231 17.7004 12.953 17.7719 12.9857 17.8152C13.0565 17.9093 13.1832 17.9763 13.3186 17.9914C13.49 18.0107 13.6372 17.9199 13.7853 17.7036C13.8581 17.5969 13.9362 17.4469 14.0433 17.2082C14.1219 17.0328 14.182 16.9118 14.2315 16.8288C14.4253 16.5042 14.7018 16.1813 15.0347 15.8906C15.4482 15.5293 15.9603 15.2096 16.4752 14.9905C16.5275 14.968 16.6457 14.9296 17.0199 14.8122C17.5594 14.643 17.5214 14.6545 17.5897 14.6414C17.7087 14.6181 17.7316 14.6168 18.0886 14.6164C18.3819 14.6164 18.4232 14.6156 18.4669 14.6091C18.6232 14.5858 18.7213 14.5416 18.8052 14.4562C18.8739 14.3859 18.9336 14.2714 18.952 14.1762C18.9594 14.1386 18.9581 14.0736 18.9504 14.0421C18.8984 13.841 18.6248 13.7232 18.1786 13.7093C18.1185 13.7073 18.1095 13.7081 18.0952 13.7146Z" fill="#2B2E36"/>
<path d="M15.5836 18.7391C15.5235 18.7477 15.4797 18.7649 15.4314 18.7988C15.4102 18.8139 15.3946 18.8327 15.3276 18.9239C15.2838 18.9832 15.2441 19.0351 15.2384 19.0392C15.2155 19.0576 15.1963 19.125 15.1959 19.1868C15.1959 19.2877 15.2265 19.3658 15.3406 19.5567C15.375 19.6139 15.413 19.6822 15.4253 19.708C15.4376 19.7337 15.5644 19.9823 15.7075 20.2594L15.9676 20.7643L16.0237 20.9033C16.1476 21.2119 16.2645 21.5234 16.5009 22.175L16.6523 22.592L16.9516 23.9983L16.9864 24.3273C17.021 24.6542 17.0212 24.6572 17.0554 25.1974C17.0556 25.2003 17.0557 25.2033 17.0559 25.2062C17.0752 25.5088 17.0927 25.7634 17.0948 25.7724C17.0972 25.7814 17.1034 25.8051 17.1087 25.8256C17.1529 25.9928 17.1594 26.2417 17.1357 26.8741C17.1165 27.3798 17.1185 27.6933 17.1422 27.9084C17.1725 28.1859 17.2433 28.3732 17.3475 28.4537C17.4379 28.5228 17.5406 28.5293 17.698 28.4758C17.8379 28.4284 17.934 28.3491 17.9925 28.2325L18.0109 28.1966V27.3524C18.0109 26.3406 18.0056 25.8742 17.9905 25.4556C17.9541 24.4614 17.8657 23.7828 17.7124 23.3115C17.6985 23.2682 17.6588 23.1034 17.5794 22.7539L17.4666 22.2576L17.3884 22.0528C17.3242 21.8844 17.3021 21.8206 17.2645 21.6947C17.2101 21.5128 17.1373 21.3207 17.0314 21.0774C16.9946 20.9932 16.9439 20.8743 16.9185 20.8138C16.8932 20.7528 16.8204 20.5901 16.757 20.452L16.6416 20.2006L16.6609 20.1818C16.6825 20.1605 16.7038 20.1536 16.7484 20.1536C16.8077 20.154 16.8645 20.174 16.9635 20.2308C17.04 20.2746 17.0715 20.2876 17.1459 20.3069C17.2298 20.3285 17.2821 20.3346 17.3729 20.3346C17.4531 20.3351 17.4891 20.3314 17.5619 20.3167C17.7909 20.2709 18.0306 20.1368 18.2788 19.916C18.3238 19.876 18.4089 19.8065 18.48 19.7521C18.4829 19.7497 18.5042 19.7721 18.5459 19.8232C18.6228 19.9173 18.6498 19.9463 18.707 19.997C18.9099 20.1764 19.1455 20.3007 19.3516 20.3375C19.3958 20.3453 19.471 20.3485 19.5205 20.3453C19.5953 20.3396 19.626 20.3306 19.8473 20.2484C20.0027 20.1903 20.0853 20.1691 20.1561 20.1687C20.1904 20.1687 20.2006 20.1699 20.2186 20.1781C20.2432 20.1887 20.2456 20.1932 20.2522 20.2329C20.2665 20.3216 20.2195 20.4348 20.0906 20.6237C20.035 20.7058 20.0264 20.7214 19.9974 20.7974C19.9826 20.8354 19.9557 20.9016 19.9373 20.9446C19.9188 20.9871 19.8837 21.0754 19.8595 21.1408C19.835 21.2058 19.7949 21.3117 19.7696 21.3758C19.7258 21.4883 19.7152 21.5226 19.4751 22.3353C19.1994 23.2673 19.2056 23.2453 19.1769 23.3605C19.0375 23.9185 18.9598 24.611 18.9311 25.5537C18.9226 25.8431 18.9189 26.1244 18.9168 26.727C18.9156 27.0675 18.9115 27.5413 18.9078 27.78C18.9001 28.2734 18.8972 28.2223 18.9373 28.2824C19.0048 28.3842 19.1471 28.4733 19.2894 28.5032C19.3328 28.5126 19.4039 28.5126 19.4383 28.5036C19.5835 28.466 19.6808 28.3302 19.7434 28.078C19.779 27.9333 19.8015 27.7555 19.8154 27.5057C19.8219 27.3835 19.8219 26.8839 19.815 26.6738C19.8125 26.5872 19.8072 26.4347 19.8039 26.3345C19.7949 26.0659 19.7921 25.6907 19.7978 25.5701C19.8056 25.4119 19.8195 25.2945 19.8395 25.2214C19.8542 25.1678 19.8555 25.1531 19.8804 24.8203L19.9049 24.49L20.2763 22.5675L20.3111 22.4722C20.3896 22.258 20.4922 22.0001 20.6366 21.6538C20.8329 21.1829 20.911 20.9912 20.9822 20.8056C21.0211 20.7042 21.0918 20.5084 21.1151 20.4377C21.1319 20.387 21.1466 20.36 21.4333 19.847C21.6681 19.4275 21.736 19.3033 21.7421 19.2808C21.7548 19.2354 21.756 19.1594 21.7454 19.1136C21.7286 19.0441 21.6914 18.9836 21.6284 18.9239C21.5376 18.8381 21.3969 18.7706 21.2632 18.7489L21.2288 18.7436L21.1916 18.7661C21.0783 18.8336 20.7266 18.993 20.426 19.1124C19.9045 19.3196 19.525 19.4275 19.4109 19.4014C19.3966 19.3981 19.325 19.3421 19.0039 19.0837C18.7896 18.9116 18.6089 18.7673 18.6023 18.7632C18.561 18.7399 18.4489 18.7367 18.3753 18.7571C18.3005 18.778 18.2154 18.8205 18.1622 18.863C18.15 18.8728 17.9925 19.0008 17.8126 19.1475C17.5013 19.4006 17.4841 19.414 17.4588 19.4218C17.2907 19.4721 17.0641 19.4104 16.7099 19.2186C16.6682 19.1957 16.5533 19.1316 16.4543 19.0752C16.1308 18.8916 16.0032 18.8278 15.8658 18.7812C15.7594 18.7453 15.6527 18.7293 15.5836 18.7391Z" fill="#2B2E36"/>
<path d="M12.8352 19.246C12.8205 19.2624 12.7657 19.2963 12.6949 19.3335C12.6004 19.383 12.5792 19.3965 12.5468 19.4296C12.4953 19.4819 12.4724 19.5477 12.454 19.6961C12.4442 19.7771 12.4442 20.0019 12.4544 20.1208C12.4908 20.5534 12.5841 21.0002 12.7248 21.4163C12.9055 21.951 13.1276 22.2776 13.3337 22.3124C13.3898 22.3218 13.4425 22.3099 13.5215 22.2707C13.6491 22.2065 13.744 22.1149 13.7971 22.0033L13.8127 21.9706V21.7908L13.7849 21.7196C13.7476 21.6244 13.6973 21.4727 13.647 21.3043C13.5395 20.9442 13.5182 20.8755 13.4618 20.7136C13.4151 20.5791 13.4053 20.5362 13.3906 20.4119C13.3849 20.3608 13.3836 20.3064 13.3832 20.0452C13.3828 19.8339 13.3812 19.726 13.3779 19.6977C13.3562 19.5183 13.3141 19.4169 13.2348 19.3539C13.1489 19.2857 13.0029 19.2379 12.8798 19.2379C12.8479 19.2379 12.8413 19.2391 12.8352 19.246Z" fill="#2B2E36"/>
<path d="M16.5392 35.5833C16.5392 35.3171 16.755 35.1013 17.0211 35.1013H19.9293C20.1954 35.1013 20.4112 35.3171 20.4112 35.5833C20.4112 35.8494 20.1954 36.0652 19.9293 36.0652H17.0211C16.755 36.0652 16.5392 35.8494 16.5392 35.5833Z" fill="#2B2E36"/>
<path d="M18.4554 9.91676C18.192 9.91676 17.9784 9.7032 17.9784 9.43977V7.71447C17.9784 7.45103 18.192 7.23747 18.4554 7.23747C18.7188 7.23747 18.9324 7.45103 18.9324 7.71447V9.43977C18.9324 9.7032 18.7188 9.91676 18.4554 9.91676Z" fill="#2B2E36"/>
<path d="M23.4049 11.1359C23.1768 11.0042 23.0986 10.7125 23.2303 10.4844L24.0929 8.99021C24.2247 8.76206 24.5164 8.6839 24.7445 8.81561C24.9726 8.94733 25.0508 9.23906 24.9191 9.4672L24.0565 10.9614C23.9248 11.1895 23.633 11.2677 23.4049 11.1359Z" fill="#2B2E36"/>
<path d="M26.974 14.8066C26.8423 14.5785 26.9204 14.2867 27.1486 14.155L28.6427 13.2924C28.8708 13.1607 29.1626 13.2388 29.2943 13.467C29.426 13.6951 29.3478 13.9868 29.1197 14.1186L27.6256 14.9812C27.3974 15.1129 27.1057 15.0348 26.974 14.8066Z" fill="#2B2E36"/>
<path d="M15.9383 33.8277C15.9383 33.5615 16.154 33.3457 16.4202 33.3457H20.5302C20.7964 33.3457 21.0121 33.5615 21.0121 33.8277C21.0121 34.0939 20.7964 34.3097 20.5302 34.3097H16.4202C16.154 34.3097 15.9383 34.0939 15.9383 33.8277Z" fill="#2B2E36"/>
<path d="M15.3601 32.0107C15.3601 31.7473 15.5736 31.5337 15.8371 31.5337H21.1143C21.3778 31.5337 21.5913 31.7473 21.5913 32.0107C21.5913 32.2742 21.3778 32.4877 21.1143 32.4877H15.8371C15.5736 32.4877 15.3601 32.2742 15.3601 32.0107Z" fill="#2B2E36"/>
<path d="M48.4685 31.6227V5.36511H50.7603L50.7905 29.3103H67.0447L67.0146 5.36511H69.3064V29.1886H71.4475L71.5078 34.8783H69.3064V31.6227H48.4685Z" fill="#2B2E36"/>
<path d="M96.8796 5.33468L99.0207 5.36511V29.6755H101.705L101.765 34.9696H99.5635L99.6238 31.5619H99.0207V31.5923H96.8796V31.5619L85.2393 31.5923H82.1935L82.1332 35H79.8715V29.645H83.4601C83.6209 28.8337 83.7918 27.8803 83.9727 26.785C84.1737 25.6694 84.3647 24.4625 84.5457 23.1643C84.7266 21.8661 84.8874 20.5172 85.0282 19.1176C85.1689 17.7181 85.2694 16.3286 85.3297 14.9493C85.4102 13.5497 85.4303 12.1907 85.39 10.8722C85.3699 9.55375 85.2694 8.34686 85.0885 7.25152H82.3744V5.33468L96.8796 5.36511V5.33468ZM85.5408 29.645L96.8796 29.6755V7.28195L87.1391 7.25152C87.4809 10.3347 87.4708 13.7627 87.109 17.5355C86.7471 21.288 86.2244 25.3245 85.5408 29.645Z" fill="#2B2E36"/>
<path d="M136.359 18.5091C136.359 22.2008 135.042 25.3651 132.408 28.002C129.795 30.6389 126.648 31.9574 122.969 31.9574C119.29 31.9574 116.154 30.6491 113.56 28.0325C110.967 25.3955 109.67 22.2211 109.67 18.5091C109.67 14.7972 110.967 11.6227 113.56 8.9858C116.154 6.3286 119.29 5 122.969 5C126.648 5 129.795 6.3286 132.408 8.9858C135.042 11.6227 136.359 14.7972 136.359 18.5091ZM134.037 18.5091C134.037 15.426 132.951 12.7992 130.78 10.6288C128.628 8.43813 126.025 7.3428 122.969 7.3428C119.933 7.3428 117.33 8.43813 115.159 10.6288C113.008 12.7992 111.932 15.426 111.932 18.5091C111.932 21.572 113.008 24.1988 115.159 26.3895C117.33 28.5598 119.933 29.645 122.969 29.645C126.025 29.645 128.628 28.5598 130.78 26.3895C132.951 24.1988 134.037 21.572 134.037 18.5091Z" fill="#2B2E36"/>
<path d="M161.883 5.33468L164.024 5.36511V29.6755H166.708L166.769 34.9696H164.567L164.627 31.5619H164.024V31.5923H161.883V31.5619L150.243 31.5923H147.197L147.137 35H144.875V29.645H148.464C148.624 28.8337 148.795 27.8803 148.976 26.785C149.177 25.6694 149.368 24.4625 149.549 23.1643C149.73 21.8661 149.891 20.5172 150.032 19.1176C150.173 17.7181 150.273 16.3286 150.333 14.9493C150.414 13.5497 150.434 12.1907 150.394 10.8722C150.374 9.55375 150.273 8.34686 150.092 7.25152H147.378V5.33468L161.883 5.36511V5.33468ZM150.544 29.645L161.883 29.6755V7.28195L152.143 7.25152C152.484 10.3347 152.474 13.7627 152.113 17.5355C151.751 21.288 151.228 25.3245 150.544 29.645Z" fill="#2B2E36"/>
<path d="M73.1966 5.39557L72.2919 27.3327H71.3571V5.39557H73.1966ZM65.3861 27.2414H52.8411L52.811 5.36514H53.7157L53.9569 26.6329H65.3861V27.2414ZM73.9807 33.357H73.0458V28.9757H73.9807V33.357Z" fill="#007AA9"/>
<path d="M101.554 27.6369H100.709V5.33472H101.554V27.6369ZM103.001 29.6755H103.876V32.7789L103.001 32.8398V29.6755ZM84.0029 32.353V33.57H83.0982V32.353H84.0029ZM87.7121 28.7019C88.0338 27.7891 88.3554 26.714 88.6771 25.4767C89.0189 24.2191 89.3305 22.9108 89.6119 21.5518C89.9135 20.1927 90.1849 18.8236 90.4261 17.4442C90.6875 16.0649 90.8986 14.787 91.0594 13.6106C91.2404 12.4138 91.361 11.3591 91.4213 10.4463C91.5017 9.51321 91.5218 8.82356 91.4816 8.37731L89.431 8.34689C89.4712 8.85399 89.4712 9.57407 89.431 10.5071C89.4109 11.4199 89.3606 12.4645 89.2802 13.641C89.1998 14.7972 89.0892 16.0447 88.9485 17.3834C88.8078 18.7019 88.657 20.0305 88.4961 21.3692C88.3353 22.7079 88.1443 24.0061 87.9232 25.2637C87.7221 26.5213 87.501 27.6674 87.2597 28.7019H87.7121Z" fill="#007AA9"/>
<path d="M139.314 18.5092C139.314 21.2272 138.66 23.7627 137.354 26.1157C136.067 28.3875 134.318 30.2232 132.107 31.6227H131.202C133.393 30.2232 135.132 28.3875 136.419 26.1157C137.726 23.7627 138.379 21.2272 138.379 18.5092C138.379 15.7911 137.726 13.2556 136.419 10.9027C135.152 8.63086 133.423 6.78502 131.232 5.36514H132.137C134.328 6.78502 136.067 8.63086 137.354 10.9027C138.66 13.2556 139.314 15.7911 139.314 18.5092ZM124.115 9.83776C121.743 9.97975 119.722 10.9331 118.054 12.6978C116.405 14.4625 115.581 16.5518 115.581 18.9655C115.581 22.0081 116.807 24.4524 119.26 26.2982C120.587 27.069 121.984 27.495 123.452 27.5761H122.969C120.516 27.5761 118.406 26.6937 116.636 24.929C114.887 23.144 114.013 21.0041 114.013 18.5092C114.013 15.9939 114.887 13.8438 116.636 12.0589C118.385 10.2739 120.496 9.38137 122.969 9.38137C123.09 9.38137 123.472 9.5335 124.115 9.83776Z" fill="#007AA9"/>
<path d="M166.557 27.6369H165.713V5.33472H166.557V27.6369ZM168.005 29.6755H168.879V32.7789L168.005 32.8398V29.6755ZM149.006 32.353V33.57H148.102V32.353H149.006ZM152.716 28.7019C153.037 27.7891 153.359 26.714 153.681 25.4767C154.022 24.2191 154.334 22.9108 154.616 21.5518C154.917 20.1927 155.188 18.8236 155.43 17.4442C155.691 16.0649 155.902 14.787 156.063 13.6106C156.244 12.4138 156.365 11.3591 156.425 10.4463C156.505 9.51321 156.525 8.82356 156.485 8.37731L154.435 8.34689C154.475 8.85399 154.475 9.57407 154.435 10.5071C154.414 11.4199 154.364 12.4645 154.284 13.641C154.203 14.7972 154.093 16.0447 153.952 17.3834C153.811 18.7019 153.661 20.0305 153.5 21.3692C153.339 22.7079 153.148 24.0061 152.927 25.2637C152.726 26.5213 152.505 27.6674 152.263 28.7019H152.716Z" fill="#007AA9"/>
</svg>
