<svg width="39" height="40" viewBox="0 0 39 40" fill="none" xmlns="http://www.w3.org/2000/svg"><path d="m8.363 1.354 5.322.008h.171l.006.014c.023.056.04.314.051.762.006.232.003.996-.004 1.112-.005.09-.011.156-.017.177l-.004.015H1.348v-2.1l.932.002 6.083.01zM8.24 4.775l2.911.01c.003.003-.03 1.344-.032 1.348-.003.004-.8.006-3.491.007H4.139l-.003-.086a56.083 56.083 0 0 1-.007-.355c-.009-.533.006-.842.043-.919l.008-.018.575.003 3.485.01zM7.803 7.6l4.719.01c.002.002-.01 2.033-.012 2.035l-4.878.005c-3.785.002-4.876.002-4.878-.002-.003-.005.012-1.897.016-1.998l.003-.058h.156l4.874.008zm-.125 3.388c.23.003.69.008 1.024.01 1.29.015 1.185.015 1.884.004a33.076 33.076 0 0 1 .996-.004c.197 0 .222.002.251.008a.351.351 0 0 1 .053.017c.024.01.064.034.064.038 0 .002-.132.177-.293.389l-.293.385-.611.947c-.337.521-.613.95-.615.951-.002.002-.17.002-.39 0-.365-.004-.388-.004-.45.003a8.02 8.02 0 0 1-.92.045c-.268 0-.475-.006-1.015-.027a38.225 38.225 0 0 0-.824-.027 7.766 7.766 0 0 0-1.35.07c-.004-.002-.42-.676-.608-.985-.216-.352-.315-.51-.434-.69-.273-.416-.53-.743-.767-.973-.073-.07-.076-.077-.047-.088.104-.042.651-.068 1.633-.078.262-.003 2.322.002 2.712.005zm.025 4.113c.365.01.67.016.676.016.022 0 .02-.068.033 1.454l.005.552-.023.064c-.023.066-.032.085-.041.085-.027 0-1.418-1.035-1.472-1.095-.007-.007-.007-.033-.004-.53l.002-.522.064-.043.049.002.711.017zm-.034 3.272.73.564v.26c0 .143 0 .554-.002.913-.002.522-.004.653-.008.653-.01 0-.253-.178-.795-.585-.6-.45-.717-.54-.721-.558a4.914 4.914 0 0 1-.007-.457c.01-.557.04-1.317.054-1.354.003-.009.004-.01.01-.005l.739.57zm-.009 3.444.717.54.003.336c0 .185.003.6.003.92v.583l-.076.006-.705-.555c-.589-.463-.706-.557-.71-.568-.015-.042-.022-.197-.022-.49 0-.501.025-1.102.054-1.268.003-.021.012-.043.018-.043l.718.539zm-.702 2.941c.216.126 1.21.864 1.38 1.024l.03.027.048 1.66-.021.07a.343.343 0 0 1-.026.071.41.41 0 0 1-.04-.01l-.037-.01-1.38-1.005-.004-.026a1.802 1.802 0 0 1-.018-.26c-.008-.267 0-1.446.011-1.542l.003-.021.012.002c.007.002.026.01.042.02zm-.001 3.48c.183.08 1.225.846 1.397 1.025l.025.027v.543c0 .43.002.618.009.906.004.2.007.364.006.365a.995.995 0 0 1-.09-.038l-.09-.04-.663-.523-.67-.53c-.006-.006-.006-.024.003-.325.006-.182.01-.4.01-.507v-.188l-.014-.028a.293.293 0 0 1-.02-.06 1.45 1.45 0 0 1-.007-.269c.013-.163.046-.335.069-.361.008-.01.008-.01.035.003zm-.026 3.432c.092.044.282.17.571.376.374.267.766.571.856.663l.022.022.016 1.736-.01.01c-.008.009-.021.014-.05.021l-.038.01-.043-.032-.712-.542-.67-.509.003-.486.002-.886v-.4h.01c.005 0 .025.008.043.017zm.015 3.416c.616.473 1.364 1.06 1.432 1.123l.024.022.001.75c.001.738-.002 1.009-.01 1.018-.01.009-.082-.032-.228-.13-.372-.25-1.107-.794-1.245-.923l-.025-.024v-.316c0-.752.005-1.547.01-1.547a.25.25 0 0 1 .041.027z" fill="#fff"/><path fill-rule="evenodd" clip-rule="evenodd" d="M18.185 12.77c.175.005.362.014.505.023 1.78.121 3.21.655 4.358 1.627.29.246.584.543.838.845.21.25.383.482.574.768.172.258.237.366.322.538.105.213.18.409.292.756.138.431.183.564.257.756.108.284.17.53.215.869.12.88.036 2.039-.208 2.884-.101.351-.28.772-.52 1.224-.087.162-.146.269-.37.663l-.21.365-.915 1.18-.334.388c-.184.213-.34.396-.346.407a2.486 2.486 0 0 1-.127.186c-.113.148-.202.244-.54.585-.296.298-.384.39-.482.506a2.621 2.621 0 0 0-.259.365c-.174.29-.319.594-.411.864-.047.136-.06.236-.067.484-.007.312-.026.432-.084.551l-.021.042H20.6c-.29 0-4.324-.02-4.325-.021a2.926 2.926 0 0 1-.045-.206 6.551 6.551 0 0 1-.061-.435 3.95 3.95 0 0 0-.088-.538c-.05-.192-.094-.288-.249-.538a9.886 9.886 0 0 0-.856-1.17c-.217-.261-.384-.45-.874-.99-.684-.752-.931-1.04-1.226-1.425-.806-1.051-1.254-2.038-1.441-3.176-.086-.518-.113-1.027-.09-1.715.018-.555.071-.961.172-1.312.03-.102.057-.177.128-.356.039-.096.107-.27.152-.386.289-.757.4-.975.713-1.392.075-.1.12-.157.335-.43.164-.206.255-.329.382-.514.072-.106.132-.18.236-.288.444-.468 1.268-.986 2.266-1.424.25-.11.607-.25.697-.275.093-.025.288-.063.771-.15.492-.087.675-.123.695-.134.009-.005.1-.005.293 0zm-.17.955c.05-.002.068-.004.08-.01.015-.007.024-.008.084-.005.446.013.72.131.772.332a.398.398 0 0 1 .001.134.604.604 0 0 1-.147.28c-.084.086-.182.13-.338.153a3.19 3.19 0 0 1-.378.008c-.357 0-.38.001-.5.025-.067.013-.03.001-.569.17a8.851 8.851 0 0 0-.545.179 5.547 5.547 0 0 0-1.44.9c-.333.29-.61.614-.803.938-.05.083-.11.204-.189.38a3.304 3.304 0 0 1-.258.495c-.148.216-.295.307-.466.288a.492.492 0 0 1-.333-.177.477.477 0 0 1-.075-.18.7.7 0 0 1 .002-.181c.025-.145.088-.277.257-.548.034-.054.085-.14.114-.191.163-.29.326-.532.521-.776a5.877 5.877 0 0 1 1.683-1.423 6.662 6.662 0 0 1 1.597-.657 4.33 4.33 0 0 1 .93-.134zM15.431 18.8a.325.325 0 0 1 .153-.06.678.678 0 0 1 .282.042c.137.047.265.11.588.294l.256.144c.354.192.58.253.749.203.025-.008.042-.021.354-.274l.35-.285a.657.657 0 0 1 .212-.106c.074-.02.186-.017.227.006.007.004.188.149.402.321.321.258.393.314.407.318.114.026.494-.082 1.015-.29.3-.119.652-.278.766-.346l.037-.022.034.005a.73.73 0 0 1 .365.175c.064.06.1.12.117.19a.392.392 0 0 1-.003.167c-.006.023-.074.147-.309.566-.286.513-.301.54-.318.59-.023.072-.094.267-.133.369-.07.185-.149.377-.345.848a20.45 20.45 0 0 0-.326.818l-.035.096-.371 1.922-.024.33c-.025.333-.027.348-.041.402a1.8 1.8 0 0 0-.042.348c-.006.12-.003.496.006.765l.011.339c.007.21.007.71 0 .832-.013.25-.036.427-.072.572-.062.253-.16.388-.305.426a.405.405 0 0 1-.148 0 .59.59 0 0 1-.353-.221c-.04-.06-.037-.01-.03-.503.005-.239.009-.712.01-1.053.002-.602.006-.884.014-1.173.029-.943.107-1.635.246-2.193.029-.116.023-.093.298-1.026.24-.812.25-.847.295-.959l.09-.235c.024-.065.059-.154.077-.196.019-.043.046-.11.06-.147a.631.631 0 0 1 .094-.174c.129-.189.176-.302.161-.39-.006-.04-.009-.045-.033-.056a.129.129 0 0 0-.063-.01c-.07.001-.153.023-.309.08-.22.083-.252.092-.326.098a.843.843 0 0 1-.17-.008c-.205-.037-.441-.161-.644-.34a1.225 1.225 0 0 1-.161-.175c-.042-.05-.063-.073-.066-.07a4.126 4.126 0 0 0-.201.163c-.248.221-.488.355-.717.4a.766.766 0 0 1-.189.019.787.787 0 0 1-.41-.104c-.098-.057-.155-.077-.215-.077-.044 0-.065.007-.087.028l-.02.019.116.251a15.517 15.517 0 0 1 .274.626c.106.243.18.435.234.617.037.126.06.19.123.358l.079.205.113.496c.079.35.119.514.133.558.153.471.241 1.15.278 2.144.015.418.02.885.02 1.897v.844l-.018.036a.482.482 0 0 1-.295.243c-.157.053-.26.047-.35-.022-.105-.08-.175-.268-.206-.545-.023-.215-.025-.529-.006-1.035.024-.632.017-.881-.027-1.048a9.689 9.689 0 0 0-.014-.053c-.002-.01-.02-.264-.039-.567v-.008a14.22 14.22 0 0 0-.07-.87l-.034-.33-.3-1.406-.151-.417a38.858 38.858 0 0 0-.477-1.271l-.056-.14-.26-.504a59.33 59.33 0 0 1-.283-.552 2.502 2.502 0 0 0-.084-.151c-.114-.191-.145-.27-.145-.37 0-.062.02-.13.043-.148.005-.004.045-.056.089-.115a.56.56 0 0 1 .104-.125zm-2.736.535a.706.706 0 0 0 .14-.088c.006-.007.013-.008.045-.008.123 0 .269.048.355.116.08.063.121.165.143.344.003.028.005.136.005.347 0 .262.002.316.008.367.014.124.024.167.07.302.057.162.079.23.186.59.05.169.1.32.138.416l.028.071v.18l-.016.033a.587.587 0 0 1-.275.267c-.08.04-.132.051-.188.042-.206-.035-.428-.362-.61-.896a5.555 5.555 0 0 1-.27-1.296 3.003 3.003 0 0 1 0-.425c.018-.148.041-.214.093-.266a.488.488 0 0 1 .148-.096z" fill="#fff"/><path fill-rule="evenodd" clip-rule="evenodd" d="M17.594 1.273c1.05.01 1.926.017 1.949.016.072-.002.233-.01.417-.02.43-.023.62-.023.81 0 .108.014.213.04.294.075a.14.14 0 0 1 .05.03l.013.017.009-.015c.005-.008.01-.015.013-.015a.39.39 0 0 1 .091.077c.161.184.27.544.366 1.203.025.173.053.402.102.84.068.602.097.823.137 1.071.087.526.188.854.325 1.044a.599.599 0 0 0 .11.114c.024.017.054.027.563.193l.538.175.737.31c.406.172.753.317.772.324.047.019.148.067.2.097.043.023.108.06.268.155.193.113.332.175.474.21.078.02.124.025.22.027l.088.002.365-.245c.3-.203.538-.369 1.335-.932.921-.65.987-.697 1.301-.903.182-.12.333-.22.336-.22.003-.001.016.003.029.01a.718.718 0 0 0 .189.054.87.87 0 0 1 .178.046c.021.01.156.143 1.577 1.566.854.855 1.567 1.57 1.584 1.59.042.051.096.102.2.19.177.153.244.227.295.33.049.097.052.16.015.272-.074.221-.301.58-.73 1.15-.103.139-.24.317-.492.642l-.413.535-.004.005c-.332.438-.521.72-.592.885a.79.79 0 0 0-.05.335.639.639 0 0 0 .023.188c.004.013.147.294.319.624l.311.6.348.839.193.615c.106.338.199.628.206.644a.68.68 0 0 0 .266.278c.05.03.169.09.236.116.268.106.63.185 1.144.251.176.023.373.044.773.084.394.04.57.059.724.079.417.052.702.113.897.19a.985.985 0 0 1 .345.207.335.335 0 0 1 .066.096l.015.031-.001.352-.01 2.639-.008 2.287-.014.027c-.072.137-.3.252-.679.342-.319.075-.712.134-1.437.213-.915.101-1.096.123-1.36.168-.324.055-.562.123-.662.188-.189.123-.375.492-.615 1.218-.054.161-.07.213-.19.598a8.972 8.972 0 0 1-.163.484c-.02.05-.082.168-.35.664-.179.331-.33.615-.335.63-.014.04-.034.125-.043.192a.894.894 0 0 0 .009.302c.006.02.186.281.888 1.295.485.698 1 1.437 1.143 1.64l.263.37-.003.037c-.012.21-.034.273-.163.453-.037.052-.094.11-1.751 1.765l-1.713 1.711-.055.033a.616.616 0 0 1-.276.106c-.07.005-.132-.012-.242-.066-.215-.106-.509-.312-1.118-.78a42.129 42.129 0 0 0-.974-.74c-.391-.284-.665-.458-.909-.58-.205-.102-.359-.15-.482-.15-.084 0-.037-.023-.7.33-.514.273-.606.32-.657.34l-.515.174c-.584.195-.754.254-.988.341-.514.192-.82.345-.901.451l-.04.05c-.032.038-.068.135-.11.298-.075.296-.123.612-.233 1.523-.068.56-.104.83-.15 1.102-.106.637-.226 1.007-.38 1.162a.327.327 0 0 1-.109.078c-.099.05-.233.084-.4.102-.223.025-.462.026-.955.006-.157-.007-.377-.007-2.965-.007-2.507 0-2.841 0-3.241.007-.828.014-1.025.015-1.728.018-1.068.004-1.598-.008-1.878-.042-.092-.011-.167-.03-.167-.043a.213.213 0 0 0-.014-.034.429.429 0 0 1-.033-.117 7.788 7.788 0 0 1-.056-.867 107.01 107.01 0 0 1-.004-3.528c.012-1.007.013-1.68.02-10.14.008-8.155.009-8.842.015-8.846a.618.618 0 0 1 .126-.039c.114-.022.189-.021.463.003.097.008.247.006.3-.004.159-.032.273-.104.406-.255.146-.167.282-.386.503-.809l.105-.2c.015-.029.464-.705 1.114-1.677l1.088-1.629-.01-1.305c-.008-1.101-.009-1.308-.004-1.329.047-.209.06-.696.028-1.022a1.287 1.287 0 0 0-.063-.308.48.48 0 0 0-.225-.224.787.787 0 0 0-.252-.063 3.644 3.644 0 0 0-.373 0 1.212 1.212 0 0 1-.345-.016.373.373 0 0 1-.112-.052c-.006-.008-.006-.047.004-.712.005-.387.01-.705.012-.708a.087.087 0 0 1 .025-.011c.093-.036.27-.035 1.014.001.218.01.496.01.607-.004a.72.72 0 0 0 .29-.093c.489-.24.723-.597.79-1.203.016-.154.017-.182.019-.579l.002-.39-.014-.045a1.033 1.033 0 0 1-.037-.17 3.27 3.27 0 0 1 .002-.418 2.63 2.63 0 0 1 .121-.588l.005-.012.204.003 2.11.02zm-.556 10.745.092-.03.797-.104.243.002a10.529 10.529 0 0 1 1.736.153c1.4.245 2.603.783 3.606 1.614.841.697 1.558 1.605 2.168 2.744.118.22.082.126.338.885l.229.678.06.34c.046.26.063.35.074.382.078.24.12.547.128.965a9.025 9.025 0 0 1-.159 1.833c-.044.22-.077.341-.137.513-.313.884-.593 1.526-.913 2.087-.05.088-.059.1-.556.773l-.013.017-.518.701-.748.851c-.504.573-.755.862-.769.883a2.825 2.825 0 0 1-.283.35 8.706 8.706 0 0 0-.257.286 1.78 1.78 0 0 0-.256.382c-.02.043-.04.107-.162.507-.075.252-.143.476-.15.497-.042.142-.053.283-.041.55a1.18 1.18 0 0 1-.01.317c-.033.148-.131.252-.318.333l-.045.02-.558-.01c-.522-.008-.68-.008-2.417-.009-1.608 0-1.875.001-1.98.007-.139.007-.3.008-.366.002-.103-.01-.182-.028-.204-.05a.423.423 0 0 1-.137-.129.7.7 0 0 1-.078-.168c-.047-.145-.07-.302-.092-.655-.03-.478-.047-.584-.125-.78a3.208 3.208 0 0 0-.229-.452l-.265-.442c-.004-.007-.422-.476-.928-1.042-.505-.566-.927-1.042-.937-1.056a27.769 27.769 0 0 0-.642-.902c-.57-.78-.833-1.193-1.082-1.695-.133-.269-.11-.203-.331-.936l-.194-.644-.052-.437a5.457 5.457 0 0 0-.063-.48 2.5 2.5 0 0 1-.07-.473c-.01-.11-.008-.499.001-.615a2.13 2.13 0 0 1 .085-.49c.063-.2.084-.333.108-.707.017-.25.032-.375.058-.493.015-.069.027-.108.074-.24.318-.892.702-1.67 1.158-2.346a7.492 7.492 0 0 1 2.357-2.267 7.059 7.059 0 0 1 1.316-.626c.175-.057.27-.083.739-.2.388-.096.55-.14.718-.194zm2.891 23.083h-2.908a.482.482 0 0 0 0 .964h2.908a.482.482 0 0 0 0-.964zM17.98 7.715V9.44a.477.477 0 0 0 .953 0V7.715a.477.477 0 0 0-.954 0zm6.114 1.275-.863 1.494a.477.477 0 0 0 .826.477l.863-1.494a.477.477 0 0 0-.826-.477zm4.55 4.302-1.494.863a.477.477 0 1 0 .477.826l1.494-.862a.477.477 0 0 0-.477-.827zM20.53 33.346h-4.11a.482.482 0 1 0 0 .964h4.11a.482.482 0 0 0 0-.964zm.584-1.812h-5.277a.477.477 0 1 0 0 .954h5.277a.477.477 0 1 0 0-.954z" fill="#007AA9"/><path d="M.58.007a.837.837 0 0 1-.151.092L.325.15a.488.488 0 0 0-.227.198.366.366 0 0 0-.049.107C.015.623-.004 1.368.001 2.27c.003.656.013 1.05.033 1.306a.612.612 0 0 0 .085.31c.177.365.433.636.711.752.113.048.246.078.408.095.107.01.344.012.573.003.239-.009.595-.01.693-.002.078.006.186.018.246.028l.043.007.008.017c.027.06.041.236.047.576.003.212-.007.696-.017.792l-.003.023-.03.016c-.104.055-.226.063-.504.036a2.025 2.025 0 0 0-.367-.009.472.472 0 0 0-.286.132c-.044.046-.063.076-.142.23l-.071.142.007 1.676.008 1.897v.22l1.495 2.232c1.394 2.083 1.495 2.232 1.514 2.244.056.035.14.068.212.082.112.023.24.027.468.017a1.77 1.77 0 0 1 .335.004.314.314 0 0 1 .097.034l.008.007.007 2.73c.006 2.372.007 3.775.005 10.672-.001 4.368-.003 8.009-.004 8.092-.008.461.034.766.129.95.082.16.247.313.548.507.032.022.123.077.2.123.2.12.273.168.417.278.152.115.28.22.608.505l.32.276c.426.358.72.553 1.008.669l.045.018 1.32.008c1.14.007 1.816.008 4.987.008 2.312 0 3.739.002 3.857.004l.4.01c.697.02 1.042.019 1.363-.004.464-.033.788-.111 1.033-.25.334-.189.621-.505.816-.899.05-.103.066-.14.087-.214.062-.216.112-.523.231-1.42.09-.673.132-.964.18-1.227.081-.44.155-.666.233-.712.01-.005.377-.139.816-.298l.8-.289.894-.458.044.002c.05.003.09.013.137.036.077.036.14.087.275.216.103.1.153.144.195.173l1.053.746c.831.59 1.036.734 1.073.753.095.048.184.077.376.121l.155.036c.044.01.133.036.217.062a.63.63 0 0 0 .231.032c.096 0 .152-.005.248-.024.221-.044.47-.144.64-.255a6.74 6.74 0 0 0 1.01-.857c.186-.186.342-.351.716-.756.554-.6.667-.713 1.18-1.181.503-.46.704-.66.922-.92.224-.269.405-.557.484-.773a1.48 1.48 0 0 0 .051-.787c-.069-.365-.251-.763-.568-1.234a12.75 12.75 0 0 0-.642-.859c-.294-.372-.404-.52-.495-.668a8.199 8.199 0 0 0-.248-.327l-.221-.28.003-.02c.002-.01.153-.35.395-.881l.393-.863.142-.436c.079-.24.147-.443.152-.45a.237.237 0 0 1 .084-.071c.076-.04.175-.06.361-.071.2-.013.26-.02.336-.037.03-.007.222-.037.462-.071a5.06 5.06 0 0 0 .471-.077c.208-.055.454-.107.889-.187.35-.064.478-.09.634-.13.407-.101.682-.235.904-.438.196-.18.344-.418.46-.739a.853.853 0 0 0 .058-.373c0-.085-.003-.164-.009-.248a20.299 20.299 0 0 1-.015-.224 1.49 1.49 0 0 1 .019-.424 16.6 16.6 0 0 0 .015-.571l.01-.557-.01-1.332c-.01-1.166-.011-1.334-.017-1.354a.873.873 0 0 1-.025-.17 1.534 1.534 0 0 1 .019-.271c.031-.25.026-.332-.033-.485a2.55 2.55 0 0 0-.248-.483 2.105 2.105 0 0 0-.345-.399c-.264-.231-.53-.354-.96-.44a7.984 7.984 0 0 0-.805-.108l-.378-.041a4.075 4.075 0 0 1-.867-.178l-.059-.02-.896-.121-.017-.016c-.017-.016-.022-.032-.294-.777l-.277-.76-.276-.54c-.255-.499-.276-.542-.278-.564-.005-.064.032-.145.116-.25.039-.049.052-.063.143-.161a.977.977 0 0 0 .137-.166c.114-.196.232-.356.59-.803.437-.543.61-.779.785-1.071.35-.584.477-1.097.389-1.574-.08-.435-.332-.832-.816-1.285a12.98 12.98 0 0 0-.5-.444 8.377 8.377 0 0 1-.592-.538 2.792 2.792 0 0 1-.296-.345c-.022-.031-.107-.118-.441-.453-.406-.406-.415-.415-.465-.448-.16-.107-.273-.221-.533-.54a3.886 3.886 0 0 0-.297-.338 1.382 1.382 0 0 0-.287-.23c-.352-.209-.68-.329-.964-.354a1.454 1.454 0 0 0-.283.008c-.08.014-.122.026-.285.085a3.86 3.86 0 0 0-.472.19c-.16.08-.22.122-.783.547-.483.365-.707.532-.912.68-.625.454-.98.67-1.104.67h-.029l-1.108-.583-.705-.248a22.48 22.48 0 0 1-.718-.258l-.012-.01-.087-.535c-.086-.535-.087-.536-.11-.61a4.892 4.892 0 0 1-.13-.52c-.04-.196-.064-.348-.132-.832a5.71 5.71 0 0 0-.159-.835c-.131-.454-.35-.769-.692-.996a1.993 1.993 0 0 0-.306-.168c-.181-.08-.334-.11-.624-.121a8.945 8.945 0 0 0-.624.008c-.136.004-2.801.002-13.9-.01L.77 0C.606 0 .584 0 .58.007zm17.014 1.266c1.05.01 1.926.017 1.949.016.072-.002.233-.01.417-.02.43-.023.62-.023.81 0 .108.014.213.04.294.075a.14.14 0 0 1 .05.03l.013.017.009-.015c.005-.008.01-.015.013-.015a.39.39 0 0 1 .091.077c.161.184.27.544.366 1.203.025.173.053.402.102.84.068.602.097.823.137 1.071.087.526.188.853.325 1.044a.599.599 0 0 0 .11.114c.024.017.054.027.563.193l.538.175.737.31c.406.172.753.317.772.324.047.019.148.067.2.096l.268.156c.193.113.332.175.474.21.078.02.124.025.22.027l.088.002.365-.245c.3-.203.538-.369 1.335-.932.921-.65.987-.697 1.301-.903.182-.12.333-.22.336-.22.003-.001.016.003.029.01a.718.718 0 0 0 .189.054.87.87 0 0 1 .178.046c.021.01.156.143 1.577 1.566.854.855 1.567 1.57 1.584 1.59.042.051.096.102.2.19.177.152.244.227.295.33.049.097.052.16.015.272-.074.22-.301.58-.73 1.15-.103.139-.24.316-.492.642l-.413.535a.155.155 0 0 1-.004.005c-.332.438-.521.72-.592.885a.79.79 0 0 0-.05.335.637.637 0 0 0 .023.188c.004.013.147.294.319.624l.311.6.348.839.193.615c.106.338.199.628.206.644a.681.681 0 0 0 .266.278c.05.03.169.09.236.116.268.106.63.185 1.144.251.176.023.373.044.773.084.394.04.57.059.724.079.417.052.702.113.897.19a.984.984 0 0 1 .345.207.336.336 0 0 1 .066.096l.015.031-.001.352-.01 2.639-.008 2.287-.014.027c-.072.137-.3.252-.679.342-.319.075-.712.134-1.437.213-.915.101-1.096.123-1.36.168-.324.055-.562.123-.662.188-.189.123-.375.492-.615 1.218-.054.161-.07.213-.19.598a8.91 8.91 0 0 1-.163.483c-.02.05-.082.169-.35.665-.179.331-.33.615-.335.63-.014.04-.034.125-.043.192a.892.892 0 0 0 .009.302c.006.02.186.281.888 1.295.485.698 1 1.437 1.143 1.64l.263.37-.003.037c-.012.21-.034.273-.163.453-.037.052-.094.11-1.751 1.765l-1.713 1.711-.055.033a.615.615 0 0 1-.276.106c-.07.005-.132-.012-.242-.066-.215-.106-.509-.312-1.118-.78a41.517 41.517 0 0 0-.974-.74c-.391-.284-.665-.458-.909-.58-.205-.102-.359-.15-.482-.15-.084 0-.037-.023-.7.33-.514.273-.606.32-.657.34l-.515.174a27.57 27.57 0 0 0-.988.341c-.514.192-.82.345-.901.451l-.04.05c-.032.038-.068.135-.11.298-.075.296-.123.612-.233 1.523-.068.56-.104.83-.15 1.102-.106.637-.226 1.007-.38 1.162a.329.329 0 0 1-.109.078c-.099.05-.233.084-.4.102-.223.025-.462.026-.955.005-.157-.006-.377-.006-2.965-.006-2.507 0-2.841 0-3.241.007-.828.013-1.025.015-1.728.018-1.068.004-1.598-.008-1.878-.042-.092-.011-.167-.03-.167-.043a.21.21 0 0 0-.014-.034.43.43 0 0 1-.033-.117 7.788 7.788 0 0 1-.056-.867 107.01 107.01 0 0 1-.004-3.528c.012-1.007.013-1.68.02-10.14.008-8.155.009-8.842.015-8.846a.617.617 0 0 1 .126-.039c.114-.022.189-.021.463.003.097.008.247.006.3-.004.159-.032.273-.104.406-.255.146-.167.282-.386.503-.809l.105-.2c.015-.029.464-.705 1.114-1.677l1.088-1.629-.01-1.305c-.008-1.101-.009-1.308-.004-1.329.047-.209.06-.696.028-1.022a1.287 1.287 0 0 0-.063-.308.48.48 0 0 0-.225-.224.787.787 0 0 0-.252-.063 3.644 3.644 0 0 0-.373 0 1.212 1.212 0 0 1-.345-.016.373.373 0 0 1-.112-.052c-.006-.008-.006-.047.004-.712.005-.387.01-.706.012-.708a.086.086 0 0 1 .025-.011c.093-.036.27-.035 1.014.001.218.01.496.01.607-.004a.72.72 0 0 0 .29-.093c.489-.24.723-.597.79-1.203.016-.154.017-.182.019-.579l.002-.39-.014-.045a1.033 1.033 0 0 1-.037-.17 3.27 3.27 0 0 1 .002-.418 2.63 2.63 0 0 1 .121-.588l.005-.012.204.003 2.11.02zm-9.231.08 5.322.008h.171l.006.014c.023.056.04.315.051.763.006.231.003.996-.004 1.112-.005.09-.011.156-.017.177l-.004.015H1.348V1.341l.932.002c.513.002 3.25.006 6.083.01zM8.24 4.776l2.911.01c.003.003-.03 1.343-.032 1.348-.003.004-.8.005-3.491.006l-3.489.002-.003-.088A55.31 55.31 0 0 1 4.13 5.7c-.009-.533.006-.843.043-.92l.008-.017.575.002c.316.002 1.885.007 3.485.011zM7.803 7.6l4.719.01c.002.002-.01 2.033-.012 2.035l-4.878.005c-3.785.002-4.876.002-4.878-.002-.003-.005.012-1.897.016-1.999l.003-.058h.156l4.874.009zm-.125 3.388 1.024.01c1.29.014 1.185.014 1.884.004a33.437 33.437 0 0 1 .996-.004c.197 0 .222.001.251.008a.35.35 0 0 1 .053.016c.024.01.064.034.064.039 0 .002-.132.176-.293.389l-.293.385-.611.947-.615.951c-.002.002-.17.002-.39 0-.365-.005-.388-.005-.45.003-.25.029-.566.044-.92.044a23.4 23.4 0 0 1-1.015-.026 38.228 38.228 0 0 0-.824-.027 7.766 7.766 0 0 0-1.35.07 214.86 214.86 0 0 1-.608-.985 22.45 22.45 0 0 0-.434-.691c-.273-.416-.53-.742-.767-.972-.073-.07-.076-.077-.047-.089.104-.042.651-.068 1.633-.077.262-.003 2.322.001 2.712.005zm.025 4.113.676.016c.022 0 .02-.069.033 1.453l.005.552-.023.064c-.023.067-.032.085-.041.085-.027 0-1.418-1.034-1.472-1.094-.007-.008-.007-.033-.004-.53l.003-.522.063-.043.049.001c.026.001.346.01.711.018zm-.034 3.272.73.564v.26c0 .143 0 .553-.002.912-.002.523-.004.654-.008.654-.01 0-.253-.179-.795-.585-.6-.45-.717-.541-.721-.559a4.917 4.917 0 0 1-.007-.457c.01-.557.04-1.316.054-1.354.003-.008.004-.01.01-.004l.739.569zm-.009 3.444.717.539.003.337c0 .185.003.599.003.92v.583l-.076.005-.705-.554c-.589-.463-.706-.557-.71-.569-.015-.042-.022-.196-.022-.49 0-.5.025-1.101.054-1.267.003-.022.012-.043.018-.043l.718.539zm-.702 2.94c.216.127 1.21.865 1.38 1.025l.03.027.048 1.66-.021.07a.344.344 0 0 1-.026.071.423.423 0 0 1-.04-.01l-.037-.01-1.38-1.006-.004-.026a1.802 1.802 0 0 1-.018-.26c-.008-.266 0-1.446.011-1.541l.003-.022.012.003c.007.001.026.01.042.02zm0 3.48c.182.081 1.224.846 1.396 1.026l.025.026v.544c0 .43.002.618.009.906l.006.364a.73.73 0 0 1-.09-.037l-.09-.04-.663-.523-.67-.53c-.006-.006-.006-.024.003-.325.006-.183.01-.4.01-.507v-.188l-.014-.029a.291.291 0 0 1-.02-.059 1.452 1.452 0 0 1-.007-.269c.013-.164.046-.336.069-.361.008-.01.008-.01.035.003zM6.93 31.67c.092.044.282.169.571.376.374.267.766.57.856.663l.022.022.016 1.736-.01.01c-.008.009-.021.014-.05.02l-.038.01-.043-.032-.712-.541-.67-.509.003-.486.002-.887v-.4h.01c.005 0 .025.008.043.018zm.015 3.416c.616.473 1.364 1.06 1.432 1.123l.024.022.001.749c.001.739-.002 1.01-.01 1.018-.01.01-.082-.03-.228-.13-.372-.249-1.107-.794-1.245-.922l-.025-.024v-.316c0-.752.005-1.548.01-1.548a.26.26 0 0 1 .041.028z" fill="#2B2E36"/><path d="m17.13 11.989-.092.03c-.169.053-.33.097-.718.194a9.235 9.235 0 0 0-.739.199 7.04 7.04 0 0 0-1.316.626 7.492 7.492 0 0 0-2.357 2.267c-.456.677-.84 1.454-1.158 2.347-.046.13-.059.17-.074.24a3.212 3.212 0 0 0-.058.492c-.024.374-.045.507-.108.707a2.129 2.129 0 0 0-.085.49 7.18 7.18 0 0 0-.002.616 2.5 2.5 0 0 0 .07.472c.011.037.02.098.064.48l.052.437.194.644c.22.733.197.667.331.936.249.502.513.915 1.082 1.695.36.495.52.718.642.902.01.014.432.49.938 1.055l.927 1.042.265.443c.1.168.172.31.229.452.078.196.095.302.125.78.023.353.044.51.092.655a.7.7 0 0 0 .078.17.425.425 0 0 0 .137.128c.022.02.1.04.205.049.065.006.227.005.366-.002.104-.006.371-.007 1.98-.007 1.737 0 1.894.001 2.416.01l.558.008.045-.019c.186-.08.285-.185.318-.334a1.18 1.18 0 0 0 .01-.316c-.012-.267-.001-.408.042-.55l.15-.497c.12-.4.14-.464.161-.507.059-.123.137-.24.256-.382a8.59 8.59 0 0 1 .257-.287c.13-.14.231-.266.283-.349.014-.021.265-.31.769-.883l.748-.85.518-.702.012-.017c.499-.673.507-.685.557-.773.32-.561.6-1.203.913-2.087.06-.172.093-.293.137-.513.11-.549.172-1.257.16-1.833-.01-.418-.05-.724-.13-.965a4.548 4.548 0 0 1-.073-.382l-.06-.34-.229-.678c-.256-.759-.22-.665-.338-.885-.61-1.14-1.326-2.047-2.168-2.744-1.003-.831-2.206-1.37-3.605-1.614a10.529 10.529 0 0 0-1.737-.153l-.243-.002-.797.105zm1.055.782c.174.004.362.013.505.022 1.78.121 3.21.655 4.358 1.627.29.246.584.542.838.844.21.251.383.482.574.769.172.258.237.366.322.537.105.214.18.41.292.757.138.431.183.564.257.756.108.284.17.53.215.869.12.88.036 2.039-.208 2.884-.102.35-.28.772-.52 1.224-.087.162-.146.269-.37.662l-.21.366-.916 1.18-.333.387c-.184.213-.34.397-.346.408a2.486 2.486 0 0 1-.128.186c-.112.148-.2.244-.539.584a8.27 8.27 0 0 0-.482.507 2.628 2.628 0 0 0-.259.364 4.777 4.777 0 0 0-.412.865c-.046.135-.06.235-.066.484-.008.311-.026.432-.084.551l-.021.042H20.6c-.291 0-4.324-.02-4.325-.021a2.94 2.94 0 0 1-.045-.206 6.551 6.551 0 0 1-.062-.435 3.944 3.944 0 0 0-.087-.538c-.05-.192-.094-.288-.249-.538a9.886 9.886 0 0 0-.856-1.17c-.217-.261-.384-.45-.874-.99-.684-.752-.931-1.04-1.226-1.425-.806-1.052-1.254-2.038-1.441-3.176-.086-.518-.113-1.027-.09-1.715.017-.555.071-.961.172-1.312a3.44 3.44 0 0 1 .128-.356c.039-.097.107-.27.151-.386.29-.758.402-.976.714-1.392.075-.1.12-.157.335-.43.164-.206.255-.329.382-.514.072-.106.132-.18.236-.288.444-.469 1.267-.986 2.266-1.424.25-.11.607-.25.697-.275.093-.025.288-.063.771-.15.492-.087.675-.123.695-.135.009-.004.1-.004.293 0z" fill="#2B2E36"/><path d="M18.095 13.715c-.012.006-.03.008-.08.01a4.323 4.323 0 0 0-.93.133 6.658 6.658 0 0 0-1.598.657 5.895 5.895 0 0 0-1.682 1.423 5.602 5.602 0 0 0-.521.776c-.03.052-.08.138-.114.192-.17.27-.232.402-.258.547a.7.7 0 0 0-.002.182.476.476 0 0 0 .076.18.49.49 0 0 0 .333.176c.171.02.318-.071.466-.287.073-.107.151-.257.258-.496.079-.175.139-.296.189-.38a4 4 0 0 1 .803-.937 5.55 5.55 0 0 1 1.44-.9c.052-.023.17-.061.545-.179.54-.169.501-.157.57-.17.119-.024.142-.025.499-.026.293 0 .334 0 .378-.007.156-.023.254-.067.338-.153a.604.604 0 0 0 .147-.28.398.398 0 0 0-.002-.134c-.052-.201-.325-.319-.771-.333-.06-.002-.07 0-.084.006zm-2.511 5.025a.325.325 0 0 0-.153.059.555.555 0 0 0-.103.125c-.044.06-.084.111-.09.115-.022.019-.042.086-.042.148 0 .1.03.179.145.37.034.057.072.125.084.151l.282.551.26.505.057.14c.124.308.24.62.477 1.271l.151.417.3 1.406.034.33c.035.326.035.33.07.87v.008c.02.303.037.557.039.566l.014.054c.044.167.05.416.027 1.048-.02.506-.017.82.006 1.034.03.278.101.465.206.546.09.069.193.075.35.022a.482.482 0 0 0 .294-.243l.019-.036v-.845c0-1.011-.005-1.478-.02-1.896-.037-.995-.125-1.673-.279-2.145a12.439 12.439 0 0 1-.133-.557l-.112-.496-.079-.205a4.22 4.22 0 0 1-.123-.358 5.443 5.443 0 0 0-.234-.618 15.143 15.143 0 0 0-.274-.625l-.115-.251.019-.02c.021-.02.043-.027.087-.027.06 0 .116.02.215.077a.787.787 0 0 0 .41.104c.08 0 .116-.004.189-.018.229-.046.469-.18.717-.401.045-.04.13-.11.201-.164.003-.002.024.02.066.071.077.094.104.123.161.174.203.18.438.304.645.34.044.008.119.012.168.008.075-.005.106-.014.327-.097.156-.058.238-.079.31-.08.033 0 .044.002.062.01.024.01.027.015.033.055.015.089-.032.202-.161.39a.631.631 0 0 0-.094.174 5.836 5.836 0 0 1-.06.148 6.21 6.21 0 0 0-.078.196c-.024.065-.064.17-.09.235-.043.112-.054.147-.294.96-.276.931-.27.91-.298 1.024-.14.559-.217 1.251-.246 2.194-.008.29-.012.57-.014 1.173-.001.34-.006.814-.01 1.053-.007.493-.01.442.03.502a.59.59 0 0 0 .352.221c.044.01.115.01.15 0 .145-.037.242-.173.304-.425.036-.145.059-.322.072-.572a16.38 16.38 0 0 0 0-.832l-.011-.34a14.107 14.107 0 0 1-.006-.764c.008-.158.022-.276.042-.349.014-.053.015-.068.04-.4l.025-.331.371-1.922.035-.096c.079-.214.181-.472.326-.818.196-.471.274-.663.345-.848.04-.102.11-.298.133-.368.017-.051.032-.078.318-.591.235-.42.303-.544.31-.566a.404.404 0 0 0 .002-.167.38.38 0 0 0-.117-.19.73.73 0 0 0-.365-.175l-.034-.005-.037.022a7.645 7.645 0 0 1-.766.346c-.521.208-.901.316-1.015.29-.014-.004-.086-.06-.407-.318a42.557 42.557 0 0 0-.402-.32c-.041-.024-.153-.027-.227-.007a.657.657 0 0 0-.213.106l-.35.285c-.31.253-.328.266-.353.274-.168.05-.395-.012-.75-.203a23.568 23.568 0 0 1-.255-.144c-.323-.183-.45-.247-.588-.294a.682.682 0 0 0-.282-.042zm-2.749.506a.706.706 0 0 1-.14.088.488.488 0 0 0-.148.096c-.052.052-.075.118-.093.266a3 3 0 0 0 0 .425c.037.432.13.88.27 1.295.181.535.404.862.61.896.056.01.109-.002.188-.041a.587.587 0 0 0 .275-.268l.016-.032v-.18l-.028-.071a5.856 5.856 0 0 1-.138-.416c-.107-.36-.129-.428-.185-.59a1.116 1.116 0 0 1-.071-.302 3.837 3.837 0 0 1-.008-.367 6.01 6.01 0 0 0-.005-.347c-.022-.18-.064-.281-.143-.344a.623.623 0 0 0-.355-.116c-.032 0-.039.001-.045.008zm3.705 16.337c0-.266.215-.482.481-.482h2.908a.482.482 0 0 1 0 .964h-2.908a.482.482 0 0 1-.482-.482zm1.915-25.666a.477.477 0 0 1-.477-.477V7.714a.477.477 0 0 1 .954 0V9.44a.477.477 0 0 1-.477.477zm4.95 1.219a.477.477 0 0 1-.175-.652l.863-1.494a.477.477 0 0 1 .826.477l-.863 1.494a.477.477 0 0 1-.651.175zm3.569 3.671a.477.477 0 0 1 .175-.652l1.494-.863a.477.477 0 1 1 .477.827l-1.494.862a.477.477 0 0 1-.652-.174zM15.938 33.828c0-.267.216-.482.482-.482h4.11a.482.482 0 0 1 0 .964h-4.11a.482.482 0 0 1-.482-.482zm-.578-1.818c0-.263.214-.476.477-.476h5.277a.477.477 0 1 1 0 .954h-5.277a.477.477 0 0 1-.477-.477z" fill="#2B2E36"/></svg>