<svg width="373" height="477" viewBox="0 0 373 477" fill="none" xmlns="http://www.w3.org/2000/svg">
<path d="M47.048 86.8404C30.0813 93.9516 10.4927 85.9334 3.3815 68.9646C-3.72929 51.9994 4.28889 32.4111 21.2555 25.2999C38.2222 18.1888 57.8109 26.207 64.922 43.1722C72.0328 60.141 64.0146 79.7293 47.048 86.8404Z" fill="#92B5F9"/>
<path d="M46.7123 86.0387C30.1872 92.9649 11.1086 85.1535 4.18252 68.6309C-2.74288 52.1048 5.06633 33.028 21.5914 26.1019C38.1165 19.1758 57.1951 26.9835 64.1208 43.5097C71.0466 60.0359 63.237 79.1126 46.7123 86.0387Z" fill="#92B5F9"/>
<path d="M58.6835 45.9548C64.3481 59.4696 57.9836 75.0198 44.4681 80.6833C30.9522 86.3469 15.4034 79.9831 9.73843 66.4683C4.07382 52.9498 10.4387 37.4033 23.9546 31.7397C37.4701 26.0726 53.0189 32.4364 58.6835 45.9548Z" fill="white"/>
<path d="M43.88 79.2829C31.089 84.6417 16.3206 78.5972 10.9597 65.8044C5.59874 53.0152 11.6436 38.245 24.4353 32.8863C37.2267 27.5239 51.9947 33.5683 57.3556 46.3612C62.7166 59.1504 56.6717 73.9205 43.88 79.2829Z" fill="white"/>
<path d="M13.5631 63.2609L9.40963 64.9988C8.72718 65.2854 8.40464 66.0727 8.69054 66.7548C8.9768 67.4405 9.76447 67.7598 10.4473 67.4768L14.6004 65.7353C15.2832 65.4487 15.6058 64.6614 15.3199 63.9793C15.0336 63.2972 14.2459 62.9743 13.5631 63.2609Z" fill="#92B5F9"/>
<path d="M42.0528 74.9225C41.3704 75.2092 41.0478 75.9965 41.3341 76.6786L43.0749 80.8328C43.3611 81.5149 44.1488 81.8378 44.8312 81.5512C45.5137 81.2645 45.8362 80.4772 45.55 79.7951L43.8096 75.6409C43.5233 74.9588 42.7356 74.6359 42.0528 74.9225Z" fill="#92B5F9"/>
<path d="M57.8683 44.6928L53.7148 46.4307C53.0323 46.7173 52.7094 47.5046 52.9957 48.1867C53.2816 48.8724 54.0696 49.1917 54.752 48.9087L58.9056 47.1672C59.588 46.8806 59.9109 46.0933 59.6247 45.4112C59.3388 44.7291 58.5507 44.4062 57.8683 44.6928Z" fill="#92B5F9"/>
<path d="M23.4845 30.6144C22.802 30.9011 22.4795 31.6884 22.7654 32.3705L24.5061 36.5247C24.7924 37.2068 25.5801 37.5297 26.2625 37.2431C26.945 36.9601 27.2675 36.1691 26.9813 35.4871L25.2405 31.3365C24.9546 30.6507 24.1669 30.3314 23.4845 30.6144Z" fill="#92B5F9"/>
<path d="M32.8169 19.3203L33.1873 14.0523C33.2175 13.6205 33.5926 13.294 34.0247 13.323L40.0674 13.7475C40.4995 13.7802 40.8253 14.1539 40.7952 14.5856L40.4248 19.8537C40.3946 20.2854 40.0191 20.6119 39.5863 20.5829L33.5454 20.1585C33.1126 20.1258 32.7864 19.7521 32.8169 19.3203Z" fill="#92B5F9"/>
<path d="M9.24532 29.3413L5.23006 25.9127C4.90063 25.6297 4.40538 25.6696 4.12383 25.9998L0.189854 30.6038C-0.0916898 30.934 -0.0525095 31.4311 0.276926 31.7104L4.29218 35.139C4.62162 35.422 5.11758 35.3821 5.39912 35.052L9.33239 30.4478C9.61394 30.1177 9.57512 29.6206 9.24532 29.3413Z" fill="#92B5F9"/>
<path d="M15.7194 20.7111C15.3308 20.8744 14.8828 20.6893 14.7195 20.3011L13.2505 16.7963C13.0876 16.4045 13.2712 15.9582 13.6594 15.795L20.8137 12.7981C21.2023 12.6349 21.6503 12.8163 21.8132 13.2045L23.2826 16.7129C23.4455 17.1011 23.262 17.5474 22.8737 17.7106L15.7194 20.7111Z" fill="#92B5F9"/>
<path d="M17.598 21.9737C14.1095 22.2386 10.6907 20.283 9.26415 16.8762C7.48165 12.624 9.48438 7.72965 13.738 5.94824C17.9913 4.16682 22.8845 6.16955 24.6674 10.4217C26.0944 13.8249 25.0948 17.6381 22.4582 19.942L23.255 21.8431C26.8828 19.0531 28.3409 14.0716 26.4916 9.6562C24.2901 4.40629 18.226 1.92101 12.9732 4.12329C7.7211 6.32557 5.23872 12.3882 7.43991 17.6417C9.28954 22.0535 13.8653 24.5098 18.3962 23.8785L17.598 21.9737Z" fill="#92B5F9"/>
<path d="M20.9992 24.6863C21.834 24.338 22.6746 24.0223 23.52 23.743L21.4001 18.6853L17.4479 20.3434L19.5417 25.3357C20.0199 25.1107 20.5057 24.8931 20.9992 24.6863Z" fill="#92B5F9"/>
<path d="M36.4112 55.0875C36.9337 56.3356 36.3466 57.7687 35.1004 58.2912C33.8537 58.8136 32.4199 58.2258 31.8975 56.9814C31.375 55.7333 31.962 54.3002 33.2083 53.7777C34.4549 53.2553 35.8888 53.843 36.4112 55.0875Z" fill="#92B5F9"/>
<path d="M36.7586 36.0281L35.0113 56.1353C34.967 56.6432 34.5207 57.0169 34.0143 56.9734C33.5078 56.9298 33.1326 56.4836 33.1765 55.9756C33.1838 55.8958 33.0292 56.7847 36.7586 36.0281Z" fill="#92B5F9"/>
<path d="M51.8385 65.9856L33.8016 56.9261C33.3474 56.6976 33.1642 56.1461 33.392 55.6889C33.6202 55.2354 34.1739 55.054 34.6281 55.2826C34.6996 55.3152 33.9329 54.8472 51.8385 65.9856Z" fill="#92B5F9"/>
<path d="M35.0764 55.6458C35.2901 56.1574 35.0503 56.7415 34.5409 56.9556C34.0315 57.1696 33.4456 56.9302 33.2323 56.4186C33.0189 55.9107 33.2588 55.3266 33.7678 55.1125C34.2772 54.8984 34.8631 55.1379 35.0764 55.6458Z" fill="#92B5F9"/>
<path d="M302.126 203.804C309.723 202.269 314.639 194.868 313.104 187.271C311.57 179.673 304.168 174.757 296.571 176.292C288.974 177.827 284.058 185.228 285.592 192.825C287.123 200.423 294.528 205.339 302.126 203.804ZM301.041 198.431C305.67 197.495 308.664 192.985 307.731 188.356C306.795 183.726 302.285 180.733 297.656 181.665C293.026 182.601 290.033 187.111 290.966 191.741C291.902 196.37 296.411 199.363 301.041 198.431ZM282.32 200.517C282.073 200.238 281.688 200.122 281.329 200.22C279.57 200.698 276.377 199.987 274.799 199.432L273.079 190.924C274.32 189.803 276.986 187.909 278.797 187.663C279.163 187.615 279.475 187.358 279.591 187.006L281.768 180.537C281.884 180.185 281.794 179.793 281.529 179.532C280.237 178.244 279.254 175.124 278.946 173.48L285.454 167.737C287.047 168.248 290.019 169.613 291.136 171.057C291.365 171.35 291.738 171.492 292.105 171.416L298.795 170.066C299.158 169.994 299.452 169.718 299.546 169.359C300.014 167.595 302.227 165.183 303.494 164.094L311.726 166.859C312.074 168.495 312.382 171.75 311.69 173.44C311.548 173.785 311.613 174.18 311.86 174.46L316.377 179.579C316.62 179.858 317.005 179.971 317.364 179.877C319.127 179.398 322.32 180.109 323.898 180.66L325.618 189.172C324.377 190.293 321.71 192.187 319.9 192.434C319.534 192.481 319.222 192.738 319.105 193.09L316.929 199.559C316.809 199.911 316.903 200.303 317.164 200.564C318.46 201.852 319.439 204.972 319.751 206.616L313.242 212.359C311.65 211.848 308.675 210.484 307.561 209.04C307.332 208.746 306.955 208.604 306.592 208.677L299.902 210.03C299.535 210.103 299.245 210.378 299.147 210.738C298.679 212.504 296.469 214.914 295.2 216.002L286.971 213.237C286.623 211.601 286.314 208.343 287.007 206.656C287.149 206.311 287.08 205.916 286.837 205.636L282.32 200.517Z" fill="#FA7167"/>
<path d="M339.42 222.861C334.866 223.781 330.422 220.831 329.498 216.272C328.578 211.712 331.532 207.268 336.09 206.348C340.648 205.428 345.091 208.378 346.015 212.937C346.931 217.497 343.981 221.94 339.42 222.861ZM337.599 230.986C337.671 230.703 337.903 230.485 338.196 230.427L343.491 229.356C343.78 229.298 344.076 229.409 344.259 229.642C345.145 230.786 347.498 231.864 348.756 232.27L353.911 227.724C353.664 226.423 352.888 223.952 351.866 222.932C351.657 222.724 351.584 222.415 351.676 222.136L353.401 217.014C353.493 216.734 353.74 216.532 354.029 216.492C355.462 216.299 357.572 214.799 358.556 213.911L357.195 207.173C355.948 206.736 353.42 206.173 352.022 206.55C351.74 206.626 351.432 206.535 351.238 206.314L347.665 202.262C347.467 202.041 347.418 201.726 347.528 201.456C348.079 200.118 347.836 197.536 347.555 196.244L341.039 194.054C340.036 194.917 338.287 196.826 337.911 198.221C337.838 198.506 337.606 198.723 337.317 198.783L332.018 199.852C331.733 199.912 331.433 199.798 331.254 199.566C330.368 198.422 328.015 197.343 326.757 196.936L321.598 201.486C321.846 202.786 322.625 205.257 323.647 206.276C323.857 206.485 323.929 206.793 323.834 207.074L322.112 212.195C322.017 212.476 321.773 212.677 321.481 212.716C320.051 212.91 317.938 214.41 316.957 215.298L318.318 222.037C319.565 222.474 322.093 223.037 323.492 222.659C323.773 222.582 324.077 222.674 324.275 222.894L327.848 226.947C328.042 227.168 328.095 227.482 327.985 227.754C327.434 229.092 327.677 231.672 327.955 232.963L334.474 235.155C335.474 234.291 337.226 232.383 337.599 230.986Z" fill="#FA7167"/>
<path d="M318.086 125.821L310.042 121.42L305.453 128.625L297.34 124.634L292.105 130.983L285.545 128.988L284.536 132.311L293.309 134.974L298.273 128.959L306.712 133.109L311.225 126.024L318.514 130.015L318.086 125.821Z" fill="#BED1F9"/>
<path d="M106.141 17.5541L102.701 26.0513L110.393 29.7701L107.375 38.2926L114.286 42.7552L113.067 49.4999L116.485 50.1167L118.11 41.0935L111.561 36.8668L114.703 27.9996L107.139 24.3424L110.255 16.6399L106.141 17.5541Z" fill="#92B5F9"/>
<path d="M308.878 236.629L307.187 233.298L303.377 233.429L301.748 229.561L297.735 230.947L295.696 226.655L291.843 227.478L289.209 223.665L290.65 222.668L292.62 225.519L296.687 224.649L298.646 228.777L302.724 227.366L304.527 231.633L308.243 231.509L309.814 234.597L312.237 234.002L312.654 235.707L308.878 236.629Z" fill="#FA7167"/>
<path d="M238.496 82.3415L236.718 77.0481L244.918 73.2421L243.27 65.1804L248.941 61.331L246.993 58.4611L239.406 63.6094L240.97 71.2503L232.437 75.2049L235.114 83.1724L238.496 82.3415Z" fill="#FA7167"/>
<path d="M304.198 70.1326C313.242 83.9522 300.943 103.131 284.838 100.279C281.946 99.7673 278.931 100.431 276.344 102.028L267.437 107.517C264.985 109.03 261.901 108.373 260.355 106.011L256.926 100.776C255.381 98.4103 255.889 95.1341 258.098 93.2439C266.149 86.3468 269.574 84.3912 270.659 78.608C273.823 61.69 295.153 56.3094 304.198 70.1326Z" fill="#BED1F9"/>
<path d="M290.324 87.4216C291.405 88.55 293.045 89.5659 294.144 88.3504C295.555 86.7903 293.538 85.6184 290.324 87.4216ZM286.532 71.8496C285.879 71.5993 284.134 72.3249 284.834 76.0909C286.797 74.3712 287.396 73.6165 286.532 71.8496ZM282.962 77.7345C282.784 76.9834 282.61 76.1381 282.541 75.3C282.128 70.471 285.861 68.7984 287.831 70.0465C289.09 70.841 289.602 72.6914 288.876 74.4474C288.227 76.022 286.815 77.1576 285.386 78.4093C286.155 81.0905 287.359 83.5613 288.967 85.7635C293.371 83.1114 296.517 84.5626 296.724 86.9645C296.854 88.5028 295.864 90.0955 294.373 90.7414C293.48 91.1296 291.176 91.6629 288.448 88.6443C281.014 93.887 271.312 101.633 271.283 101.655L270.05 99.9459C270.082 99.9205 279.726 92.2253 287.131 86.9899C285.6 84.8674 284.41 82.5164 283.586 79.9839C275.115 87.3817 267.648 93.2266 267.387 93.4371L266.16 91.7209C266.701 91.2819 273.935 85.6511 282.962 77.7345Z" fill="white"/>
<path d="M276.569 101.901C276.493 101.944 276.417 101.98 276.344 102.028L267.437 107.517C264.985 109.03 261.901 108.373 260.355 106.011L256.926 100.776C255.381 98.4104 255.889 95.1341 258.098 93.2439C261.679 90.1745 264.342 88.0847 266.298 86.2017L276.569 101.901Z" fill="#92B5F9"/>
<path d="M227.985 238.569L246.394 256.982C246.394 256.982 281.453 270.689 285.371 279.113C289.286 287.534 281.845 287.143 273.62 285.967C265.391 284.792 242.084 270.297 242.084 270.297L220.736 245.622L227.985 238.569Z" fill="#4951EC"/>
<path d="M281.87 275.421L277.317 273.803L268.504 277.917C268.504 277.917 263.947 281.001 261.745 288.642C259.542 296.279 261.745 341.965 265.416 349.308C269.092 356.651 281.87 275.421 281.87 275.421Z" fill="#BED1F9"/>
<path d="M310.782 458.624C310.782 458.624 314.019 460.71 314.284 461.668C314.552 462.629 316.925 473.009 316.036 474.214C315.147 475.415 311.893 474.834 313.159 475.708C314.113 476.372 320.266 476.877 324.199 475.817C325.349 475.505 324.823 465.804 324.994 464.323C325.237 462.179 326.725 457.303 325.821 456.033C325.382 455.416 322.857 454.328 320.586 453.443C318.195 452.51 315.543 449.872 315.543 449.872L310.782 458.624Z" fill="#FB9390"/>
<path d="M320.383 453.358C320.383 453.358 318.471 471.775 316.236 473.135C315.641 473.495 312.492 473.767 312.205 475.269C312.198 475.305 312.129 476.811 313.087 476.847L325.02 476.811C325.02 476.811 325.147 467.758 325.07 464.21C325.07 464.21 326.718 455.154 326.181 454.479C325.64 453.801 320.383 453.358 320.383 453.358Z" fill="#0B0754"/>
<path d="M357.495 458.624C357.495 458.624 360.729 460.71 360.994 461.668C361.263 462.629 363.637 473.009 362.746 474.214C361.858 475.415 358.604 474.834 359.869 475.708C360.823 476.373 366.977 476.877 370.909 475.817C372.061 475.505 371.536 465.804 371.703 464.323C371.948 462.179 373.435 457.303 372.532 456.033C372.092 455.416 369.566 454.328 367.296 453.443C364.906 452.51 362.255 449.873 362.255 449.873L357.495 458.624Z" fill="#FB9390"/>
<path d="M298.867 338.943C298.867 338.943 309.781 360.613 312.018 366.433L328.65 408.628L365.328 451.778C365.328 451.778 362.641 458.707 358.583 460.565C358.583 460.565 314.358 424.857 310.719 419.233C305.177 410.66 279.929 358.135 279.929 358.135L275.232 348.031L298.867 338.943Z" fill="#E8605D"/>
<path d="M272.491 338.711L272.666 357.193C272.666 357.193 264.771 417.554 266.298 421.138C270.032 429.89 311.055 459.528 311.055 459.528L316.635 449.931L287.16 417.028L298.324 385.002C301.448 377.565 308.091 363.19 307.92 355.124C307.779 348.213 294.075 332.184 294.075 332.184L272.491 338.711Z" fill="#FA7167"/>
<path d="M289.238 366.021C300.108 363.55 308.903 359.712 309.806 356.679C310.213 355.307 304.154 341.52 299.691 323.111C298.236 317.099 298.497 311.454 296.168 290.404C295.671 285.937 293.821 276.577 286.909 274.164C284.478 273.319 283.125 273.424 283.125 273.424C283.067 273.435 274.327 273.493 270.329 275.713C269.342 277.052 265.663 284.381 264.683 304.357C264.255 313.079 262.514 341.085 262.873 345.635C262.924 346.31 262.993 346.963 263.072 347.594C264.64 359.683 277.353 368.721 289.238 366.021Z" fill="#4951EC"/>
<path d="M270.028 289.371H270.061C274.491 288.881 285.633 274.282 285.633 274.282L285.611 274.242L278.732 263.35C278.732 263.35 268.606 265.193 270.587 268.277C272.568 271.357 273.678 278.759 273.678 278.759C273.645 278.842 273.602 278.947 273.54 279.067C272.843 280.58 270.576 285.057 270.028 289.371Z" fill="#FB9390"/>
<path d="M270.587 268.276C268.606 265.196 278.735 263.349 278.735 263.349L279.309 264.256C279.323 265.022 279.236 265.722 279.026 266.324C277.93 269.412 275.299 272.129 272.567 273.439C272.067 271.531 271.399 269.539 270.587 268.276Z" fill="#EF7F7F"/>
<path d="M273.017 246.131C273.235 245.92 280.916 258.557 279.073 263.76C277.226 268.963 271.022 273.109 267.336 271.256C263.258 269.202 257.093 254.711 260.812 248.565C264.528 242.419 273.017 246.131 273.017 246.131Z" fill="#FB9390"/>
<path d="M261.893 240.46C266.414 239.487 274.49 240.823 279.036 244.023C284.627 247.955 284.812 254.936 282.291 259.497C279.773 264.061 281.289 267.42 281.289 267.42C281.289 267.42 273.431 266.927 271.842 261.579C271.174 259.337 272.005 257.817 270.496 256.551C269.331 255.575 268.355 252.741 267.201 250.459C267.201 250.459 262.133 247.767 260.203 249.984C259.542 250.742 256.092 241.704 261.893 240.46Z" fill="#0B0754"/>
<path d="M269.701 257.531C270.39 259.182 271.726 260.197 272.683 259.795C273.645 259.396 273.866 257.734 273.177 256.087C272.491 254.436 271.156 253.42 270.194 253.819C269.237 254.218 269.015 255.88 269.701 257.531Z" fill="#FB9390"/>
<path d="M367.147 453.381C367.147 453.381 365.181 471.776 362.947 473.136C362.351 473.495 359.202 473.767 358.918 475.269C358.91 475.305 358.82 476.858 359.793 476.836L371.721 476.811C371.721 476.811 371.853 467.759 371.783 464.211C371.783 464.211 373.43 455.155 372.892 454.48C372.351 453.802 367.147 453.381 367.147 453.381Z" fill="#0B0754"/>
<path d="M151.264 476.785C86.606 481.868 79.1186 395.004 144.436 389.87C208.774 384.816 215.674 471.724 151.264 476.785ZM103.503 368.377C94.0259 348.556 91.423 318.972 101.751 295.509C119.162 255.904 167.068 239.741 163.542 194.854C162.653 183.548 157.621 174.456 150.212 168.604C130.714 153.206 99.3418 161.355 76.9497 172.109C62.6472 178.981 49.3635 188.722 37.1069 201.337L30.8777 122.062C57.7565 102.989 90.2798 93.0154 122.74 90.4648C189.262 85.2367 240.629 110.187 245.857 176.724C250.624 237.408 209.615 264.293 182.107 294.627C166.836 311.466 163.386 324.44 164.569 339.464C165.178 347.232 168.091 356.821 172.772 362.934L103.503 368.377Z" fill="#FA7167"/>
<path d="M218.127 242.579C218.007 242.031 218.45 242.463 217.626 238.178C217.391 236.941 216.618 235.638 216.045 234.945C215.736 234.572 215.021 233.929 214.579 233.665C213.839 233.222 213.258 233.94 213.407 234.347C213.556 234.757 214.318 236.161 214.466 236.571C214.615 236.977 214.68 237.975 214.343 238.309C214.006 238.639 208.65 232.5 208.317 231.959C208.034 231.502 207.399 229.507 207.399 229.507C207.399 229.507 206.934 228.052 206.365 228.422C205.991 228.665 205.581 229.862 206.655 232.221C207.591 234.281 208.89 235.929 208.741 236.048C208.357 236.364 206.031 233.581 206.031 233.581C206.031 233.581 205.222 232.028 204.67 231.477C204.326 230.446 203.694 229.166 203.034 229.666C202.911 229.757 203.35 231.956 203.35 231.956C203.35 231.956 204.162 233.411 204.507 234.125C205.117 235.388 206.506 236.919 206.981 237.739C207.377 238.425 206.992 238.265 206.96 238.345C206.938 238.407 206.336 237.641 205.421 236.524C204.961 235.958 204.329 235.417 203.89 234.68C203.484 234.002 202.798 233.138 202.374 232.631C201.166 231.194 200.527 232.17 201.445 233.686C201.793 234.263 202.178 234.891 202.57 235.522C204.097 237.982 205.98 239.905 205.795 240.137C205.559 240.438 202.323 236.73 202.323 236.73C202.323 236.73 200.041 235.21 201.398 237.449C202.972 240.043 204.678 241.704 204.754 241.773C205.294 242.241 206.724 244.444 208.828 245.783C210.932 247.121 214.343 249.142 214.343 249.142C214.735 249.614 215.733 251.152 217.115 253.325L222.216 247.19C220.42 245.322 218.211 242.96 218.127 242.579Z" fill="#FB9390"/>
<path d="M214.103 251.231L221.153 245.063L245.367 268.955C245.367 268.955 282.849 272.242 282.947 272.271L284.449 272.739C298.048 277.434 292.449 288.532 289.83 290.248C283.727 294.246 249.833 291.852 238.978 285.114C230.038 279.571 214.103 251.231 214.103 251.231Z" fill="#7C9AF2"/>
<path d="M211.252 46.5761L183.649 65.2465C180.848 67.144 177.038 66.4076 175.145 63.6066L156.47 36.0074C154.577 33.2028 155.309 29.3969 158.114 27.4994L185.713 8.82534C188.518 6.93146 192.324 7.66433 194.221 10.4689L212.892 38.0681C214.789 40.8727 214.053 44.6786 211.252 46.5761Z" fill="#FA7167"/>
<path d="M197.374 27.0017C202.207 34.1455 200.335 43.8544 193.191 48.6871C186.047 53.5198 176.338 51.6477 171.505 44.5039C166.673 37.36 168.545 27.6511 175.689 22.8185C182.832 17.9858 192.541 19.8579 197.374 27.0017Z" fill="white"/>
<path d="M179.295 29.3383L185.702 36.3224C186.174 36.834 186.138 37.6286 185.626 38.1002C185.115 38.5683 184.32 38.532 183.852 38.0204C183.776 37.9406 183.711 37.8462 183.66 37.7519L179.295 29.3383Z" fill="#FA7167"/>
<path d="M184.175 36.3758L193.84 30.9663L185.409 38.1464C184.951 38.5382 184.266 38.4838 183.877 38.0266C183.489 37.5695 183.544 36.8838 184.001 36.4955C184.055 36.452 184.117 36.4085 184.175 36.3758Z" fill="#FA7167"/>
<path d="M147.625 9.57617L143.873 1.5818L146.993 0.120335L149.119 4.65377L154.311 1.51271L156.092 4.45744L147.625 9.57617Z" fill="#BED1F9"/>
<path d="M280.034 44.0462C280.651 46.0163 281.271 47.9864 281.888 49.9565C282.371 51.4948 282.73 53.9982 284.235 54.8726C284.606 55.0903 285.222 54.9887 285.415 54.5606C286.162 52.9207 285.088 50.82 284.576 49.2127C283.949 47.2463 283.318 45.2798 282.69 43.3133C282.153 41.6335 279.501 42.3483 280.034 44.0462Z" fill="#92B5F9"/>
<path d="M300.881 41.9177C297.689 52.8057 297.66 52.4755 297.895 53.5894C298.08 54.4529 299.263 54.7105 299.851 54.1046C300.595 53.3354 300.41 53.5604 303.49 42.6361C303.965 40.9562 301.371 40.2451 300.881 41.9177Z" fill="#92B5F9"/>
<path d="M313.047 66.1483C314.926 65.2449 316.806 64.3452 318.685 63.4418C320.357 62.6399 322.513 62.005 323.659 60.4848C324.16 59.8173 323.47 58.9356 322.756 58.9138C320.902 58.8594 318.921 60.2816 317.299 61.0689C315.423 61.9796 313.551 62.8903 311.675 63.8009C310.101 64.5628 311.476 66.8994 313.047 66.1483Z" fill="#92B5F9"/>
<path d="M306.89 98.8577C308.82 101.347 310.75 103.89 312.934 106.165C314.11 107.387 315.819 105.592 314.766 104.329C312.742 101.902 310.663 99.5325 308.707 97.04C307.684 95.7375 305.892 97.5697 306.89 98.8577Z" fill="#92B5F9"/>
<path d="M313.983 86.1547C315.724 86.9202 317.484 87.6277 319.254 88.3207C320.872 88.9519 322.788 90.0839 324.537 89.8336C325.466 89.703 325.575 88.4622 325.052 87.8889C324.399 87.1706 324.047 87.225 320.205 85.7447C318.471 85.0771 316.751 84.3733 315.009 83.7238C313.613 83.2014 312.6 85.5488 313.983 86.1547Z" fill="#92B5F9"/>
</svg>
