<svg width="1000" height="667" viewBox="0 0 1000 667" fill="none" xmlns="http://www.w3.org/2000/svg"><g clip-path="url(#a)"><path fill="#007AA9" d="M0 0h1000v666.667H0z"/><path d="M655.432 666.667H129.681l290.151-251.611a13.107 13.107 0 0 1 8.612-3.216c3.681 0 7.343 1.537 9.944 4.537l217.044 250.29zm-92.819-376.434L310.932 0h586.372L562.613 290.233zM75.435 476.778l-94.255-94.253a3.192 3.192 0 0 1 0-4.512l94.255-94.253a3.187 3.187 0 0 1 4.51 0l94.255 94.253a3.192 3.192 0 0 1 0 4.512l-94.255 94.253a3.187 3.187 0 0 1-4.51 0zM213.916 93.332 50.781-21.702a4.776 4.776 0 0 1-1.15-6.656l115.032-163.134a4.775 4.775 0 0 1 6.656-1.151L334.453-77.611a4.775 4.775 0 0 1 1.152 6.656L220.572 92.18a4.777 4.777 0 0 1-6.656 1.152zm565.893 841.591L638.14 733.445a5.892 5.892 0 0 1 1.432-8.21l201.476-141.67a5.895 5.895 0 0 1 8.211 1.431l141.669 201.477a5.894 5.894 0 0 1-1.431 8.212L788.02 936.353a5.894 5.894 0 0 1-8.211-1.43zm42.732-569.462a2.766 2.766 0 1 1-5.44-1.002 2.766 2.766 0 0 1 5.44 1.002zm21.416 0a2.767 2.767 0 1 1-5.439-1.004 2.767 2.767 0 0 1 5.439 1.004zm21.418 0a2.767 2.767 0 1 1-5.442-1.005 2.767 2.767 0 0 1 5.442 1.005zm21.416 0a2.766 2.766 0 1 1-5.44-1.002 2.766 2.766 0 0 1 5.44 1.002zm21.416 0a2.766 2.766 0 1 1-5.44-1.003 2.766 2.766 0 0 1 5.44 1.003zm-85.666 18.04a2.766 2.766 0 1 1-5.44-1.004 2.766 2.766 0 1 1 5.44 1.004zm21.416 0a2.764 2.764 0 0 1-3.221 2.219 2.767 2.767 0 0 1 1.004-5.442 2.767 2.767 0 0 1 2.217 3.223zm21.418 0a2.767 2.767 0 1 1-5.442-1.005 2.767 2.767 0 0 1 5.442 1.005zm21.416 0a2.767 2.767 0 1 1-5.439-1.003 2.767 2.767 0 0 1 5.439 1.003zm21.416 0a2.766 2.766 0 1 1-5.44-1.003 2.766 2.766 0 0 1 5.44 1.003zm-85.666 18.04a2.766 2.766 0 1 1-5.44-1.002 2.765 2.765 0 1 1 5.44 1.002zm21.416 0a2.766 2.766 0 1 1-5.44-1 2.766 2.766 0 0 1 5.44 1zm21.418 0a2.767 2.767 0 1 1-5.443-1.003 2.767 2.767 0 0 1 5.443 1.003zm21.416 0a2.766 2.766 0 1 1-5.44-1.002 2.766 2.766 0 1 1 5.44 1.002zm21.416 0a2.766 2.766 0 1 1-5.441-1 2.766 2.766 0 0 1 5.441 1zm-85.666 18.041a2.766 2.766 0 1 1-5.441-1.004 2.766 2.766 0 0 1 5.441 1.004zm21.416 0a2.765 2.765 0 1 1-5.44-1.004 2.767 2.767 0 0 1 5.44 1.004zm21.418 0a2.768 2.768 0 0 1-5.442-1.004 2.767 2.767 0 0 1 5.442 1.004zm21.416 0a2.766 2.766 0 1 1-5.44-1.002 2.766 2.766 0 0 1 5.44 1.002zm21.416 0a2.767 2.767 0 1 1-5.442-1.004 2.767 2.767 0 0 1 5.442 1.004zm-85.666 18.04a2.766 2.766 0 1 1-5.441-1.004 2.766 2.766 0 0 1 5.441 1.004zm21.416 0a2.765 2.765 0 1 1-5.44-1.004 2.767 2.767 0 0 1 5.44 1.004zm21.418 0a2.768 2.768 0 0 1-5.442-1.004 2.767 2.767 0 0 1 5.442 1.004zm21.416 0a2.766 2.766 0 1 1-5.44-1.002 2.766 2.766 0 0 1 5.44 1.002zm21.416 0a2.767 2.767 0 1 1-5.442-1.004 2.767 2.767 0 0 1 5.442 1.004zm-85.666 18.04a2.766 2.766 0 1 1-5.441-1.004 2.766 2.766 0 0 1 5.441 1.004zm21.416 0a2.765 2.765 0 1 1-5.44-1.004 2.766 2.766 0 1 1 5.44 1.004zm21.418 0a2.768 2.768 0 0 1-5.442-1.004 2.767 2.767 0 0 1 5.442 1.004zm21.416 0a2.766 2.766 0 1 1-5.44-1.002 2.766 2.766 0 0 1 5.44 1.002zm21.416 0a2.767 2.767 0 1 1-5.442-1.004 2.767 2.767 0 0 1 5.442 1.004zm-85.666 18.042a2.765 2.765 0 1 1-5.438-1.004 2.765 2.765 0 0 1 5.438 1.004zm21.416 0a2.764 2.764 0 0 1-3.221 2.217 2.764 2.764 0 0 1-2.219-3.221 2.767 2.767 0 1 1 5.44 1.004zm21.418 0a2.767 2.767 0 1 1-5.44-1.007 2.767 2.767 0 0 1 5.44 1.007zm21.416 0a2.767 2.767 0 1 1-5.44-1.007 2.767 2.767 0 0 1 5.44 1.007zm21.416 0a2.766 2.766 0 1 1-5.44-1.005 2.766 2.766 0 0 1 5.44 1.005zm-85.666 18.04a2.765 2.765 0 1 1-5.438-1.004 2.765 2.765 0 0 1 5.438 1.004zm21.416 0a2.764 2.764 0 0 1-3.221 2.217 2.764 2.764 0 0 1-2.219-3.221 2.767 2.767 0 1 1 5.44 1.004zm21.418 0a2.767 2.767 0 1 1-5.44-1.007 2.767 2.767 0 0 1 5.44 1.007zm21.416 0a2.767 2.767 0 1 1-5.44-1.007 2.767 2.767 0 0 1 5.44 1.007zm21.416 0a2.766 2.766 0 1 1-5.44-1.005 2.766 2.766 0 0 1 5.44 1.005zm-85.666 18.039a2.765 2.765 0 1 1-5.44-1.003 2.766 2.766 0 1 1 5.44 1.003zm21.416 0a2.763 2.763 0 0 1-3.221 2.218 2.765 2.765 0 1 1 1.004-5.44 2.766 2.766 0 0 1 2.217 3.222zm21.418 0a2.767 2.767 0 1 1-5.441-1.005 2.767 2.767 0 0 1 5.441 1.005zm21.416 0a2.767 2.767 0 1 1-5.441-1.005 2.767 2.767 0 0 1 5.441 1.005zm21.416 0a2.766 2.766 0 1 1-5.44-1.003 2.766 2.766 0 0 1 5.44 1.003zm-85.666 18.039a2.766 2.766 0 1 1-5.44-1.002 2.766 2.766 0 0 1 5.44 1.002zm21.416 0a2.766 2.766 0 1 1-5.44-1.002 2.766 2.766 0 0 1 5.44 1.002zm21.418 0a2.766 2.766 0 1 1-2.219-3.221 2.766 2.766 0 0 1 2.219 3.221zm21.416 0a2.766 2.766 0 1 1-5.44-1.001 2.766 2.766 0 0 1 5.44 1.001zm21.416 0a2.765 2.765 0 1 1-2.219-3.221 2.766 2.766 0 0 1 2.219 3.221zm-85.666 18.042a2.766 2.766 0 1 1-5.441-1.004 2.766 2.766 0 0 1 5.441 1.004zm21.416 0a2.765 2.765 0 1 1-5.44-1.003 2.765 2.765 0 1 1 5.44 1.003zm21.418 0a2.768 2.768 0 0 1-5.442-1.003 2.768 2.768 0 0 1 5.442 1.003zm21.416 0a2.767 2.767 0 1 1-5.439-1.003 2.767 2.767 0 0 1 5.439 1.003zm21.416 0a2.767 2.767 0 1 1-5.442-1.004 2.767 2.767 0 0 1 5.442 1.004zM67.877 55.936a2.767 2.767 0 0 1-5.44-1.003 2.765 2.765 0 0 1 3.221-2.218 2.765 2.765 0 0 1 2.22 3.22zm21.416 0a2.767 2.767 0 1 1-5.441-1.005 2.767 2.767 0 0 1 5.441 1.005zm21.417 0a2.768 2.768 0 0 1-3.223 2.219 2.765 2.765 0 0 1-2.218-3.222 2.765 2.765 0 0 1 3.222-2.218 2.765 2.765 0 0 1 2.219 3.22zm21.417 0a2.768 2.768 0 0 1-3.223 2.219 2.764 2.764 0 0 1-2.218-3.222 2.766 2.766 0 0 1 5.441 1.003zm21.416 0a2.768 2.768 0 0 1-5.442-1.003 2.766 2.766 0 0 1 3.223-2.218 2.765 2.765 0 0 1 2.219 3.22zM67.877 73.977a2.765 2.765 0 0 1-3.222 2.218 2.766 2.766 0 1 1 3.222-2.217zm21.416 0a2.765 2.765 0 0 1-3.222 2.218 2.766 2.766 0 1 1 3.222-2.218zm21.417 0a2.766 2.766 0 1 1-5.44-1.005 2.766 2.766 0 0 1 5.44 1.005zm21.417 0a2.766 2.766 0 1 1-5.44-1.006 2.766 2.766 0 0 1 5.44 1.006zm21.416 0a2.766 2.766 0 0 1-3.223 2.218 2.767 2.767 0 1 1 3.223-2.217zm-85.666 18.04a2.766 2.766 0 1 1-5.44-1.006 2.766 2.766 0 0 1 5.44 1.006zm21.416 0a2.766 2.766 0 1 1-5.44-1.005 2.766 2.766 0 0 1 5.44 1.005zm21.417 0a2.767 2.767 0 1 1-5.442-1.007 2.767 2.767 0 0 1 5.442 1.007zm21.417 0a2.768 2.768 0 0 1-5.441-1.004 2.766 2.766 0 1 1 5.441 1.004zm21.416 0a2.767 2.767 0 1 1-5.442-1.007 2.767 2.767 0 0 1 5.442 1.007zm-85.666 18.04a2.766 2.766 0 1 1-5.44-1.006 2.766 2.766 0 0 1 5.44 1.006zm21.416 0a2.765 2.765 0 0 1-3.222 2.217 2.765 2.765 0 1 1 1.004-5.44 2.767 2.767 0 0 1 2.218 3.223zm21.417 0a2.767 2.767 0 1 1-5.44-1.007 2.767 2.767 0 0 1 5.44 1.007zm21.417 0a2.767 2.767 0 1 1-5.442-1.008 2.767 2.767 0 0 1 5.442 1.008zm21.416 0a2.767 2.767 0 1 1-5.44-1.007 2.767 2.767 0 0 1 5.44 1.007zm-85.666 18.04a2.766 2.766 0 1 1-5.44-1.003 2.766 2.766 0 0 1 5.44 1.003zm21.416 0a2.766 2.766 0 1 1-5.44-1.002 2.766 2.766 0 0 1 5.44 1.002zm21.417 0a2.767 2.767 0 0 1-5.441-1.002 2.765 2.765 0 0 1 3.222-2.219 2.765 2.765 0 0 1 2.219 3.221zm21.417 0a2.768 2.768 0 0 1-3.223 2.219 2.765 2.765 0 0 1-2.218-3.221 2.766 2.766 0 0 1 5.441 1.002zm21.416 0a2.767 2.767 0 0 1-5.442-1.002 2.766 2.766 0 0 1 3.223-2.219 2.765 2.765 0 0 1 2.219 3.221zm-85.666 18.04a2.766 2.766 0 1 1-5.44-1.003 2.766 2.766 0 0 1 5.44 1.003zm21.416 0a2.766 2.766 0 1 1-5.44-1.002 2.766 2.766 0 0 1 5.44 1.002zm21.417 0a2.767 2.767 0 0 1-5.441-1.002 2.766 2.766 0 0 1 5.441 1.002zm21.417 0a2.765 2.765 0 1 1-2.219-3.221 2.767 2.767 0 0 1 2.219 3.221zm21.416 0a2.767 2.767 0 0 1-5.442-1.002 2.767 2.767 0 0 1 5.442 1.002zm-85.666 18.04a2.766 2.766 0 1 1-5.44-1.003 2.766 2.766 0 0 1 5.44 1.003zm21.416 0a2.766 2.766 0 1 1-5.44-1.002 2.766 2.766 0 0 1 5.44 1.002zm21.417 0a2.767 2.767 0 0 1-5.441-1.002 2.766 2.766 0 0 1 5.441 1.002zm21.417 0a2.765 2.765 0 1 1-2.219-3.221 2.767 2.767 0 0 1 2.219 3.221zm21.416 0a2.767 2.767 0 0 1-5.442-1.002 2.767 2.767 0 0 1 5.442 1.002zm-85.666 18.04a2.766 2.766 0 1 1-5.44-1.003 2.766 2.766 0 0 1 5.44 1.003zm21.416 0a2.766 2.766 0 1 1-5.44-1.002 2.766 2.766 0 0 1 5.44 1.002zm21.417 0a2.767 2.767 0 0 1-5.441-1.002 2.766 2.766 0 0 1 5.441 1.002zm21.417 0a2.765 2.765 0 1 1-2.219-3.221 2.767 2.767 0 0 1 2.219 3.221zm21.416 0a2.767 2.767 0 0 1-5.442-1.002 2.767 2.767 0 0 1 5.442 1.002zm-85.666 18.041a2.766 2.766 0 1 1-5.44-1.003 2.766 2.766 0 0 1 5.44 1.003zm21.416 0a2.766 2.766 0 1 1-5.44-1.002 2.766 2.766 0 0 1 5.44 1.002zm21.417 0a2.767 2.767 0 0 1-5.441-1.004 2.766 2.766 0 0 1 5.441 1.004zm21.417 0a2.766 2.766 0 1 1-5.442-1.002 2.766 2.766 0 0 1 5.442 1.002zm21.416 0a2.767 2.767 0 0 1-5.442-1.004 2.767 2.767 0 0 1 5.442 1.004zm-85.666 18.04a2.766 2.766 0 1 1-5.44-1.003 2.766 2.766 0 0 1 5.44 1.003zm21.416 0a2.766 2.766 0 1 1-5.44-1.002 2.766 2.766 0 0 1 5.44 1.002zm21.417 0a2.767 2.767 0 0 1-5.441-1.004 2.766 2.766 0 0 1 5.441 1.004zm21.417 0a2.766 2.766 0 1 1-5.442-1.002 2.766 2.766 0 0 1 5.442 1.002zm21.416 0a2.767 2.767 0 0 1-5.442-1.004 2.767 2.767 0 0 1 5.442 1.004zm-85.666 18.04a2.766 2.766 0 1 1-5.44-1.003 2.766 2.766 0 0 1 5.44 1.003zm21.416 0a2.766 2.766 0 1 1-5.44-1.002 2.766 2.766 0 0 1 5.44 1.002zm21.417 0a2.767 2.767 0 1 1-5.442-1.005 2.767 2.767 0 0 1 5.442 1.005zm21.417 0a2.766 2.766 0 1 1-5.442-1.002 2.766 2.766 0 0 1 5.442 1.002zm21.416 0a2.767 2.767 0 1 1-5.442-1.005 2.767 2.767 0 0 1 5.442 1.005z" fill="#fff" fill-opacity=".1"/><path d="M576.38.501a2.766 2.766 0 1 1-5.441-1.004A2.766 2.766 0 0 1 576.38.501zm21.416 0a2.766 2.766 0 1 1-5.441-1.004 2.766 2.766 0 0 1 5.441 1.004zm21.416 0a2.766 2.766 0 1 1-5.441-1.004 2.766 2.766 0 0 1 5.441 1.004zm21.416 0a2.767 2.767 0 1 1-5.438-1.004A2.767 2.767 0 0 1 640.628.5zm21.417 0a2.766 2.766 0 1 1-5.44-1.003 2.766 2.766 0 0 1 5.44 1.003zM576.38 18.543a2.766 2.766 0 1 1-5.441-1.004 2.766 2.766 0 0 1 5.441 1.003zm21.416 0a2.766 2.766 0 1 1-5.441-1.004 2.766 2.766 0 0 1 5.441 1.003zm21.416 0a2.766 2.766 0 1 1-5.441-1.004 2.766 2.766 0 0 1 5.441 1.003zm21.416 0a2.764 2.764 0 0 1-3.221 2.218 2.768 2.768 0 0 1 1.004-5.442 2.768 2.768 0 0 1 2.217 3.223zm21.417 0a2.766 2.766 0 1 1-5.441-1.005 2.767 2.767 0 1 1 5.441 1.004zm-85.665 18.04a2.766 2.766 0 1 1-5.441-1.004 2.766 2.766 0 0 1 5.441 1.004zm21.416 0a2.766 2.766 0 1 1-5.441-1.004 2.766 2.766 0 0 1 5.441 1.004zm21.416 0a2.766 2.766 0 1 1-5.441-1.004 2.766 2.766 0 0 1 5.441 1.004zm21.416 0a2.767 2.767 0 1 1-5.438-1.004 2.767 2.767 0 0 1 5.438 1.004zm21.417 0a2.766 2.766 0 1 1-5.44-1.003 2.766 2.766 0 0 1 5.44 1.003zm-85.665 18.04a2.767 2.767 0 1 1-5.441-1.004 2.767 2.767 0 0 1 5.441 1.004zm21.416 0a2.767 2.767 0 1 1-5.441-1.004 2.767 2.767 0 0 1 5.441 1.004zm21.416 0a2.767 2.767 0 1 1-5.441-1.004 2.767 2.767 0 0 1 5.441 1.004zm21.416 0a2.767 2.767 0 1 1-5.438-1.004 2.767 2.767 0 0 1 5.438 1.004zm21.417 0a2.766 2.766 0 1 1-5.44-1.003 2.766 2.766 0 0 1 5.44 1.003zM576.38 72.662a2.765 2.765 0 0 1-3.223 2.219 2.766 2.766 0 1 1 3.223-2.219zm21.416 0a2.765 2.765 0 0 1-3.223 2.219 2.766 2.766 0 1 1 3.223-2.219zm21.416 0a2.765 2.765 0 1 1-5.44-1.002 2.767 2.767 0 1 1 5.44 1.003zm21.416 0a2.765 2.765 0 1 1-5.44-1.003 2.766 2.766 0 1 1 5.44 1.003zm21.417 0a2.765 2.765 0 1 1-5.441-1.003 2.766 2.766 0 1 1 5.441 1.003zM576.38 90.704a2.766 2.766 0 1 1-5.442-1.003 2.766 2.766 0 0 1 5.442 1.003zm21.416 0a2.766 2.766 0 1 1-5.442-1.003 2.766 2.766 0 0 1 5.442 1.003zm21.416 0a2.767 2.767 0 1 1-5.438-1.004 2.767 2.767 0 0 1 5.438 1.004zm21.416 0a2.766 2.766 0 1 1-5.441-1.004 2.766 2.766 0 0 1 5.441 1.004zm21.417 0a2.767 2.767 0 1 1-5.44-1.004 2.767 2.767 0 0 1 5.44 1.004zM317.24 550.842a2.766 2.766 0 1 1-5.44-1.004 2.766 2.766 0 1 1 5.44 1.004zm21.416 0a2.765 2.765 0 1 1-5.44-1.004 2.767 2.767 0 0 1 3.223-2.219 2.768 2.768 0 0 1 2.217 3.223zm21.417 0a2.766 2.766 0 1 1-5.44-1.003 2.766 2.766 0 0 1 5.44 1.003zm21.416 0a2.766 2.766 0 1 1-5.44-1.003 2.766 2.766 0 0 1 5.44 1.003zm21.416 0a2.765 2.765 0 1 1-5.44-1.004 2.767 2.767 0 0 1 5.44 1.004zm-85.665 18.041a2.767 2.767 0 1 1-5.44-1.006 2.767 2.767 0 0 1 5.44 1.006zm21.416 0a2.766 2.766 0 1 1-5.44-1.003 2.766 2.766 0 0 1 5.44 1.003zm21.417 0a2.767 2.767 0 1 1-5.442-1.007 2.767 2.767 0 0 1 5.442 1.007zm21.416 0a2.767 2.767 0 1 1-5.442-1.007 2.767 2.767 0 0 1 5.442 1.007zm21.416 0a2.766 2.766 0 1 1-5.44-1.003 2.766 2.766 0 0 1 5.44 1.003zm-85.665 18.041a2.767 2.767 0 1 1-5.44-1.006 2.767 2.767 0 0 1 5.44 1.006zm21.416 0a2.766 2.766 0 1 1-5.44-1.003 2.766 2.766 0 0 1 5.44 1.003zm21.417 0a2.767 2.767 0 1 1-5.442-1.007 2.767 2.767 0 0 1 5.442 1.007zm21.416 0a2.767 2.767 0 1 1-5.442-1.007 2.767 2.767 0 0 1 5.442 1.007zm21.416 0a2.766 2.766 0 1 1-5.44-1.003 2.766 2.766 0 0 1 5.44 1.003zm-85.665 18.04a2.765 2.765 0 0 1-5.44-1.004 2.765 2.765 0 1 1 5.44 1.004zm21.416 0a2.764 2.764 0 0 1-3.221 2.217 2.765 2.765 0 1 1 1.004-5.44 2.767 2.767 0 0 1 2.217 3.223zm21.417 0a2.766 2.766 0 1 1-5.44-1.005 2.766 2.766 0 0 1 5.44 1.005zm21.416 0a2.766 2.766 0 1 1-5.44-1.005 2.766 2.766 0 0 1 5.44 1.005zm21.416 0a2.764 2.764 0 0 1-3.221 2.217 2.765 2.765 0 1 1 1.003-5.44 2.767 2.767 0 0 1 2.218 3.223zm-85.665 18.04a2.766 2.766 0 1 1-5.44-1.006 2.766 2.766 0 0 1 5.44 1.006zm21.416 0a2.765 2.765 0 0 1-3.221 2.217 2.767 2.767 0 1 1 3.221-2.217zm21.417 0a2.766 2.766 0 1 1-5.44-1.007 2.766 2.766 0 0 1 5.44 1.007zm21.416 0a2.766 2.766 0 1 1-5.44-1.007 2.766 2.766 0 0 1 5.44 1.007zm21.416 0a2.765 2.765 0 0 1-3.221 2.217 2.767 2.767 0 1 1 3.221-2.217zm-85.665 18.038a2.766 2.766 0 1 1-5.44-1 2.766 2.766 0 0 1 5.44 1zm21.416 0a2.765 2.765 0 1 1-5.44-1.001 2.767 2.767 0 0 1 5.44 1.001zm21.417 0a2.766 2.766 0 1 1-5.441-1 2.766 2.766 0 0 1 5.441 1zm21.416 0a2.766 2.766 0 1 1-5.441-1 2.766 2.766 0 0 1 5.441 1zm21.416 0a2.765 2.765 0 1 1-5.44-1.001 2.767 2.767 0 0 1 5.44 1.001zm-85.665 18.042a2.766 2.766 0 1 1-5.441-1.004 2.766 2.766 0 0 1 5.441 1.004zm21.416 0a2.765 2.765 0 1 1-5.44-1.001 2.765 2.765 0 0 1 5.44 1.001zm21.417 0a2.767 2.767 0 1 1-5.442-1.004 2.767 2.767 0 0 1 5.442 1.004zm21.416 0a2.767 2.767 0 1 1-5.442-1.004 2.767 2.767 0 0 1 5.442 1.004zm21.416 0a2.765 2.765 0 1 1-5.44-1.001 2.765 2.765 0 0 1 5.44 1.001z" fill="#fff" fill-opacity=".1"/><path d="M925.937 470.289c0 8.355-6.773 15.128-15.128 15.128-8.354 0-15.128-6.773-15.128-15.128 0-8.356 6.774-15.129 15.128-15.129 8.355 0 15.128 6.773 15.128 15.129z" stroke="#000" stroke-opacity=".1" stroke-width="2.667" stroke-miterlimit="10"/><path d="M622.027 153.307c0 7.13-5.782 12.912-12.912 12.912-7.132 0-12.914-5.782-12.914-12.912 0-7.132 5.782-12.914 12.914-12.914 7.13 0 12.912 5.782 12.912 12.914z" stroke="#000" stroke-opacity=".1" stroke-width="2.276" stroke-miterlimit="10"/><path d="m742.257 99.496 10.89 10.889-10.89 10.889" stroke="#000" stroke-opacity=".1" stroke-width="2.667" stroke-miterlimit="10"/><path d="m753.113 99.496 10.89 10.889-10.89 10.889" stroke="#000" stroke-opacity=".1" stroke-width="2.667" stroke-miterlimit="10"/><path d="m763.969 99.496 10.89 10.889-10.89 10.889" stroke="#000" stroke-opacity=".1" stroke-width="2.667" stroke-miterlimit="10"/><path d="m774.825 99.496 10.89 10.889-10.89 10.889" stroke="#000" stroke-opacity=".1" stroke-width="2.667" stroke-miterlimit="10"/><path d="m785.681 99.496 10.89 10.889-10.89 10.889M218.019 488.983l10.889 10.889-10.889 10.889" stroke="#000" stroke-opacity=".1" stroke-width="2.667" stroke-miterlimit="10"/><path d="m228.873 488.983 10.89 10.889-10.89 10.889" stroke="#000" stroke-opacity=".1" stroke-width="2.667" stroke-miterlimit="10"/><path d="m239.729 488.983 10.89 10.889-10.89 10.889" stroke="#000" stroke-opacity=".1" stroke-width="2.667" stroke-miterlimit="10"/><path d="m250.585 488.983 10.89 10.889-10.89 10.889" stroke="#000" stroke-opacity=".1" stroke-width="2.667" stroke-miterlimit="10"/><path d="m261.441 488.983 10.89 10.889-10.89 10.889m-127.91-394.473 10.889 10.889-10.889 10.889" stroke="#000" stroke-opacity=".1" stroke-width="2.667" stroke-miterlimit="10"/><path d="m144.385 116.288 10.89 10.889-10.89 10.889" stroke="#000" stroke-opacity=".1" stroke-width="2.667" stroke-miterlimit="10"/><path d="m155.241 116.288 10.89 10.889-10.89 10.889" stroke="#000" stroke-opacity=".1" stroke-width="2.667" stroke-miterlimit="10"/><path d="m166.097 116.288 10.89 10.889-10.89 10.889" stroke="#000" stroke-opacity=".1" stroke-width="2.667" stroke-miterlimit="10"/><path d="m176.953 116.288 10.89 10.889-10.89 10.889" stroke="#000" stroke-opacity=".1" stroke-width="2.667" stroke-miterlimit="10"/><path d="M252.281-20.728c-10.52 7.395-19.958 5.741-27.544 4.412-7.076-1.24-12.665-2.219-19.565 2.632-6.9 4.852-7.868 10.444-9.096 17.521-1.315 7.588-2.952 17.03-13.471 24.427-10.517 7.396-19.957 5.74-27.541 4.41-7.075-1.24-12.665-2.22-19.563 2.631s-7.867 10.442-9.094 17.522c-1.314 7.585-2.95 17.028-13.469 24.422-10.517 7.398-19.957 5.742-27.54 4.412-7.076-1.24-12.666-2.22-19.563 2.631L59.7 75.567c10.516-7.396 19.956-5.74 27.54-4.412 7.075 1.241 12.664 2.221 19.563-2.63 6.899-4.852 7.867-10.442 9.094-17.521 1.315-7.585 2.951-17.028 13.469-24.424 10.518-7.395 19.957-5.741 27.539-4.412 7.076 1.241 12.666 2.22 19.566-2.63 6.898-4.851 7.868-10.443 9.094-17.522 1.316-7.588 2.954-17.028 13.471-24.424 10.52-7.397 19.959-5.743 27.543-4.415 7.077 1.242 12.666 2.22 19.566-2.632l6.136 8.727zm496.024 439.025c10.327-7.663 19.806-6.249 27.422-5.113 7.105 1.058 12.718 1.896 19.493-3.131 6.773-5.025 7.599-10.639 8.645-17.747 1.122-7.617 2.518-17.098 12.844-24.761 10.327-7.661 19.806-6.247 27.42-5.112 7.104 1.06 12.718 1.897 19.49-3.127 6.773-5.025 7.598-10.638 8.645-17.746 1.121-7.618 2.516-17.098 12.843-24.759 10.326-7.661 19.804-6.249 27.42-5.112 7.104 1.06 12.717 1.897 19.489-3.128l6.355 8.567c-10.326 7.66-19.803 6.246-27.419 5.11-7.104-1.06-12.717-1.897-19.489 3.13-6.774 5.024-7.599 10.637-8.646 17.745-1.121 7.617-2.516 17.097-12.842 24.76-10.326 7.66-19.804 6.247-27.419 5.111-7.105-1.06-12.717-1.896-19.491 3.128-6.774 5.026-7.6 10.641-8.646 17.749-1.123 7.617-2.518 17.097-12.844 24.759-10.327 7.662-19.806 6.249-27.422 5.113-7.105-1.059-12.718-1.896-19.492 3.131l-6.356-8.567z" fill="#000" fill-opacity=".1"/><path d="M964.853 97.461c-11.764 9.423-22.961 8.176-31.138 7.265-7.339-.817-10.779-1.021-15.439 2.712-4.66 3.734-5.211 7.135-6.015 14.475-.896 8.179-2.121 19.379-13.884 28.801-11.762 9.423-22.96 8.175-31.137 7.263-7.336-.817-10.776-1.021-15.435 2.711-4.66 3.733-5.21 7.133-6.013 14.472-.896 8.178-2.121 19.38-13.883 28.801-11.762 9.421-22.96 8.175-31.136 7.263-7.337-.818-10.777-1.02-15.436 2.709L772 197.285c11.76-9.421 22.959-8.175 31.135-7.263 7.337.818 10.777 1.022 15.436-2.71 4.66-3.732 5.21-7.135 6.014-14.474.895-8.177 2.12-19.378 13.883-28.8 11.76-9.421 22.959-8.173 31.135-7.262 7.337.818 10.777 1.021 15.436-2.711 4.66-3.733 5.212-7.135 6.016-14.475.896-8.178 2.121-19.378 13.884-28.8 11.762-9.424 22.96-8.177 31.137-7.266 7.339.817 10.779 1.021 15.439-2.712l13.338 16.65z" fill="#fff" fill-opacity=".1"/><path d="M957.832 88.698c-11.763 9.423-22.96 8.175-31.137 7.266-7.339-.819-10.778-1.022-15.439 2.712-4.66 3.732-5.211 7.134-6.015 14.473-.896 8.179-2.122 19.38-13.884 28.803-11.762 9.422-22.961 8.173-31.137 7.261-7.336-.816-10.776-1.02-15.435 2.712-4.658 3.732-5.21 7.133-6.013 14.472-.896 8.179-2.121 19.379-13.883 28.801-11.762 9.422-22.96 8.175-31.136 7.263-7.337-.817-10.777-1.023-15.436 2.709l-13.337-16.649c11.76-9.421 22.959-8.173 31.135-7.261 7.337.817 10.777 1.021 15.436-2.712 4.66-3.732 5.21-7.134 6.014-14.472.895-8.179 2.12-19.379 13.883-28.802 11.76-9.421 22.959-8.172 31.135-7.261 7.337.817 10.777 1.02 15.436-2.711 4.66-3.734 5.212-7.136 6.016-14.476.896-8.177 2.121-19.378 13.884-28.8 11.762-9.424 22.96-8.176 31.137-7.265 7.337.817 10.779 1.021 15.439-2.713l13.337 16.65z" stroke="#000" stroke-opacity=".1" stroke-width="2.667" stroke-miterlimit="10"/><path d="M286.815 239.103h-38.748a1.409 1.409 0 0 1-1.219-2.114l19.373-33.556 19.374-33.556a1.41 1.41 0 0 1 2.44 0l19.373 33.556 19.375 33.556a1.41 1.41 0 0 1-1.222 2.114h-38.746z" fill="#fff" fill-opacity=".1"/><path d="M265.716 250.001h-38.747a1.408 1.408 0 0 1-1.22-2.112l19.374-33.556 19.374-33.557a1.408 1.408 0 0 1 2.439 0l19.375 33.557 19.373 33.556a1.408 1.408 0 0 1-1.22 2.112h-38.748z" stroke="#000" stroke-opacity=".1" stroke-width="1.902" stroke-miterlimit="10"/><path d="M731.087 565.777h-38.748a1.408 1.408 0 0 1-1.219-2.113l19.373-33.556 19.374-33.556a1.409 1.409 0 0 1 2.44 0l19.373 33.556 19.375 33.556a1.41 1.41 0 0 1-1.22 2.113h-38.748z" fill="#fff" fill-opacity=".1"/><path d="M709.988 576.676h-38.747a1.408 1.408 0 0 1-1.22-2.112l19.374-33.556 19.374-33.558a1.409 1.409 0 0 1 2.439 0l19.375 33.558 19.373 33.556a1.408 1.408 0 0 1-1.22 2.112h-38.748z" stroke="#000" stroke-opacity=".1" stroke-width="1.902" stroke-miterlimit="10"/><path d="m868.479 56.57-7.854-7.853a4.308 4.308 0 0 1 0-6.092l7.854-7.853a4.308 4.308 0 0 0-6.092-6.092l-7.854 7.853a4.307 4.307 0 0 1-6.092 0l-7.853-7.853a4.307 4.307 0 0 0-6.092 0 4.306 4.306 0 0 0 0 6.092l7.853 7.853a4.308 4.308 0 0 1 0 6.092l-7.853 7.855a4.307 4.307 0 1 0 6.092 6.09l7.853-7.851a4.307 4.307 0 0 1 6.092 0l7.854 7.852a4.307 4.307 0 1 0 6.092-6.092zM347.373 611.583l-7.853-7.855a4.305 4.305 0 0 1 0-6.091l7.853-7.854a4.306 4.306 0 0 0 0-6.092 4.306 4.306 0 0 0-6.092 0l-7.854 7.853a4.307 4.307 0 0 1-6.091 0l-7.855-7.853a4.304 4.304 0 0 0-6.09 0 4.306 4.306 0 0 0 0 6.092l7.853 7.853a4.31 4.31 0 0 1 0 6.092l-7.853 7.855a4.304 4.304 0 0 0 0 6.09 4.304 4.304 0 0 0 6.09 0l7.855-7.853a4.308 4.308 0 0 1 6.092 0l7.853 7.853a4.306 4.306 0 0 0 6.092 0 4.304 4.304 0 0 0 0-6.09zM80.067 207.389l-8.357-7.315a4.307 4.307 0 0 1-.404-6.078l7.315-8.356a4.309 4.309 0 0 0-6.483-5.676l-7.315 8.357a4.306 4.306 0 0 1-6.079.404l-8.356-7.315a4.308 4.308 0 0 0-5.674 6.483l8.356 7.315a4.307 4.307 0 0 1 .404 6.078l-7.316 8.358a4.307 4.307 0 0 0 6.483 5.676l7.316-8.359a4.306 4.306 0 0 1 6.078-.404l8.357 7.316a4.31 4.31 0 0 0 5.675-6.484z" fill="#fff" fill-opacity=".1"/><path d="m76.312 361.48-57.583-57.586a1.946 1.946 0 0 1 0-2.754l57.583-57.586a1.95 1.95 0 0 1 2.756 0l57.584 57.586c.761.76.761 1.994 0 2.754L79.068 361.48a1.95 1.95 0 0 1-2.756 0z" stroke="#000" stroke-opacity=".1" stroke-width="2.667" stroke-miterlimit="10"/><path d="M28.188 585.66c0-.827.686-1.497 1.532-1.497s1.532.67 1.532 1.497c0 .826-.686 1.496-1.532 1.496s-1.532-.67-1.532-1.496zm-12.255 0c0-.827.686-1.497 1.532-1.497s1.532.67 1.532 1.497c0 .826-.686 1.496-1.532 1.496s-1.532-.67-1.532-1.496zm-12.254 0c0-.827.685-1.497 1.531-1.497.846 0 1.532.67 1.532 1.497 0 .826-.686 1.496-1.532 1.496s-1.531-.67-1.531-1.496zm8.124-55.693c0 .826-.686 1.497-1.532 1.497s-1.532-.671-1.532-1.497c0-.827.686-1.498 1.532-1.498s1.532.671 1.532 1.498zm12.255 0c0 .826-.686 1.497-1.532 1.497s-1.532-.671-1.532-1.497c0-.827.686-1.498 1.532-1.498s1.532.671 1.532 1.498zm12.255 0c0 .826-.686 1.497-1.532 1.497s-1.532-.671-1.532-1.497c0-.827.686-1.498 1.532-1.498s1.532.671 1.532 1.498zm5.402 7.4c-.827 0-1.497-.687-1.497-1.534s.67-1.53 1.497-1.53c.827 0 1.497.683 1.497 1.53s-.67 1.534-1.497 1.534zm0 12.253c-.827 0-1.497-.686-1.497-1.531 0-.846.67-1.532 1.497-1.532.827 0 1.497.686 1.497 1.532 0 .845-.67 1.531-1.497 1.531zm0 12.255c-.827 0-1.497-.684-1.497-1.531 0-.847.67-1.532 1.497-1.532.827 0 1.497.685 1.497 1.532s-.67 1.531-1.497 1.531zm0 12.255c-.827 0-1.497-.687-1.497-1.532s.67-1.532 1.497-1.532c.827 0 1.497.687 1.497 1.532s-.67 1.532-1.497 1.532zm-1.272 11.53c-.053-.413.023-.791-.03-1.081-.038-.295-.193-.429-.195-.417l.117.009.139-.174.182-.226a1.47 1.47 0 0 1 2.117 0l.183.226c.054.089.1.135.138.347.077.356.053.77-.115 1.148-.33.779-1.113 1.134-1.648 1.048a.987.987 0 0 1-.888-.88zm45.932-149.788-5.295 4.185-5.294 4.186v-16.742l5.294 4.186 5.295 4.185zm31.089 0-5.295 4.185-5.294 4.186v-16.742l5.294 4.186 5.295 4.185zm31.089 0-5.294 4.185-5.295 4.186v-16.742l5.295 4.186 5.294 4.185zm31.091 0-5.296 4.185-5.295 4.186v-16.742l5.295 4.186 5.296 4.185zm31.088 0-5.293 4.185-5.295 4.186v-16.742l5.295 4.186 5.293 4.185zM366.991 87.975l-5.295 4.185-5.296 4.185V79.603l5.296 4.186 5.295 4.186zm31.089 0-5.296 4.185-5.293 4.185V79.603l5.293 4.186 5.296 4.186zm31.089 0-5.294 4.185-5.295 4.185V79.603l5.295 4.186 5.294 4.186zm31.09 0-5.295 4.185-5.295 4.185V79.603l5.295 4.186 5.295 4.186zm31.089 0-5.295 4.185-5.294 4.185V79.603l5.294 4.186 5.295 4.186z" fill="#000" fill-opacity=".1"/><path d="m716.528 266.917-16.68 16.68-16.679-16.68-16.529 16.528 16.68 16.68-16.68 16.679 16.529 16.529 16.679-16.68 16.68 16.68 16.529-16.529-16.68-16.679 16.68-16.68-16.529-16.528z" stroke="#000" stroke-opacity=".1" stroke-width="2.118" stroke-miterlimit="10"/><path d="m147.189 548.52-16.199 14.048-14.048-16.2-16.054 13.921 14.048 16.2-16.2 14.049 13.921 16.054 16.2-14.049 14.048 16.201 16.054-13.923-14.048-16.2 16.2-14.047-13.922-16.054z" stroke="#000" stroke-opacity=".1" stroke-width="1.925" stroke-miterlimit="10"/><path d="m821.101 276.679 44.195-30.304m0 23.554 72.537-50.776M226.559 390.858l44.195-30.304m-.001 23.554 72.536-50.775m98.346 219.291 44.194-30.304m0 23.555 72.536-50.778m284.972 142.339 108.498-67.697" stroke="#000" stroke-opacity=".1" stroke-width="4" stroke-miterlimit="10" stroke-linecap="round"/><path d="M971.68 142.656a4.691 4.691 0 0 0-1.201-2.059c-.912-.837-2.035-1.366-3.299-1.366h-1.231a3.51 3.51 0 0 0-1.798.402 3.503 3.503 0 0 0-1.503.964 3.5 3.5 0 0 0-.964 1.502 3.523 3.523 0 0 0-.403 1.798l.167 1.242c.223.79.623 1.476 1.2 2.058.913.839 2.036 1.367 3.301 1.367h1.231a3.491 3.491 0 0 0 1.797-.403 3.467 3.467 0 0 0 1.502-.964 3.49 3.49 0 0 0 .965-1.501 3.542 3.542 0 0 0 .403-1.799l-.167-1.241zM780.103 474c-6.006 0-6.016 9.333 0 9.333 6.005 0 6.014-9.333 0-9.333zm184.614 152.614c-6.005 0-6.014 9.334 0 9.334 6.007 0 6.016-9.334 0-9.334zM335.54 410.128c-6.005 0-6.015 9.333 0 9.333 6.007 0 6.016-9.333 0-9.333zM187.848 324c-6.005 0-6.015 9.333 0 9.333 6.005 0 6.016-9.333 0-9.333zM525.9 627.872c-6.005 0-6.016 9.333 0 9.333 6.005 0 6.016-9.333 0-9.333zM33.026 26c-6.006 0-6.016 9.333 0 9.333 6.005 0 6.015-9.333 0-9.333zm261.087 65.51a3.485 3.485 0 0 0-.965-1.502 3.49 3.49 0 0 0-1.501-.965 3.508 3.508 0 0 0-1.799-.402l-1.24.167a4.65 4.65 0 0 0-2.059 1.2c-.838.913-1.368 2.035-1.368 3.3v1.23a3.516 3.516 0 0 0 .403 1.798c.188.579.509 1.08.965 1.501a3.5 3.5 0 0 0 1.502.967c.556.29 1.154.425 1.797.401l1.241-.166a4.658 4.658 0 0 0 2.059-1.202c.839-.912 1.367-2.034 1.367-3.298v-1.231a3.52 3.52 0 0 0-.402-1.799zm-59.241 480.951c-6.005 0-6.016 9.333 0 9.333 6.005 0 6.016-9.333 0-9.333zm-192 54.153c-6.006 0-6.016 9.334 0 9.334 6.005 0 6.016-9.334 0-9.334zm728.615-593.23c-6.006 0-6.015 9.333 0 9.333 6.005 0 6.016-9.333 0-9.333z" fill="#000" fill-opacity=".1"/></g><defs><clipPath id="a"><path fill="#fff" d="M0 0h1000v666.667H0z"/></clipPath></defs></svg>