<svg width="550" height="288" fill="none" xmlns="http://www.w3.org/2000/svg"><path d="M492.4 140.3s4.4-1.6 7.2 2.8c2.8 4.5 1.3 4 2.7 6.3 1.4 2.2 2 8.5 2.5 11.9 4.9 34.7-53.2 37.6-30.5-6.7 2-4.2 3.9-6.7 5.8-11.1 2-4.4 10-4.3 12.3-3.2z" fill="#FE6B6B"/><path d="m480 172.8-5.9-2s-2.3 2.9-3 10.3a52 52 0 0 0 0 11.8h6.6l2.3-20.1z" fill="#355389"/><path d="M491.7 168.8c-2 .2-16.8-1.2-17.6 2a77.6 77.6 0 0 0 3.2 41.7c1.6 1.5 27-3.6 27-3.6s4-41.8-12.6-40.1z" fill="#466EB6"/><path d="M511.9 151.5s-1.6-.8-3.1-3.6c-1-1.7-3.8-4-2.6-4.3 1.1-.4 3 2.6 3.3 1.7.3-.8-3-7.3-2-7.6 1-.3 3.9 6 4.2 5.2.3-.8-2.9-6.3-1.4-6.8 1.6-.4 3.2 6.8 4 6.5.8-.2-.4-5.7.8-6 1.3-.5 1 6.7 1.5 6.5.3-.1 1.3-3.6 2-3.3.7.3-1.3 7.4-.4 9 1 1.6 8 21.1 5.6 23.6a53 53 0 0 1-23.2 7.7c-3.5-1-5.5-4.5-4.7-6.7.9-2.2 17.6-7 17.9-7.7.3-.7-2-14.2-2-14.2z" fill="#F7A491"/><path d="M513.2 145.3c.6 0 1 0 1.5.3.1 0 1.7.5 2.4 2.3a7 7 0 0 0-3.9-2.6z" fill="#F48C7F"/><path d="M282.6 275.4c-.3-2 .3-5.4 1.9-10.9-3.1 0-5.8-1.3-9-1.3l-2.2 13.5-.1 6.6 22.2.2s-.2 0-6.7-4c-.5-.4-5.9-2.1-6.1-4z" fill="#F7A491"/><path d="M273 285h23c.9 0 1-.8.8-1.2-.6-.9-5.1-3-8.1-4.4-5.3.6-14.6-1.6-15.4-2.8-1.5 4-.7 8.3-.2 8.4z" fill="#357E84"/><path d="M254.8 275.4c-.2-2-.7-4.5 0-11.2-3.2 0-6.1-.6-9.3-.6v19.7l22.2.2s-.2 0-6.8-4c-.4-.4-5.8-2.1-6-4z" fill="#F7A491"/><path d="M245.3 285h23c.9 0 1-.8.8-1.2-.6-.9-5.1-3-8.1-4.4-5.3.6-14.6-1.6-15.4-2.8-1.5 4-.7 8.3-.3 8.4z" fill="#357E84"/><path d="m271 83.5 8.4-8.9s9 5 19.4 9.7c2.8-5 7.5-21.5 7.8-22.2.2-.8-5.5-10.7-4.2-11 1.3-.2 3 5.3 4.3 4.8 1.3-.6 4.8-13.4 5.7-12.7 1.5 1.3-1.9 8-1 8.5.7.4 2.8-7.4 4.3-7 1.6.3-2.6 7-2.1 7.7.4.7 4.8-5.7 5.7-4.2.5.8-4 5.5-3.1 6 1 .6 5-2.4 5.5-1.4s-3.8 2-5 4.4c-1.2 2.5-3.4 3.4-4 8.1-.8 4.6-2.8 29.5-7.8 31.5-4.5 1.8-33.9-13.3-33.9-13.3z" fill="#FFD3AC"/><path d="m276.4 131-6.8 3.8-13.8 21.1 24.7 58s-2.8 8.8-3.7 13.1c-1 4.6-3.3 43.7-3.3 43.7l10.6.2s10-41.7 11.7-55.2c2-16.4-10.5-55.6-10.5-55.6-2.3-8-7.4-24.4-7.4-24.4l-1.5-4.7z" fill="#414698"/><path d="M252.8 123.1s.7 5-2.1 10.6c-1.7 3.5-4.7 6.2-6.8 10.4-4 8-6.2 19.4-4.7 26.7 0 0 8.3 31.6 8 43.1-.1 4.3-1.6 12-2.5 17.1-.9 4.6-.6 38.6-.6 38.6l11.2.2 9-55.8 3.8-49.5 8.3-33.5-23.6-7.9z" fill="#466EB6"/><path d="M279 49.4c-1.2-5.1-2.3-10.2-7.4-14-4.1-3-8.5-3.8-13.2-2-13.3 4.8-6.2 15.3-22.7 26.5-5.1 3.5-7 4.8-10.7 9.4-5.2 6.5-8 15.3-5.4 22.5 5.3 14.9 22 19.2 30.6 16a60.2 60.2 0 0 0 30.5-32c1-6-1-23-1.8-26.4z" fill="#13375B"/><path d="M280.2 89c3.7 1.7 10.5 4.3 10.5 4.3l3.8-12.2c-21.8-12.4-20-10.4-36.4-10.1-13.1.2-18.6-2.3-29.9 28 0 0 8.6 3.9 11.7 5.1 1.3-3.7 3.7-11.2 5-7 2.2 6.5 3.7 13 4.8 19.7.6 4 2 9 1.3 13.1 0 0 8.9 1.9 15.7 2.2 3.3-.1 6.7-.4 9.7-1 0 0 1.3-28.2 2-29.4.9-1.3 4.2-5.5 1.3-11.8-.5-1.1-.3-1.3.5-.9z" fill="#357E84"/><path d="M260.1 58.4s-1 8.4-1.6 11.4c-.7 3-1.6 12.6 4.7 14.2 6.3 1.5 4.4-10.5 4.5-13.6 0-3 1.9-14 1.9-14l-9.5 2z" fill="#FFD3AC"/><path d="m259.8 61.1.2.1c3.5 2 6.5 1.7 8.8.2l.8-4.9-9.5 2-.3 2.6z" fill="#F47458"/><path d="M262 36.6s-3.7 1-5.8 4.7C254 45 253 55.5 260.8 60c8 4.5 13.5-2.8 13.3-9.5-.3-6.8-2.2-15.7-12-14z" fill="#FFD3AC"/><path d="M275.8 47.7c.1 1.7-.6 3.2-1.7 3.2-1 .1-1.9-1.3-2-3 0-1.8.7-3.3 1.7-3.3s2 1.3 2 3z" fill="#FFD3AC"/><path d="M263.1 36.3s-4.2 11-8.4 12.2c-4.1 1.2-3.8 6.6-3.8 6.6s-.5-12.5 3.3-15.6c3.8-3.1 9-3.2 9-3.2z" fill="#13375B"/><path d="M256.5 50.7c.7 1.7.2 3.5-1 3.9-1 .4-2.5-.6-3.2-2.3-.6-1.8-.2-3.5 1-4 1.1-.4 2.6.7 3.2 2.4zm7.3 87.3c.1 0 .8-.2 1.4-.1h1.5l.9-.4c.2-.2.6-.2.9-.3l.8-.5c.7-.3 1.3-.4 1.5 0a20 20 0 0 1-3.7 2.6c-3.6 0-7.3 1.9-15.6-3.5-4.7-2-27.7-13.4-28.2-16-.3-1.3 3.3-12 6.2-20.2l9.6 4.2c-2.5 5.1-5.3 12-5 12.8 0 .2.3.6 15.9 10.8l1.2.7c1 .8 2.2 1.5 3.5 2.3l4.4-.4s7 .5 7.3 1.3c0 .3-.5.5-1.2.6h-.4l-1.8.2-1 .5c4.3 1.8 4 1.2 5.5 1.1h1c.6 0 1.1-.3 1.6-.4a2 2 0 0 1 1.3.4c.1.2-.1.4-.7.7-3.4 1.4-6.2.9-7 1-.7.2.4.4 2.1.3h1.6l1-.5 1-.1c.4 0 1-.4 1.3-.4 1.1-.1 1.6 0 1.8.2.2.2-4.9 2.2-4.9 2.2l-4.3.5s-.4.2.5.3z" fill="#FFD3AC"/><path d="M548.4 285H1.6c-.9 0-1.6.7-1.6 1.5s.7 1.5 1.6 1.5h546.8c.9 0 1.6-.7 1.6-1.5s-.7-1.5-1.6-1.5z" fill="#184655"/><path d="M31.8 174s-2.4 29-2.4 31.5 10 3.3 10 3.3l3-29.8-10.6-5z" fill="#466EB6"/><path d="M46.7 167s-6.5-3.5-11.9-.3c-5.3 3.2-6.8 21.9-6.8 21.9l17.2 2 1.5-23.6z" fill="#86B1F2"/><path d="M86.3 262.4s-3.2 13.4-5.7 15.5c-2.4 2-10.4 6-8.3 6.5 2 .4 17.5.8 17-1.8-.3-2.6-.8-4.2-.8-4.2l4.1-9.5-6.3-6.5z" fill="#F47458"/><path d="M71.2 285c3.8.3 14.8.7 18 .3 0 0 .6-.1.2-2.7l-.3-1.7c-3 .8-9.2-.9-11.8-1.2-2.7 1.3-5.8 3.3-6.7 3.4-1.5.3-1.5 1.6.6 1.8z" fill="#13375B"/><path d="m122.4 273.6.3 4.9c0 1.5-1.4 5.7-.7 6.3.6.7 19 .6 19 0s-3.2-2.5-7.7-3.7c-4.4-1.3-5.9-6.2-4.7-9l-6.2 1.5z" fill="#F47458"/><path d="M141.3 284.8c0-.6-3-2.3-7-3.5-4 1.4-9.9.3-12-.2-.7 1.8-1 3.4-.6 3.8.7.6 19.6.5 19.6 0z" fill="#13375B"/><path d="m102.4 217-3.3 3-4 10.7c-.2 1-12.3 39.7-12.3 39.7l8.4 3s8.3-16.2 9.7-21.8c1.4-5.6 15.2-29.1 15.2-29.1l-13.7-5.4zm14.6 6 4 51.4h9.3s3.3-38.5 2.2-52l-15.5.6z" fill="#86B1F2"/><path d="M67.2 187.2s2.8 13.8 5.3 16.3c1.4 1.4 5.2 7.1 8.2 7.1 2.3 0 3.7.2 4.1.2 1 0 0 5.6-1 6.5 0 0-.2.8-2 .8-1.7 0-10.8-6.2-13.5-9a88 88 0 0 1-8-17.7l6.9-4.2z" fill="#F7A491"/><path d="M112.5 170s-3.6 4-8.3 11c-4.7 7-16.7 26.5-18 27.8l-1.3.9s-1.7-.4-2.6 0c-.9.3-2 2-1.6 2.4.4.5 2-1 2.5-1s.6 0 .6.3-2 1.4-2.6 1.6c-.6.1-2.1 2.4-1.8 3.2.3.8.2 1 1 1 .7 0 .8.6 1.4.6.6 0 .8-.7 1.5-.4.7.3.9.2 3-1.1s6.1-6.1 8.1-8.1 20.4-22 20.4-22l-2.3-16.3z" fill="#F47458"/><path d="M120.3 139.2s-4.4-1.6-7.2 2.8c-2.9 4.5-1.3 4-2.7 6.3-1.4 2.2-5 1.7-5 5.2 0 3.4 1.6 4 1.6 4s-1.4 2.6.2 5.4c1.6 2.7 5.6 5 9 4.7 0 0 5 2.8 10 1.5 5-1.3 3.3-1.3 5.4-1.3 2 0 7.6-2.9 6.7-7 0 0 3.4-4 .1-7.3s-3.9-6.7-5.8-11.1c-2-4.5-10-4.3-12.3-3.2z" fill="#184655"/><path d="M58 168.4c.6.2 3.3 2 4.8 5 1.6 3 5.7 15.5 5.7 15.5l-6.8 2.5-3.7-23z" fill="#59C8FF"/><path d="M24 271.1s-1 4-1.9 4.8c-.9 1-3.8 4.3-3 6 .6 1.7 18.4 4.1 19 3.4.8-.6-3-3.5-5.1-5.2-2.1-1.8-3.7-4-2.8-6.5l1-2.6c0-.3-7.1.1-7.1.1z" fill="#F7A491"/><path d="M38.2 285.3c.8-.6-1.7-3.3-5.3-5.3-1.5 0-3.6-.1-5.3-.6-2.7-.6-4.7-3-5.3-3.7 0 0-4.4 4.2-3.5 6.2.7 1.7 17.8 4.7 19.4 3.4z" fill="#355389"/><path d="M53.6 273s.3 4-.4 5.1c-.6 1-3 5.2-1.7 6.5 1.2 1.2 17.5.4 18-.4s-2.3-3.2-4.7-4.4c-2.5-1.3-4.4-3-4.1-5.8l.3-2.7c0-.3-7.4 1.7-7.4 1.7z" fill="#F7A491"/><path d="M71.5 284.9c.9-.6-2.9-4-6.9-5.2-1.4.3-3.4.7-5.2.6-2.8 0-5.3-1.8-6-2.4 0 0-3.8 5.4-2.1 6.8 1.3 1 19 1 20.2.2z" fill="#355389"/><path d="m54.8 215.8-10.5 30.4-12.1 28.2-10.1-2.6s3.6-19.5 7-25.6c2.7-4.7 4.5-31.3 4.5-31.3l21.2.9z" fill="#FFB300"/><path d="m49.7 220.9 3.7 53.5H62s3.7-56 2.4-61.4c-1.4-5.3-15.8-4.1-15.8-4.1l1.1 12z" fill="#F70"/><path d="M58 168.4s-11.1-3.4-12.8-3.1c-1.9.2-6.4 2.6-6.4 2.6s.2 19.2-.6 24.7c-.8 5.4-6.4 22.9-6.4 22.9s8 4.5 21.2 3c13.4-1.4 12.4-4.6 12.4-4.6S64.2 194.6 63 186c-1.2-8.5-5-17.7-5-17.7z" fill="#4580FF"/><path d="M133.3 171.3s-6-1.5-12.7-2c-3.4-.1-8.1.6-8.1.6s-4.2 9.5-5.5 17.3c-1.3 7.8-8.2 32.8-8.2 32.8s14 10.8 34.5 3.7v-52.4z" fill="#F7A491"/><path d="M117.4 162.8s.1 6-.4 6.6c-.6.6-1.4 1.6-.6 3 .9 1.5 4.5.5 6.2-.3a8 8 0 0 0 2.7-2.3l-.8-9.6-7.1 2.6z" fill="#F47458"/><path d="M119.8 165.3a8.5 8.5 0 0 0 4.8-3.8l-.1-1.3-7.1 2.6v3c1 0 1.8-.3 2.4-.5z" fill="#B75742"/><path d="M21.2 141.4s-.5 2.7 2.3 3.6c2.8 1 4.6-9 6.2-11 1.6-1.9 6.5-2.4 9 1.5 1.4 2.2 1.8 3.1 2 3.5l-.1.3-.8 1.5s-2.4-1.5-3.4 1.2c-.9 2.7 1.9 7.1-.5 10.8-2.3 3.7-6.6 1.1-6.6 1.1-3.6 2.4-7.7-1.2-9-4.7-1.3-3.5 1-7.8 1-7.8z" fill="#F7CC7F"/><path d="m49.1 155.1-.3 4-3.6 6.2s7 8.5 9.2 6.5c.5-.5 1.7-9.5 1.7-9.5l-7-7.2z" fill="#F7A491"/><path d="m48.8 159.1-.8 1.4c2.2 2 5 3.7 7.7 4.7l.4-3-7-7-.3 4z" fill="#F48C7F"/><path d="M56.4 142s1.9 1.7 2.5 2.7c4.1 5.6.8 16.8-1.3 17.7-3.2 1.5-7.4-.4-12.1-3.6-4.8-3.2-6.3-8.4-2-13 4.4-4.4 12.9-3.8 12.9-3.8z" fill="#F7A491"/><path d="m40.7 141 1.3-1.2c5 0 9-3 14.7 0 3.8 2 2.2 4.9 2.2 4.9-13.8 0-8.8 10.9-10.5 15.2-1.7 4.3-12.3-5-7.7-18.9z" fill="#F7CC7F"/><path d="M50.4 153.3s-.2-3.6-2.4-2.9c-2.2.7-.5 6.1 1.4 6 1.8-.3 1-3.1 1-3.1z" fill="#F7A491"/><path d="M125.7 153.3s.2-3.6 2.4-2.9c2.2.7.5 6.1-1.3 6-1.8-.2-1-3.1-1-3.1z" fill="#F47458"/><path d="M40.4 138.3s2 1.3 2.9 1.2c.8-.1-1.3 2.6-2.4 2.9-1.2.3-.8-.8-1-1.2-.2-.3-1.1 0-1.3-.3-.5-.7.8-2.5 1.8-2.6z" fill="#50BFA5"/><path d="M79.3 217s1.9-3 2.5-3c.7-.2-.1 2-.1 2.4 0 .4 1.1-3 1.8-3 .6 0 .7.4.4 1.3-.2.8-.8 2-.6 2 .3 0 1.2-3.9 1.6-3.4.5.5.3 3.6-.6 4.5-.9 1-3.5.4-5-.7z" fill="#F7A491"/><path d="M108.2 187.4c.3-.4 1.3-1.7 2.9-1.2 1.3.5 1.9 2 2.3 2.6-.1-.7-.4-1.8 0-3 .7-3.4 4.9-3.1 4.8 0 0 1.2-.5 2-1.1 3.3.2-.3 1-1.2 2-1.7 3.1-1.6 4.7 2.2 2.6 4.2-1.1 1-2.5 1.1-3.4 1.2.7.2 1.2.3 2 .8 3.7 2.4-1.6 8.9-4.4 2.6 0 .9.3 2 0 3.2-1 3.4-5.6 2.8-4.8-1 .3-1.2 1-2.5 1.1-2.6-.5.6-1.3 1.6-2.5 2-3 1.2-4.4-3-1.7-4.8 1.3-.8 2.5-.7 3-.8-1.1-.3-2-.6-2.8-1.4-1-1.2-.4-2.3-.4-2.5l.4-1zm5.4 6.6c.8.4 1.7-.2 2.1-1 .6-1 .2-2-.5-2.4-.9-.4-1.8 0-2.3 1-.5 1-.1 2 .7 2.4z" fill="#F7CC7F"/><path d="M118.8 141.6s-3.4 0-5.2 2.6c-1.8 2.7-3.7 10.3-.8 15.6 3 5.3 6.7 4 8.2 3.4 1.5-.5 4.5-1.7 6-6.6 1.6-5 .5-16-8.2-15z" fill="#F47458"/><path d="M40.5 167s2.5-.4 4.7 7.7c2.4 9.2-.2 18.7-4.2 21.1-4 2.4-5.7 2-5.7 2l.6 5.6s11.9-2.7 13.5-12.8c2.7-16.6-5.1-25.1-5.1-25.1l-2 .4a16 16 0 0 0-1.8 1.1z" fill="#466EB6"/><path d="M34.4 186.2V198c0 2 2.4 16 5.3 20.8 2.9 4.8 6.8 10.2 7.7 10.5.8.3 2.5 1.4 3.5.5.9-1 1.6-.5 2.8-1 1.1-.5-.2-2.1-1.8-3.8-1.6-1.6-2-2-1.7-2.2.3-.3 1.6 1.2 2.3 1 .7-.2-.4-2.6-2.2-3.5-1.8-.8-4.7-2.5-5-3.4l-.3-.8c0-.3-2-14.1-2-16.9 0-2.7-.8-11.5-.8-11.5l-7.8-1.5z" fill="#F7A491"/><path d="M39.8 167.4c-1 .2-3.8 1.2-4.8 4.6-1 3.3-3.6 12.9-3.2 17.5a92 92 0 0 0 11.2 1c0-.4 2.4-12.4 1.2-17.6-1-4.6-2.5-5.7-4.4-5.5z" fill="#59C8FF"/><path d="m56.2 167.9 7.8 27.8-1-9.6a94 94 0 0 0-5-17.7l-1.8-.5z" fill="#466EB6"/><path d="M101.5 224H123v-29.4l-21.5 1.1v28.4z" fill="#357E84"/><path d="M101.5 193.4H122c.6 0 1 .6 1 1.2s-.4 1.1-1 1.1h-20.5c1.5-.6 1.4-1.6 0-2.3z" fill="#3C8F7C"/><path d="M102.1 193.8h19.2c.4 0 .7.3.7.8 0 .4-.3.8-.7.8h-19.2c.7-.5.7-1.1 0-1.6z" fill="#FAE0B2"/><path d="M133.3 171.3s-1.6 1.6-3.4 7.7c-1.7 6.1-2.6 20.4-4 22a52.3 52.3 0 0 1-13 9c-1.8-.4-5.8-5-7-5-1.2 0-1 1.2-.4 1.8.6.6 1.3 1.3 1 1.7l-.4.3s-5.5-1.4-6.4-.9c-.9.6.9 1.8.9 2.7 0 1-.2 1-.1 2s.3 1.8.8 2.2c.5.5 6.5 2.3 12.4 1.5 6-.8 13.1-3.7 18.4-10.2 5.3-6.6 4.3-27.3 4.2-29.3-.4-5.3-3-5.5-3-5.5z" fill="#F47458"/><path d="m427.4 59.3 4.5-1 1-4.4 5.2-.7-.4-5.2 5.8-1 .2-4.7 5.4-1.9.7 2-4 1.4-.3 5-5.5 1 .3 5.3-5.6.7-1 4.4-4.2.8v3h-2.2l.1-4.7z" fill="#50BFA5"/><path d="m402 96.4 2.6-4.9-2.5-5a.8.8 0 0 1 .8-1l5.5 1 4-4a.8.8 0 0 1 1.2.5l.7 5.5 5 2.6c.5.3.5 1 0 1.3l-5 2.4-1 5.5c0 .6-.8.9-1.3.4l-3.8-4-5.5.8c-.6.1-1-.5-.8-1.1z" fill="#F47458"/><path d="m43 80.8 3.3-4.4-1.8-5.3a.8.8 0 0 1 1-1l5.2 1.8 4.4-3.4a.8.8 0 0 1 1.3.6v5.6l4.5 3.1c.5.4.4 1.2-.2 1.4l-5.3 1.7-1.6 5.3c-.1.6-1 .7-1.3.2L49.2 82l-5.5.2c-.7 0-1-.7-.7-1.3zm104.1-34.9a5.6 5.6 0 1 1 11.2-.8 5.6 5.6 0 0 1-11.2.8zm9.5 15.7c-.3-1.6-.5-3.3-1-4.9-.6-1.3-2.7-1-2.5.5 0 1.8.6 3.6 1 5.3.2.7 1 1 1.7.8.8-.2 1-1 .8-1.7zm9.6-6.9c-1.9-1-3.5-2.4-5.2-3.7-1.3-1-2.8.7-1.7 2 1.6 1.6 3.7 3 5.7 4.2.6.3 1.5 0 1.8-.7.4-.7 0-1.4-.6-1.8zm-3.5-10c-.4.3-.5.8-.3 1.3.7 1.1 2.3 1 3.4 1 1.2 0 2.4-.2 3.5-.6 1.6-.6.7-3.1-1-2.6-3.2 1.1-4.4 0-5.6 1zM161 33.8c-1.7 2.4-3 3.2-2.8 4.5 0 .8.7 1.2 1.4 1 .9-.2 1.4-1.1 1.9-1.8l1.4-1.9c.5-.6.5-1.4 0-1.9-.6-.4-1.6-.5-2 .1zm-6.4-.4c-.6-1.4-.7-2-1.3-2.6-.6-.6-1.9-.2-2 .6 0 1 .2 1.4.7 3 .3.6 1 1 1.7.8.7-.3 1.1-1 .9-1.8zm-6.9 3.6c-2.3-1.9-2.8-2.4-3.7-2.3-.6 0-1.2.6-1 1.2.2 1.1.8 1.4 3 3 .5.4 1.3.5 1.8-.1.5-.5.5-1.4 0-1.9zm-9.4 8c-1 .6-.6 2.2.4 2.3 1 .1 1.4 0 6-.9.7-.1 1.3-.6 1.3-1.4 0-.7-.7-1.4-1.5-1.3-4.8.9-5.3.9-6.2 1.4zm7.3 7.7c-2.6 2.5-3 2-4 3.6-.4.6.3 1.7 1.1 1.6 1-.2 1.4-.4 2.7-1.4a31 31 0 0 0 2.2-2c.6-.5.4-1.5 0-2-.7-.4-1.5-.3-2 .2z" fill="#F7CC7F"/><path d="m103.4 47.1 4.5-3-1.8-3.5 4.3-3-1.2-3.7 3-2.7L111 30l-3.9 3.6 1.1 3.5-4.4 3.2 1.7 3.4-4 2.7 2 .6z" fill="#86B1F2"/><path d="m458.1 74.9-5.2-1.2-1.3 3.7-5.2-1-1.9 3.3-4-.2V81l5.3.3 1.8-3.2 5.4 1 1.3-3.6 4.7 1.1-.9-1.8z" fill="#F7CC7F"/><path d="M97 76.4s1.6-1.8 4.5-1.6c2.5.3 4 2.5 3.9 4.8-.3 2.7-3 5.7-9.5 8-5.9-3.5-8-7-7.7-9.6a4.3 4.3 0 0 1 4.7-4c2.9.3 4.1 2.4 4.1 2.4zm-21-1c2.4.7 4.3 1 6.3 1.4.7 0 1.7.4 2.3 0 .3-.3.3-.7.1-1-.4-.6-1.4-.6-2-.6a67 67 0 0 1-6.5-1.3c-.4-.1-.9.2-1 .6 0 .5.3.8.7 1zm32.4 10.1 2.9.4c.9.2 2 .5 2.8.3.7-.1 1-1 .3-1.3-.9-.4-2-.4-2.9-.6l-2.8-.4c-1-.1-1.3 1.4-.3 1.6zm-25.6 3.7c1.5-1.8 3-2.2 4.3-2.8.7-.3.5-1.2-.3-1.2-2 0-4 1.5-5.2 3-.6.8.6 1.8 1.2 1zM93 96c.2-1 .5-2 1-2.9.3-.5 1.6-1.9.6-2.4-1-.4-1.9 1.2-2.2 2-.5.9-.8 1.9-1 3 0 1 1.5 1.2 1.7.2zm9-4.9 1.5 1.4c.4.5.8 1.1 1.6 1.1.4 0 .6-.4.6-.7 0-.7-.8-1.2-1.2-1.6l-1.4-1.4c-.3-.3-1-.2-1.2.1-.3.4-.2.8.1 1.1zM91.3 69.6c-1.2-5.2-1.2-5.2-1.5-5.7-.4-.5-1.2-.3-1.3.3 0 .6 0 .5 1.3 6 .1.4.7.6 1 .4.5-.1.7-.6.5-1zm8.7 1.2c.5-.7.8-1.5 1.1-2.4.3-.7.7-1.9 0-2.6h-.5c-.8.3-.8 1.4-1 2.1l-1 2.3c-.2.4 0 .9.4 1 .4.2.8 0 1-.4zm12.2 2.7c.2-.4 0-.7-.4-1-.6-.3-1.5.2-2.1.5-.7.2-1.4.6-2 1-.4.2-.5.8-.2 1.1.3.4.7.4 1.1.2 2.5-1.4 3.1-1 3.6-1.8z" fill="#F48C7F"/><path d="m178.4 76.9-3.3 7.5-8.4-.1V82l7 .1 3.4-7.8 9.4 1.7 1.6-5.4 2 .8-2 7.1-9.7-1.7z" fill="#F7CC7F"/><path d="M224.3 22c-.6 4.5 4.2 8.1 8.4 7.8 4.7-.3 8.6-4.1 9.3-8.7.8-5-2.2-8.9-6.8-9.3a5.8 5.8 0 0 0-6.1 7.7c1 2.9 3.6 4 4.9 3.2 1-.7 1-2.2-.3-2.5-.5-.1-1 .2-1.3.6-1-.5-2.1-2.5-1.4-4.6.9-2.8 4.4-3 6.5-1.7 2.8 1.7 3.2 5.2 2.2 8-1 3-4 5.3-7 5.5a6.6 6.6 0 0 1-7-6c-.2-.9-1.3-.9-1.4 0zm157 46.3c-.4-4.6-5.8-7-9.9-5.8-4.5 1.3-7.5 5.9-7.1 10.5.4 5 4.1 8.2 8.7 7.6a5.7 5.7 0 0 0 4.2-8.9c-1.5-2.6-4.3-3-5.4-2-1 .9-.5 2.4.8 2.4.5 0 1-.4 1.1-.9 1.2.2 2.6 2 2.4 4.2-.3 2.9-3.6 3.8-6 3-3-1-4.3-4.3-3.9-7.2.4-3.1 2.7-6 5.7-7 3.4-1 7.1 1 8.2 4.4.2.8 1.3.5 1.2-.3z" fill="#86B1F2"/><path d="m409 272.1.5 5v.8l-.3.7-.2.3 2.6 3.6 10.5.2c.3 0-1.3-2.5-1.3-2.5s-3.4-2.6-4-4.4c-.7-1.8.5-5.5.5-5.5L409 272zm-49.6-25.6-4.2 2.8-.6.4-.3.7-.2.3-4.4.3-6.6-8.2c-.2-.2 1.8.3 1.8.3s4.2.6 6 0c1.7-.7 5.4-4.3 5.4-4.3l3.1 7.7z" fill="#F7A491"/><path d="M392.8 206.4 353.3 240l6 8.6s40.6-25.2 42.8-25.5c2-.3 3.8.7 4.2 2.2.4 1.6 1.4 48 1.4 48h10.6l5.5-58.4-31-8.5z" fill="#357E84"/><path d="M449.6 158.4c3-1.9 9.8-9.2 12.1-11.7 0-.3.3-2 2.2-4.2 1.3-1.5 2.3-5 3.1-4 1 1-1.2 3.7-.3 3.8 1 0 6-5.5 6.7-4.6.8.9-4.2 5.8-3.3 5.8.9 0 5-5 6-3.7 1.1 1.3-5.3 5.4-4.7 6 .6.7 4.6-2 5.5-1 .9 1-5.6 3.5-5 3.5.4 0 4.2 0 4.2.6 0 .8-9.5 2.1-10.6 3.5-2.5 4-6.9 11.2-11.4 14.3-5.4 3.9-18 12-18 12l-6.3-8s16.4-10 19.8-12.3z" fill="#F7A491"/><path d="M466.7 144c.3.5.4 1 .4 1.5 0 .1.2 1.8-1.2 3 .6-1 1.2-2.1.8-4.5z" fill="#F48C7F"/><path d="M391.8 149.6c-2.4-2.6-7-11.5-8.6-14.5 0-.3.2-2-1-4.6-.9-1.8-1-5.5-2-4.7-1.1.7.2 4-.7 3.7-1-.2-4.3-6.8-5.2-6.2-1 .7 2.5 6.7 1.6 6.5-.8-.2-3.4-6-4.8-5.1-1.4 1 3.7 6.6 2.9 7-.7.6-3.9-3-5-2.3-1.1.7 4.5 4.7 4 4.6-.5-.1-4-1.2-4.3-.5-.2.8 8.6 4.5 9.3 6.1 1.4 4.5 3.8 12.6 7.2 16.8a806 806 0 0 0 14.3 16.4l8.2-6.2-16-17z" fill="#F7A491"/><path d="M379 131.2c-.3.4-.6.9-.7 1.4 0 0-.7 1.6.3 3.2-.2-1.1-.5-2.4.4-4.6z" fill="#F48C7F"/><path d="M409.2 168a6 6 0 0 1 5.4-2.6c6.2.4 19 1.4 20.2 2.6 1.6 1.6 6.4 12.1 1.8 26.8-4.6 14.7-7.1 13.1-10.9 13.1-3.7 0-21.4-8.3-21.4-8.3l4.9-31.6z" fill="#355389"/><path d="m398.4 155.6-7.4 9.6 9.2 13.6s-1 10-2.2 13.2c-1.3 3.2-9 16.1-9 16.1s18.6 11.4 36.7 9.7c0 0 5.1-26.2 6.5-28.7 1.5-2.6 15.3-15 15.3-15l-6.7-11-11.6 6.5s-21.2-3.4-22.2-4.4l-8.6-9.6z" fill="#FE4C4C"/><path d="M422.3 136s-7.2-3.9-9.6 2.4c0 0-6.4-.6-5.3 6 0 0-6.5 3.3-2.4 11.6 0 0-1.8 7.9 7.4 8.4 0 0 1.4 2.8 5.6 2.1 4.2-.6 5.3-1.7 5.3-1.7s7.4 2.2 9.7-4.6c0 0 5.1-1.2 1.7-7.8 0 0 4.5-8.5-3.4-11 0 0-1-8.8-9-5.5z" fill="#AD3D3D"/><path d="M425.2 154.4c-.6 1.6-.2 3.2 1 3.6 1 .4 2.4-.6 3-2.2.5-1.6.1-3.3-1-3.6-1-.4-2.4.6-3 2.2zm-19.3-4c-.1 1.7.8 3.2 2 3.2 1.1 0 2.1-1.3 2.2-3 0-1.7-.8-3.2-2-3.2-1.1 0-2.1 1.3-2.2 3zm8.1 11.4-1.4 6.2c-.1.8.3 1.6 1 2 2 .8 5.8 2 8.5-.3.2-.3.4-.6.4-.9l-.4-9.5-8 2.5z" fill="#F7A491"/><path d="M413.6 164c2 1 4.7 1.1 7.6-.6l1-.7v-3.4l-8.1 2.5-.5 2.2z" fill="#F48C7F"/><path d="M419.8 139.8s3.5 1 5.6 4.4c2 3.4 3.2 13.3-4.2 17.6-7.4 4.3-12.8-2.4-12.6-8.7.1-6.3 3-14.5 11.2-13.3z" fill="#F7A491"/><path d="M407.7 165.5c-3.4 2.6-7 15.8-8.3 19.2l-1 6.3 13.8-24.4s-3.7-1.7-4.5-1.1zm16.8 3.3s-.4 16.3.8 21.9c1.3 5.5 4.5 7.5 4.5 7.5l1.6-6.5s-1.6-14.3-2.2-22c0-1.3-4.7-.9-4.7-.9z" fill="#466EB6"/><path d="M407.2 285.1c-1.6-.2 1.1-5.6 2-6.5l11.6 1.6s5.5 2.6 6.8 3.9c.4.3.4.8-1 1-4.3.7-16 .5-19.4 0zm-56.9-28.9c1.4.8 3.8-4.5 4-5.8l-9.4-7.3s-7.2-2-8.6-.6c-1.3 1.3 11 11.8 14 13.7z" fill="#13375B"/><path d="m211.2 41.4-6.7 8.6 14.4 2.5-7.7-11.1z" fill="#96D9C9"/><path d="M299.6.2 316.3 23l11-12L299.6.2z" fill="#466EB6"/><path d="m328.8 4.7-1.5 6.3L299.6.2l29.2 4.5zm-1.5 8.7L299.6.2 325.3 23l2-9.6z" fill="#9BC1F9"/><path d="M325.9 24.7zm18.2 16c-.2 0-5-.5-11.2-4.3a19.4 19.4 0 0 1-8.5-11.7.7.7 0 0 1 1.5 0c0 .7 2 6.8 7.8 10.4a27.5 27.5 0 0 0 10.5 4.2.7.7 0 1 1-.1 1.4zm30.2 6.8c-8.6-1.7-16.8-5-24.5-9.5-6.3-3.7-11.4-9.4-17.8-12.6a.7.7 0 1 1 .7-1.3c6.6 3.3 11.7 9 17.9 12.6a76.2 76.2 0 0 0 24 9.3c3.1.6 6.8.9 11 .7a.7.7 0 1 1 0 1.5c-3.7.1-7.6 0-11.3-.7z" fill="#F7CC7F"/><path d="M172.7 168.2c.4 0 3.2 4.5 5 11.5 1.7 7 5.5 19.8 5.5 19.8s6 12.2 7.7 13.9c1.7 1.6 3.2 0 5 .4l2 1.6s2.8 6.1 2.4 6.5c-.4.5-4.8 1.6-7.9.6-3-1-17.3-17.6-17.3-17.6s-11.6-36-2.4-36.7z" fill="#F48C7F"/><path d="m228.3 173.7-1.4-1.4s-2.5 4.5-5.4 11c-2.9 6.4-6.4 14.3-7.6 15.5-1.1 1.2-11.1 14.9-14.2 16.2-3 1.4-2 .8-4.5.5-1.8-.2-1.6 1-.4 1.7l1.4.8c1.4 1 2.7 2.5 3.6 3.3.3.3-.4 1-.8.5-.4-.4-1.9-2.6-2.5-2.6-.6 0-.2 1.5 0 2 .3.5-.2.3-.7-.9-.6-1.2-1-2.4-1.7-2.2-.6.1-.2 1.8 0 2.4-.2-.6-.7-2.1-1.2-2.1s-.8 0-.8 1.2a4 4 0 0 0 1.7 3.3c1.4 1 5 .4 6.6-.2 1-.5 2-2.1 3-2.7 4.7-2.5 9.5-5.5 15.4-13.4 7.2-9.6 10-18.2 10-18.2l-.5-14.7zM225.6 283s-.7-3.2 0-7.1c.8-3.9 5-23.8 5-27.9 0-4.1 2-10.2 2-10.2l-12.2-3-1.3 11.8s-.6 27.7-1.7 28.8a17.5 17.5 0 0 1-7.3 2.7c-1.6 0-4.2.1-4.2 1 0 .8.2 1.3.2 1.3l19.5 2.6zm14.5-47 1.5 10.3s3.6 30 2.8 30.8c-.8.8-4.6 3.3-6.3 3.5-1.7.1-4.2 1.3-4.2 2.2 0 1.9 19.4.4 19.4.4s.6-1.4 0-3.4-.6-5-.6-5.4v-1.8s2.4-14.2-.1-23.3l-.9-17.5-11.6 4.3z" fill="#F4C0B8"/><path d="M159.6 136s-4.4 0-7.5 1.8c-3.1 1.7-4 5.9-4 9.1 0 4.2 1.3 8.4 3.9 11.7 2.6 3.3 7.2 4.8 7.2 4.8l13-8.3s1.5-3.8.5-9c-1.1-5.2-.8-10.8-13-10z" fill="#184655"/><path d="M181.5 269.7s4.3 6.2 4.6 7l2.4 6.4 16.4-8-12.5-3.8-2.6-5.5-8.3 3.9z" fill="#F48C7F"/><path d="m160 226.1 13.3 28 8.9 17.7s7.8-3 9.8-5l-6.4-22.2-7.2-25.8-15.2-1.4-3.3 8.7z" fill="#355389"/><path d="m147.3 272.5.6 4.4c0 .3-1 4.3-1.1 5.4-.2 1 0 1.9 0 1.9l15.6-3.8s-2.3-1.5-4.4-2.6c-2-1.2-2.4-6.6-2.4-6.6l-8.3 1.3z" fill="#F48C7F"/><path d="M145 218.8s2.7 16.8 2.4 22.4c-.6 8-2.7 11.2-1.2 32.3h10.9s.8-11.4 2.4-20.1c1.7-8.8 5.4-23.6 5.4-23.6l6-13.6-25.8 2.6z" fill="#355389"/><path d="M151.4 155.7c.5 1.6 1.8 2.7 3 2.3 1-.3 1.5-2 1-3.6s-1.9-2.7-3-2.3c-1 .3-1.6 2-1 3.6zm18.4-3.5c.2 1.7 1.2 3 2.4 3 1.1-.2 2-1.6 1.8-3.4-.1-1.7-1.2-3-2.3-2.9-1.2.1-2 1.6-1.9 3.3z" fill="#F48C7F"/><path d="M329.3 157.4c2.4-2.6 7.6-13.7 9.4-16.8 0-.3-.2-2.1 1.2-4.8 1-2 1.2-5.8 2.2-5 1 .9-.4 4.3.5 4 1-.1 4.6-7 5.6-6.2 1 .8-2.9 7-2 6.8.8-.2 3.7-6.3 5-5.2 1.4 1.1-4 6.8-3.2 7.4.7.6 4-3.1 5-2.3 1.2 1-4.7 4.9-4.1 4.8.5-.1 4-1 4.3-.3.2.8-8.8 4.2-9.7 6-1.6 4.7-4.4 13.2-8 17.5L317.7 183l-5.4-10.2s14-12.3 16.9-15.5z" fill="#6B4744"/><path d="M343 136.7c.3.4.5 1 .7 1.5 0 0 .6 1.8-.6 3.5.3-1.2.7-2.6-.1-5z" fill="#4B2F2D"/><path d="M146.1 171.2s1.3 32.6 0 38.7c-1.3 6-1.8 10-1.8 10s17.4 3.4 34.2-1.1c0 0-2.6-11.4-3.7-23.2-1.2-11.8-2-27.4-2-27.4s-6.4-.5-11.3 0c-11.1 1-15.4 3-15.4 3z" fill="#FAE0B2"/><path d="m156.5 160-.5 8.8s.8 5 5.7 5.2c4.9.3 3.4-10.2 3.4-10.2l-.2-3.9h-8.4z" fill="#F48C7F"/><path d="M165 166.6h.3c0-1.6-.2-2.8-.2-2.8l-.2-3.9h-8.4l-.1 1.4c1 1.7 4.1 5.3 8.6 5.3z" fill="#F27A6A"/><path d="M147 279s.7-.6 2.7-.4c2 .1 12 1.3 12.5 1.3.4 0 6.2 4.3 6.4 5.1.3.8-12.4.3-12.4.3h-9.7s-.9-2.9.6-6.3zm40-.2s-.6.4-.6.9c0 .3.6 2.8 1.3 4.5.4 1 1.6 1.4 2.6.9l17.4-9.6s1.3-1.1-7-1.6l-13.7 4.9z" fill="#357E84"/><path d="M146.1 171.2s-2.5 1.1-4 4.5c-1.4 3.3-6 18.6-3 27.7 0 0 1.5 6.9 8.8 11.6 7.2 4.8 20 5.9 20.6 5.2.7-.7.8-2 .8-2.8 0-.8 1.6-1.2 1.6-2.3 0-1-2.8-1.3-6-1.3 0 0-.6 0 .1-.5.7-.6 1.6-1.2 1.5-2.3-.2-1-.8-1-1.5-.3-.6.6-2.6 2.3-4.3 1.8a60.8 60.8 0 0 1-13-11s.7-29.7-1.6-30.3z" fill="#F48C7F"/><path d="M227 172.3s5.2-2.9 10.7-3.6c5.6-.6 13.6 1.5 13.6 1.5l4.6 66.3s-20.7 9.8-36.2 0c0 0 4.2-27.8 4.2-31.7v-4l3-28.5z" fill="#FFB300"/><path d="M205.9 279.6c-.6 0-1 .3-1.3.8-.2.6-.1 1.2.3 1.6a88 88 0 0 0 20.2 3c.6 0 1.3-1.5.5-2-1.2-.7-16-3-19.7-3.4z" fill="#13375B"/><path d="m210.1 278.1 1.2 2.4 2.6.8s-1.2-4.4-2.3-4.2c-1 .2-1.5 1-1.5 1zM234 283c-.6 0-1 .3-1.2.8 0 .4-.1.8.2 1 .6.7 21.1.3 21.1.3s.5-1.5-.4-1.9c-.6-.2-16.2-.2-19.8-.2z" fill="#13375B"/><path d="M240.1 279.7c-.1-.3-1.6 0-2 .9l1.8 2.6h2.2l-2-3.5z" fill="#13375B"/><path d="M285.9 266.4s-.8 7.2-2.2 10.3c-1.3 3.2-5.8 5.2-9.7 6-3.9.7-2.6 1.3-2 1.9.6.6 17.5 1 20.5.4 0 0-1.2-5.9-1.2-6.8 0-1 4.7-15.4 4.7-15.4l-10.1 3.6z" fill="#6B4744"/><path d="m292.5 285-.5-2.6c-3.3.4-10.7-.3-14.5-.8-1.1.5-2.5.6-3.7.8-3.9.8-3.6 1.8-2.6 2.5.7.5 18.3.6 21.3.1z" fill="#F47458"/><path d="M319.2 264.7s-.5 8.9.5 12c1 3.3 2.3 3.9 6.2 5 3.7 1 2.3 2.7 1.7 3.2-.5.6-13.7.6-16.7.1 0 0 1.2-5.9 1.2-6.8l-1.4-15.8 8.5 2.3z" fill="#6B4744"/><path d="m311 285 .4-2.6c3.3.4 10.7-.3 14.5-.8l3.5 1c3.7 1.4 3.4 1.8 2.8 2.3-.6.6-18.3.6-21.3.1z" fill="#F47458"/><path d="M251.3 170.2s-4.5 5.3-2.2 14a86 86 0 0 0 14.7 30.8c1.1 1.3 3.7 4 4.8 4.7 1.2.8 6 1.3 6 1.3s2.2-6.6 1.5-7.2c-.6-.6-5.7-.6-7.1-2-1.4-1.4-15-41.6-17.7-41.6z" fill="#F4C0B8"/><path d="M294.6 170s-1.3.9-2.2 3.2c-1 2.4-5.7 21.9-6.4 24.7-.5 2.2-5.4 8.6-7.8 11.7-.7 1-1.2 1.7-1.6 1.7-2 0-5.6 1.2-5.6 2 0 .9.9 1 2.2.7 1.4-.3.4 1.2-.1 1.7s-2.6 3.3-1.9 4c.8.8 2.6 1.3 3.4 1.3.5 0 1.4 0 3-1.4 1.5-1.2 3.6-3.6 5.2-5 5.5-4.9 10-15.2 10.9-17.6.8-2.4.9-27 .9-27z" fill="#6B4744"/><path d="M276.8 216.2s.6 0 .6 1.2c0 1.1-1 2.8-1.6 3.5-.7.7-6.7-1-6.7-1s2.2.1 3-.8c.3-.4.9-2.4 1.5-2.4.7 0 0 2.6 0 2.6s1.2-3.4 1.8-3.4c.6 0 .7.6.4 1.7-.3 1 .7-1.7 1-1.4z" fill="#F4C0B8"/><path d="M281.7 267.1s9 2.4 19.1 2.4c10.2 0 30.1-5.1 30.1-5.1s-5.5-13.3-7.4-23.5c-1.9-10.2-3.2-27.8-3.2-27.8H290l-2 12.2-6.3 41.8z" fill="#466EB6"/><path d="M294.6 170s-2 2.4-2 9.5c0 7-.3 17.7-1 21.4-.5 3.7-2.2 12.8-2.2 12.8s5 4.2 18.1 3c13.1-1.1 13.8-2.9 13.8-2.9s-1.8-29.5-1.8-32.6c0-3.1-2.9-12-2.9-12s-7.5-.8-11-.6c-3.4.3-11 1.5-11 1.5z" fill="#FAE0B2"/><path d="M288.6 142.2s-5.5 1.5-5 7.2c.4 5.2 3 5 3 5s-2 7.3 3.7 9.4c5.4 2 7.4 0 7.4 0s2.3 6.2 10.2 3.8c8-2.4 7.2-7.2 7.2-7.2s3.4 1.4 7.3-4.8c4-6.2 1.7-10.7-3.5-13.4 0 0 1.7-8-6.2-9.2-7.8-1.2-9.8 3-9.8 3s-1.4-4.8-9.8-1.4c-5.5 2.2-4.5 7.6-4.5 7.6z" fill="#13375B"/><path d="M310.4 154c-.5 1.6-.1 3.2 1 3.6 1 .4 2.4-.6 3-2.2.6-1.6.2-3.3-1-3.6-1-.4-2.4.6-3 2.2zm-17.9 1.6c.3 1.7 1.4 3 2.6 2.7 1.1-.1 1.8-1.7 1.6-3.4-.3-1.7-1.5-2.9-2.6-2.7-1.2.2-1.9 1.7-1.6 3.4zm9.5 7.4.2 6.7s.2 2.6 2.9 3c2.7.3 5.2-1.8 5.2-3.9l-1.3-9.4-7 3.6z" fill="#6B4744"/><path d="m309 159.4-7 3.6v2.4c1.3 0 3.2 0 4.7-1a6 6 0 0 0 2.6-3l-.3-2z" fill="#4B2F2D"/><path d="M194.8 215.3s1.7 1.1 2.7.9c1-.3.5-.8 0-1.3-.4-.5-1.7-1-1.7-1l-1 1.4zm-33.9-74.6c-2.8.4-4.8 2.4-6.3 4.8-3 4.8-.5 11.8.3 13.4.8 1.6 4 5.7 8.7 5.7 4.8 0 8.1-4.3 8.5-8.6.6-5.7-1-12.7-6.4-14.7-1.4-.6-3.2-.8-4.8-.6z" fill="#F48C7F"/><path d="M237.6 140.9s-2.4-.1-5 1.1c-2.7 1.3-5.4 7-5.4 12 0 3-1.4 4.3-2.5 4.9a1 1 0 0 0-.3 1.5c1 1.1 2.2 2.4 3.5 3.2 5.2 3 10.4 3.1 16.2 2 4.7-.8 9.1-2.9 12.5-6.3.6-.7.4-1.8-.4-2.2-1-.6-2.4-1.8-2.9-4.6-.9-5-2.8-14-15.7-11.6z" fill="#13375B"/><path d="M244.6 154.8c-.4 1.7.2 3.3 1.4 3.5 1.1.3 2.3-.9 2.7-2.6.4-1.7-.2-3.2-1.4-3.5-1.1-.2-2.3 1-2.7 2.6zm-16.8-2.2c0 1.7.9 3 2 3 1.2 0 2.2-1.3 2.2-3 0-1.8-1-3.2-2.1-3.2-1.2 0-2.1 1.4-2.1 3.2zm7.1 11-.6 8s.3 1.7 2.4 2c2.2.5 6.7-2.7 6.7-4.4l-1-9-7.5 3.4z" fill="#F4C0B8"/><path d="M234.6 167.5c3.4.2 6.1-1.4 8.1-4.1l-.3-3.3-7.5 3.5-.3 3.9z" fill="#F7A491"/><path d="M229.6 156.6c.6 3 1.4 8 6 8.6 4.6.5 8-2 10.2-6.4 2.2-4.5 1.7-10.4.5-13.3-1-2.4-5.1-2.2-7.1-2.2-6.8.1-10.7 6.8-9.6 13.3z" fill="#F4C0B8"/><path d="M236.4 142.4s-.1 3.7 3 6.8c3.1 3.2 9.4 4.8 9.4 4.8l.8 1.8s1-5.6-1.4-9.4c-2.4-3.7-11.8-4-11.8-4z" fill="#13375B"/><path d="M305.5 141.4s3.4.9 5.4 4.3c2 3.3 3.2 13-3.7 17-7 4.2-11.6-2.4-12-8.6-.6-7.2 2.5-14 10.3-12.7z" fill="#6B4744"/><path d="M526.3 263.5s3.3 13.4 5.8 15.5c2.4 2 10.4 6 8.3 6.5-2 .5-17.5.8-17.1-1.8.4-2.5.9-4.2.9-4.2L520 270l6.2-6.5z" fill="#F79C8D"/><path d="M541.4 286c-3.7.4-14.7.8-18 .4 0 0-.5 0-.1-2.7 0-.6.2-1.2.3-1.7 2.9.8 9.2-.8 11.7-1.2 2.8 1.3 5.8 3.3 6.8 3.4 1.5.3 1.5 1.7-.7 1.9z" fill="#13375B"/><path d="m490.3 274.7-.3 4.9c0 1.5 1.4 5.7.7 6.3-.6.7-19 .6-19 0s3.2-2.5 7.6-3.7c4.5-1.3 6-6.2 4.8-9l6.2 1.5z" fill="#F79C8D"/><path d="M471.4 286c0-.6 3-2.4 6.9-3.6 4.2 1.4 10 .3 12.1-.1.7 1.7.9 3.3.6 3.7-.7.6-19.6.5-19.6 0z" fill="#13375B"/><path d="m510.3 218.2 3.3 2.9 4 10.7c.2 1 12.3 39.7 12.3 39.7l-8.4 3s-8.3-16.2-9.7-21.8c-1.4-5.6-15.2-29.1-15.2-29.1l13.7-5.4zm-14.6 5.9-4 51.4h-9.3s-3.3-38.4-2.2-52l15.5.6z" fill="#FAE0B2"/><path d="M479.4 172.4s6-1.5 12.6-1.9c3.5-.2 8.2.5 8.2.5s4.2 9.6 5.5 17.4a564 564 0 0 0 8.2 32.8s-14 10.7-34.5 3.6v-52.4z" fill="#357E84"/><path d="M495.3 163.9s-.2 6 .4 6.7c.6.5 1.4 1.5.5 3-.8 1.4-4.4.5-6.2-.4-1.6-.8-2.6-2.3-2.6-2.3l.8-9.6 7.1 2.6z" fill="#F79C8D"/><path d="M492.9 166.4a8.5 8.5 0 0 1-4.8-3.7l.1-1.4 7.1 2.6v3c-1 0-1.8-.3-2.4-.5z" fill="#B75742"/><path d="M487 154.4s-.2-3.6-2.4-2.9c-2.2.7-.5 6.1 1.3 6 1.8-.2 1-3 1-3z" fill="#F79C8D"/><path d="M493.9 142.7s3.4 0 5.2 2.6c1.7 2.7 3.7 10.3.7 15.6-2.9 5.3-6.6 4-8.1 3.5-1.5-.6-4.6-1.8-6-6.7-1.6-5-.5-16 8.2-15z" fill="#F79C8D"/><path d="M480 172.3c1.6 3.5 5.5 11.1 5.3 19.5-.2 8.8-6.8 14.6-6.8 14.6v4.3s7.3-1.1 10.1-12.5-4-26.9-4-26.9-.9-.6-2.8-.1c-1.2.3-1.7 1-1.7 1zm16.1-1.8s5.5 29.5 12.7 31.5l-1.3-5s-7.3-24-7.3-26c0-1.9-4-.5-4-.5z" fill="#355389"/><path d="M511 221h-21.3v-24.2l21.3 1V221z" fill="#4580FF"/><path d="M511 195.8h-20.4a1 1 0 1 0 0 2H511c-1.4-.6-1.4-1.4 0-2z" fill="#B75742"/><path d="M510.4 196.1h-19c-.4 0-.7.3-.7.7 0 .3.3.6.6.6h19.1c-.6-.4-.6-.9 0-1.3z" fill="#FAE0B2"/><path d="M501.7 196.2h-1.4c-.3 0-.5.3-.5.6h1.9v-.6z" fill="#13375B"/><path d="M500.4 196.2c.3 0 .8.3 1 .7l3.2 3.9h2l-3.1-3.8c-.4-.4-1-.8-1.4-.8h-1.7z" fill="#355389"/><path d="M479.4 172.4s1.6 1.6 3.3 7.7c1.8 6.2 2.6 20.5 4.1 22a52.4 52.4 0 0 0 13 9c1.8-.3 5.7-5 7-5 1.2 0 1 1.2.4 1.8-.6.6-1.3 1.3-1 1.7l.4.3s5.4-1.4 6.4-.9c.9.6-1 1.8-1 2.8 0 .9.3.9.2 1.9-.1 1-.4 1.8-.8 2.3-.5.4-6.5 2.2-12.4 1.4-6-.8-13.1-3.7-18.4-10.2-5.4-6.6-4.3-27.3-4.2-29.3.3-5.2 3-5.5 3-5.5z" fill="#F79C8D"/><path d="M475.6 105.4A10.4 10.4 0 1 0 495 98a10.4 10.4 0 0 0-19.4 7.4z" fill="#F7CC7F"/><path d="M491 101.3a5.5 5.5 0 1 1-10.3 4l10.4-4z" fill="#EFEFEF"/></svg>