<svg width="30" height="30" viewBox="0 0 30 30" fill="none" xmlns="http://www.w3.org/2000/svg"><path d="M28.804 12.056 17.718 1.15A3.989 3.989 0 0 0 14.878 0a3.978 3.978 0 0 0-2.822 1.196L1.15 12.282A3.98 3.98 0 0 0 0 15.122a3.978 3.978 0 0 0 1.196 2.822L12.282 28.85A3.976 3.976 0 0 0 15.09 30h.034a3.978 3.978 0 0 0 2.821-1.196l10.908-11.086A3.974 3.974 0 0 0 30 14.878a3.98 3.98 0 0 0-1.197-2.822zM13.93 8.214a1.07 1.07 0 1 1 2.143 0v8.571a1.07 1.07 0 1 1-2.143 0V8.214zM15 22.856A1.428 1.428 0 1 1 15 20a1.428 1.428 0 0 1 0 2.856z" fill="#FE4C4C"/></svg>