<svg width="91" height="91" viewBox="0 0 91 91" fill="none" xmlns="http://www.w3.org/2000/svg">
<path d="M80.5 0.5H10.5C5 0.5 0.5 5 0.5 10.5V80.5C0.5 86 5 90.5 10.5 90.5H80.5C86 90.5 90.5 86 90.5 80.5V10.5C90.5 5 86 0.5 80.5 0.5ZM38.5 57.315H26.825L24.555 65.5H15.5L28.745 25.5H36.575L49.91 65.5H40.77L38.5 57.315ZM28.69 50.58H36.61L32.65 36.32L28.69 50.58ZM59.605 35.5L59.84 38.715C61.7 36.39 64.135 35.5 67.145 35.5C72.56 35.5 75.345 38.805 75.5 45.965V65.5H67.23V46.545C67.23 44.86 66.965 43.635 66.43 42.875C65.895 42.115 64.96 41.735 63.62 41.735C62.125 41.735 60.96 42.46 60.125 43.905V65.5H51.855V35.5H59.605Z" fill="#C60D0D"/>
</svg>
