<svg width="90" height="91" viewBox="0 0 90 91" fill="none" xmlns="http://www.w3.org/2000/svg">
<path d="M46.1462 0.50115C42.4634 0.512992 39.9103 0.837457 36.8244 1.37034C27.7109 2.95714 26.0507 6.28942 26.0507 12.4306V21.8164H47.3659V26.5531H25.2407H14.9383C8.69532 26.5531 3.23151 29.4946 1.50024 36.5452C-0.456026 44.6379 -0.543655 49.7062 1.50024 58.1565C3.05152 64.4587 6.46906 69.1836 12.7144 69.1836H21.3163V57.0955C21.3163 50.0709 27.6777 43.1316 34.9676 43.1316H52.105C58.0804 43.1316 63.9468 38.7218 63.9468 32.7653V12.4306C63.9468 6.65415 59.7809 2.33426 53.9571 1.3656C54.1016 1.35139 49.7982 0.48694 46.1462 0.50115ZM34.3423 9.97459C36.2867 9.97459 37.8949 11.578 37.8949 13.5319C37.8949 15.5047 36.2867 17.0797 34.3423 17.0797C32.36 17.0797 30.7898 15.5071 30.7898 13.5319C30.7898 11.5851 32.36 9.97459 34.3423 9.97459Z" fill="#0277BD"/>
<path d="M43.8513 90.4988C47.5341 90.487 50.0872 90.1625 53.1732 89.6296C62.2866 88.0428 63.9468 84.7105 63.9468 78.5694V69.1836H42.6316V64.4468H64.7592H75.0616C81.3046 64.4468 86.7684 61.5053 88.4996 54.4547C90.4559 46.362 90.5435 41.2937 88.4996 32.8434C86.946 26.5412 83.5285 21.8163 77.2831 21.8163H68.6812V33.9045C68.6812 40.929 62.3198 47.8683 55.03 47.8683H37.8925C31.9171 47.8683 26.0507 52.2782 26.0507 58.2346V78.5694C26.0507 84.3458 30.2167 88.6657 36.0405 89.6344C35.896 89.6486 40.1993 90.513 43.8513 90.4988ZM55.6576 81.0254C53.7132 81.0254 52.105 79.422 52.105 77.4681C52.105 75.4953 53.7132 73.9203 55.6576 73.9203C57.6399 73.9203 59.2101 75.4929 59.2101 77.4681C59.2101 79.4149 57.6375 81.0254 55.6576 81.0254Z" fill="#FFC107"/>
</svg>
