<svg width="60" height="55" viewBox="0 0 60 55" fill="none" xmlns="http://www.w3.org/2000/svg">
<path d="M46.5 36.4978C42.3645 36.4978 39 33.1333 39 28.9978C39 24.8623 42.3645 21.4978 46.5 21.4978C50.6355 21.4978 54 24.8623 54 28.9978C54 33.1333 50.6355 36.4978 46.5 36.4978ZM46.5 54.5008C38.8035 54.5008 33 50.5963 33 45.4213V44.0772C33 41.5512 35.0535 39.4978 37.578 39.4978H55.422C57.9465 39.4978 60 41.5512 60 44.0772V45.4213C60 50.5963 54.1965 54.5008 46.5 54.5008ZM30 15.4992C25.8645 15.4992 22.5 12.1347 22.5 7.99925C22.5 3.86375 25.8645 0.499249 30 0.499249C34.1355 0.499249 37.5 3.86375 37.5 7.99925C37.5 12.1347 34.1355 15.4992 30 15.4992ZM13.5 36.4978C9.3645 36.4978 6 33.1333 6 28.9978C6 24.8623 9.3645 21.4978 13.5 21.4978C17.6355 21.4978 21 24.8623 21 28.9978C21 33.1333 17.6355 36.4978 13.5 36.4978ZM13.5 54.5008C5.8035 54.5008 0 50.5963 0 45.4213V44.0772C0 41.5512 2.0535 39.4978 4.578 39.4978H22.422C24.9465 39.4978 27 41.5512 27 44.0772V45.4213C27 50.5963 21.1965 54.5008 13.5 54.5008ZM41.8575 19.5942C41.061 18.9207 40.0455 18.4993 38.922 18.4993H21.078C19.956 18.4993 18.939 18.9207 18.1425 19.5942C21.606 21.3117 24 24.8758 24 28.9978C24 30.1978 23.7885 31.3453 23.415 32.4208C25.341 33.1123 27.576 33.5008 30 33.5008C32.424 33.5008 34.659 33.1123 36.585 32.4208C36.2115 31.3453 36 30.1978 36 28.9978C36 24.8758 38.394 21.3117 41.8575 19.5942Z" fill="white"/>
</svg>
