<svg width="50" height="51" viewBox="0 0 50 51" fill="none" xmlns="http://www.w3.org/2000/svg">
<path d="M47.1227 0.501103C47.0202 0.50447 46.918 0.513514 46.8166 0.528193H36.0808C35.7132 0.522994 35.3483 0.590906 35.0071 0.727981C34.666 0.865055 34.3556 1.06856 34.0938 1.32667C33.832 1.58477 33.6241 1.89234 33.4822 2.23148C33.3404 2.57062 33.2673 2.93458 33.2673 3.30221C33.2673 3.66984 33.3404 4.0338 33.4822 4.37294C33.6241 4.71208 33.832 5.01965 34.0938 5.27775C34.3556 5.53586 34.666 5.73936 35.0071 5.87644C35.3483 6.01351 35.7132 6.08143 36.0808 6.07623H40.4802L33.5452 13.0113H29.1458C28.6668 13.0113 28.196 13.1353 27.7792 13.3712C27.3624 13.6072 27.0138 13.947 26.7673 14.3576L23.4135 19.9463H18.0497C17.5707 19.9463 17.1 20.0703 16.6832 20.3063C16.2663 20.5422 15.9177 20.882 15.6712 21.2927L12.3175 26.8814H6.95364C6.47468 26.8814 6.00389 27.0054 5.58708 27.2413C5.17028 27.4773 4.82165 27.8171 4.57513 28.2277L0.414109 35.1628C0.221046 35.4753 0.0919609 35.823 0.0343432 36.1858C-0.0232745 36.5485 -0.00827782 36.9191 0.078463 37.2761C0.165204 37.633 0.321962 37.9691 0.539642 38.265C0.757322 38.5609 1.03159 38.8106 1.34653 38.9996C1.66148 39.1887 2.01082 39.3133 2.37431 39.3662C2.73779 39.4192 3.10817 39.3994 3.46396 39.3081C3.81975 39.2168 4.15386 39.0558 4.44692 38.8343C4.73997 38.6129 4.98613 38.3354 5.17111 38.0181L8.52486 32.4294H13.8887C14.3676 32.4294 14.8384 32.3054 15.2552 32.0694C15.672 31.8335 16.0207 31.4937 16.2672 31.083L19.6209 25.4943H24.9847C25.4637 25.4943 25.9345 25.3703 26.3513 25.1344C26.7681 24.8984 27.1167 24.5586 27.3632 24.148L30.717 18.5593H34.6938C35.4295 18.5592 36.135 18.2668 36.6551 17.7466L44.4029 9.99886V14.3983C44.3977 14.7659 44.4656 15.1308 44.6026 15.4719C44.7397 15.8131 44.9432 16.1235 45.2013 16.3853C45.4594 16.6471 45.767 16.855 46.1061 16.9969C46.4453 17.1387 46.8092 17.2118 47.1769 17.2118C47.5445 17.2118 47.9085 17.1387 48.2476 16.9969C48.5868 16.855 48.8943 16.6471 49.1524 16.3853C49.4105 16.1235 49.614 15.8131 49.7511 15.4719C49.8882 15.1308 49.9561 14.7659 49.9509 14.3983V3.64084C50.004 3.24248 49.9699 2.83734 49.851 2.45346C49.7321 2.06957 49.5312 1.7161 49.2622 1.41751C48.9933 1.11891 48.6626 0.882309 48.2932 0.72408C47.9238 0.565852 47.5244 0.489772 47.1227 0.501103ZM47.1362 21.2954C46.401 21.3062 45.7001 21.6084 45.1876 22.1357C44.675 22.6629 44.3928 23.3721 44.4029 24.1073V47.6865C44.3977 48.0541 44.4656 48.419 44.6026 48.7601C44.7397 49.1013 44.9432 49.4117 45.2013 49.6735C45.4594 49.9353 45.767 50.1432 46.1061 50.2851C46.4453 50.4269 46.8092 50.5 47.1769 50.5C47.5445 50.5 47.9085 50.4269 48.2476 50.2851C48.5868 50.1432 48.8943 49.9353 49.1524 49.6735C49.4105 49.4117 49.614 49.1013 49.7511 48.7601C49.8882 48.419 49.9561 48.0541 49.9509 47.6865V24.1073C49.956 23.7364 49.8866 23.3683 49.7469 23.0246C49.6072 22.681 49.4001 22.3689 49.1376 22.1067C48.8752 21.8446 48.5629 21.6377 48.2191 21.4983C47.8754 21.359 47.5071 21.29 47.1362 21.2954ZM36.0402 24.0694C35.3049 24.0802 34.604 24.3824 34.0915 24.9097C33.579 25.4369 33.2967 26.1461 33.3068 26.8814V47.6865C33.3016 48.0541 33.3695 48.419 33.5066 48.7601C33.6437 49.1013 33.8472 49.4117 34.1053 49.6735C34.3634 49.9353 34.6709 50.1432 35.0101 50.2851C35.3492 50.4269 35.7132 50.5 36.0808 50.5C36.4484 50.5 36.8124 50.4269 37.1515 50.2851C37.4907 50.1432 37.7982 49.9353 38.0564 49.6735C38.3145 49.4117 38.518 49.1013 38.655 48.7601C38.7921 48.419 38.86 48.0541 38.8548 47.6865V26.8814C38.8599 26.5105 38.7905 26.1423 38.6509 25.7987C38.5112 25.455 38.304 25.1429 38.0416 24.8807C37.7792 24.6186 37.4668 24.4117 37.1231 24.2723C36.7793 24.133 36.4111 24.064 36.0402 24.0694ZM24.9441 29.6174C24.2089 29.6282 23.508 29.9304 22.9954 30.4577C22.4829 30.985 22.2007 31.6941 22.2107 32.4294V47.6865C22.2055 48.0541 22.2734 48.419 22.4105 48.7601C22.5476 49.1013 22.7511 49.4117 23.0092 49.6735C23.2673 49.9353 23.5749 50.1432 23.914 50.2851C24.2532 50.4269 24.6171 50.5 24.9847 50.5C25.3524 50.5 25.7163 50.4269 26.0555 50.2851C26.3946 50.1432 26.7022 49.9353 26.9603 49.6735C27.2184 49.4117 27.4219 49.1013 27.559 48.7601C27.6961 48.419 27.764 48.0541 27.7588 47.6865V32.4294C27.7638 32.0585 27.6945 31.6903 27.5548 31.3467C27.4151 31.0031 27.2079 30.6909 26.9455 30.4288C26.6831 30.1666 26.3708 29.9597 26.027 29.8204C25.6832 29.681 25.315 29.612 24.9441 29.6174ZM13.848 36.5525C13.1128 36.5633 12.4119 36.8655 11.8994 37.3927C11.3868 37.92 11.1046 38.6292 11.1147 39.3644V47.6865C11.1095 48.0541 11.1774 48.419 11.3144 48.7601C11.4515 49.1013 11.655 49.4117 11.9131 49.6735C12.1712 49.9353 12.4788 50.1432 12.8179 50.2851C13.1571 50.4269 13.5211 50.5 13.8887 50.5C14.2563 50.5 14.6203 50.4269 14.9594 50.2851C15.2986 50.1432 15.6061 49.9353 15.8642 49.6735C16.1223 49.4117 16.3258 49.1013 16.4629 48.7601C16.6 48.419 16.6679 48.0541 16.6627 47.6865V39.3644C16.6678 38.9935 16.5984 38.6254 16.4587 38.2817C16.319 37.9381 16.1119 37.626 15.8494 37.3638C15.587 37.1017 15.2747 36.8948 14.9309 36.7554C14.5872 36.6161 14.2189 36.5471 13.848 36.5525ZM2.75198 43.4875C2.01674 43.4983 1.31585 43.8005 0.803314 44.3278C0.290783 44.8551 0.00853678 45.5642 0.0185945 46.2995V47.6865C0.0133958 48.0541 0.0813074 48.419 0.218382 48.7601C0.355457 49.1013 0.55896 49.4117 0.817067 49.6735C1.07517 49.9353 1.38274 50.1432 1.72188 50.2851C2.06102 50.4269 2.42498 50.5 2.79261 50.5C3.16024 50.5 3.5242 50.4269 3.86334 50.2851C4.20249 50.1432 4.51005 49.9353 4.76816 49.6735C5.02626 49.4117 5.22977 49.1013 5.36684 48.7601C5.50391 48.419 5.57183 48.0541 5.56663 47.6865V46.2995C5.5717 45.9286 5.50234 45.5604 5.36266 45.2168C5.22297 44.8732 5.01579 44.561 4.75337 44.2989C4.49095 44.0367 4.17862 43.8298 3.83486 43.6905C3.49109 43.5511 3.12287 43.4821 2.75198 43.4875Z" fill="white"/>
</svg>
