<svg width="50" height="54" viewBox="0 0 50 54" fill="none" xmlns="http://www.w3.org/2000/svg">
<path d="M18.1251 0.108116C16.9647 0.108116 15.8519 0.569049 15.0315 1.38951C14.211 2.20998 13.7501 3.32277 13.7501 4.48308V10.733C13.7501 11.8933 14.211 13.0061 15.0315 13.8266C15.8519 14.6471 16.9647 15.108 18.1251 15.108H23.125V17.6007H15.1246C14.3911 17.6012 13.6695 17.7862 13.0261 18.1386C12.3828 18.4909 11.8384 18.9994 11.443 19.6172C10.6721 19.1475 9.74982 18.8506 8.75012 18.8506C7.23972 18.8506 5.8695 19.4846 5.00503 20.4571C4.14057 21.4296 3.75016 22.6527 3.75016 23.8506C3.75016 25.0485 4.14057 26.2716 5.00503 27.2441C5.22831 27.4953 5.56286 27.6463 5.84731 27.8472L4.0651 36.5092C3.18552 36.6645 2.32403 36.9677 1.60662 37.6054C0.634099 38.4699 0.000187513 39.8401 0.000187513 41.3505C-0.0033263 41.5989 0.0425755 41.8456 0.135226 42.0762C0.227876 42.3067 0.365426 42.5166 0.539883 42.6935C0.71434 42.8705 0.922225 43.011 1.15146 43.1069C1.38069 43.2028 1.62669 43.2522 1.87517 43.2522C2.12366 43.2522 2.36966 43.2028 2.59889 43.1069C2.82812 43.011 3.03601 42.8705 3.21046 42.6935C3.38492 42.5166 3.52247 42.3067 3.61512 42.0762C3.70777 41.8456 3.75367 41.5989 3.75016 41.3505C3.75016 40.7776 3.89749 40.5853 4.09684 40.4081C4.29618 40.2309 4.63557 40.1005 5.00015 40.1005C5.36473 40.1005 5.70412 40.2309 5.90346 40.4081C6.10281 40.5853 6.25014 40.7776 6.25014 41.3505C6.24663 41.5989 6.29253 41.8456 6.38518 42.0762C6.47783 42.3067 6.61538 42.5166 6.78984 42.6935C6.96429 42.8705 7.17218 43.011 7.40141 43.1069C7.63064 43.2028 7.87664 43.2522 8.12513 43.2522C8.37361 43.2522 8.61961 43.2028 8.84884 43.1069C9.07807 43.011 9.28596 42.8705 9.46042 42.6935C9.63487 42.5166 9.77242 42.3067 9.86507 42.0762C9.95772 41.8456 10.0036 41.5989 10.0001 41.3505C10.0001 39.8401 9.3662 38.4699 8.39368 37.6054C8.19776 37.4312 7.95831 37.3584 7.74427 37.2221L9.49963 28.6943C10.4954 28.5464 11.4072 28.1794 12.0997 27.6006L14.5655 36.851C14.8137 37.7834 15.3632 38.6075 16.1284 39.1952C16.8936 39.7829 17.8316 40.1012 18.7964 40.1005H31.2036C32.168 40.1007 33.1054 39.7821 33.8701 39.1945C34.6348 38.6068 35.1839 37.783 35.432 36.851L37.8979 27.5981C38.5906 28.1783 39.5034 28.5462 40.5004 28.6943L42.2557 37.2221C42.0417 37.3584 41.8022 37.4312 41.6063 37.6054C40.6338 38.4699 39.9999 39.8401 39.9999 41.3505C39.9964 41.5989 40.0423 41.8456 40.1349 42.0762C40.2276 42.3067 40.3651 42.5166 40.5396 42.6935C40.714 42.8705 40.9219 43.011 41.1511 43.1069C41.3804 43.2028 41.6264 43.2522 41.8749 43.2522C42.1234 43.2522 42.3694 43.2028 42.5986 43.1069C42.8278 43.011 43.0357 42.8705 43.2102 42.6935C43.3846 42.5166 43.5222 42.3067 43.6148 42.0762C43.7075 41.8456 43.7534 41.5989 43.7499 41.3505C43.7499 40.7776 43.8972 40.5853 44.0965 40.4081C44.2959 40.2309 44.6353 40.1005 44.9998 40.1005C45.3644 40.1005 45.7038 40.2309 45.9032 40.4081C46.1025 40.5853 46.2498 40.7776 46.2498 41.3505C46.2463 41.5989 46.2922 41.8456 46.3849 42.0762C46.4775 42.3067 46.6151 42.5166 46.7895 42.6935C46.964 42.8705 47.1719 43.011 47.4011 43.1069C47.6303 43.2028 47.8763 43.2522 48.1248 43.2522C48.3733 43.2522 48.6193 43.2028 48.8485 43.1069C49.0778 43.011 49.2857 42.8705 49.4601 42.6935C49.6346 42.5166 49.7721 42.3067 49.8648 42.0762C49.9574 41.8456 50.0033 41.5989 49.9998 41.3505C49.9998 39.8401 49.3659 38.4699 48.3934 37.6054C47.676 36.9677 46.8145 36.6645 45.9349 36.5092L44.1527 27.8472C44.4371 27.6463 44.7717 27.4953 44.995 27.2441C45.8594 26.2716 46.2498 25.0485 46.2498 23.8506C46.2498 22.6527 45.8594 21.4296 44.995 20.4571C44.1305 19.4846 42.7603 18.8506 41.2499 18.8506C40.2482 18.8506 39.3239 19.1482 38.5521 19.6197C38.4859 19.5133 38.415 19.4099 38.3397 19.3096C37.9333 18.7768 37.4091 18.3452 36.8081 18.0487C36.2071 17.7522 35.5456 17.5989 34.8754 17.6007H26.875V15.108H31.8749C33.0353 15.108 34.1481 14.6471 34.9685 13.8266C35.789 13.0061 36.2499 11.8933 36.2499 10.733V4.48308C36.2499 3.32277 35.789 2.20998 34.9685 1.38951C34.1481 0.569049 33.0353 0.108116 31.8749 0.108116H18.1251ZM21.1988 6.36051C21.367 6.3536 21.5348 6.38075 21.6923 6.44031C21.8498 6.49988 21.9936 6.59064 22.1151 6.70715C22.2366 6.82365 22.3333 6.96351 22.3995 7.11832C22.4656 7.27313 22.4998 7.43971 22.5 7.60806C22.5 7.93958 22.3683 8.25752 22.1339 8.49194C21.8995 8.72635 21.5815 8.85805 21.25 8.85805C20.927 8.85203 20.6189 8.7212 20.3903 8.49299C20.1616 8.26478 20.0302 7.95691 20.0236 7.63393C20.017 7.31095 20.1356 6.99795 20.3547 6.76054C20.5738 6.52314 20.8763 6.37978 21.1988 6.36051ZM28.6987 6.36051C28.8669 6.3536 29.0348 6.38075 29.1922 6.44031C29.3497 6.49988 29.4935 6.59064 29.615 6.70715C29.7366 6.82365 29.8333 6.96351 29.8994 7.11832C29.9656 7.27313 29.9998 7.43971 30 7.60806C30 7.93958 29.8683 8.25752 29.6339 8.49194C29.3994 8.72635 29.0815 8.85805 28.75 8.85805C28.427 8.85203 28.1189 8.7212 27.8902 8.49299C27.6616 8.26478 27.5302 7.95691 27.5235 7.63393C27.5169 7.31095 27.6356 6.99795 27.8547 6.76054C28.0737 6.52314 28.3762 6.37978 28.6987 6.36051ZM8.75012 22.6006C9.32303 22.6006 9.5153 22.748 9.6925 22.9473C9.86969 23.1466 10.0001 23.486 10.0001 23.8506C10.0001 24.2152 9.86969 24.5546 9.6925 24.7539C9.5153 24.9533 9.32303 25.1006 8.75012 25.1006C8.17721 25.1006 7.98494 24.9533 7.80775 24.7539C7.63055 24.5546 7.50013 24.2152 7.50013 23.8506C7.50013 23.486 7.63055 23.1466 7.80775 22.9473C7.98494 22.748 8.17721 22.6006 8.75012 22.6006ZM41.2499 22.6006C41.8228 22.6006 42.0151 22.748 42.1922 22.9473C42.3694 23.1466 42.4999 23.486 42.4999 23.8506C42.4999 24.2152 42.3694 24.5546 42.1922 24.7539C42.0151 24.9533 41.8228 25.1006 41.2499 25.1006C40.677 25.1006 40.4847 24.9533 40.3075 24.7539C40.1303 24.5546 39.9999 24.2152 39.9999 23.8506C39.9999 23.486 40.1303 23.1466 40.3075 22.9473C40.4847 22.748 40.677 22.6006 41.2499 22.6006ZM18.75 42.642V46.3919H21.25C21.5815 46.3919 21.8995 46.5236 22.1339 46.7581C22.3683 46.9925 22.5 47.3104 22.5 47.6419C22.5 47.9734 22.3683 48.2914 22.1339 48.5258C21.8995 48.7602 21.5815 48.8919 21.25 48.8919H18.75V49.5169C18.75 50.6772 19.211 51.79 20.0314 52.6105C20.8519 53.431 21.9647 53.8919 23.125 53.8919H26.875C28.0353 53.8919 29.1481 53.431 29.9686 52.6105C30.789 51.79 31.25 50.6772 31.25 49.5169V48.8919H28.75C28.4185 48.8919 28.1005 48.7602 27.8661 48.5258C27.6317 48.2914 27.5 47.9734 27.5 47.6419C27.5 47.3104 27.6317 46.9925 27.8661 46.7581C28.1005 46.5236 28.4185 46.3919 28.75 46.3919H31.25V42.642H18.75Z" fill="white"/>
</svg>
