<svg width="35" height="50" viewBox="0 0 35 50" fill="none" xmlns="http://www.w3.org/2000/svg">
<path d="M34.8482 17.3887C34.5544 16.6975 33.8757 16.25 33.1244 16.25H24.3669L32.2419 2.82375C32.5819 2.24375 32.5857 1.52625 32.2519 0.94375C31.9169 0.36 31.2969 0 30.6244 0H15.6244C14.9407 0 14.3107 0.3725 13.9819 0.97125L0.231933 25.9713C-0.0868166 26.5513 -0.0768169 27.2588 0.260683 27.8288C0.598183 28.4 1.21193 28.75 1.87443 28.75H10.3432L2.64068 47.41C2.29693 48.2438 2.59443 49.2038 3.34943 49.6963C3.66443 49.9 4.01943 50 4.37443 50C4.87068 50 5.36443 49.8025 5.72818 49.4225L34.4782 19.4225C34.9982 18.88 35.1444 18.08 34.8482 17.3887Z" fill="white"/>
</svg>
